ISO-10303-21;
HEADER;
/* Generated by software containing ST-Developer
 * from STEP Tools, Inc. (www.steptools.com) 
 */

FILE_DESCRIPTION(
/* description */ (''),
/* implementation_level */ '2;1');

FILE_NAME(
/* name */ 'back-cover-no-slots.step',
/* time_stamp */ '2026-09-01T18:10:28+05:30',
/* author */ (''),
/* organization */ (''),
/* preprocessor_version */ 'ST-DEVELOPER v20.1',
/* originating_system */ 'Autodesk Translation Framework v15.8.0.0',
/* authorisation */ '');

FILE_SCHEMA (('AUTOMOTIVE_DESIGN { 1 0 10303 214 3 1 1 }'));
ENDSEC;

DATA;
#10=MECHANICAL_DESIGN_GEOMETRIC_PRESENTATION_REPRESENTATION('',(#13),#1519);
#11=SHAPE_REPRESENTATION_RELATIONSHIP('SRR','None',#1526,#12);
#12=ADVANCED_BREP_SHAPE_REPRESENTATION('',(#14),#1518);
#13=STYLED_ITEM('',(#1535),#14);
#14=MANIFOLD_SOLID_BREP('Back Cover - No Solots',#931);
#15=CYLINDRICAL_SURFACE('',#962,4.50236170658601);
#16=CYLINDRICAL_SURFACE('',#967,4.50234327678967);
#17=CYLINDRICAL_SURFACE('',#972,4.50242318727164);
#18=CYLINDRICAL_SURFACE('',#977,4.50236153971899);
#19=CYLINDRICAL_SURFACE('',#986,5.50234327678967);
#20=CYLINDRICAL_SURFACE('',#991,5.50242318727165);
#21=CYLINDRICAL_SURFACE('',#996,5.50236153971899);
#22=CYLINDRICAL_SURFACE('',#1001,5.50236170658601);
#23=CIRCLE('',#950,4.50236170658601);
#24=CIRCLE('',#951,4.50234327678967);
#25=CIRCLE('',#952,4.50242318727164);
#26=CIRCLE('',#953,4.50236153971899);
#27=CIRCLE('',#963,4.50236170658601);
#28=CIRCLE('',#968,4.50234327678967);
#29=CIRCLE('',#973,4.50242318727164);
#30=CIRCLE('',#978,4.50236153971899);
#31=CIRCLE('',#982,5.50236170658601);
#32=CIRCLE('',#983,5.50234327678967);
#33=CIRCLE('',#984,5.50242318727165);
#34=CIRCLE('',#985,5.50236153971899);
#35=CIRCLE('',#987,5.50234327678967);
#36=CIRCLE('',#992,5.50242318727165);
#37=CIRCLE('',#997,5.50236153971899);
#38=CIRCLE('',#1002,5.50236170658601);
#39=FACE_OUTER_BOUND('',#85,.T.);
#40=FACE_OUTER_BOUND('',#86,.T.);
#41=FACE_OUTER_BOUND('',#87,.T.);
#42=FACE_OUTER_BOUND('',#88,.T.);
#43=FACE_OUTER_BOUND('',#89,.T.);
#44=FACE_OUTER_BOUND('',#90,.T.);
#45=FACE_OUTER_BOUND('',#91,.T.);
#46=FACE_OUTER_BOUND('',#92,.T.);
#47=FACE_OUTER_BOUND('',#93,.T.);
#48=FACE_OUTER_BOUND('',#94,.T.);
#49=FACE_OUTER_BOUND('',#95,.T.);
#50=FACE_OUTER_BOUND('',#96,.T.);
#51=FACE_OUTER_BOUND('',#97,.T.);
#52=FACE_OUTER_BOUND('',#98,.T.);
#53=FACE_OUTER_BOUND('',#99,.T.);
#54=FACE_OUTER_BOUND('',#100,.T.);
#55=FACE_OUTER_BOUND('',#101,.T.);
#56=FACE_OUTER_BOUND('',#102,.T.);
#57=FACE_OUTER_BOUND('',#103,.T.);
#58=FACE_OUTER_BOUND('',#104,.T.);
#59=FACE_OUTER_BOUND('',#105,.T.);
#60=FACE_OUTER_BOUND('',#106,.T.);
#61=FACE_OUTER_BOUND('',#107,.T.);
#62=FACE_OUTER_BOUND('',#108,.T.);
#63=FACE_OUTER_BOUND('',#109,.T.);
#64=FACE_OUTER_BOUND('',#110,.T.);
#65=FACE_OUTER_BOUND('',#111,.T.);
#66=FACE_OUTER_BOUND('',#112,.T.);
#67=FACE_OUTER_BOUND('',#113,.T.);
#68=FACE_OUTER_BOUND('',#114,.T.);
#69=FACE_OUTER_BOUND('',#115,.T.);
#70=FACE_OUTER_BOUND('',#116,.T.);
#71=FACE_OUTER_BOUND('',#117,.T.);
#72=FACE_OUTER_BOUND('',#118,.T.);
#73=FACE_OUTER_BOUND('',#119,.T.);
#74=FACE_OUTER_BOUND('',#120,.T.);
#75=FACE_OUTER_BOUND('',#121,.T.);
#76=FACE_OUTER_BOUND('',#122,.T.);
#77=FACE_OUTER_BOUND('',#123,.T.);
#78=FACE_OUTER_BOUND('',#124,.T.);
#79=FACE_OUTER_BOUND('',#125,.T.);
#80=FACE_OUTER_BOUND('',#126,.T.);
#81=FACE_OUTER_BOUND('',#127,.T.);
#82=FACE_OUTER_BOUND('',#128,.T.);
#83=FACE_OUTER_BOUND('',#129,.T.);
#84=FACE_OUTER_BOUND('',#130,.T.);
#85=EDGE_LOOP('',(#583,#584,#585,#586,#587,#588));
#86=EDGE_LOOP('',(#589,#590,#591,#592,#593,#594));
#87=EDGE_LOOP('',(#595,#596,#597,#598));
#88=EDGE_LOOP('',(#599,#600,#601,#602));
#89=EDGE_LOOP('',(#603,#604,#605,#606,#607,#608,#609,#610,#611,#612,#613,
#614,#615,#616,#617,#618,#619,#620,#621,#622,#623,#624,#625,#626));
#90=EDGE_LOOP('',(#627,#628,#629,#630,#631,#632));
#91=EDGE_LOOP('',(#633,#634,#635,#636,#637,#638));
#92=EDGE_LOOP('',(#639,#640,#641,#642));
#93=EDGE_LOOP('',(#643,#644,#645,#646));
#94=EDGE_LOOP('',(#647,#648,#649,#650));
#95=EDGE_LOOP('',(#651,#652,#653,#654));
#96=EDGE_LOOP('',(#655,#656,#657,#658));
#97=EDGE_LOOP('',(#659,#660,#661,#662));
#98=EDGE_LOOP('',(#663,#664,#665,#666));
#99=EDGE_LOOP('',(#667,#668,#669,#670));
#100=EDGE_LOOP('',(#671,#672,#673,#674));
#101=EDGE_LOOP('',(#675,#676,#677,#678));
#102=EDGE_LOOP('',(#679,#680,#681,#682));
#103=EDGE_LOOP('',(#683,#684,#685,#686));
#104=EDGE_LOOP('',(#687,#688,#689,#690));
#105=EDGE_LOOP('',(#691,#692,#693,#694));
#106=EDGE_LOOP('',(#695,#696,#697,#698));
#107=EDGE_LOOP('',(#699,#700,#701,#702));
#108=EDGE_LOOP('',(#703,#704,#705,#706));
#109=EDGE_LOOP('',(#707,#708,#709,#710));
#110=EDGE_LOOP('',(#711,#712,#713,#714));
#111=EDGE_LOOP('',(#715,#716,#717,#718));
#112=EDGE_LOOP('',(#719,#720,#721,#722));
#113=EDGE_LOOP('',(#723,#724,#725,#726,#727,#728,#729,#730,#731,#732,#733,
#734,#735,#736,#737,#738,#739,#740,#741,#742,#743,#744,#745,#746,#747,#748,
#749,#750,#751,#752,#753,#754,#755,#756,#757,#758));
#114=EDGE_LOOP('',(#759,#760,#761,#762));
#115=EDGE_LOOP('',(#763,#764,#765,#766));
#116=EDGE_LOOP('',(#767,#768,#769,#770));
#117=EDGE_LOOP('',(#771,#772,#773,#774));
#118=EDGE_LOOP('',(#775,#776,#777,#778));
#119=EDGE_LOOP('',(#779,#780,#781,#782));
#120=EDGE_LOOP('',(#783,#784,#785,#786));
#121=EDGE_LOOP('',(#787,#788,#789,#790));
#122=EDGE_LOOP('',(#791,#792,#793,#794));
#123=EDGE_LOOP('',(#795,#796,#797,#798));
#124=EDGE_LOOP('',(#799,#800,#801,#802,#803,#804,#805,#806,#807,#808,#809,
#810));
#125=EDGE_LOOP('',(#811,#812,#813,#814));
#126=EDGE_LOOP('',(#815,#816,#817,#818));
#127=EDGE_LOOP('',(#819,#820,#821,#822));
#128=EDGE_LOOP('',(#823,#824,#825,#826));
#129=EDGE_LOOP('',(#827,#828,#829,#830));
#130=EDGE_LOOP('',(#831,#832,#833,#834,#835,#836,#837,#838,#839,#840,#841,
#842,#843,#844,#845,#846));
#131=LINE('',#1253,#247);
#132=LINE('',#1255,#248);
#133=LINE('',#1257,#249);
#134=LINE('',#1259,#250);
#135=LINE('',#1261,#251);
#136=LINE('',#1262,#252);
#137=LINE('',#1266,#253);
#138=LINE('',#1268,#254);
#139=LINE('',#1270,#255);
#140=LINE('',#1272,#256);
#141=LINE('',#1274,#257);
#142=LINE('',#1275,#258);
#143=LINE('',#1277,#259);
#144=LINE('',#1278,#260);
#145=LINE('',#1280,#261);
#146=LINE('',#1283,#262);
#147=LINE('',#1285,#263);
#148=LINE('',#1287,#264);
#149=LINE('',#1289,#265);
#150=LINE('',#1291,#266);
#151=LINE('',#1293,#267);
#152=LINE('',#1297,#268);
#153=LINE('',#1299,#269);
#154=LINE('',#1301,#270);
#155=LINE('',#1305,#271);
#156=LINE('',#1307,#272);
#157=LINE('',#1309,#273);
#158=LINE('',#1313,#274);
#159=LINE('',#1315,#275);
#160=LINE('',#1317,#276);
#161=LINE('',#1321,#277);
#162=LINE('',#1322,#278);
#163=LINE('',#1326,#279);
#164=LINE('',#1327,#280);
#165=LINE('',#1329,#281);
#166=LINE('',#1331,#282);
#167=LINE('',#1332,#283);
#168=LINE('',#1336,#284);
#169=LINE('',#1338,#285);
#170=LINE('',#1340,#286);
#171=LINE('',#1341,#287);
#172=LINE('',#1342,#288);
#173=LINE('',#1344,#289);
#174=LINE('',#1346,#290);
#175=LINE('',#1348,#291);
#176=LINE('',#1350,#292);
#177=LINE('',#1353,#293);
#178=LINE('',#1354,#294);
#179=LINE('',#1357,#295);
#180=LINE('',#1358,#296);
#181=LINE('',#1362,#297);
#182=LINE('',#1365,#298);
#183=LINE('',#1366,#299);
#184=LINE('',#1369,#300);
#185=LINE('',#1370,#301);
#186=LINE('',#1373,#302);
#187=LINE('',#1374,#303);
#188=LINE('',#1378,#304);
#189=LINE('',#1381,#305);
#190=LINE('',#1382,#306);
#191=LINE('',#1385,#307);
#192=LINE('',#1386,#308);
#193=LINE('',#1389,#309);
#194=LINE('',#1390,#310);
#195=LINE('',#1394,#311);
#196=LINE('',#1397,#312);
#197=LINE('',#1398,#313);
#198=LINE('',#1401,#314);
#199=LINE('',#1402,#315);
#200=LINE('',#1405,#316);
#201=LINE('',#1406,#317);
#202=LINE('',#1410,#318);
#203=LINE('',#1413,#319);
#204=LINE('',#1414,#320);
#205=LINE('',#1416,#321);
#206=LINE('',#1419,#322);
#207=LINE('',#1421,#323);
#208=LINE('',#1425,#324);
#209=LINE('',#1427,#325);
#210=LINE('',#1429,#326);
#211=LINE('',#1433,#327);
#212=LINE('',#1435,#328);
#213=LINE('',#1437,#329);
#214=LINE('',#1441,#330);
#215=LINE('',#1443,#331);
#216=LINE('',#1445,#332);
#217=LINE('',#1449,#333);
#218=LINE('',#1450,#334);
#219=LINE('',#1453,#335);
#220=LINE('',#1456,#336);
#221=LINE('',#1459,#337);
#222=LINE('',#1460,#338);
#223=LINE('',#1463,#339);
#224=LINE('',#1464,#340);
#225=LINE('',#1467,#341);
#226=LINE('',#1468,#342);
#227=LINE('',#1472,#343);
#228=LINE('',#1475,#344);
#229=LINE('',#1476,#345);
#230=LINE('',#1479,#346);
#231=LINE('',#1480,#347);
#232=LINE('',#1483,#348);
#233=LINE('',#1484,#349);
#234=LINE('',#1488,#350);
#235=LINE('',#1491,#351);
#236=LINE('',#1492,#352);
#237=LINE('',#1495,#353);
#238=LINE('',#1496,#354);
#239=LINE('',#1499,#355);
#240=LINE('',#1500,#356);
#241=LINE('',#1504,#357);
#242=LINE('',#1507,#358);
#243=LINE('',#1508,#359);
#244=LINE('',#1511,#360);
#245=LINE('',#1512,#361);
#246=LINE('',#1514,#362);
#247=VECTOR('',#1011,10.);
#248=VECTOR('',#1012,10.);
#249=VECTOR('',#1013,10.);
#250=VECTOR('',#1014,10.);
#251=VECTOR('',#1015,10.);
#252=VECTOR('',#1016,10.);
#253=VECTOR('',#1019,10.);
#254=VECTOR('',#1020,10.);
#255=VECTOR('',#1021,10.);
#256=VECTOR('',#1022,10.);
#257=VECTOR('',#1023,10.);
#258=VECTOR('',#1024,10.);
#259=VECTOR('',#1027,10.);
#260=VECTOR('',#1028,10.);
#261=VECTOR('',#1031,10.);
#262=VECTOR('',#1034,10.);
#263=VECTOR('',#1035,10.);
#264=VECTOR('',#1036,10.);
#265=VECTOR('',#1037,10.);
#266=VECTOR('',#1038,10.);
#267=VECTOR('',#1039,10.);
#268=VECTOR('',#1042,10.);
#269=VECTOR('',#1043,10.);
#270=VECTOR('',#1044,10.);
#271=VECTOR('',#1047,10.);
#272=VECTOR('',#1048,10.);
#273=VECTOR('',#1049,10.);
#274=VECTOR('',#1052,10.);
#275=VECTOR('',#1053,10.);
#276=VECTOR('',#1054,10.);
#277=VECTOR('',#1057,10.);
#278=VECTOR('',#1058,10.);
#279=VECTOR('',#1061,10.);
#280=VECTOR('',#1062,10.);
#281=VECTOR('',#1063,10.);
#282=VECTOR('',#1064,10.);
#283=VECTOR('',#1065,10.);
#284=VECTOR('',#1068,10.);
#285=VECTOR('',#1069,10.);
#286=VECTOR('',#1070,10.);
#287=VECTOR('',#1071,10.);
#288=VECTOR('',#1072,10.);
#289=VECTOR('',#1075,10.);
#290=VECTOR('',#1078,10.);
#291=VECTOR('',#1081,10.);
#292=VECTOR('',#1084,10.);
#293=VECTOR('',#1087,10.);
#294=VECTOR('',#1088,10.);
#295=VECTOR('',#1091,10.);
#296=VECTOR('',#1092,10.);
#297=VECTOR('',#1097,10.);
#298=VECTOR('',#1100,10.);
#299=VECTOR('',#1101,10.);
#300=VECTOR('',#1104,10.);
#301=VECTOR('',#1105,10.);
#302=VECTOR('',#1108,10.);
#303=VECTOR('',#1109,10.);
#304=VECTOR('',#1114,10.);
#305=VECTOR('',#1117,10.);
#306=VECTOR('',#1118,10.);
#307=VECTOR('',#1121,10.);
#308=VECTOR('',#1122,10.);
#309=VECTOR('',#1125,10.);
#310=VECTOR('',#1126,10.);
#311=VECTOR('',#1131,10.);
#312=VECTOR('',#1134,10.);
#313=VECTOR('',#1135,10.);
#314=VECTOR('',#1138,10.);
#315=VECTOR('',#1139,10.);
#316=VECTOR('',#1142,10.);
#317=VECTOR('',#1143,10.);
#318=VECTOR('',#1148,10.);
#319=VECTOR('',#1151,10.);
#320=VECTOR('',#1152,10.);
#321=VECTOR('',#1155,10.);
#322=VECTOR('',#1158,10.);
#323=VECTOR('',#1159,10.);
#324=VECTOR('',#1162,10.);
#325=VECTOR('',#1163,10.);
#326=VECTOR('',#1164,10.);
#327=VECTOR('',#1167,10.);
#328=VECTOR('',#1168,10.);
#329=VECTOR('',#1169,10.);
#330=VECTOR('',#1172,10.);
#331=VECTOR('',#1173,10.);
#332=VECTOR('',#1174,10.);
#333=VECTOR('',#1177,10.);
#334=VECTOR('',#1178,10.);
#335=VECTOR('',#1181,10.);
#336=VECTOR('',#1184,10.);
#337=VECTOR('',#1187,10.);
#338=VECTOR('',#1188,10.);
#339=VECTOR('',#1191,10.);
#340=VECTOR('',#1192,10.);
#341=VECTOR('',#1195,10.);
#342=VECTOR('',#1196,10.);
#343=VECTOR('',#1201,10.);
#344=VECTOR('',#1204,10.);
#345=VECTOR('',#1205,10.);
#346=VECTOR('',#1208,10.);
#347=VECTOR('',#1209,10.);
#348=VECTOR('',#1212,10.);
#349=VECTOR('',#1213,10.);
#350=VECTOR('',#1218,10.);
#351=VECTOR('',#1221,10.);
#352=VECTOR('',#1222,10.);
#353=VECTOR('',#1225,10.);
#354=VECTOR('',#1226,10.);
#355=VECTOR('',#1229,10.);
#356=VECTOR('',#1230,10.);
#357=VECTOR('',#1235,10.);
#358=VECTOR('',#1238,10.);
#359=VECTOR('',#1239,10.);
#360=VECTOR('',#1242,10.);
#361=VECTOR('',#1243,10.);
#362=VECTOR('',#1246,10.);
#363=VERTEX_POINT('',#1251);
#364=VERTEX_POINT('',#1252);
#365=VERTEX_POINT('',#1254);
#366=VERTEX_POINT('',#1256);
#367=VERTEX_POINT('',#1258);
#368=VERTEX_POINT('',#1260);
#369=VERTEX_POINT('',#1264);
#370=VERTEX_POINT('',#1265);
#371=VERTEX_POINT('',#1267);
#372=VERTEX_POINT('',#1269);
#373=VERTEX_POINT('',#1271);
#374=VERTEX_POINT('',#1273);
#375=VERTEX_POINT('',#1282);
#376=VERTEX_POINT('',#1284);
#377=VERTEX_POINT('',#1286);
#378=VERTEX_POINT('',#1288);
#379=VERTEX_POINT('',#1290);
#380=VERTEX_POINT('',#1292);
#381=VERTEX_POINT('',#1294);
#382=VERTEX_POINT('',#1296);
#383=VERTEX_POINT('',#1298);
#384=VERTEX_POINT('',#1300);
#385=VERTEX_POINT('',#1302);
#386=VERTEX_POINT('',#1304);
#387=VERTEX_POINT('',#1306);
#388=VERTEX_POINT('',#1308);
#389=VERTEX_POINT('',#1310);
#390=VERTEX_POINT('',#1312);
#391=VERTEX_POINT('',#1314);
#392=VERTEX_POINT('',#1316);
#393=VERTEX_POINT('',#1318);
#394=VERTEX_POINT('',#1320);
#395=VERTEX_POINT('',#1324);
#396=VERTEX_POINT('',#1325);
#397=VERTEX_POINT('',#1328);
#398=VERTEX_POINT('',#1330);
#399=VERTEX_POINT('',#1334);
#400=VERTEX_POINT('',#1335);
#401=VERTEX_POINT('',#1337);
#402=VERTEX_POINT('',#1339);
#403=VERTEX_POINT('',#1352);
#404=VERTEX_POINT('',#1356);
#405=VERTEX_POINT('',#1360);
#406=VERTEX_POINT('',#1364);
#407=VERTEX_POINT('',#1368);
#408=VERTEX_POINT('',#1372);
#409=VERTEX_POINT('',#1376);
#410=VERTEX_POINT('',#1380);
#411=VERTEX_POINT('',#1384);
#412=VERTEX_POINT('',#1388);
#413=VERTEX_POINT('',#1392);
#414=VERTEX_POINT('',#1396);
#415=VERTEX_POINT('',#1400);
#416=VERTEX_POINT('',#1404);
#417=VERTEX_POINT('',#1408);
#418=VERTEX_POINT('',#1412);
#419=VERTEX_POINT('',#1418);
#420=VERTEX_POINT('',#1420);
#421=VERTEX_POINT('',#1422);
#422=VERTEX_POINT('',#1424);
#423=VERTEX_POINT('',#1426);
#424=VERTEX_POINT('',#1428);
#425=VERTEX_POINT('',#1430);
#426=VERTEX_POINT('',#1432);
#427=VERTEX_POINT('',#1434);
#428=VERTEX_POINT('',#1436);
#429=VERTEX_POINT('',#1438);
#430=VERTEX_POINT('',#1440);
#431=VERTEX_POINT('',#1442);
#432=VERTEX_POINT('',#1444);
#433=VERTEX_POINT('',#1446);
#434=VERTEX_POINT('',#1448);
#435=VERTEX_POINT('',#1452);
#436=VERTEX_POINT('',#1454);
#437=VERTEX_POINT('',#1458);
#438=VERTEX_POINT('',#1462);
#439=VERTEX_POINT('',#1466);
#440=VERTEX_POINT('',#1470);
#441=VERTEX_POINT('',#1474);
#442=VERTEX_POINT('',#1478);
#443=VERTEX_POINT('',#1482);
#444=VERTEX_POINT('',#1486);
#445=VERTEX_POINT('',#1490);
#446=VERTEX_POINT('',#1494);
#447=VERTEX_POINT('',#1498);
#448=VERTEX_POINT('',#1502);
#449=VERTEX_POINT('',#1506);
#450=VERTEX_POINT('',#1510);
#451=EDGE_CURVE('',#363,#364,#131,.T.);
#452=EDGE_CURVE('',#365,#363,#132,.T.);
#453=EDGE_CURVE('',#366,#365,#133,.T.);
#454=EDGE_CURVE('',#366,#367,#134,.T.);
#455=EDGE_CURVE('',#368,#367,#135,.T.);
#456=EDGE_CURVE('',#364,#368,#136,.T.);
#457=EDGE_CURVE('',#369,#370,#137,.T.);
#458=EDGE_CURVE('',#369,#371,#138,.T.);
#459=EDGE_CURVE('',#372,#371,#139,.T.);
#460=EDGE_CURVE('',#373,#372,#140,.T.);
#461=EDGE_CURVE('',#374,#373,#141,.T.);
#462=EDGE_CURVE('',#374,#370,#142,.T.);
#463=EDGE_CURVE('',#373,#366,#143,.T.);
#464=EDGE_CURVE('',#367,#372,#144,.T.);
#465=EDGE_CURVE('',#371,#368,#145,.T.);
#466=EDGE_CURVE('',#365,#375,#146,.T.);
#467=EDGE_CURVE('',#375,#376,#147,.T.);
#468=EDGE_CURVE('',#376,#377,#148,.T.);
#469=EDGE_CURVE('',#377,#378,#149,.T.);
#470=EDGE_CURVE('',#378,#379,#150,.T.);
#471=EDGE_CURVE('',#379,#380,#151,.T.);
#472=EDGE_CURVE('',#380,#381,#23,.T.);
#473=EDGE_CURVE('',#381,#382,#152,.T.);
#474=EDGE_CURVE('',#382,#383,#153,.T.);
#475=EDGE_CURVE('',#383,#384,#154,.T.);
#476=EDGE_CURVE('',#384,#385,#24,.T.);
#477=EDGE_CURVE('',#385,#386,#155,.T.);
#478=EDGE_CURVE('',#386,#387,#156,.T.);
#479=EDGE_CURVE('',#387,#388,#157,.T.);
#480=EDGE_CURVE('',#388,#389,#25,.T.);
#481=EDGE_CURVE('',#389,#390,#158,.T.);
#482=EDGE_CURVE('',#390,#391,#159,.T.);
#483=EDGE_CURVE('',#391,#392,#160,.T.);
#484=EDGE_CURVE('',#392,#393,#26,.T.);
#485=EDGE_CURVE('',#393,#394,#161,.T.);
#486=EDGE_CURVE('',#394,#374,#162,.T.);
#487=EDGE_CURVE('',#395,#396,#163,.T.);
#488=EDGE_CURVE('',#378,#395,#164,.T.);
#489=EDGE_CURVE('',#377,#397,#165,.T.);
#490=EDGE_CURVE('',#398,#397,#166,.T.);
#491=EDGE_CURVE('',#396,#398,#167,.T.);
#492=EDGE_CURVE('',#399,#400,#168,.T.);
#493=EDGE_CURVE('',#399,#401,#169,.T.);
#494=EDGE_CURVE('',#402,#401,#170,.T.);
#495=EDGE_CURVE('',#376,#402,#171,.T.);
#496=EDGE_CURVE('',#375,#400,#172,.T.);
#497=EDGE_CURVE('',#397,#402,#173,.T.);
#498=EDGE_CURVE('',#401,#398,#174,.T.);
#499=EDGE_CURVE('',#400,#363,#175,.T.);
#500=EDGE_CURVE('',#364,#399,#176,.T.);
#501=EDGE_CURVE('',#403,#395,#177,.T.);
#502=EDGE_CURVE('',#379,#403,#178,.T.);
#503=EDGE_CURVE('',#404,#403,#179,.T.);
#504=EDGE_CURVE('',#380,#404,#180,.T.);
#505=EDGE_CURVE('',#405,#404,#27,.T.);
#506=EDGE_CURVE('',#381,#405,#181,.T.);
#507=EDGE_CURVE('',#406,#405,#182,.T.);
#508=EDGE_CURVE('',#382,#406,#183,.T.);
#509=EDGE_CURVE('',#407,#406,#184,.T.);
#510=EDGE_CURVE('',#383,#407,#185,.T.);
#511=EDGE_CURVE('',#408,#407,#186,.T.);
#512=EDGE_CURVE('',#384,#408,#187,.T.);
#513=EDGE_CURVE('',#409,#408,#28,.T.);
#514=EDGE_CURVE('',#385,#409,#188,.T.);
#515=EDGE_CURVE('',#410,#409,#189,.T.);
#516=EDGE_CURVE('',#386,#410,#190,.T.);
#517=EDGE_CURVE('',#411,#410,#191,.T.);
#518=EDGE_CURVE('',#387,#411,#192,.T.);
#519=EDGE_CURVE('',#412,#411,#193,.T.);
#520=EDGE_CURVE('',#388,#412,#194,.T.);
#521=EDGE_CURVE('',#413,#412,#29,.T.);
#522=EDGE_CURVE('',#389,#413,#195,.T.);
#523=EDGE_CURVE('',#414,#413,#196,.T.);
#524=EDGE_CURVE('',#390,#414,#197,.T.);
#525=EDGE_CURVE('',#415,#414,#198,.T.);
#526=EDGE_CURVE('',#391,#415,#199,.T.);
#527=EDGE_CURVE('',#416,#415,#200,.T.);
#528=EDGE_CURVE('',#392,#416,#201,.T.);
#529=EDGE_CURVE('',#417,#416,#30,.T.);
#530=EDGE_CURVE('',#393,#417,#202,.T.);
#531=EDGE_CURVE('',#418,#417,#203,.T.);
#532=EDGE_CURVE('',#394,#418,#204,.T.);
#533=EDGE_CURVE('',#370,#418,#205,.T.);
#534=EDGE_CURVE('',#396,#419,#206,.T.);
#535=EDGE_CURVE('',#419,#420,#207,.T.);
#536=EDGE_CURVE('',#420,#421,#31,.T.);
#537=EDGE_CURVE('',#421,#422,#208,.T.);
#538=EDGE_CURVE('',#422,#423,#209,.T.);
#539=EDGE_CURVE('',#423,#424,#210,.T.);
#540=EDGE_CURVE('',#424,#425,#32,.T.);
#541=EDGE_CURVE('',#425,#426,#211,.T.);
#542=EDGE_CURVE('',#426,#427,#212,.T.);
#543=EDGE_CURVE('',#427,#428,#213,.T.);
#544=EDGE_CURVE('',#428,#429,#33,.T.);
#545=EDGE_CURVE('',#429,#430,#214,.T.);
#546=EDGE_CURVE('',#430,#431,#215,.T.);
#547=EDGE_CURVE('',#431,#432,#216,.T.);
#548=EDGE_CURVE('',#432,#433,#34,.T.);
#549=EDGE_CURVE('',#433,#434,#217,.T.);
#550=EDGE_CURVE('',#434,#369,#218,.T.);
#551=EDGE_CURVE('',#435,#424,#219,.T.);
#552=EDGE_CURVE('',#436,#435,#35,.T.);
#553=EDGE_CURVE('',#436,#425,#220,.T.);
#554=EDGE_CURVE('',#437,#436,#221,.T.);
#555=EDGE_CURVE('',#437,#426,#222,.T.);
#556=EDGE_CURVE('',#438,#437,#223,.T.);
#557=EDGE_CURVE('',#438,#427,#224,.T.);
#558=EDGE_CURVE('',#439,#438,#225,.T.);
#559=EDGE_CURVE('',#439,#428,#226,.T.);
#560=EDGE_CURVE('',#440,#439,#36,.T.);
#561=EDGE_CURVE('',#440,#429,#227,.T.);
#562=EDGE_CURVE('',#441,#440,#228,.T.);
#563=EDGE_CURVE('',#441,#430,#229,.T.);
#564=EDGE_CURVE('',#442,#441,#230,.T.);
#565=EDGE_CURVE('',#442,#431,#231,.T.);
#566=EDGE_CURVE('',#443,#442,#232,.T.);
#567=EDGE_CURVE('',#443,#432,#233,.T.);
#568=EDGE_CURVE('',#444,#443,#37,.T.);
#569=EDGE_CURVE('',#444,#433,#234,.T.);
#570=EDGE_CURVE('',#445,#444,#235,.T.);
#571=EDGE_CURVE('',#445,#434,#236,.T.);
#572=EDGE_CURVE('',#446,#445,#237,.T.);
#573=EDGE_CURVE('',#446,#419,#238,.T.);
#574=EDGE_CURVE('',#447,#446,#239,.T.);
#575=EDGE_CURVE('',#447,#420,#240,.T.);
#576=EDGE_CURVE('',#448,#447,#38,.T.);
#577=EDGE_CURVE('',#448,#421,#241,.T.);
#578=EDGE_CURVE('',#449,#448,#242,.T.);
#579=EDGE_CURVE('',#449,#422,#243,.T.);
#580=EDGE_CURVE('',#450,#449,#244,.T.);
#581=EDGE_CURVE('',#423,#450,#245,.T.);
#582=EDGE_CURVE('',#435,#450,#246,.T.);
#583=ORIENTED_EDGE('',*,*,#451,.F.);
#584=ORIENTED_EDGE('',*,*,#452,.F.);
#585=ORIENTED_EDGE('',*,*,#453,.F.);
#586=ORIENTED_EDGE('',*,*,#454,.T.);
#587=ORIENTED_EDGE('',*,*,#455,.F.);
#588=ORIENTED_EDGE('',*,*,#456,.F.);
#589=ORIENTED_EDGE('',*,*,#457,.F.);
#590=ORIENTED_EDGE('',*,*,#458,.T.);
#591=ORIENTED_EDGE('',*,*,#459,.F.);
#592=ORIENTED_EDGE('',*,*,#460,.F.);
#593=ORIENTED_EDGE('',*,*,#461,.F.);
#594=ORIENTED_EDGE('',*,*,#462,.T.);
#595=ORIENTED_EDGE('',*,*,#463,.F.);
#596=ORIENTED_EDGE('',*,*,#460,.T.);
#597=ORIENTED_EDGE('',*,*,#464,.F.);
#598=ORIENTED_EDGE('',*,*,#454,.F.);
#599=ORIENTED_EDGE('',*,*,#465,.T.);
#600=ORIENTED_EDGE('',*,*,#455,.T.);
#601=ORIENTED_EDGE('',*,*,#464,.T.);
#602=ORIENTED_EDGE('',*,*,#459,.T.);
#603=ORIENTED_EDGE('',*,*,#461,.T.);
#604=ORIENTED_EDGE('',*,*,#463,.T.);
#605=ORIENTED_EDGE('',*,*,#453,.T.);
#606=ORIENTED_EDGE('',*,*,#466,.T.);
#607=ORIENTED_EDGE('',*,*,#467,.T.);
#608=ORIENTED_EDGE('',*,*,#468,.T.);
#609=ORIENTED_EDGE('',*,*,#469,.T.);
#610=ORIENTED_EDGE('',*,*,#470,.T.);
#611=ORIENTED_EDGE('',*,*,#471,.T.);
#612=ORIENTED_EDGE('',*,*,#472,.T.);
#613=ORIENTED_EDGE('',*,*,#473,.T.);
#614=ORIENTED_EDGE('',*,*,#474,.T.);
#615=ORIENTED_EDGE('',*,*,#475,.T.);
#616=ORIENTED_EDGE('',*,*,#476,.T.);
#617=ORIENTED_EDGE('',*,*,#477,.T.);
#618=ORIENTED_EDGE('',*,*,#478,.T.);
#619=ORIENTED_EDGE('',*,*,#479,.T.);
#620=ORIENTED_EDGE('',*,*,#480,.T.);
#621=ORIENTED_EDGE('',*,*,#481,.T.);
#622=ORIENTED_EDGE('',*,*,#482,.T.);
#623=ORIENTED_EDGE('',*,*,#483,.T.);
#624=ORIENTED_EDGE('',*,*,#484,.T.);
#625=ORIENTED_EDGE('',*,*,#485,.T.);
#626=ORIENTED_EDGE('',*,*,#486,.T.);
#627=ORIENTED_EDGE('',*,*,#487,.F.);
#628=ORIENTED_EDGE('',*,*,#488,.F.);
#629=ORIENTED_EDGE('',*,*,#469,.F.);
#630=ORIENTED_EDGE('',*,*,#489,.T.);
#631=ORIENTED_EDGE('',*,*,#490,.F.);
#632=ORIENTED_EDGE('',*,*,#491,.F.);
#633=ORIENTED_EDGE('',*,*,#492,.F.);
#634=ORIENTED_EDGE('',*,*,#493,.T.);
#635=ORIENTED_EDGE('',*,*,#494,.F.);
#636=ORIENTED_EDGE('',*,*,#495,.F.);
#637=ORIENTED_EDGE('',*,*,#467,.F.);
#638=ORIENTED_EDGE('',*,*,#496,.T.);
#639=ORIENTED_EDGE('',*,*,#468,.F.);
#640=ORIENTED_EDGE('',*,*,#495,.T.);
#641=ORIENTED_EDGE('',*,*,#497,.F.);
#642=ORIENTED_EDGE('',*,*,#489,.F.);
#643=ORIENTED_EDGE('',*,*,#490,.T.);
#644=ORIENTED_EDGE('',*,*,#497,.T.);
#645=ORIENTED_EDGE('',*,*,#494,.T.);
#646=ORIENTED_EDGE('',*,*,#498,.T.);
#647=ORIENTED_EDGE('',*,*,#466,.F.);
#648=ORIENTED_EDGE('',*,*,#452,.T.);
#649=ORIENTED_EDGE('',*,*,#499,.F.);
#650=ORIENTED_EDGE('',*,*,#496,.F.);
#651=ORIENTED_EDGE('',*,*,#499,.T.);
#652=ORIENTED_EDGE('',*,*,#451,.T.);
#653=ORIENTED_EDGE('',*,*,#500,.T.);
#654=ORIENTED_EDGE('',*,*,#492,.T.);
#655=ORIENTED_EDGE('',*,*,#470,.F.);
#656=ORIENTED_EDGE('',*,*,#488,.T.);
#657=ORIENTED_EDGE('',*,*,#501,.F.);
#658=ORIENTED_EDGE('',*,*,#502,.F.);
#659=ORIENTED_EDGE('',*,*,#471,.F.);
#660=ORIENTED_EDGE('',*,*,#502,.T.);
#661=ORIENTED_EDGE('',*,*,#503,.F.);
#662=ORIENTED_EDGE('',*,*,#504,.F.);
#663=ORIENTED_EDGE('',*,*,#472,.F.);
#664=ORIENTED_EDGE('',*,*,#504,.T.);
#665=ORIENTED_EDGE('',*,*,#505,.F.);
#666=ORIENTED_EDGE('',*,*,#506,.F.);
#667=ORIENTED_EDGE('',*,*,#473,.F.);
#668=ORIENTED_EDGE('',*,*,#506,.T.);
#669=ORIENTED_EDGE('',*,*,#507,.F.);
#670=ORIENTED_EDGE('',*,*,#508,.F.);
#671=ORIENTED_EDGE('',*,*,#474,.F.);
#672=ORIENTED_EDGE('',*,*,#508,.T.);
#673=ORIENTED_EDGE('',*,*,#509,.F.);
#674=ORIENTED_EDGE('',*,*,#510,.F.);
#675=ORIENTED_EDGE('',*,*,#475,.F.);
#676=ORIENTED_EDGE('',*,*,#510,.T.);
#677=ORIENTED_EDGE('',*,*,#511,.F.);
#678=ORIENTED_EDGE('',*,*,#512,.F.);
#679=ORIENTED_EDGE('',*,*,#476,.F.);
#680=ORIENTED_EDGE('',*,*,#512,.T.);
#681=ORIENTED_EDGE('',*,*,#513,.F.);
#682=ORIENTED_EDGE('',*,*,#514,.F.);
#683=ORIENTED_EDGE('',*,*,#477,.F.);
#684=ORIENTED_EDGE('',*,*,#514,.T.);
#685=ORIENTED_EDGE('',*,*,#515,.F.);
#686=ORIENTED_EDGE('',*,*,#516,.F.);
#687=ORIENTED_EDGE('',*,*,#478,.F.);
#688=ORIENTED_EDGE('',*,*,#516,.T.);
#689=ORIENTED_EDGE('',*,*,#517,.F.);
#690=ORIENTED_EDGE('',*,*,#518,.F.);
#691=ORIENTED_EDGE('',*,*,#479,.F.);
#692=ORIENTED_EDGE('',*,*,#518,.T.);
#693=ORIENTED_EDGE('',*,*,#519,.F.);
#694=ORIENTED_EDGE('',*,*,#520,.F.);
#695=ORIENTED_EDGE('',*,*,#480,.F.);
#696=ORIENTED_EDGE('',*,*,#520,.T.);
#697=ORIENTED_EDGE('',*,*,#521,.F.);
#698=ORIENTED_EDGE('',*,*,#522,.F.);
#699=ORIENTED_EDGE('',*,*,#481,.F.);
#700=ORIENTED_EDGE('',*,*,#522,.T.);
#701=ORIENTED_EDGE('',*,*,#523,.F.);
#702=ORIENTED_EDGE('',*,*,#524,.F.);
#703=ORIENTED_EDGE('',*,*,#482,.F.);
#704=ORIENTED_EDGE('',*,*,#524,.T.);
#705=ORIENTED_EDGE('',*,*,#525,.F.);
#706=ORIENTED_EDGE('',*,*,#526,.F.);
#707=ORIENTED_EDGE('',*,*,#483,.F.);
#708=ORIENTED_EDGE('',*,*,#526,.T.);
#709=ORIENTED_EDGE('',*,*,#527,.F.);
#710=ORIENTED_EDGE('',*,*,#528,.F.);
#711=ORIENTED_EDGE('',*,*,#484,.F.);
#712=ORIENTED_EDGE('',*,*,#528,.T.);
#713=ORIENTED_EDGE('',*,*,#529,.F.);
#714=ORIENTED_EDGE('',*,*,#530,.F.);
#715=ORIENTED_EDGE('',*,*,#485,.F.);
#716=ORIENTED_EDGE('',*,*,#530,.T.);
#717=ORIENTED_EDGE('',*,*,#531,.F.);
#718=ORIENTED_EDGE('',*,*,#532,.F.);
#719=ORIENTED_EDGE('',*,*,#486,.F.);
#720=ORIENTED_EDGE('',*,*,#532,.T.);
#721=ORIENTED_EDGE('',*,*,#533,.F.);
#722=ORIENTED_EDGE('',*,*,#462,.F.);
#723=ORIENTED_EDGE('',*,*,#534,.T.);
#724=ORIENTED_EDGE('',*,*,#535,.T.);
#725=ORIENTED_EDGE('',*,*,#536,.T.);
#726=ORIENTED_EDGE('',*,*,#537,.T.);
#727=ORIENTED_EDGE('',*,*,#538,.T.);
#728=ORIENTED_EDGE('',*,*,#539,.T.);
#729=ORIENTED_EDGE('',*,*,#540,.T.);
#730=ORIENTED_EDGE('',*,*,#541,.T.);
#731=ORIENTED_EDGE('',*,*,#542,.T.);
#732=ORIENTED_EDGE('',*,*,#543,.T.);
#733=ORIENTED_EDGE('',*,*,#544,.T.);
#734=ORIENTED_EDGE('',*,*,#545,.T.);
#735=ORIENTED_EDGE('',*,*,#546,.T.);
#736=ORIENTED_EDGE('',*,*,#547,.T.);
#737=ORIENTED_EDGE('',*,*,#548,.T.);
#738=ORIENTED_EDGE('',*,*,#549,.T.);
#739=ORIENTED_EDGE('',*,*,#550,.T.);
#740=ORIENTED_EDGE('',*,*,#457,.T.);
#741=ORIENTED_EDGE('',*,*,#533,.T.);
#742=ORIENTED_EDGE('',*,*,#531,.T.);
#743=ORIENTED_EDGE('',*,*,#529,.T.);
#744=ORIENTED_EDGE('',*,*,#527,.T.);
#745=ORIENTED_EDGE('',*,*,#525,.T.);
#746=ORIENTED_EDGE('',*,*,#523,.T.);
#747=ORIENTED_EDGE('',*,*,#521,.T.);
#748=ORIENTED_EDGE('',*,*,#519,.T.);
#749=ORIENTED_EDGE('',*,*,#517,.T.);
#750=ORIENTED_EDGE('',*,*,#515,.T.);
#751=ORIENTED_EDGE('',*,*,#513,.T.);
#752=ORIENTED_EDGE('',*,*,#511,.T.);
#753=ORIENTED_EDGE('',*,*,#509,.T.);
#754=ORIENTED_EDGE('',*,*,#507,.T.);
#755=ORIENTED_EDGE('',*,*,#505,.T.);
#756=ORIENTED_EDGE('',*,*,#503,.T.);
#757=ORIENTED_EDGE('',*,*,#501,.T.);
#758=ORIENTED_EDGE('',*,*,#487,.T.);
#759=ORIENTED_EDGE('',*,*,#551,.F.);
#760=ORIENTED_EDGE('',*,*,#552,.F.);
#761=ORIENTED_EDGE('',*,*,#553,.T.);
#762=ORIENTED_EDGE('',*,*,#540,.F.);
#763=ORIENTED_EDGE('',*,*,#553,.F.);
#764=ORIENTED_EDGE('',*,*,#554,.F.);
#765=ORIENTED_EDGE('',*,*,#555,.T.);
#766=ORIENTED_EDGE('',*,*,#541,.F.);
#767=ORIENTED_EDGE('',*,*,#555,.F.);
#768=ORIENTED_EDGE('',*,*,#556,.F.);
#769=ORIENTED_EDGE('',*,*,#557,.T.);
#770=ORIENTED_EDGE('',*,*,#542,.F.);
#771=ORIENTED_EDGE('',*,*,#557,.F.);
#772=ORIENTED_EDGE('',*,*,#558,.F.);
#773=ORIENTED_EDGE('',*,*,#559,.T.);
#774=ORIENTED_EDGE('',*,*,#543,.F.);
#775=ORIENTED_EDGE('',*,*,#559,.F.);
#776=ORIENTED_EDGE('',*,*,#560,.F.);
#777=ORIENTED_EDGE('',*,*,#561,.T.);
#778=ORIENTED_EDGE('',*,*,#544,.F.);
#779=ORIENTED_EDGE('',*,*,#561,.F.);
#780=ORIENTED_EDGE('',*,*,#562,.F.);
#781=ORIENTED_EDGE('',*,*,#563,.T.);
#782=ORIENTED_EDGE('',*,*,#545,.F.);
#783=ORIENTED_EDGE('',*,*,#563,.F.);
#784=ORIENTED_EDGE('',*,*,#564,.F.);
#785=ORIENTED_EDGE('',*,*,#565,.T.);
#786=ORIENTED_EDGE('',*,*,#546,.F.);
#787=ORIENTED_EDGE('',*,*,#565,.F.);
#788=ORIENTED_EDGE('',*,*,#566,.F.);
#789=ORIENTED_EDGE('',*,*,#567,.T.);
#790=ORIENTED_EDGE('',*,*,#547,.F.);
#791=ORIENTED_EDGE('',*,*,#567,.F.);
#792=ORIENTED_EDGE('',*,*,#568,.F.);
#793=ORIENTED_EDGE('',*,*,#569,.T.);
#794=ORIENTED_EDGE('',*,*,#548,.F.);
#795=ORIENTED_EDGE('',*,*,#569,.F.);
#796=ORIENTED_EDGE('',*,*,#570,.F.);
#797=ORIENTED_EDGE('',*,*,#571,.T.);
#798=ORIENTED_EDGE('',*,*,#549,.F.);
#799=ORIENTED_EDGE('',*,*,#571,.F.);
#800=ORIENTED_EDGE('',*,*,#572,.F.);
#801=ORIENTED_EDGE('',*,*,#573,.T.);
#802=ORIENTED_EDGE('',*,*,#534,.F.);
#803=ORIENTED_EDGE('',*,*,#491,.T.);
#804=ORIENTED_EDGE('',*,*,#498,.F.);
#805=ORIENTED_EDGE('',*,*,#493,.F.);
#806=ORIENTED_EDGE('',*,*,#500,.F.);
#807=ORIENTED_EDGE('',*,*,#456,.T.);
#808=ORIENTED_EDGE('',*,*,#465,.F.);
#809=ORIENTED_EDGE('',*,*,#458,.F.);
#810=ORIENTED_EDGE('',*,*,#550,.F.);
#811=ORIENTED_EDGE('',*,*,#573,.F.);
#812=ORIENTED_EDGE('',*,*,#574,.F.);
#813=ORIENTED_EDGE('',*,*,#575,.T.);
#814=ORIENTED_EDGE('',*,*,#535,.F.);
#815=ORIENTED_EDGE('',*,*,#575,.F.);
#816=ORIENTED_EDGE('',*,*,#576,.F.);
#817=ORIENTED_EDGE('',*,*,#577,.T.);
#818=ORIENTED_EDGE('',*,*,#536,.F.);
#819=ORIENTED_EDGE('',*,*,#577,.F.);
#820=ORIENTED_EDGE('',*,*,#578,.F.);
#821=ORIENTED_EDGE('',*,*,#579,.T.);
#822=ORIENTED_EDGE('',*,*,#537,.F.);
#823=ORIENTED_EDGE('',*,*,#579,.F.);
#824=ORIENTED_EDGE('',*,*,#580,.F.);
#825=ORIENTED_EDGE('',*,*,#581,.F.);
#826=ORIENTED_EDGE('',*,*,#538,.F.);
#827=ORIENTED_EDGE('',*,*,#581,.T.);
#828=ORIENTED_EDGE('',*,*,#582,.F.);
#829=ORIENTED_EDGE('',*,*,#551,.T.);
#830=ORIENTED_EDGE('',*,*,#539,.F.);
#831=ORIENTED_EDGE('',*,*,#582,.T.);
#832=ORIENTED_EDGE('',*,*,#580,.T.);
#833=ORIENTED_EDGE('',*,*,#578,.T.);
#834=ORIENTED_EDGE('',*,*,#576,.T.);
#835=ORIENTED_EDGE('',*,*,#574,.T.);
#836=ORIENTED_EDGE('',*,*,#572,.T.);
#837=ORIENTED_EDGE('',*,*,#570,.T.);
#838=ORIENTED_EDGE('',*,*,#568,.T.);
#839=ORIENTED_EDGE('',*,*,#566,.T.);
#840=ORIENTED_EDGE('',*,*,#564,.T.);
#841=ORIENTED_EDGE('',*,*,#562,.T.);
#842=ORIENTED_EDGE('',*,*,#560,.T.);
#843=ORIENTED_EDGE('',*,*,#558,.T.);
#844=ORIENTED_EDGE('',*,*,#556,.T.);
#845=ORIENTED_EDGE('',*,*,#554,.T.);
#846=ORIENTED_EDGE('',*,*,#552,.T.);
#847=PLANE('',#945);
#848=PLANE('',#946);
#849=PLANE('',#947);
#850=PLANE('',#948);
#851=PLANE('',#949);
#852=PLANE('',#954);
#853=PLANE('',#955);
#854=PLANE('',#956);
#855=PLANE('',#957);
#856=PLANE('',#958);
#857=PLANE('',#959);
#858=PLANE('',#960);
#859=PLANE('',#961);
#860=PLANE('',#964);
#861=PLANE('',#965);
#862=PLANE('',#966);
#863=PLANE('',#969);
#864=PLANE('',#970);
#865=PLANE('',#971);
#866=PLANE('',#974);
#867=PLANE('',#975);
#868=PLANE('',#976);
#869=PLANE('',#979);
#870=PLANE('',#980);
#871=PLANE('',#981);
#872=PLANE('',#988);
#873=PLANE('',#989);
#874=PLANE('',#990);
#875=PLANE('',#993);
#876=PLANE('',#994);
#877=PLANE('',#995);
#878=PLANE('',#998);
#879=PLANE('',#999);
#880=PLANE('',#1000);
#881=PLANE('',#1003);
#882=PLANE('',#1004);
#883=PLANE('',#1005);
#884=PLANE('',#1006);
#885=ADVANCED_FACE('',(#39),#847,.T.);
#886=ADVANCED_FACE('',(#40),#848,.T.);
#887=ADVANCED_FACE('',(#41),#849,.T.);
#888=ADVANCED_FACE('',(#42),#850,.T.);
#889=ADVANCED_FACE('',(#43),#851,.T.);
#890=ADVANCED_FACE('',(#44),#852,.T.);
#891=ADVANCED_FACE('',(#45),#853,.T.);
#892=ADVANCED_FACE('',(#46),#854,.T.);
#893=ADVANCED_FACE('',(#47),#855,.T.);
#894=ADVANCED_FACE('',(#48),#856,.T.);
#895=ADVANCED_FACE('',(#49),#857,.T.);
#896=ADVANCED_FACE('',(#50),#858,.T.);
#897=ADVANCED_FACE('',(#51),#859,.T.);
#898=ADVANCED_FACE('',(#52),#15,.F.);
#899=ADVANCED_FACE('',(#53),#860,.T.);
#900=ADVANCED_FACE('',(#54),#861,.T.);
#901=ADVANCED_FACE('',(#55),#862,.T.);
#902=ADVANCED_FACE('',(#56),#16,.F.);
#903=ADVANCED_FACE('',(#57),#863,.T.);
#904=ADVANCED_FACE('',(#58),#864,.T.);
#905=ADVANCED_FACE('',(#59),#865,.T.);
#906=ADVANCED_FACE('',(#60),#17,.F.);
#907=ADVANCED_FACE('',(#61),#866,.T.);
#908=ADVANCED_FACE('',(#62),#867,.T.);
#909=ADVANCED_FACE('',(#63),#868,.T.);
#910=ADVANCED_FACE('',(#64),#18,.F.);
#911=ADVANCED_FACE('',(#65),#869,.T.);
#912=ADVANCED_FACE('',(#66),#870,.T.);
#913=ADVANCED_FACE('',(#67),#871,.T.);
#914=ADVANCED_FACE('',(#68),#19,.T.);
#915=ADVANCED_FACE('',(#69),#872,.T.);
#916=ADVANCED_FACE('',(#70),#873,.T.);
#917=ADVANCED_FACE('',(#71),#874,.T.);
#918=ADVANCED_FACE('',(#72),#20,.T.);
#919=ADVANCED_FACE('',(#73),#875,.T.);
#920=ADVANCED_FACE('',(#74),#876,.T.);
#921=ADVANCED_FACE('',(#75),#877,.T.);
#922=ADVANCED_FACE('',(#76),#21,.T.);
#923=ADVANCED_FACE('',(#77),#878,.T.);
#924=ADVANCED_FACE('',(#78),#879,.T.);
#925=ADVANCED_FACE('',(#79),#880,.T.);
#926=ADVANCED_FACE('',(#80),#22,.T.);
#927=ADVANCED_FACE('',(#81),#881,.T.);
#928=ADVANCED_FACE('',(#82),#882,.T.);
#929=ADVANCED_FACE('',(#83),#883,.T.);
#930=ADVANCED_FACE('',(#84),#884,.F.);
#931=CLOSED_SHELL('',(#885,#886,#887,#888,#889,#890,#891,#892,#893,#894,
#895,#896,#897,#898,#899,#900,#901,#902,#903,#904,#905,#906,#907,#908,#909,
#910,#911,#912,#913,#914,#915,#916,#917,#918,#919,#920,#921,#922,#923,#924,
#925,#926,#927,#928,#929,#930));
#932=DERIVED_UNIT_ELEMENT(#934,1.);
#933=DERIVED_UNIT_ELEMENT(#1521,-3.);
#934=(
MASS_UNIT()
NAMED_UNIT(*)
SI_UNIT(.KILO.,.GRAM.)
);
#935=DERIVED_UNIT((#932,#933));
#936=MEASURE_REPRESENTATION_ITEM('density measure',
POSITIVE_RATIO_MEASURE(7850.),#935);
#937=PROPERTY_DEFINITION_REPRESENTATION(#942,#939);
#938=PROPERTY_DEFINITION_REPRESENTATION(#943,#940);
#939=REPRESENTATION('material name',(#941),#1518);
#940=REPRESENTATION('density',(#936),#1518);
#941=DESCRIPTIVE_REPRESENTATION_ITEM('Steel','Steel');
#942=PROPERTY_DEFINITION('material property','material name',#1528);
#943=PROPERTY_DEFINITION('material property','density of part',#1528);
#944=AXIS2_PLACEMENT_3D('',#1249,#1007,#1008);
#945=AXIS2_PLACEMENT_3D('',#1250,#1009,#1010);
#946=AXIS2_PLACEMENT_3D('',#1263,#1017,#1018);
#947=AXIS2_PLACEMENT_3D('',#1276,#1025,#1026);
#948=AXIS2_PLACEMENT_3D('',#1279,#1029,#1030);
#949=AXIS2_PLACEMENT_3D('',#1281,#1032,#1033);
#950=AXIS2_PLACEMENT_3D('',#1295,#1040,#1041);
#951=AXIS2_PLACEMENT_3D('',#1303,#1045,#1046);
#952=AXIS2_PLACEMENT_3D('',#1311,#1050,#1051);
#953=AXIS2_PLACEMENT_3D('',#1319,#1055,#1056);
#954=AXIS2_PLACEMENT_3D('',#1323,#1059,#1060);
#955=AXIS2_PLACEMENT_3D('',#1333,#1066,#1067);
#956=AXIS2_PLACEMENT_3D('',#1343,#1073,#1074);
#957=AXIS2_PLACEMENT_3D('',#1345,#1076,#1077);
#958=AXIS2_PLACEMENT_3D('',#1347,#1079,#1080);
#959=AXIS2_PLACEMENT_3D('',#1349,#1082,#1083);
#960=AXIS2_PLACEMENT_3D('',#1351,#1085,#1086);
#961=AXIS2_PLACEMENT_3D('',#1355,#1089,#1090);
#962=AXIS2_PLACEMENT_3D('',#1359,#1093,#1094);
#963=AXIS2_PLACEMENT_3D('',#1361,#1095,#1096);
#964=AXIS2_PLACEMENT_3D('',#1363,#1098,#1099);
#965=AXIS2_PLACEMENT_3D('',#1367,#1102,#1103);
#966=AXIS2_PLACEMENT_3D('',#1371,#1106,#1107);
#967=AXIS2_PLACEMENT_3D('',#1375,#1110,#1111);
#968=AXIS2_PLACEMENT_3D('',#1377,#1112,#1113);
#969=AXIS2_PLACEMENT_3D('',#1379,#1115,#1116);
#970=AXIS2_PLACEMENT_3D('',#1383,#1119,#1120);
#971=AXIS2_PLACEMENT_3D('',#1387,#1123,#1124);
#972=AXIS2_PLACEMENT_3D('',#1391,#1127,#1128);
#973=AXIS2_PLACEMENT_3D('',#1393,#1129,#1130);
#974=AXIS2_PLACEMENT_3D('',#1395,#1132,#1133);
#975=AXIS2_PLACEMENT_3D('',#1399,#1136,#1137);
#976=AXIS2_PLACEMENT_3D('',#1403,#1140,#1141);
#977=AXIS2_PLACEMENT_3D('',#1407,#1144,#1145);
#978=AXIS2_PLACEMENT_3D('',#1409,#1146,#1147);
#979=AXIS2_PLACEMENT_3D('',#1411,#1149,#1150);
#980=AXIS2_PLACEMENT_3D('',#1415,#1153,#1154);
#981=AXIS2_PLACEMENT_3D('',#1417,#1156,#1157);
#982=AXIS2_PLACEMENT_3D('',#1423,#1160,#1161);
#983=AXIS2_PLACEMENT_3D('',#1431,#1165,#1166);
#984=AXIS2_PLACEMENT_3D('',#1439,#1170,#1171);
#985=AXIS2_PLACEMENT_3D('',#1447,#1175,#1176);
#986=AXIS2_PLACEMENT_3D('',#1451,#1179,#1180);
#987=AXIS2_PLACEMENT_3D('',#1455,#1182,#1183);
#988=AXIS2_PLACEMENT_3D('',#1457,#1185,#1186);
#989=AXIS2_PLACEMENT_3D('',#1461,#1189,#1190);
#990=AXIS2_PLACEMENT_3D('',#1465,#1193,#1194);
#991=AXIS2_PLACEMENT_3D('',#1469,#1197,#1198);
#992=AXIS2_PLACEMENT_3D('',#1471,#1199,#1200);
#993=AXIS2_PLACEMENT_3D('',#1473,#1202,#1203);
#994=AXIS2_PLACEMENT_3D('',#1477,#1206,#1207);
#995=AXIS2_PLACEMENT_3D('',#1481,#1210,#1211);
#996=AXIS2_PLACEMENT_3D('',#1485,#1214,#1215);
#997=AXIS2_PLACEMENT_3D('',#1487,#1216,#1217);
#998=AXIS2_PLACEMENT_3D('',#1489,#1219,#1220);
#999=AXIS2_PLACEMENT_3D('',#1493,#1223,#1224);
#1000=AXIS2_PLACEMENT_3D('',#1497,#1227,#1228);
#1001=AXIS2_PLACEMENT_3D('',#1501,#1231,#1232);
#1002=AXIS2_PLACEMENT_3D('',#1503,#1233,#1234);
#1003=AXIS2_PLACEMENT_3D('',#1505,#1236,#1237);
#1004=AXIS2_PLACEMENT_3D('',#1509,#1240,#1241);
#1005=AXIS2_PLACEMENT_3D('',#1513,#1244,#1245);
#1006=AXIS2_PLACEMENT_3D('',#1515,#1247,#1248);
#1007=DIRECTION('axis',(0.,0.,1.));
#1008=DIRECTION('refdir',(1.,0.,0.));
#1009=DIRECTION('center_axis',(-1.,0.,0.));
#1010=DIRECTION('ref_axis',(0.,0.,1.));
#1011=DIRECTION('',(0.,0.,-1.));
#1012=DIRECTION('',(0.,1.,0.));
#1013=DIRECTION('',(0.,0.,-1.));
#1014=DIRECTION('',(0.,1.,0.));
#1015=DIRECTION('',(0.,0.,1.));
#1016=DIRECTION('',(0.,1.,0.));
#1017=DIRECTION('center_axis',(1.,0.,7.90325281415511E-16));
#1018=DIRECTION('ref_axis',(7.90325281415511E-16,0.,-1.));
#1019=DIRECTION('',(-7.90325281415511E-16,0.,1.));
#1020=DIRECTION('',(0.,1.,0.));
#1021=DIRECTION('',(7.90325281415511E-16,0.,-1.));
#1022=DIRECTION('',(0.,1.,0.));
#1023=DIRECTION('',(-7.90325281415511E-16,0.,1.));
#1024=DIRECTION('',(0.,1.,0.));
#1025=DIRECTION('center_axis',(0.,0.,1.));
#1026=DIRECTION('ref_axis',(1.,0.,0.));
#1027=DIRECTION('',(-1.,0.,0.));
#1028=DIRECTION('',(1.,0.,0.));
#1029=DIRECTION('center_axis',(0.,1.,0.));
#1030=DIRECTION('ref_axis',(0.,0.,1.));
#1031=DIRECTION('',(-1.,0.,0.));
#1032=DIRECTION('center_axis',(0.,1.,0.));
#1033=DIRECTION('ref_axis',(1.,0.,0.));
#1034=DIRECTION('',(-1.,0.,0.));
#1035=DIRECTION('',(3.52509310421831E-16,0.,1.));
#1036=DIRECTION('',(-1.,0.,0.));
#1037=DIRECTION('',(0.,0.,-1.));
#1038=DIRECTION('',(-1.,0.,0.));
#1039=DIRECTION('',(-0.999901910117004,0.,0.0140060752663614));
#1040=DIRECTION('center_axis',(0.,1.,0.));
#1041=DIRECTION('ref_axis',(-0.0483491629006864,0.,-0.998830495352842));
#1042=DIRECTION('',(-0.0138635473675617,0.,0.999903896409244));
#1043=DIRECTION('',(-5.49213385758074E-5,0.,0.999999998491823));
#1044=DIRECTION('',(0.0139655829891389,0.,0.999902476490469));
#1045=DIRECTION('center_axis',(0.,1.,0.));
#1046=DIRECTION('ref_axis',(-0.99883237691145,0.,0.0483102766854373));
#1047=DIRECTION('',(0.999895126278872,0.,0.0144822803369916));
#1048=DIRECTION('',(0.999999978300013,0.,0.000208326603883487));
#1049=DIRECTION('',(0.999911593130176,0.,-0.0132968388676728));
#1050=DIRECTION('center_axis',(0.,1.,0.));
#1051=DIRECTION('ref_axis',(0.0480664212666428,0.,0.998844141568953));
#1052=DIRECTION('',(0.0136471601092264,0.,-0.999906873174174));
#1053=DIRECTION('',(0.,0.,-1.));
#1054=DIRECTION('',(-0.014017536287794,0.,-0.999901749511631));
#1055=DIRECTION('center_axis',(0.,1.,0.));
#1056=DIRECTION('ref_axis',(0.998829868727038,0.,-0.0483621064339474));
#1057=DIRECTION('',(-0.999901749511631,0.,-0.0140175362877628));
#1058=DIRECTION('',(-1.,0.,0.));
#1059=DIRECTION('center_axis',(-1.,0.,0.));
#1060=DIRECTION('ref_axis',(0.,0.,1.));
#1061=DIRECTION('',(0.,0.,-1.));
#1062=DIRECTION('',(0.,1.,0.));
#1063=DIRECTION('',(0.,1.,0.));
#1064=DIRECTION('',(0.,0.,1.));
#1065=DIRECTION('',(0.,1.,0.));
#1066=DIRECTION('center_axis',(1.,0.,-3.52509310421831E-16));
#1067=DIRECTION('ref_axis',(-3.52509310421831E-16,0.,-1.));
#1068=DIRECTION('',(3.52509310421831E-16,0.,1.));
#1069=DIRECTION('',(0.,1.,0.));
#1070=DIRECTION('',(-3.52509310421831E-16,0.,-1.));
#1071=DIRECTION('',(0.,1.,0.));
#1072=DIRECTION('',(0.,1.,0.));
#1073=DIRECTION('center_axis',(0.,0.,1.));
#1074=DIRECTION('ref_axis',(1.,0.,0.));
#1075=DIRECTION('',(1.,0.,0.));
#1076=DIRECTION('center_axis',(0.,1.,0.));
#1077=DIRECTION('ref_axis',(0.,0.,1.));
#1078=DIRECTION('',(-1.,0.,0.));
#1079=DIRECTION('center_axis',(0.,0.,1.));
#1080=DIRECTION('ref_axis',(1.,0.,0.));
#1081=DIRECTION('',(1.,0.,0.));
#1082=DIRECTION('center_axis',(0.,1.,0.));
#1083=DIRECTION('ref_axis',(0.,0.,1.));
#1084=DIRECTION('',(-1.,0.,0.));
#1085=DIRECTION('center_axis',(0.,0.,1.));
#1086=DIRECTION('ref_axis',(1.,0.,0.));
#1087=DIRECTION('',(1.,0.,0.));
#1088=DIRECTION('',(0.,1.,0.));
#1089=DIRECTION('center_axis',(0.0140060752663614,0.,0.999901910117004));
#1090=DIRECTION('ref_axis',(0.999901910117004,0.,-0.0140060752663614));
#1091=DIRECTION('',(0.999901910117004,0.,-0.0140060752663614));
#1092=DIRECTION('',(0.,1.,0.));
#1093=DIRECTION('center_axis',(0.,1.,0.));
#1094=DIRECTION('ref_axis',(-0.0483491629006864,0.,-0.998830495352842));
#1095=DIRECTION('center_axis',(0.,-1.,0.));
#1096=DIRECTION('ref_axis',(-0.0483491629006864,0.,-0.998830495352842));
#1097=DIRECTION('',(0.,1.,0.));
#1098=DIRECTION('center_axis',(0.999903896409244,0.,0.0138635473675617));
#1099=DIRECTION('ref_axis',(0.0138635473675617,0.,-0.999903896409244));
#1100=DIRECTION('',(0.0138635473675617,0.,-0.999903896409244));
#1101=DIRECTION('',(0.,1.,0.));
#1102=DIRECTION('center_axis',(0.999999998491823,0.,5.49213385758074E-5));
#1103=DIRECTION('ref_axis',(5.49213385758074E-5,0.,-0.999999998491823));
#1104=DIRECTION('',(5.49213385758074E-5,0.,-0.999999998491823));
#1105=DIRECTION('',(0.,1.,0.));
#1106=DIRECTION('center_axis',(0.999902476490469,0.,-0.0139655829891389));
#1107=DIRECTION('ref_axis',(-0.0139655829891389,0.,-0.999902476490469));
#1108=DIRECTION('',(-0.0139655829891389,0.,-0.999902476490469));
#1109=DIRECTION('',(0.,1.,0.));
#1110=DIRECTION('center_axis',(0.,1.,0.));
#1111=DIRECTION('ref_axis',(-0.99883237691145,0.,0.0483102766854373));
#1112=DIRECTION('center_axis',(0.,-1.,0.));
#1113=DIRECTION('ref_axis',(-0.99883237691145,0.,0.0483102766854373));
#1114=DIRECTION('',(0.,1.,0.));
#1115=DIRECTION('center_axis',(0.0144822803369916,0.,-0.999895126278872));
#1116=DIRECTION('ref_axis',(-0.999895126278872,0.,-0.0144822803369916));
#1117=DIRECTION('',(-0.999895126278872,0.,-0.0144822803369916));
#1118=DIRECTION('',(0.,1.,0.));
#1119=DIRECTION('center_axis',(0.000208326603883487,0.,-0.999999978300013));
#1120=DIRECTION('ref_axis',(-0.999999978300013,0.,-0.000208326603883487));
#1121=DIRECTION('',(-0.999999978300013,0.,-0.000208326603883487));
#1122=DIRECTION('',(0.,1.,0.));
#1123=DIRECTION('center_axis',(-0.0132968388676728,0.,-0.999911593130176));
#1124=DIRECTION('ref_axis',(-0.999911593130176,0.,0.0132968388676728));
#1125=DIRECTION('',(-0.999911593130176,0.,0.0132968388676728));
#1126=DIRECTION('',(0.,1.,0.));
#1127=DIRECTION('center_axis',(0.,1.,0.));
#1128=DIRECTION('ref_axis',(0.0480664212666428,0.,0.998844141568953));
#1129=DIRECTION('center_axis',(0.,-1.,0.));
#1130=DIRECTION('ref_axis',(0.0480664212666428,0.,0.998844141568953));
#1131=DIRECTION('',(0.,1.,0.));
#1132=DIRECTION('center_axis',(-0.999906873174174,0.,-0.0136471601092264));
#1133=DIRECTION('ref_axis',(-0.0136471601092264,0.,0.999906873174174));
#1134=DIRECTION('',(-0.0136471601092264,0.,0.999906873174174));
#1135=DIRECTION('',(0.,1.,0.));
#1136=DIRECTION('center_axis',(-1.,0.,0.));
#1137=DIRECTION('ref_axis',(0.,0.,1.));
#1138=DIRECTION('',(0.,0.,1.));
#1139=DIRECTION('',(0.,1.,0.));
#1140=DIRECTION('center_axis',(-0.999901749511631,0.,0.014017536287794));
#1141=DIRECTION('ref_axis',(0.014017536287794,0.,0.999901749511631));
#1142=DIRECTION('',(0.014017536287794,0.,0.999901749511631));
#1143=DIRECTION('',(0.,1.,0.));
#1144=DIRECTION('center_axis',(0.,1.,0.));
#1145=DIRECTION('ref_axis',(0.998829868727038,0.,-0.0483621064339474));
#1146=DIRECTION('center_axis',(0.,-1.,0.));
#1147=DIRECTION('ref_axis',(0.998829868727038,0.,-0.0483621064339474));
#1148=DIRECTION('',(0.,1.,0.));
#1149=DIRECTION('center_axis',(-0.0140175362877628,0.,0.999901749511631));
#1150=DIRECTION('ref_axis',(0.999901749511631,0.,0.0140175362877628));
#1151=DIRECTION('',(0.999901749511631,0.,0.0140175362877628));
#1152=DIRECTION('',(0.,1.,0.));
#1153=DIRECTION('center_axis',(0.,0.,1.));
#1154=DIRECTION('ref_axis',(1.,0.,0.));
#1155=DIRECTION('',(1.,0.,0.));
#1156=DIRECTION('center_axis',(0.,1.,0.));
#1157=DIRECTION('ref_axis',(1.,0.,0.));
#1158=DIRECTION('',(-1.,0.,0.));
#1159=DIRECTION('',(-0.999901910117004,0.,0.0140060752663539));
#1160=DIRECTION('center_axis',(0.,1.,0.));
#1161=DIRECTION('ref_axis',(-0.0450735955907002,0.,-0.998983669025939));
#1162=DIRECTION('',(-0.0138635473675722,0.,0.999903896409243));
#1163=DIRECTION('',(-5.49213385759005E-5,0.,0.999999998491823));
#1164=DIRECTION('',(0.0139655829891162,0.,0.99990247649047));
#1165=DIRECTION('center_axis',(0.,1.,0.));
#1166=DIRECTION('ref_axis',(-0.99898543030674,0.,0.0450345426851234));
#1167=DIRECTION('',(0.999895126278872,0.,0.0144822803369951));
#1168=DIRECTION('',(0.999999978300013,0.,0.000208326603883506));
#1169=DIRECTION('',(0.999911593130176,0.,-0.0132968388676634));
#1170=DIRECTION('center_axis',(0.,1.,0.));
#1171=DIRECTION('ref_axis',(0.0447502078195716,0.,0.998998207656102));
#1172=DIRECTION('',(0.0136471601092262,0.,-0.999906873174174));
#1173=DIRECTION('',(0.,0.,-1.));
#1174=DIRECTION('',(-0.0140175362877885,0.,-0.999901749511631));
#1175=DIRECTION('center_axis',(0.,1.,0.));
#1176=DIRECTION('ref_axis',(0.998983091292106,0.,-0.045086398308878));
#1177=DIRECTION('',(-0.999901749511631,0.,-0.0140175362877627));
#1178=DIRECTION('',(-1.,0.,0.));
#1179=DIRECTION('center_axis',(0.,-1.,0.));
#1180=DIRECTION('ref_axis',(-0.99898543030674,0.,0.0450345426851234));
#1181=DIRECTION('',(0.,1.,0.));
#1182=DIRECTION('center_axis',(0.,-1.,0.));
#1183=DIRECTION('ref_axis',(-0.99898543030674,0.,0.0450345426851234));
#1184=DIRECTION('',(0.,1.,0.));
#1185=DIRECTION('center_axis',(-0.0144822803369951,0.,0.999895126278872));
#1186=DIRECTION('ref_axis',(-0.999895126278872,0.,-0.0144822803369951));
#1187=DIRECTION('',(-0.999895126278872,0.,-0.0144822803369951));
#1188=DIRECTION('',(0.,1.,0.));
#1189=DIRECTION('center_axis',(-0.000208326603883506,0.,0.999999978300013));
#1190=DIRECTION('ref_axis',(-0.999999978300013,0.,-0.000208326603883506));
#1191=DIRECTION('',(-0.999999978300013,0.,-0.000208326603883506));
#1192=DIRECTION('',(0.,1.,0.));
#1193=DIRECTION('center_axis',(0.0132968388676634,0.,0.999911593130176));
#1194=DIRECTION('ref_axis',(-0.999911593130176,0.,0.0132968388676634));
#1195=DIRECTION('',(-0.999911593130176,0.,0.0132968388676634));
#1196=DIRECTION('',(0.,1.,0.));
#1197=DIRECTION('center_axis',(0.,-1.,0.));
#1198=DIRECTION('ref_axis',(0.0447502078195716,0.,0.998998207656102));
#1199=DIRECTION('center_axis',(0.,-1.,0.));
#1200=DIRECTION('ref_axis',(0.0447502078195716,0.,0.998998207656102));
#1201=DIRECTION('',(0.,1.,0.));
#1202=DIRECTION('center_axis',(0.999906873174174,0.,0.0136471601092262));
#1203=DIRECTION('ref_axis',(-0.0136471601092262,0.,0.999906873174174));
#1204=DIRECTION('',(-0.0136471601092262,0.,0.999906873174174));
#1205=DIRECTION('',(0.,1.,0.));
#1206=DIRECTION('center_axis',(1.,0.,0.));
#1207=DIRECTION('ref_axis',(0.,0.,1.));
#1208=DIRECTION('',(0.,0.,1.));
#1209=DIRECTION('',(0.,1.,0.));
#1210=DIRECTION('center_axis',(0.999901749511631,0.,-0.0140175362877885));
#1211=DIRECTION('ref_axis',(0.0140175362877885,0.,0.999901749511631));
#1212=DIRECTION('',(0.0140175362877885,0.,0.999901749511631));
#1213=DIRECTION('',(0.,1.,0.));
#1214=DIRECTION('center_axis',(0.,-1.,0.));
#1215=DIRECTION('ref_axis',(0.998983091292106,0.,-0.045086398308878));
#1216=DIRECTION('center_axis',(0.,-1.,0.));
#1217=DIRECTION('ref_axis',(0.998983091292106,0.,-0.045086398308878));
#1218=DIRECTION('',(0.,1.,0.));
#1219=DIRECTION('center_axis',(0.0140175362877627,0.,-0.999901749511631));
#1220=DIRECTION('ref_axis',(0.999901749511631,0.,0.0140175362877627));
#1221=DIRECTION('',(0.999901749511631,0.,0.0140175362877627));
#1222=DIRECTION('',(0.,1.,0.));
#1223=DIRECTION('center_axis',(0.,0.,-1.));
#1224=DIRECTION('ref_axis',(1.,0.,0.));
#1225=DIRECTION('',(1.,0.,0.));
#1226=DIRECTION('',(0.,1.,0.));
#1227=DIRECTION('center_axis',(-0.0140060752663539,0.,-0.999901910117004));
#1228=DIRECTION('ref_axis',(0.999901910117004,0.,-0.0140060752663539));
#1229=DIRECTION('',(0.999901910117004,0.,-0.0140060752663539));
#1230=DIRECTION('',(0.,1.,0.));
#1231=DIRECTION('center_axis',(0.,-1.,0.));
#1232=DIRECTION('ref_axis',(-0.0450735955907002,0.,-0.998983669025939));
#1233=DIRECTION('center_axis',(0.,-1.,0.));
#1234=DIRECTION('ref_axis',(-0.0450735955907002,0.,-0.998983669025939));
#1235=DIRECTION('',(0.,1.,0.));
#1236=DIRECTION('center_axis',(-0.999903896409244,0.,-0.0138635473675722));
#1237=DIRECTION('ref_axis',(0.0138635473675722,0.,-0.999903896409243));
#1238=DIRECTION('',(0.0138635473675722,0.,-0.999903896409243));
#1239=DIRECTION('',(0.,1.,0.));
#1240=DIRECTION('center_axis',(-0.999999998491823,0.,-5.49213385759005E-5));
#1241=DIRECTION('ref_axis',(5.49213385759005E-5,0.,-0.999999998491823));
#1242=DIRECTION('',(5.49213385759005E-5,0.,-0.999999998491823));
#1243=DIRECTION('',(0.,-1.,0.));
#1244=DIRECTION('center_axis',(-0.99990247649047,0.,0.0139655829891162));
#1245=DIRECTION('ref_axis',(-0.0139655829891162,0.,-0.99990247649047));
#1246=DIRECTION('',(-0.0139655829891162,0.,-0.99990247649047));
#1247=DIRECTION('center_axis',(0.,1.,0.));
#1248=DIRECTION('ref_axis',(1.,0.,0.));
#1249=CARTESIAN_POINT('',(0.,0.,0.));
#1250=CARTESIAN_POINT('Origin',(15.5262714582094,-12.,-37.5122));
#1251=CARTESIAN_POINT('',(15.5262714582094,-11.,-36.5122));
#1252=CARTESIAN_POINT('',(15.5262714582094,-11.,-37.5122));
#1253=CARTESIAN_POINT('',(15.5262714582094,-11.,-26.2740624813652));
#1254=CARTESIAN_POINT('',(15.5262714582094,-12.,-36.5122));
#1255=CARTESIAN_POINT('',(15.5262714582094,-12.,-36.5122));
#1256=CARTESIAN_POINT('',(15.5262714582094,-12.,-35.0122));
#1257=CARTESIAN_POINT('',(15.5262714582094,-12.,-18.7561053843095));
#1258=CARTESIAN_POINT('',(15.5262714582094,-6.5,-35.0122));
#1259=CARTESIAN_POINT('',(15.5262714582094,-12.,-35.0122));
#1260=CARTESIAN_POINT('',(15.5262714582094,-6.5,-37.5122));
#1261=CARTESIAN_POINT('',(15.5262714582094,-6.5,-26.2740624813652));
#1262=CARTESIAN_POINT('',(15.5262714582094,-12.,-37.5122));
#1263=CARTESIAN_POINT('Origin',(43.3069824864169,-12.,-35.0122));
#1264=CARTESIAN_POINT('',(43.3069824864169,-11.,-37.5122));
#1265=CARTESIAN_POINT('',(43.3069824864169,-11.,-36.5122));
#1266=CARTESIAN_POINT('',(43.3069824864169,-11.,-37.5122));
#1267=CARTESIAN_POINT('',(43.3069824864169,-6.5,-37.5122));
#1268=CARTESIAN_POINT('',(43.3069824864169,-12.,-37.5122));
#1269=CARTESIAN_POINT('',(43.3069824864169,-6.5,-35.0122));
#1270=CARTESIAN_POINT('',(43.3069824864169,-6.5,-37.5122));
#1271=CARTESIAN_POINT('',(43.3069824864169,-12.,-35.0122));
#1272=CARTESIAN_POINT('',(43.3069824864169,-12.,-35.0122));
#1273=CARTESIAN_POINT('',(43.3069824864169,-12.,-36.5122));
#1274=CARTESIAN_POINT('',(43.3069824864168,-12.,-17.5061053843095));
#1275=CARTESIAN_POINT('',(43.3069824864169,-12.,-36.5122));
#1276=CARTESIAN_POINT('Origin',(15.5262714582094,-12.,-35.0122));
#1277=CARTESIAN_POINT('',(7.76314698940279,-12.,-35.0122));
#1278=CARTESIAN_POINT('',(-56.998302,-6.5,-35.0122));
#1279=CARTESIAN_POINT('Origin',(29.4166269723131,-6.5,-36.2622));
#1280=CARTESIAN_POINT('',(57.0193857811707,-6.5,-37.5122));
#1281=CARTESIAN_POINT('Origin',(2.2520596214548E-5,-12.,-1.07686189476652E-5));
#1282=CARTESIAN_POINT('',(-10.0196754481395,-12.,-36.5122));
#1283=CARTESIAN_POINT('',(-5.00982646377163,-12.,-36.5122));
#1284=CARTESIAN_POINT('',(-10.0196754481395,-12.,-35.0122));
#1285=CARTESIAN_POINT('',(-10.0196754481395,-12.,-17.5061053843095));
#1286=CARTESIAN_POINT('',(-40.1296900090912,-12.,-35.0122));
#1287=CARTESIAN_POINT('',(-20.0648337442475,-12.,-35.0122));
#1288=CARTESIAN_POINT('',(-40.1296900090912,-12.,-36.5122));
#1289=CARTESIAN_POINT('',(-40.1296900090912,-12.,-18.7561053843095));
#1290=CARTESIAN_POINT('',(-57.0088070716707,-12.,-36.5122));
#1291=CARTESIAN_POINT('',(-28.5043922755372,-12.,-36.5122));
#1292=CARTESIAN_POINT('',(-57.2160239162295,-12.,-36.509297420565));
#1293=CARTESIAN_POINT('',(-28.8692635670257,-12.,-36.906363227712));
#1294=CARTESIAN_POINT('',(-61.4954284868797,-12.,-32.2300143700717));
#1295=CARTESIAN_POINT('Origin',(-56.99833849664,-12.,-32.012201246918));
#1296=CARTESIAN_POINT('',(-61.4983014289192,-12.,-32.0228043491925));
#1297=CARTESIAN_POINT('',(-61.7143449284101,-12.,-16.4407364117886));
#1298=CARTESIAN_POINT('',(-61.5018175752845,-12.,31.9986935090035));
#1299=CARTESIAN_POINT('',(-61.5009387766944,-12.,15.9976525367631));
#1300=CARTESIAN_POINT('',(-61.4989234009271,-12.,32.2059094991745));
#1301=CARTESIAN_POINT('',(-61.7177913946707,-12.,16.5354824830615));
#1302=CARTESIAN_POINT('',(-57.2206854173254,-12.,36.4854213332246));
#1303=CARTESIAN_POINT('Origin',(-57.0018371641,-12.,31.98840004974));
#1304=CARTESIAN_POINT('',(-57.0134605164798,-12.,36.4884227370998));
#1305=CARTESIAN_POINT('',(-28.7768880525645,-12.,36.8973955857825));
#1306=CARTESIAN_POINT('',(57.0110548318392,-12.,36.5121770776573));
#1307=CARTESIAN_POINT('',(28.5017366833917,-12.,36.5062378280995));
#1308=CARTESIAN_POINT('',(57.2182803485531,-12.,36.5094213897305));
#1309=CARTESIAN_POINT('',(28.8569182573223,-12.,36.886571194159));
#1310=CARTESIAN_POINT('',(61.4990346293453,-12.,32.2296413059922));
#1311=CARTESIAN_POINT('Origin',(57.001864978913,-12.,32.01220236626));
#1312=CARTESIAN_POINT('',(61.501863,-12.,32.0224108466979));
#1313=CARTESIAN_POINT('',(61.7146230040237,-12.,16.43380569682));
#1314=CARTESIAN_POINT('',(61.501863,-12.,-32.0227136687023));
#1315=CARTESIAN_POINT('',(61.501863,-12.,-16.0113622186606));
#1316=CARTESIAN_POINT('',(61.4989578371022,-12.,-32.229945339411));
#1317=CARTESIAN_POINT('',(61.7187857781894,-12.,-16.5491339349135));
#1318=CARTESIAN_POINT('',(57.219608339411,-12.,-36.5092948371022));
#1319=CARTESIAN_POINT('Origin',(57.001864651423,-12.,-32.012201651423));
#1320=CARTESIAN_POINT('',(57.0123766687025,-12.,-36.5122));
#1321=CARTESIAN_POINT('',(28.7676811370238,-12.,-36.9081599478104));
#1322=CARTESIAN_POINT('',(21.6535025035065,-12.,-36.5122));
#1323=CARTESIAN_POINT('Origin',(-40.1296900090912,-12.,-37.5122));
#1324=CARTESIAN_POINT('',(-40.1296900090912,-11.,-36.5122));
#1325=CARTESIAN_POINT('',(-40.1296900090912,-11.,-37.5122));
#1326=CARTESIAN_POINT('',(-40.1296900090912,-11.,-37.5122));
#1327=CARTESIAN_POINT('',(-40.1296900090912,-12.,-36.5122));
#1328=CARTESIAN_POINT('',(-40.1296900090912,-6.5,-35.0122));
#1329=CARTESIAN_POINT('',(-40.1296900090912,-12.,-35.0122));
#1330=CARTESIAN_POINT('',(-40.1296900090912,-6.5,-37.5122));
#1331=CARTESIAN_POINT('',(-40.1296900090912,-6.5,-37.5122));
#1332=CARTESIAN_POINT('',(-40.1296900090912,-12.,-37.5122));
#1333=CARTESIAN_POINT('Origin',(-10.0196754481395,-12.,-35.0122));
#1334=CARTESIAN_POINT('',(-10.0196754481395,-11.,-37.5122));
#1335=CARTESIAN_POINT('',(-10.0196754481395,-11.,-36.5122));
#1336=CARTESIAN_POINT('',(-10.0196754481395,-11.,-24.9142572869794));
#1337=CARTESIAN_POINT('',(-10.0196754481395,-6.5,-37.5122));
#1338=CARTESIAN_POINT('',(-10.0196754481395,-12.,-37.5122));
#1339=CARTESIAN_POINT('',(-10.0196754481395,-6.5,-35.0122));
#1340=CARTESIAN_POINT('',(-10.0196754481395,-6.5,-24.9142572869794));
#1341=CARTESIAN_POINT('',(-10.0196754481395,-12.,-35.0122));
#1342=CARTESIAN_POINT('',(-10.0196754481395,-12.,-36.5122));
#1343=CARTESIAN_POINT('Origin',(-40.1296900090912,-12.,-35.0122));
#1344=CARTESIAN_POINT('',(-56.998302,-6.5,-35.0122));
#1345=CARTESIAN_POINT('Origin',(-25.0746827286153,-6.5,-36.2622));
#1346=CARTESIAN_POINT('',(-10.0196754481395,-6.5,-37.5122));
#1347=CARTESIAN_POINT('Origin',(-10.0196754481395,-12.,-36.5122));
#1348=CARTESIAN_POINT('',(57.0123766687025,-11.,-36.5122));
#1349=CARTESIAN_POINT('Origin',(2.75329800503495,-11.,-37.0122));
#1350=CARTESIAN_POINT('',(57.0193857811707,-11.,-37.5122));
#1351=CARTESIAN_POINT('Origin',(-57.0088070716707,-12.,-36.5122));
#1352=CARTESIAN_POINT('',(-57.0088070716707,-11.,-36.5122));
#1353=CARTESIAN_POINT('',(57.0123766687025,-11.,-36.5122));
#1354=CARTESIAN_POINT('',(-57.0088070716707,-12.,-36.5122));
#1355=CARTESIAN_POINT('Origin',(-57.2160239162295,-12.,-36.509297420565));
#1356=CARTESIAN_POINT('',(-57.2160239162295,-11.,-36.509297420565));
#1357=CARTESIAN_POINT('',(-57.0088070716707,-11.,-36.5122));
#1358=CARTESIAN_POINT('',(-57.2160239162295,-12.,-36.509297420565));
#1359=CARTESIAN_POINT('Origin',(-56.99833849664,-12.,-32.012201246918));
#1360=CARTESIAN_POINT('',(-61.4954284868797,-11.,-32.2300143700717));
#1361=CARTESIAN_POINT('Origin',(-56.99833849664,-11.,-32.012201246918));
#1362=CARTESIAN_POINT('',(-61.4954284868797,-12.,-32.2300143700717));
#1363=CARTESIAN_POINT('Origin',(-61.4983014289192,-12.,-32.0228043491925));
#1364=CARTESIAN_POINT('',(-61.4983014289192,-11.,-32.0228043491925));
#1365=CARTESIAN_POINT('',(-61.4954284868797,-11.,-32.2300143700717));
#1366=CARTESIAN_POINT('',(-61.4983014289192,-12.,-32.0228043491925));
#1367=CARTESIAN_POINT('Origin',(-61.5018175752845,-12.,31.9986935090035));
#1368=CARTESIAN_POINT('',(-61.5018175752845,-11.,31.9986935090035));
#1369=CARTESIAN_POINT('',(-61.4983014289192,-11.,-32.0228043491925));
#1370=CARTESIAN_POINT('',(-61.5018175752845,-12.,31.9986935090035));
#1371=CARTESIAN_POINT('Origin',(-61.4989234009271,-12.,32.2059094991745));
#1372=CARTESIAN_POINT('',(-61.4989234009271,-11.,32.2059094991745));
#1373=CARTESIAN_POINT('',(-61.5018175752845,-11.,31.9986935090035));
#1374=CARTESIAN_POINT('',(-61.4989234009271,-12.,32.2059094991745));
#1375=CARTESIAN_POINT('Origin',(-57.0018371641,-12.,31.98840004974));
#1376=CARTESIAN_POINT('',(-57.2206854173254,-11.,36.4854213332246));
#1377=CARTESIAN_POINT('Origin',(-57.0018371641,-11.,31.98840004974));
#1378=CARTESIAN_POINT('',(-57.2206854173254,-12.,36.4854213332246));
#1379=CARTESIAN_POINT('Origin',(-57.0134605164798,-12.,36.4884227370998));
#1380=CARTESIAN_POINT('',(-57.0134605164798,-11.,36.4884227370998));
#1381=CARTESIAN_POINT('',(-57.2206854173254,-11.,36.4854213332246));
#1382=CARTESIAN_POINT('',(-57.0134605164798,-12.,36.4884227370998));
#1383=CARTESIAN_POINT('Origin',(57.0110548318392,-12.,36.5121770776573));
#1384=CARTESIAN_POINT('',(57.0110548318392,-11.,36.5121770776573));
#1385=CARTESIAN_POINT('',(-57.0134605164798,-11.,36.4884227370998));
#1386=CARTESIAN_POINT('',(57.0110548318392,-12.,36.5121770776573));
#1387=CARTESIAN_POINT('Origin',(57.2182803485531,-12.,36.5094213897305));
#1388=CARTESIAN_POINT('',(57.2182803485531,-11.,36.5094213897305));
#1389=CARTESIAN_POINT('',(57.0110548318392,-11.,36.5121770776573));
#1390=CARTESIAN_POINT('',(57.2182803485531,-12.,36.5094213897305));
#1391=CARTESIAN_POINT('Origin',(57.001864978913,-12.,32.01220236626));
#1392=CARTESIAN_POINT('',(61.4990346293453,-11.,32.2296413059922));
#1393=CARTESIAN_POINT('Origin',(57.001864978913,-11.,32.01220236626));
#1394=CARTESIAN_POINT('',(61.4990346293453,-12.,32.2296413059922));
#1395=CARTESIAN_POINT('Origin',(61.501863,-12.,32.0224108466979));
#1396=CARTESIAN_POINT('',(61.501863,-11.,32.0224108466979));
#1397=CARTESIAN_POINT('',(61.4990346293453,-11.,32.2296413059922));
#1398=CARTESIAN_POINT('',(61.501863,-12.,32.0224108466979));
#1399=CARTESIAN_POINT('Origin',(61.501863,-12.,-32.0227136687023));
#1400=CARTESIAN_POINT('',(61.501863,-11.,-32.0227136687023));
#1401=CARTESIAN_POINT('',(61.501863,-11.,32.0224108466979));
#1402=CARTESIAN_POINT('',(61.501863,-12.,-32.0227136687023));
#1403=CARTESIAN_POINT('Origin',(61.4989578371022,-12.,-32.229945339411));
#1404=CARTESIAN_POINT('',(61.4989578371022,-11.,-32.229945339411));
#1405=CARTESIAN_POINT('',(61.501863,-11.,-32.0227136687023));
#1406=CARTESIAN_POINT('',(61.4989578371022,-12.,-32.229945339411));
#1407=CARTESIAN_POINT('Origin',(57.001864651423,-12.,-32.012201651423));
#1408=CARTESIAN_POINT('',(57.219608339411,-11.,-36.5092948371022));
#1409=CARTESIAN_POINT('Origin',(57.001864651423,-11.,-32.012201651423));
#1410=CARTESIAN_POINT('',(57.219608339411,-12.,-36.5092948371022));
#1411=CARTESIAN_POINT('Origin',(57.0123766687025,-12.,-36.5122));
#1412=CARTESIAN_POINT('',(57.0123766687025,-11.,-36.5122));
#1413=CARTESIAN_POINT('',(57.219608339411,-11.,-36.5092948371022));
#1414=CARTESIAN_POINT('',(57.0123766687025,-12.,-36.5122));
#1415=CARTESIAN_POINT('Origin',(43.3069824864169,-12.,-36.5122));
#1416=CARTESIAN_POINT('',(57.0123766687025,-11.,-36.5122));
#1417=CARTESIAN_POINT('Origin',(2.2520596214548E-5,-11.,-1.07686189476652E-5));
#1418=CARTESIAN_POINT('',(-57.0158104527841,-11.,-37.5122));
#1419=CARTESIAN_POINT('',(57.0193857811707,-11.,-37.5122));
#1420=CARTESIAN_POINT('',(-57.2463497229964,-11.,-37.5089707328711));
#1421=CARTESIAN_POINT('',(-57.0158104527841,-11.,-37.5122));
#1422=CARTESIAN_POINT('',(-62.4951049858952,-11.,-32.2602788813499));
#1423=CARTESIAN_POINT('Origin',(-56.99833849664,-11.,-32.012201246918));
#1424=CARTESIAN_POINT('',(-62.4983010481987,-11.,-32.0297639153209));
#1425=CARTESIAN_POINT('',(-62.4951049858952,-11.,-32.2602788813499));
#1426=CARTESIAN_POINT('',(-62.5018179588076,-11.,32.0056491816722));
#1427=CARTESIAN_POINT('',(-62.4983010481987,-11.,-32.0297639153209));
#1428=CARTESIAN_POINT('',(-62.4985979301591,-11.,32.2361955629068));
#1429=CARTESIAN_POINT('',(-62.5018179588076,-11.,32.0056491816722));
#1430=CARTESIAN_POINT('',(-57.2513840090571,-11.,37.4850815857037));
#1431=CARTESIAN_POINT('Origin',(-57.0018371641,-11.,31.98840004974));
#1432=CARTESIAN_POINT('',(-57.0208061941332,-11.,37.4884212284997));
#1433=CARTESIAN_POINT('',(-57.2513840090571,-11.,37.4850815857037));
#1434=CARTESIAN_POINT('',(57.0175993863984,-11.,37.5121784627621));
#1435=CARTESIAN_POINT('',(-57.0208061941332,-11.,37.4884212284997));
#1436=CARTESIAN_POINT('',(57.2480995600546,-11.,37.5091132681098));
#1437=CARTESIAN_POINT('',(57.0175993863984,-11.,37.5121784627621));
#1438=CARTESIAN_POINT('',(62.4987167949615,-11.,32.2597524505454));
#1439=CARTESIAN_POINT('Origin',(57.001864978913,-11.,32.01220236626));
#1440=CARTESIAN_POINT('',(62.501863,-11.,32.0292347444965));
#1441=CARTESIAN_POINT('',(62.4987167949615,-11.,32.2597524505454));
#1442=CARTESIAN_POINT('',(62.501863,-11.,-32.0297227811707));
#1443=CARTESIAN_POINT('',(62.501863,-11.,32.0292347444965));
#1444=CARTESIAN_POINT('',(62.4986307917783,-11.,-32.2602833154423));
#1445=CARTESIAN_POINT('',(62.501863,-11.,-32.0297227811707));
#1446=CARTESIAN_POINT('',(57.249946315442,-11.,-37.5089677917783));
#1447=CARTESIAN_POINT('Origin',(57.001864651423,-11.,-32.012201651423));
#1448=CARTESIAN_POINT('',(57.0193857811707,-11.,-37.5122));
#1449=CARTESIAN_POINT('',(57.249946315442,-11.,-37.5089677917783));
#1450=CARTESIAN_POINT('',(57.0193857811707,-11.,-37.5122));
#1451=CARTESIAN_POINT('Origin',(-57.0018371641,-12.,31.98840004974));
#1452=CARTESIAN_POINT('',(-62.4985979301591,-14.,32.2361955629068));
#1453=CARTESIAN_POINT('',(-62.4985979301591,-12.,32.2361955629068));
#1454=CARTESIAN_POINT('',(-57.2513840090571,-14.,37.4850815857037));
#1455=CARTESIAN_POINT('Origin',(-57.0018371641,-14.,31.98840004974));
#1456=CARTESIAN_POINT('',(-57.2513840090571,-12.,37.4850815857037));
#1457=CARTESIAN_POINT('Origin',(-57.0208061941332,-12.,37.4884212284997));
#1458=CARTESIAN_POINT('',(-57.0208061941332,-14.,37.4884212284997));
#1459=CARTESIAN_POINT('',(-57.2513840090571,-14.,37.4850815857037));
#1460=CARTESIAN_POINT('',(-57.0208061941332,-12.,37.4884212284997));
#1461=CARTESIAN_POINT('Origin',(57.0175993863984,-12.,37.5121784627621));
#1462=CARTESIAN_POINT('',(57.0175993863984,-14.,37.5121784627621));
#1463=CARTESIAN_POINT('',(-57.0208061941332,-14.,37.4884212284997));
#1464=CARTESIAN_POINT('',(57.0175993863984,-12.,37.5121784627621));
#1465=CARTESIAN_POINT('Origin',(57.2480995600546,-12.,37.5091132681098));
#1466=CARTESIAN_POINT('',(57.2480995600546,-14.,37.5091132681098));
#1467=CARTESIAN_POINT('',(57.0175993863984,-14.,37.5121784627621));
#1468=CARTESIAN_POINT('',(57.2480995600546,-12.,37.5091132681098));
#1469=CARTESIAN_POINT('Origin',(57.001864978913,-12.,32.01220236626));
#1470=CARTESIAN_POINT('',(62.4987167949615,-14.,32.2597524505454));
#1471=CARTESIAN_POINT('Origin',(57.001864978913,-14.,32.01220236626));
#1472=CARTESIAN_POINT('',(62.4987167949615,-12.,32.2597524505454));
#1473=CARTESIAN_POINT('Origin',(62.501863,-12.,32.0292347444965));
#1474=CARTESIAN_POINT('',(62.501863,-14.,32.0292347444965));
#1475=CARTESIAN_POINT('',(62.4987167949615,-14.,32.2597524505454));
#1476=CARTESIAN_POINT('',(62.501863,-12.,32.0292347444965));
#1477=CARTESIAN_POINT('Origin',(62.501863,-12.,-32.0297227811707));
#1478=CARTESIAN_POINT('',(62.501863,-14.,-32.0297227811707));
#1479=CARTESIAN_POINT('',(62.501863,-14.,32.0292347444965));
#1480=CARTESIAN_POINT('',(62.501863,-12.,-32.0297227811707));
#1481=CARTESIAN_POINT('Origin',(62.4986307917783,-12.,-32.2602833154423));
#1482=CARTESIAN_POINT('',(62.4986307917783,-14.,-32.2602833154423));
#1483=CARTESIAN_POINT('',(62.501863,-14.,-32.0297227811707));
#1484=CARTESIAN_POINT('',(62.4986307917783,-12.,-32.2602833154423));
#1485=CARTESIAN_POINT('Origin',(57.001864651423,-12.,-32.012201651423));
#1486=CARTESIAN_POINT('',(57.249946315442,-14.,-37.5089677917783));
#1487=CARTESIAN_POINT('Origin',(57.001864651423,-14.,-32.012201651423));
#1488=CARTESIAN_POINT('',(57.249946315442,-12.,-37.5089677917783));
#1489=CARTESIAN_POINT('Origin',(57.0193857811707,-12.,-37.5122));
#1490=CARTESIAN_POINT('',(57.0193857811707,-14.,-37.5122));
#1491=CARTESIAN_POINT('',(57.249946315442,-14.,-37.5089677917783));
#1492=CARTESIAN_POINT('',(57.0193857811707,-12.,-37.5122));
#1493=CARTESIAN_POINT('Origin',(-57.0158104527841,-12.,-37.5122));
#1494=CARTESIAN_POINT('',(-57.0158104527841,-14.,-37.5122));
#1495=CARTESIAN_POINT('',(57.0193857811707,-14.,-37.5122));
#1496=CARTESIAN_POINT('',(-57.0158104527841,-12.,-37.5122));
#1497=CARTESIAN_POINT('Origin',(-57.2463497229964,-12.,-37.5089707328711));
#1498=CARTESIAN_POINT('',(-57.2463497229964,-14.,-37.5089707328711));
#1499=CARTESIAN_POINT('',(-57.0158104527841,-14.,-37.5122));
#1500=CARTESIAN_POINT('',(-57.2463497229964,-12.,-37.5089707328711));
#1501=CARTESIAN_POINT('Origin',(-56.99833849664,-12.,-32.012201246918));
#1502=CARTESIAN_POINT('',(-62.4951049858952,-14.,-32.2602788813499));
#1503=CARTESIAN_POINT('Origin',(-56.99833849664,-14.,-32.012201246918));
#1504=CARTESIAN_POINT('',(-62.4951049858952,-12.,-32.2602788813499));
#1505=CARTESIAN_POINT('Origin',(-62.4983010481987,-12.,-32.0297639153209));
#1506=CARTESIAN_POINT('',(-62.4983010481987,-14.,-32.0297639153209));
#1507=CARTESIAN_POINT('',(-62.4951049858952,-14.,-32.2602788813499));
#1508=CARTESIAN_POINT('',(-62.4983010481987,-12.,-32.0297639153209));
#1509=CARTESIAN_POINT('Origin',(-62.5018179588076,-12.,32.0056491816722));
#1510=CARTESIAN_POINT('',(-62.5018179588076,-14.,32.0056491816722));
#1511=CARTESIAN_POINT('',(-62.4983010481987,-14.,-32.0297639153209));
#1512=CARTESIAN_POINT('',(-62.5018179588076,-12.,32.0056491816722));
#1513=CARTESIAN_POINT('Origin',(-62.4985979301591,-12.,32.2361955629068));
#1514=CARTESIAN_POINT('',(-62.5018179588076,-14.,32.0056491816722));
#1515=CARTESIAN_POINT('Origin',(2.2520596214548E-5,-14.,-1.07686189476652E-5));
#1516=UNCERTAINTY_MEASURE_WITH_UNIT(LENGTH_MEASURE(0.01),#1520,
'DISTANCE_ACCURACY_VALUE',
'Maximum model space distance between geometric entities at asserted c
onnectivities');
#1517=UNCERTAINTY_MEASURE_WITH_UNIT(LENGTH_MEASURE(0.01),#1520,
'DISTANCE_ACCURACY_VALUE',
'Maximum model space distance between geometric entities at asserted c
onnectivities');
#1518=(
GEOMETRIC_REPRESENTATION_CONTEXT(3)
GLOBAL_UNCERTAINTY_ASSIGNED_CONTEXT((#1516))
GLOBAL_UNIT_ASSIGNED_CONTEXT((#1520,#1522,#1523))
REPRESENTATION_CONTEXT('','3D')
);
#1519=(
GEOMETRIC_REPRESENTATION_CONTEXT(3)
GLOBAL_UNCERTAINTY_ASSIGNED_CONTEXT((#1517))
GLOBAL_UNIT_ASSIGNED_CONTEXT((#1520,#1522,#1523))
REPRESENTATION_CONTEXT('','3D')
);
#1520=(
LENGTH_UNIT()
NAMED_UNIT(*)
SI_UNIT(.MILLI.,.METRE.)
);
#1521=(
LENGTH_UNIT()
NAMED_UNIT(*)
SI_UNIT($,.METRE.)
);
#1522=(
NAMED_UNIT(*)
PLANE_ANGLE_UNIT()
SI_UNIT($,.RADIAN.)
);
#1523=(
NAMED_UNIT(*)
SI_UNIT($,.STERADIAN.)
SOLID_ANGLE_UNIT()
);
#1524=SHAPE_DEFINITION_REPRESENTATION(#1525,#1526);
#1525=PRODUCT_DEFINITION_SHAPE('',$,#1528);
#1526=SHAPE_REPRESENTATION('',(#944),#1518);
#1527=PRODUCT_DEFINITION_CONTEXT('part definition',#1532,'design');
#1528=PRODUCT_DEFINITION('2026-09-01-18-10-28-692','TEMP_STEP_EXPORT',#1529,
#1527);
#1529=PRODUCT_DEFINITION_FORMATION('',$,#1534);
#1530=PRODUCT_RELATED_PRODUCT_CATEGORY('TEMP_STEP_EXPORT',
'TEMP_STEP_EXPORT',(#1534));
#1531=APPLICATION_PROTOCOL_DEFINITION('international standard',
'automotive_design',2009,#1532);
#1532=APPLICATION_CONTEXT(
'Core Data for Automotive Mechanical Design Process');
#1533=PRODUCT_CONTEXT('part definition',#1532,'mechanical');
#1534=PRODUCT('2026-09-01-18-10-28-692','TEMP_STEP_EXPORT',$,(#1533));
#1535=PRESENTATION_STYLE_ASSIGNMENT((#1536));
#1536=SURFACE_STYLE_USAGE(.BOTH.,#1537);
#1537=SURFACE_SIDE_STYLE('',(#1538));
#1538=SURFACE_STYLE_FILL_AREA(#1539);
#1539=FILL_AREA_STYLE('Steel - Satin',(#1540));
#1540=FILL_AREA_STYLE_COLOUR('Steel - Satin',#1541);
#1541=COLOUR_RGB('Steel - Satin',0.627450980392157,0.627450980392157,0.627450980392157);
ENDSEC;
END-ISO-10303-21;
