ISO-10303-21;
HEADER;
/* Generated by software containing ST-Developer
 * from STEP Tools, Inc. (www.steptools.com) 
 */

FILE_DESCRIPTION(
/* description */ (''),
/* implementation_level */ '2;1');

FILE_NAME(
/* name */ 'back-cover-with-slots.step',
/* time_stamp */ '2026-09-01T18:10:20+05:30',
/* author */ (''),
/* organization */ (''),
/* preprocessor_version */ 'ST-DEVELOPER v20.1',
/* originating_system */ 'Autodesk Translation Framework v15.8.0.0',
/* authorisation */ '');

FILE_SCHEMA (('AUTOMOTIVE_DESIGN { 1 0 10303 214 3 1 1 }'));
ENDSEC;

DATA;
#10=MECHANICAL_DESIGN_GEOMETRIC_PRESENTATION_REPRESENTATION('',(#13),#1703);
#11=SHAPE_REPRESENTATION_RELATIONSHIP('SRR','None',#1710,#12);
#12=ADVANCED_BREP_SHAPE_REPRESENTATION('',(#14),#1702);
#13=STYLED_ITEM('',(#1719),#14);
#14=MANIFOLD_SOLID_BREP('Back Cover - with slots',#1028);
#15=CONICAL_SURFACE('',#1084,1.6,0.785398163397446);
#16=CONICAL_SURFACE('',#1087,1.6,0.785398163397447);
#17=CONICAL_SURFACE('',#1099,1.6,0.785398163397446);
#18=CONICAL_SURFACE('',#1102,1.59999999999999,0.785398163397446);
#19=CONICAL_SURFACE('',#1105,1.6,0.785398163397446);
#20=CYLINDRICAL_SURFACE('',#1059,4.50236170658601);
#21=CYLINDRICAL_SURFACE('',#1064,4.50234327678967);
#22=CYLINDRICAL_SURFACE('',#1069,4.50242318727164);
#23=CYLINDRICAL_SURFACE('',#1074,4.50236153971899);
#24=CYLINDRICAL_SURFACE('',#1090,1.1);
#25=CYLINDRICAL_SURFACE('',#1101,1.1);
#26=CYLINDRICAL_SURFACE('',#1104,1.09999999999999);
#27=CYLINDRICAL_SURFACE('',#1107,1.1);
#28=CYLINDRICAL_SURFACE('',#1108,1.1);
#29=CYLINDRICAL_SURFACE('',#1109,5.50234327678967);
#30=CYLINDRICAL_SURFACE('',#1113,5.50242318727165);
#31=CYLINDRICAL_SURFACE('',#1117,5.50236153971899);
#32=CYLINDRICAL_SURFACE('',#1121,5.50236170658601);
#33=FACE_BOUND('',#129,.T.);
#34=FACE_BOUND('',#130,.T.);
#35=FACE_BOUND('',#131,.T.);
#36=FACE_BOUND('',#132,.T.);
#37=FACE_BOUND('',#157,.T.);
#38=FACE_BOUND('',#158,.T.);
#39=FACE_BOUND('',#159,.T.);
#40=FACE_BOUND('',#160,.T.);
#41=CIRCLE('',#1047,4.50236170658601);
#42=CIRCLE('',#1048,4.50234327678967);
#43=CIRCLE('',#1049,4.50242318727164);
#44=CIRCLE('',#1050,4.50236153971899);
#45=CIRCLE('',#1051,1.09999999999999);
#46=CIRCLE('',#1052,1.1);
#47=CIRCLE('',#1053,1.1);
#48=CIRCLE('',#1054,1.1);
#49=CIRCLE('',#1055,1.1);
#50=CIRCLE('',#1060,4.50236170658601);
#51=CIRCLE('',#1065,4.50234327678967);
#52=CIRCLE('',#1070,4.50242318727164);
#53=CIRCLE('',#1075,4.50236153971899);
#54=CIRCLE('',#1080,5.50236170658601);
#55=CIRCLE('',#1081,5.50234327678967);
#56=CIRCLE('',#1082,5.50242318727165);
#57=CIRCLE('',#1083,5.50236153971899);
#58=CIRCLE('',#1085,2.1);
#59=CIRCLE('',#1086,1.1);
#60=CIRCLE('',#1088,2.1);
#61=CIRCLE('',#1089,1.1);
#62=CIRCLE('',#1092,5.50236170658601);
#63=CIRCLE('',#1093,5.50236153971899);
#64=CIRCLE('',#1094,5.50242318727165);
#65=CIRCLE('',#1095,5.50234327678967);
#66=CIRCLE('',#1096,2.1);
#67=CIRCLE('',#1097,2.1);
#68=CIRCLE('',#1098,2.09999999999999);
#69=CIRCLE('',#1100,1.1);
#70=CIRCLE('',#1103,1.09999999999999);
#71=CIRCLE('',#1106,1.1);
#72=FACE_OUTER_BOUND('',#124,.T.);
#73=FACE_OUTER_BOUND('',#125,.T.);
#74=FACE_OUTER_BOUND('',#126,.T.);
#75=FACE_OUTER_BOUND('',#127,.T.);
#76=FACE_OUTER_BOUND('',#128,.T.);
#77=FACE_OUTER_BOUND('',#133,.T.);
#78=FACE_OUTER_BOUND('',#134,.T.);
#79=FACE_OUTER_BOUND('',#135,.T.);
#80=FACE_OUTER_BOUND('',#136,.T.);
#81=FACE_OUTER_BOUND('',#137,.T.);
#82=FACE_OUTER_BOUND('',#138,.T.);
#83=FACE_OUTER_BOUND('',#139,.T.);
#84=FACE_OUTER_BOUND('',#140,.T.);
#85=FACE_OUTER_BOUND('',#141,.T.);
#86=FACE_OUTER_BOUND('',#142,.T.);
#87=FACE_OUTER_BOUND('',#143,.T.);
#88=FACE_OUTER_BOUND('',#144,.T.);
#89=FACE_OUTER_BOUND('',#145,.T.);
#90=FACE_OUTER_BOUND('',#146,.T.);
#91=FACE_OUTER_BOUND('',#147,.T.);
#92=FACE_OUTER_BOUND('',#148,.T.);
#93=FACE_OUTER_BOUND('',#149,.T.);
#94=FACE_OUTER_BOUND('',#150,.T.);
#95=FACE_OUTER_BOUND('',#151,.T.);
#96=FACE_OUTER_BOUND('',#152,.T.);
#97=FACE_OUTER_BOUND('',#153,.T.);
#98=FACE_OUTER_BOUND('',#154,.T.);
#99=FACE_OUTER_BOUND('',#155,.T.);
#100=FACE_OUTER_BOUND('',#156,.T.);
#101=FACE_OUTER_BOUND('',#161,.T.);
#102=FACE_OUTER_BOUND('',#162,.T.);
#103=FACE_OUTER_BOUND('',#163,.T.);
#104=FACE_OUTER_BOUND('',#164,.T.);
#105=FACE_OUTER_BOUND('',#165,.T.);
#106=FACE_OUTER_BOUND('',#166,.T.);
#107=FACE_OUTER_BOUND('',#167,.T.);
#108=FACE_OUTER_BOUND('',#168,.T.);
#109=FACE_OUTER_BOUND('',#169,.T.);
#110=FACE_OUTER_BOUND('',#170,.T.);
#111=FACE_OUTER_BOUND('',#171,.T.);
#112=FACE_OUTER_BOUND('',#172,.T.);
#113=FACE_OUTER_BOUND('',#173,.T.);
#114=FACE_OUTER_BOUND('',#174,.T.);
#115=FACE_OUTER_BOUND('',#175,.T.);
#116=FACE_OUTER_BOUND('',#176,.T.);
#117=FACE_OUTER_BOUND('',#177,.T.);
#118=FACE_OUTER_BOUND('',#178,.T.);
#119=FACE_OUTER_BOUND('',#179,.T.);
#120=FACE_OUTER_BOUND('',#180,.T.);
#121=FACE_OUTER_BOUND('',#181,.T.);
#122=FACE_OUTER_BOUND('',#182,.T.);
#123=FACE_OUTER_BOUND('',#183,.T.);
#124=EDGE_LOOP('',(#652,#653,#654,#655));
#125=EDGE_LOOP('',(#656,#657,#658,#659));
#126=EDGE_LOOP('',(#660,#661,#662,#663));
#127=EDGE_LOOP('',(#664,#665,#666,#667));
#128=EDGE_LOOP('',(#668,#669,#670,#671,#672,#673,#674,#675,#676,#677,#678,
#679,#680,#681,#682,#683,#684,#685,#686,#687,#688,#689,#690,#691));
#129=EDGE_LOOP('',(#692));
#130=EDGE_LOOP('',(#693));
#131=EDGE_LOOP('',(#694));
#132=EDGE_LOOP('',(#695,#696));
#133=EDGE_LOOP('',(#697,#698,#699,#700));
#134=EDGE_LOOP('',(#701,#702,#703,#704));
#135=EDGE_LOOP('',(#705,#706,#707,#708));
#136=EDGE_LOOP('',(#709,#710,#711,#712));
#137=EDGE_LOOP('',(#713,#714,#715,#716));
#138=EDGE_LOOP('',(#717,#718,#719,#720));
#139=EDGE_LOOP('',(#721,#722,#723,#724));
#140=EDGE_LOOP('',(#725,#726,#727,#728));
#141=EDGE_LOOP('',(#729,#730,#731,#732));
#142=EDGE_LOOP('',(#733,#734,#735,#736));
#143=EDGE_LOOP('',(#737,#738,#739,#740));
#144=EDGE_LOOP('',(#741,#742,#743,#744));
#145=EDGE_LOOP('',(#745,#746,#747,#748));
#146=EDGE_LOOP('',(#749,#750,#751,#752));
#147=EDGE_LOOP('',(#753,#754,#755,#756));
#148=EDGE_LOOP('',(#757,#758,#759,#760));
#149=EDGE_LOOP('',(#761,#762,#763,#764));
#150=EDGE_LOOP('',(#765,#766,#767,#768));
#151=EDGE_LOOP('',(#769,#770,#771,#772));
#152=EDGE_LOOP('',(#773,#774,#775,#776,#777,#778,#779,#780,#781,#782,#783,
#784,#785,#786,#787,#788,#789,#790,#791,#792,#793,#794,#795,#796,#797,#798,
#799,#800,#801,#802,#803,#804,#805,#806,#807,#808));
#153=EDGE_LOOP('',(#809,#810,#811,#812));
#154=EDGE_LOOP('',(#813,#814,#815,#816));
#155=EDGE_LOOP('',(#817,#818,#819,#820));
#156=EDGE_LOOP('',(#821,#822,#823,#824,#825,#826,#827,#828,#829,#830,#831,
#832,#833,#834,#835,#836));
#157=EDGE_LOOP('',(#837));
#158=EDGE_LOOP('',(#838));
#159=EDGE_LOOP('',(#839));
#160=EDGE_LOOP('',(#840,#841));
#161=EDGE_LOOP('',(#842,#843,#844,#845));
#162=EDGE_LOOP('',(#846,#847,#848,#849));
#163=EDGE_LOOP('',(#850,#851,#852,#853));
#164=EDGE_LOOP('',(#854,#855,#856,#857));
#165=EDGE_LOOP('',(#858,#859,#860,#861));
#166=EDGE_LOOP('',(#862,#863,#864,#865));
#167=EDGE_LOOP('',(#866,#867,#868,#869));
#168=EDGE_LOOP('',(#870,#871,#872,#873));
#169=EDGE_LOOP('',(#874,#875,#876,#877));
#170=EDGE_LOOP('',(#878,#879,#880,#881));
#171=EDGE_LOOP('',(#882,#883,#884,#885));
#172=EDGE_LOOP('',(#886,#887,#888,#889));
#173=EDGE_LOOP('',(#890,#891,#892,#893));
#174=EDGE_LOOP('',(#894,#895,#896,#897));
#175=EDGE_LOOP('',(#898,#899,#900,#901));
#176=EDGE_LOOP('',(#902,#903,#904,#905));
#177=EDGE_LOOP('',(#906,#907,#908,#909));
#178=EDGE_LOOP('',(#910,#911,#912,#913,#914,#915,#916,#917,#918,#919,#920,
#921));
#179=EDGE_LOOP('',(#922,#923,#924,#925));
#180=EDGE_LOOP('',(#926,#927,#928,#929));
#181=EDGE_LOOP('',(#930,#931,#932,#933));
#182=EDGE_LOOP('',(#934,#935,#936,#937));
#183=EDGE_LOOP('',(#938,#939,#940,#941));
#184=LINE('',#1411,#298);
#185=LINE('',#1413,#299);
#186=LINE('',#1415,#300);
#187=LINE('',#1416,#301);
#188=LINE('',#1420,#302);
#189=LINE('',#1422,#303);
#190=LINE('',#1424,#304);
#191=LINE('',#1425,#305);
#192=LINE('',#1427,#306);
#193=LINE('',#1428,#307);
#194=LINE('',#1430,#308);
#195=LINE('',#1433,#309);
#196=LINE('',#1435,#310);
#197=LINE('',#1437,#311);
#198=LINE('',#1439,#312);
#199=LINE('',#1443,#313);
#200=LINE('',#1445,#314);
#201=LINE('',#1447,#315);
#202=LINE('',#1451,#316);
#203=LINE('',#1453,#317);
#204=LINE('',#1455,#318);
#205=LINE('',#1459,#319);
#206=LINE('',#1461,#320);
#207=LINE('',#1463,#321);
#208=LINE('',#1467,#322);
#209=LINE('',#1469,#323);
#210=LINE('',#1471,#324);
#211=LINE('',#1472,#325);
#212=LINE('',#1485,#326);
#213=LINE('',#1487,#327);
#214=LINE('',#1488,#328);
#215=LINE('',#1491,#329);
#216=LINE('',#1492,#330);
#217=LINE('',#1495,#331);
#218=LINE('',#1496,#332);
#219=LINE('',#1500,#333);
#220=LINE('',#1503,#334);
#221=LINE('',#1504,#335);
#222=LINE('',#1507,#336);
#223=LINE('',#1508,#337);
#224=LINE('',#1511,#338);
#225=LINE('',#1512,#339);
#226=LINE('',#1516,#340);
#227=LINE('',#1519,#341);
#228=LINE('',#1520,#342);
#229=LINE('',#1523,#343);
#230=LINE('',#1524,#344);
#231=LINE('',#1527,#345);
#232=LINE('',#1528,#346);
#233=LINE('',#1532,#347);
#234=LINE('',#1535,#348);
#235=LINE('',#1536,#349);
#236=LINE('',#1539,#350);
#237=LINE('',#1540,#351);
#238=LINE('',#1543,#352);
#239=LINE('',#1544,#353);
#240=LINE('',#1548,#354);
#241=LINE('',#1551,#355);
#242=LINE('',#1552,#356);
#243=LINE('',#1555,#357);
#244=LINE('',#1556,#358);
#245=LINE('',#1559,#359);
#246=LINE('',#1560,#360);
#247=LINE('',#1563,#361);
#248=LINE('',#1565,#362);
#249=LINE('',#1569,#363);
#250=LINE('',#1571,#364);
#251=LINE('',#1573,#365);
#252=LINE('',#1577,#366);
#253=LINE('',#1579,#367);
#254=LINE('',#1581,#368);
#255=LINE('',#1585,#369);
#256=LINE('',#1587,#370);
#257=LINE('',#1589,#371);
#258=LINE('',#1593,#372);
#259=LINE('',#1594,#373);
#260=LINE('',#1598,#374);
#261=LINE('',#1602,#375);
#262=LINE('',#1608,#376);
#263=LINE('',#1609,#377);
#264=LINE('',#1613,#378);
#265=LINE('',#1615,#379);
#266=LINE('',#1617,#380);
#267=LINE('',#1621,#381);
#268=LINE('',#1623,#382);
#269=LINE('',#1625,#383);
#270=LINE('',#1629,#384);
#271=LINE('',#1631,#385);
#272=LINE('',#1633,#386);
#273=LINE('',#1637,#387);
#274=LINE('',#1639,#388);
#275=LINE('',#1641,#389);
#276=LINE('',#1651,#390);
#277=LINE('',#1654,#391);
#278=LINE('',#1657,#392);
#279=LINE('',#1660,#393);
#280=LINE('',#1663,#394);
#281=LINE('',#1666,#395);
#282=LINE('',#1669,#396);
#283=LINE('',#1670,#397);
#284=LINE('',#1672,#398);
#285=LINE('',#1674,#399);
#286=LINE('',#1676,#400);
#287=LINE('',#1678,#401);
#288=LINE('',#1680,#402);
#289=LINE('',#1682,#403);
#290=LINE('',#1684,#404);
#291=LINE('',#1686,#405);
#292=LINE('',#1688,#406);
#293=LINE('',#1690,#407);
#294=LINE('',#1692,#408);
#295=LINE('',#1694,#409);
#296=LINE('',#1696,#410);
#297=LINE('',#1698,#411);
#298=VECTOR('',#1129,10.);
#299=VECTOR('',#1130,10.);
#300=VECTOR('',#1131,10.);
#301=VECTOR('',#1132,10.);
#302=VECTOR('',#1135,10.);
#303=VECTOR('',#1136,10.);
#304=VECTOR('',#1137,10.);
#305=VECTOR('',#1138,10.);
#306=VECTOR('',#1141,10.);
#307=VECTOR('',#1142,10.);
#308=VECTOR('',#1145,10.);
#309=VECTOR('',#1148,10.);
#310=VECTOR('',#1149,10.);
#311=VECTOR('',#1150,10.);
#312=VECTOR('',#1151,10.);
#313=VECTOR('',#1154,10.);
#314=VECTOR('',#1155,10.);
#315=VECTOR('',#1156,10.);
#316=VECTOR('',#1159,10.);
#317=VECTOR('',#1160,10.);
#318=VECTOR('',#1161,10.);
#319=VECTOR('',#1164,10.);
#320=VECTOR('',#1165,10.);
#321=VECTOR('',#1166,10.);
#322=VECTOR('',#1169,10.);
#323=VECTOR('',#1170,10.);
#324=VECTOR('',#1171,10.);
#325=VECTOR('',#1172,10.);
#326=VECTOR('',#1185,10.);
#327=VECTOR('',#1186,10.);
#328=VECTOR('',#1187,10.);
#329=VECTOR('',#1190,10.);
#330=VECTOR('',#1191,10.);
#331=VECTOR('',#1194,10.);
#332=VECTOR('',#1195,10.);
#333=VECTOR('',#1200,10.);
#334=VECTOR('',#1203,10.);
#335=VECTOR('',#1204,10.);
#336=VECTOR('',#1207,10.);
#337=VECTOR('',#1208,10.);
#338=VECTOR('',#1211,10.);
#339=VECTOR('',#1212,10.);
#340=VECTOR('',#1217,10.);
#341=VECTOR('',#1220,10.);
#342=VECTOR('',#1221,10.);
#343=VECTOR('',#1224,10.);
#344=VECTOR('',#1225,10.);
#345=VECTOR('',#1228,10.);
#346=VECTOR('',#1229,10.);
#347=VECTOR('',#1234,10.);
#348=VECTOR('',#1237,10.);
#349=VECTOR('',#1238,10.);
#350=VECTOR('',#1241,10.);
#351=VECTOR('',#1242,10.);
#352=VECTOR('',#1245,10.);
#353=VECTOR('',#1246,10.);
#354=VECTOR('',#1251,10.);
#355=VECTOR('',#1254,10.);
#356=VECTOR('',#1255,10.);
#357=VECTOR('',#1258,10.);
#358=VECTOR('',#1259,10.);
#359=VECTOR('',#1262,10.);
#360=VECTOR('',#1263,10.);
#361=VECTOR('',#1266,10.);
#362=VECTOR('',#1267,10.);
#363=VECTOR('',#1270,10.);
#364=VECTOR('',#1271,10.);
#365=VECTOR('',#1272,10.);
#366=VECTOR('',#1275,10.);
#367=VECTOR('',#1276,10.);
#368=VECTOR('',#1277,10.);
#369=VECTOR('',#1280,10.);
#370=VECTOR('',#1281,10.);
#371=VECTOR('',#1282,10.);
#372=VECTOR('',#1285,10.);
#373=VECTOR('',#1286,10.);
#374=VECTOR('',#1289,10.);
#375=VECTOR('',#1292,10.);
#376=VECTOR('',#1303,10.);
#377=VECTOR('',#1304,10.);
#378=VECTOR('',#1307,10.);
#379=VECTOR('',#1308,10.);
#380=VECTOR('',#1309,10.);
#381=VECTOR('',#1312,10.);
#382=VECTOR('',#1313,10.);
#383=VECTOR('',#1314,10.);
#384=VECTOR('',#1317,10.);
#385=VECTOR('',#1318,10.);
#386=VECTOR('',#1319,10.);
#387=VECTOR('',#1322,10.);
#388=VECTOR('',#1323,10.);
#389=VECTOR('',#1324,10.);
#390=VECTOR('',#1335,1.6);
#391=VECTOR('',#1340,1.1);
#392=VECTOR('',#1343,1.59999999999999);
#393=VECTOR('',#1348,1.09999999999999);
#394=VECTOR('',#1351,1.6);
#395=VECTOR('',#1356,1.1);
#396=VECTOR('',#1361,10.);
#397=VECTOR('',#1362,10.);
#398=VECTOR('',#1365,10.);
#399=VECTOR('',#1368,10.);
#400=VECTOR('',#1371,10.);
#401=VECTOR('',#1374,10.);
#402=VECTOR('',#1377,10.);
#403=VECTOR('',#1380,10.);
#404=VECTOR('',#1383,10.);
#405=VECTOR('',#1386,10.);
#406=VECTOR('',#1389,10.);
#407=VECTOR('',#1392,10.);
#408=VECTOR('',#1395,10.);
#409=VECTOR('',#1398,10.);
#410=VECTOR('',#1401,10.);
#411=VECTOR('',#1404,10.);
#412=VERTEX_POINT('',#1409);
#413=VERTEX_POINT('',#1410);
#414=VERTEX_POINT('',#1412);
#415=VERTEX_POINT('',#1414);
#416=VERTEX_POINT('',#1418);
#417=VERTEX_POINT('',#1419);
#418=VERTEX_POINT('',#1421);
#419=VERTEX_POINT('',#1423);
#420=VERTEX_POINT('',#1432);
#421=VERTEX_POINT('',#1434);
#422=VERTEX_POINT('',#1436);
#423=VERTEX_POINT('',#1438);
#424=VERTEX_POINT('',#1440);
#425=VERTEX_POINT('',#1442);
#426=VERTEX_POINT('',#1444);
#427=VERTEX_POINT('',#1446);
#428=VERTEX_POINT('',#1448);
#429=VERTEX_POINT('',#1450);
#430=VERTEX_POINT('',#1452);
#431=VERTEX_POINT('',#1454);
#432=VERTEX_POINT('',#1456);
#433=VERTEX_POINT('',#1458);
#434=VERTEX_POINT('',#1460);
#435=VERTEX_POINT('',#1462);
#436=VERTEX_POINT('',#1464);
#437=VERTEX_POINT('',#1466);
#438=VERTEX_POINT('',#1468);
#439=VERTEX_POINT('',#1470);
#440=VERTEX_POINT('',#1473);
#441=VERTEX_POINT('',#1475);
#442=VERTEX_POINT('',#1477);
#443=VERTEX_POINT('',#1479);
#444=VERTEX_POINT('',#1480);
#445=VERTEX_POINT('',#1484);
#446=VERTEX_POINT('',#1486);
#447=VERTEX_POINT('',#1490);
#448=VERTEX_POINT('',#1494);
#449=VERTEX_POINT('',#1498);
#450=VERTEX_POINT('',#1502);
#451=VERTEX_POINT('',#1506);
#452=VERTEX_POINT('',#1510);
#453=VERTEX_POINT('',#1514);
#454=VERTEX_POINT('',#1518);
#455=VERTEX_POINT('',#1522);
#456=VERTEX_POINT('',#1526);
#457=VERTEX_POINT('',#1530);
#458=VERTEX_POINT('',#1534);
#459=VERTEX_POINT('',#1538);
#460=VERTEX_POINT('',#1542);
#461=VERTEX_POINT('',#1546);
#462=VERTEX_POINT('',#1550);
#463=VERTEX_POINT('',#1554);
#464=VERTEX_POINT('',#1558);
#465=VERTEX_POINT('',#1562);
#466=VERTEX_POINT('',#1564);
#467=VERTEX_POINT('',#1566);
#468=VERTEX_POINT('',#1568);
#469=VERTEX_POINT('',#1570);
#470=VERTEX_POINT('',#1572);
#471=VERTEX_POINT('',#1574);
#472=VERTEX_POINT('',#1576);
#473=VERTEX_POINT('',#1578);
#474=VERTEX_POINT('',#1580);
#475=VERTEX_POINT('',#1582);
#476=VERTEX_POINT('',#1584);
#477=VERTEX_POINT('',#1586);
#478=VERTEX_POINT('',#1588);
#479=VERTEX_POINT('',#1590);
#480=VERTEX_POINT('',#1592);
#481=VERTEX_POINT('',#1596);
#482=VERTEX_POINT('',#1597);
#483=VERTEX_POINT('',#1599);
#484=VERTEX_POINT('',#1601);
#485=VERTEX_POINT('',#1611);
#486=VERTEX_POINT('',#1612);
#487=VERTEX_POINT('',#1614);
#488=VERTEX_POINT('',#1616);
#489=VERTEX_POINT('',#1618);
#490=VERTEX_POINT('',#1620);
#491=VERTEX_POINT('',#1622);
#492=VERTEX_POINT('',#1624);
#493=VERTEX_POINT('',#1626);
#494=VERTEX_POINT('',#1628);
#495=VERTEX_POINT('',#1630);
#496=VERTEX_POINT('',#1632);
#497=VERTEX_POINT('',#1634);
#498=VERTEX_POINT('',#1636);
#499=VERTEX_POINT('',#1638);
#500=VERTEX_POINT('',#1640);
#501=VERTEX_POINT('',#1643);
#502=VERTEX_POINT('',#1645);
#503=VERTEX_POINT('',#1647);
#504=VERTEX_POINT('',#1650);
#505=VERTEX_POINT('',#1656);
#506=VERTEX_POINT('',#1662);
#507=EDGE_CURVE('',#412,#413,#184,.T.);
#508=EDGE_CURVE('',#412,#414,#185,.T.);
#509=EDGE_CURVE('',#415,#414,#186,.T.);
#510=EDGE_CURVE('',#413,#415,#187,.T.);
#511=EDGE_CURVE('',#416,#417,#188,.T.);
#512=EDGE_CURVE('',#416,#418,#189,.T.);
#513=EDGE_CURVE('',#419,#418,#190,.T.);
#514=EDGE_CURVE('',#417,#419,#191,.T.);
#515=EDGE_CURVE('',#417,#412,#192,.T.);
#516=EDGE_CURVE('',#414,#419,#193,.T.);
#517=EDGE_CURVE('',#418,#415,#194,.T.);
#518=EDGE_CURVE('',#413,#420,#195,.T.);
#519=EDGE_CURVE('',#420,#421,#196,.T.);
#520=EDGE_CURVE('',#421,#422,#197,.T.);
#521=EDGE_CURVE('',#422,#423,#198,.T.);
#522=EDGE_CURVE('',#423,#424,#41,.T.);
#523=EDGE_CURVE('',#424,#425,#199,.T.);
#524=EDGE_CURVE('',#425,#426,#200,.T.);
#525=EDGE_CURVE('',#426,#427,#201,.T.);
#526=EDGE_CURVE('',#427,#428,#42,.T.);
#527=EDGE_CURVE('',#428,#429,#202,.T.);
#528=EDGE_CURVE('',#429,#430,#203,.T.);
#529=EDGE_CURVE('',#430,#431,#204,.T.);
#530=EDGE_CURVE('',#431,#432,#43,.T.);
#531=EDGE_CURVE('',#432,#433,#205,.T.);
#532=EDGE_CURVE('',#433,#434,#206,.T.);
#533=EDGE_CURVE('',#434,#435,#207,.T.);
#534=EDGE_CURVE('',#435,#436,#44,.T.);
#535=EDGE_CURVE('',#436,#437,#208,.T.);
#536=EDGE_CURVE('',#437,#438,#209,.T.);
#537=EDGE_CURVE('',#438,#439,#210,.T.);
#538=EDGE_CURVE('',#439,#416,#211,.T.);
#539=EDGE_CURVE('',#440,#440,#45,.T.);
#540=EDGE_CURVE('',#441,#441,#46,.T.);
#541=EDGE_CURVE('',#442,#442,#47,.T.);
#542=EDGE_CURVE('',#443,#444,#48,.T.);
#543=EDGE_CURVE('',#444,#443,#49,.T.);
#544=EDGE_CURVE('',#420,#445,#212,.T.);
#545=EDGE_CURVE('',#446,#445,#213,.T.);
#546=EDGE_CURVE('',#421,#446,#214,.T.);
#547=EDGE_CURVE('',#447,#446,#215,.T.);
#548=EDGE_CURVE('',#422,#447,#216,.T.);
#549=EDGE_CURVE('',#448,#447,#217,.T.);
#550=EDGE_CURVE('',#423,#448,#218,.T.);
#551=EDGE_CURVE('',#449,#448,#50,.T.);
#552=EDGE_CURVE('',#424,#449,#219,.T.);
#553=EDGE_CURVE('',#450,#449,#220,.T.);
#554=EDGE_CURVE('',#425,#450,#221,.T.);
#555=EDGE_CURVE('',#451,#450,#222,.T.);
#556=EDGE_CURVE('',#426,#451,#223,.T.);
#557=EDGE_CURVE('',#452,#451,#224,.T.);
#558=EDGE_CURVE('',#427,#452,#225,.T.);
#559=EDGE_CURVE('',#453,#452,#51,.T.);
#560=EDGE_CURVE('',#428,#453,#226,.T.);
#561=EDGE_CURVE('',#454,#453,#227,.T.);
#562=EDGE_CURVE('',#429,#454,#228,.T.);
#563=EDGE_CURVE('',#455,#454,#229,.T.);
#564=EDGE_CURVE('',#430,#455,#230,.T.);
#565=EDGE_CURVE('',#456,#455,#231,.T.);
#566=EDGE_CURVE('',#431,#456,#232,.T.);
#567=EDGE_CURVE('',#457,#456,#52,.T.);
#568=EDGE_CURVE('',#432,#457,#233,.T.);
#569=EDGE_CURVE('',#458,#457,#234,.T.);
#570=EDGE_CURVE('',#433,#458,#235,.T.);
#571=EDGE_CURVE('',#459,#458,#236,.T.);
#572=EDGE_CURVE('',#434,#459,#237,.T.);
#573=EDGE_CURVE('',#460,#459,#238,.T.);
#574=EDGE_CURVE('',#435,#460,#239,.T.);
#575=EDGE_CURVE('',#461,#460,#53,.T.);
#576=EDGE_CURVE('',#436,#461,#240,.T.);
#577=EDGE_CURVE('',#462,#461,#241,.T.);
#578=EDGE_CURVE('',#437,#462,#242,.T.);
#579=EDGE_CURVE('',#463,#462,#243,.T.);
#580=EDGE_CURVE('',#438,#463,#244,.T.);
#581=EDGE_CURVE('',#464,#463,#245,.T.);
#582=EDGE_CURVE('',#439,#464,#246,.T.);
#583=EDGE_CURVE('',#445,#465,#247,.T.);
#584=EDGE_CURVE('',#465,#466,#248,.T.);
#585=EDGE_CURVE('',#466,#467,#54,.T.);
#586=EDGE_CURVE('',#467,#468,#249,.T.);
#587=EDGE_CURVE('',#468,#469,#250,.T.);
#588=EDGE_CURVE('',#469,#470,#251,.T.);
#589=EDGE_CURVE('',#470,#471,#55,.T.);
#590=EDGE_CURVE('',#471,#472,#252,.T.);
#591=EDGE_CURVE('',#472,#473,#253,.T.);
#592=EDGE_CURVE('',#473,#474,#254,.T.);
#593=EDGE_CURVE('',#474,#475,#56,.T.);
#594=EDGE_CURVE('',#475,#476,#255,.T.);
#595=EDGE_CURVE('',#476,#477,#256,.T.);
#596=EDGE_CURVE('',#477,#478,#257,.T.);
#597=EDGE_CURVE('',#478,#479,#57,.T.);
#598=EDGE_CURVE('',#479,#480,#258,.T.);
#599=EDGE_CURVE('',#480,#464,#259,.T.);
#600=EDGE_CURVE('',#481,#482,#260,.T.);
#601=EDGE_CURVE('',#482,#483,#58,.T.);
#602=EDGE_CURVE('',#483,#484,#261,.T.);
#603=EDGE_CURVE('',#484,#481,#59,.T.);
#604=EDGE_CURVE('',#483,#482,#60,.T.);
#605=EDGE_CURVE('',#481,#484,#61,.T.);
#606=EDGE_CURVE('',#444,#484,#262,.T.);
#607=EDGE_CURVE('',#443,#481,#263,.T.);
#608=EDGE_CURVE('',#485,#486,#264,.T.);
#609=EDGE_CURVE('',#486,#487,#265,.T.);
#610=EDGE_CURVE('',#487,#488,#266,.T.);
#611=EDGE_CURVE('',#488,#489,#62,.T.);
#612=EDGE_CURVE('',#489,#490,#267,.T.);
#613=EDGE_CURVE('',#490,#491,#268,.T.);
#614=EDGE_CURVE('',#491,#492,#269,.T.);
#615=EDGE_CURVE('',#492,#493,#63,.T.);
#616=EDGE_CURVE('',#493,#494,#270,.T.);
#617=EDGE_CURVE('',#494,#495,#271,.T.);
#618=EDGE_CURVE('',#495,#496,#272,.T.);
#619=EDGE_CURVE('',#496,#497,#64,.T.);
#620=EDGE_CURVE('',#497,#498,#273,.T.);
#621=EDGE_CURVE('',#498,#499,#274,.T.);
#622=EDGE_CURVE('',#499,#500,#275,.T.);
#623=EDGE_CURVE('',#500,#485,#65,.T.);
#624=EDGE_CURVE('',#501,#501,#66,.T.);
#625=EDGE_CURVE('',#502,#502,#67,.T.);
#626=EDGE_CURVE('',#503,#503,#68,.T.);
#627=EDGE_CURVE('',#501,#504,#276,.T.);
#628=EDGE_CURVE('',#504,#504,#69,.T.);
#629=EDGE_CURVE('',#504,#441,#277,.T.);
#630=EDGE_CURVE('',#503,#505,#278,.T.);
#631=EDGE_CURVE('',#505,#505,#70,.T.);
#632=EDGE_CURVE('',#505,#440,#279,.T.);
#633=EDGE_CURVE('',#502,#506,#280,.T.);
#634=EDGE_CURVE('',#506,#506,#71,.T.);
#635=EDGE_CURVE('',#506,#442,#281,.T.);
#636=EDGE_CURVE('',#485,#470,#282,.T.);
#637=EDGE_CURVE('',#500,#471,#283,.T.);
#638=EDGE_CURVE('',#499,#472,#284,.T.);
#639=EDGE_CURVE('',#498,#473,#285,.T.);
#640=EDGE_CURVE('',#497,#474,#286,.T.);
#641=EDGE_CURVE('',#496,#475,#287,.T.);
#642=EDGE_CURVE('',#495,#476,#288,.T.);
#643=EDGE_CURVE('',#494,#477,#289,.T.);
#644=EDGE_CURVE('',#493,#478,#290,.T.);
#645=EDGE_CURVE('',#492,#479,#291,.T.);
#646=EDGE_CURVE('',#491,#480,#292,.T.);
#647=EDGE_CURVE('',#490,#465,#293,.T.);
#648=EDGE_CURVE('',#489,#466,#294,.T.);
#649=EDGE_CURVE('',#488,#467,#295,.T.);
#650=EDGE_CURVE('',#487,#468,#296,.T.);
#651=EDGE_CURVE('',#469,#486,#297,.T.);
#652=ORIENTED_EDGE('',*,*,#507,.F.);
#653=ORIENTED_EDGE('',*,*,#508,.T.);
#654=ORIENTED_EDGE('',*,*,#509,.F.);
#655=ORIENTED_EDGE('',*,*,#510,.F.);
#656=ORIENTED_EDGE('',*,*,#511,.F.);
#657=ORIENTED_EDGE('',*,*,#512,.T.);
#658=ORIENTED_EDGE('',*,*,#513,.F.);
#659=ORIENTED_EDGE('',*,*,#514,.F.);
#660=ORIENTED_EDGE('',*,*,#515,.F.);
#661=ORIENTED_EDGE('',*,*,#514,.T.);
#662=ORIENTED_EDGE('',*,*,#516,.F.);
#663=ORIENTED_EDGE('',*,*,#508,.F.);
#664=ORIENTED_EDGE('',*,*,#516,.T.);
#665=ORIENTED_EDGE('',*,*,#513,.T.);
#666=ORIENTED_EDGE('',*,*,#517,.T.);
#667=ORIENTED_EDGE('',*,*,#509,.T.);
#668=ORIENTED_EDGE('',*,*,#511,.T.);
#669=ORIENTED_EDGE('',*,*,#515,.T.);
#670=ORIENTED_EDGE('',*,*,#507,.T.);
#671=ORIENTED_EDGE('',*,*,#518,.T.);
#672=ORIENTED_EDGE('',*,*,#519,.T.);
#673=ORIENTED_EDGE('',*,*,#520,.T.);
#674=ORIENTED_EDGE('',*,*,#521,.T.);
#675=ORIENTED_EDGE('',*,*,#522,.T.);
#676=ORIENTED_EDGE('',*,*,#523,.T.);
#677=ORIENTED_EDGE('',*,*,#524,.T.);
#678=ORIENTED_EDGE('',*,*,#525,.T.);
#679=ORIENTED_EDGE('',*,*,#526,.T.);
#680=ORIENTED_EDGE('',*,*,#527,.T.);
#681=ORIENTED_EDGE('',*,*,#528,.T.);
#682=ORIENTED_EDGE('',*,*,#529,.T.);
#683=ORIENTED_EDGE('',*,*,#530,.T.);
#684=ORIENTED_EDGE('',*,*,#531,.T.);
#685=ORIENTED_EDGE('',*,*,#532,.T.);
#686=ORIENTED_EDGE('',*,*,#533,.T.);
#687=ORIENTED_EDGE('',*,*,#534,.T.);
#688=ORIENTED_EDGE('',*,*,#535,.T.);
#689=ORIENTED_EDGE('',*,*,#536,.T.);
#690=ORIENTED_EDGE('',*,*,#537,.T.);
#691=ORIENTED_EDGE('',*,*,#538,.T.);
#692=ORIENTED_EDGE('',*,*,#539,.T.);
#693=ORIENTED_EDGE('',*,*,#540,.T.);
#694=ORIENTED_EDGE('',*,*,#541,.T.);
#695=ORIENTED_EDGE('',*,*,#542,.T.);
#696=ORIENTED_EDGE('',*,*,#543,.T.);
#697=ORIENTED_EDGE('',*,*,#519,.F.);
#698=ORIENTED_EDGE('',*,*,#544,.T.);
#699=ORIENTED_EDGE('',*,*,#545,.F.);
#700=ORIENTED_EDGE('',*,*,#546,.F.);
#701=ORIENTED_EDGE('',*,*,#520,.F.);
#702=ORIENTED_EDGE('',*,*,#546,.T.);
#703=ORIENTED_EDGE('',*,*,#547,.F.);
#704=ORIENTED_EDGE('',*,*,#548,.F.);
#705=ORIENTED_EDGE('',*,*,#521,.F.);
#706=ORIENTED_EDGE('',*,*,#548,.T.);
#707=ORIENTED_EDGE('',*,*,#549,.F.);
#708=ORIENTED_EDGE('',*,*,#550,.F.);
#709=ORIENTED_EDGE('',*,*,#522,.F.);
#710=ORIENTED_EDGE('',*,*,#550,.T.);
#711=ORIENTED_EDGE('',*,*,#551,.F.);
#712=ORIENTED_EDGE('',*,*,#552,.F.);
#713=ORIENTED_EDGE('',*,*,#523,.F.);
#714=ORIENTED_EDGE('',*,*,#552,.T.);
#715=ORIENTED_EDGE('',*,*,#553,.F.);
#716=ORIENTED_EDGE('',*,*,#554,.F.);
#717=ORIENTED_EDGE('',*,*,#524,.F.);
#718=ORIENTED_EDGE('',*,*,#554,.T.);
#719=ORIENTED_EDGE('',*,*,#555,.F.);
#720=ORIENTED_EDGE('',*,*,#556,.F.);
#721=ORIENTED_EDGE('',*,*,#525,.F.);
#722=ORIENTED_EDGE('',*,*,#556,.T.);
#723=ORIENTED_EDGE('',*,*,#557,.F.);
#724=ORIENTED_EDGE('',*,*,#558,.F.);
#725=ORIENTED_EDGE('',*,*,#526,.F.);
#726=ORIENTED_EDGE('',*,*,#558,.T.);
#727=ORIENTED_EDGE('',*,*,#559,.F.);
#728=ORIENTED_EDGE('',*,*,#560,.F.);
#729=ORIENTED_EDGE('',*,*,#527,.F.);
#730=ORIENTED_EDGE('',*,*,#560,.T.);
#731=ORIENTED_EDGE('',*,*,#561,.F.);
#732=ORIENTED_EDGE('',*,*,#562,.F.);
#733=ORIENTED_EDGE('',*,*,#528,.F.);
#734=ORIENTED_EDGE('',*,*,#562,.T.);
#735=ORIENTED_EDGE('',*,*,#563,.F.);
#736=ORIENTED_EDGE('',*,*,#564,.F.);
#737=ORIENTED_EDGE('',*,*,#529,.F.);
#738=ORIENTED_EDGE('',*,*,#564,.T.);
#739=ORIENTED_EDGE('',*,*,#565,.F.);
#740=ORIENTED_EDGE('',*,*,#566,.F.);
#741=ORIENTED_EDGE('',*,*,#530,.F.);
#742=ORIENTED_EDGE('',*,*,#566,.T.);
#743=ORIENTED_EDGE('',*,*,#567,.F.);
#744=ORIENTED_EDGE('',*,*,#568,.F.);
#745=ORIENTED_EDGE('',*,*,#531,.F.);
#746=ORIENTED_EDGE('',*,*,#568,.T.);
#747=ORIENTED_EDGE('',*,*,#569,.F.);
#748=ORIENTED_EDGE('',*,*,#570,.F.);
#749=ORIENTED_EDGE('',*,*,#532,.F.);
#750=ORIENTED_EDGE('',*,*,#570,.T.);
#751=ORIENTED_EDGE('',*,*,#571,.F.);
#752=ORIENTED_EDGE('',*,*,#572,.F.);
#753=ORIENTED_EDGE('',*,*,#533,.F.);
#754=ORIENTED_EDGE('',*,*,#572,.T.);
#755=ORIENTED_EDGE('',*,*,#573,.F.);
#756=ORIENTED_EDGE('',*,*,#574,.F.);
#757=ORIENTED_EDGE('',*,*,#534,.F.);
#758=ORIENTED_EDGE('',*,*,#574,.T.);
#759=ORIENTED_EDGE('',*,*,#575,.F.);
#760=ORIENTED_EDGE('',*,*,#576,.F.);
#761=ORIENTED_EDGE('',*,*,#535,.F.);
#762=ORIENTED_EDGE('',*,*,#576,.T.);
#763=ORIENTED_EDGE('',*,*,#577,.F.);
#764=ORIENTED_EDGE('',*,*,#578,.F.);
#765=ORIENTED_EDGE('',*,*,#536,.F.);
#766=ORIENTED_EDGE('',*,*,#578,.T.);
#767=ORIENTED_EDGE('',*,*,#579,.F.);
#768=ORIENTED_EDGE('',*,*,#580,.F.);
#769=ORIENTED_EDGE('',*,*,#537,.F.);
#770=ORIENTED_EDGE('',*,*,#580,.T.);
#771=ORIENTED_EDGE('',*,*,#581,.F.);
#772=ORIENTED_EDGE('',*,*,#582,.F.);
#773=ORIENTED_EDGE('',*,*,#583,.T.);
#774=ORIENTED_EDGE('',*,*,#584,.T.);
#775=ORIENTED_EDGE('',*,*,#585,.T.);
#776=ORIENTED_EDGE('',*,*,#586,.T.);
#777=ORIENTED_EDGE('',*,*,#587,.T.);
#778=ORIENTED_EDGE('',*,*,#588,.T.);
#779=ORIENTED_EDGE('',*,*,#589,.T.);
#780=ORIENTED_EDGE('',*,*,#590,.T.);
#781=ORIENTED_EDGE('',*,*,#591,.T.);
#782=ORIENTED_EDGE('',*,*,#592,.T.);
#783=ORIENTED_EDGE('',*,*,#593,.T.);
#784=ORIENTED_EDGE('',*,*,#594,.T.);
#785=ORIENTED_EDGE('',*,*,#595,.T.);
#786=ORIENTED_EDGE('',*,*,#596,.T.);
#787=ORIENTED_EDGE('',*,*,#597,.T.);
#788=ORIENTED_EDGE('',*,*,#598,.T.);
#789=ORIENTED_EDGE('',*,*,#599,.T.);
#790=ORIENTED_EDGE('',*,*,#581,.T.);
#791=ORIENTED_EDGE('',*,*,#579,.T.);
#792=ORIENTED_EDGE('',*,*,#577,.T.);
#793=ORIENTED_EDGE('',*,*,#575,.T.);
#794=ORIENTED_EDGE('',*,*,#573,.T.);
#795=ORIENTED_EDGE('',*,*,#571,.T.);
#796=ORIENTED_EDGE('',*,*,#569,.T.);
#797=ORIENTED_EDGE('',*,*,#567,.T.);
#798=ORIENTED_EDGE('',*,*,#565,.T.);
#799=ORIENTED_EDGE('',*,*,#563,.T.);
#800=ORIENTED_EDGE('',*,*,#561,.T.);
#801=ORIENTED_EDGE('',*,*,#559,.T.);
#802=ORIENTED_EDGE('',*,*,#557,.T.);
#803=ORIENTED_EDGE('',*,*,#555,.T.);
#804=ORIENTED_EDGE('',*,*,#553,.T.);
#805=ORIENTED_EDGE('',*,*,#551,.T.);
#806=ORIENTED_EDGE('',*,*,#549,.T.);
#807=ORIENTED_EDGE('',*,*,#547,.T.);
#808=ORIENTED_EDGE('',*,*,#545,.T.);
#809=ORIENTED_EDGE('',*,*,#600,.T.);
#810=ORIENTED_EDGE('',*,*,#601,.T.);
#811=ORIENTED_EDGE('',*,*,#602,.T.);
#812=ORIENTED_EDGE('',*,*,#603,.T.);
#813=ORIENTED_EDGE('',*,*,#602,.F.);
#814=ORIENTED_EDGE('',*,*,#604,.T.);
#815=ORIENTED_EDGE('',*,*,#600,.F.);
#816=ORIENTED_EDGE('',*,*,#605,.T.);
#817=ORIENTED_EDGE('',*,*,#603,.F.);
#818=ORIENTED_EDGE('',*,*,#606,.F.);
#819=ORIENTED_EDGE('',*,*,#542,.F.);
#820=ORIENTED_EDGE('',*,*,#607,.T.);
#821=ORIENTED_EDGE('',*,*,#608,.T.);
#822=ORIENTED_EDGE('',*,*,#609,.T.);
#823=ORIENTED_EDGE('',*,*,#610,.T.);
#824=ORIENTED_EDGE('',*,*,#611,.T.);
#825=ORIENTED_EDGE('',*,*,#612,.T.);
#826=ORIENTED_EDGE('',*,*,#613,.T.);
#827=ORIENTED_EDGE('',*,*,#614,.T.);
#828=ORIENTED_EDGE('',*,*,#615,.T.);
#829=ORIENTED_EDGE('',*,*,#616,.T.);
#830=ORIENTED_EDGE('',*,*,#617,.T.);
#831=ORIENTED_EDGE('',*,*,#618,.T.);
#832=ORIENTED_EDGE('',*,*,#619,.T.);
#833=ORIENTED_EDGE('',*,*,#620,.T.);
#834=ORIENTED_EDGE('',*,*,#621,.T.);
#835=ORIENTED_EDGE('',*,*,#622,.T.);
#836=ORIENTED_EDGE('',*,*,#623,.T.);
#837=ORIENTED_EDGE('',*,*,#624,.F.);
#838=ORIENTED_EDGE('',*,*,#625,.F.);
#839=ORIENTED_EDGE('',*,*,#626,.F.);
#840=ORIENTED_EDGE('',*,*,#601,.F.);
#841=ORIENTED_EDGE('',*,*,#604,.F.);
#842=ORIENTED_EDGE('',*,*,#624,.T.);
#843=ORIENTED_EDGE('',*,*,#627,.T.);
#844=ORIENTED_EDGE('',*,*,#628,.T.);
#845=ORIENTED_EDGE('',*,*,#627,.F.);
#846=ORIENTED_EDGE('',*,*,#628,.F.);
#847=ORIENTED_EDGE('',*,*,#629,.T.);
#848=ORIENTED_EDGE('',*,*,#540,.F.);
#849=ORIENTED_EDGE('',*,*,#629,.F.);
#850=ORIENTED_EDGE('',*,*,#626,.T.);
#851=ORIENTED_EDGE('',*,*,#630,.T.);
#852=ORIENTED_EDGE('',*,*,#631,.T.);
#853=ORIENTED_EDGE('',*,*,#630,.F.);
#854=ORIENTED_EDGE('',*,*,#631,.F.);
#855=ORIENTED_EDGE('',*,*,#632,.T.);
#856=ORIENTED_EDGE('',*,*,#539,.F.);
#857=ORIENTED_EDGE('',*,*,#632,.F.);
#858=ORIENTED_EDGE('',*,*,#625,.T.);
#859=ORIENTED_EDGE('',*,*,#633,.T.);
#860=ORIENTED_EDGE('',*,*,#634,.T.);
#861=ORIENTED_EDGE('',*,*,#633,.F.);
#862=ORIENTED_EDGE('',*,*,#634,.F.);
#863=ORIENTED_EDGE('',*,*,#635,.T.);
#864=ORIENTED_EDGE('',*,*,#541,.F.);
#865=ORIENTED_EDGE('',*,*,#635,.F.);
#866=ORIENTED_EDGE('',*,*,#605,.F.);
#867=ORIENTED_EDGE('',*,*,#607,.F.);
#868=ORIENTED_EDGE('',*,*,#543,.F.);
#869=ORIENTED_EDGE('',*,*,#606,.T.);
#870=ORIENTED_EDGE('',*,*,#636,.F.);
#871=ORIENTED_EDGE('',*,*,#623,.F.);
#872=ORIENTED_EDGE('',*,*,#637,.T.);
#873=ORIENTED_EDGE('',*,*,#589,.F.);
#874=ORIENTED_EDGE('',*,*,#637,.F.);
#875=ORIENTED_EDGE('',*,*,#622,.F.);
#876=ORIENTED_EDGE('',*,*,#638,.T.);
#877=ORIENTED_EDGE('',*,*,#590,.F.);
#878=ORIENTED_EDGE('',*,*,#638,.F.);
#879=ORIENTED_EDGE('',*,*,#621,.F.);
#880=ORIENTED_EDGE('',*,*,#639,.T.);
#881=ORIENTED_EDGE('',*,*,#591,.F.);
#882=ORIENTED_EDGE('',*,*,#639,.F.);
#883=ORIENTED_EDGE('',*,*,#620,.F.);
#884=ORIENTED_EDGE('',*,*,#640,.T.);
#885=ORIENTED_EDGE('',*,*,#592,.F.);
#886=ORIENTED_EDGE('',*,*,#640,.F.);
#887=ORIENTED_EDGE('',*,*,#619,.F.);
#888=ORIENTED_EDGE('',*,*,#641,.T.);
#889=ORIENTED_EDGE('',*,*,#593,.F.);
#890=ORIENTED_EDGE('',*,*,#641,.F.);
#891=ORIENTED_EDGE('',*,*,#618,.F.);
#892=ORIENTED_EDGE('',*,*,#642,.T.);
#893=ORIENTED_EDGE('',*,*,#594,.F.);
#894=ORIENTED_EDGE('',*,*,#642,.F.);
#895=ORIENTED_EDGE('',*,*,#617,.F.);
#896=ORIENTED_EDGE('',*,*,#643,.T.);
#897=ORIENTED_EDGE('',*,*,#595,.F.);
#898=ORIENTED_EDGE('',*,*,#643,.F.);
#899=ORIENTED_EDGE('',*,*,#616,.F.);
#900=ORIENTED_EDGE('',*,*,#644,.T.);
#901=ORIENTED_EDGE('',*,*,#596,.F.);
#902=ORIENTED_EDGE('',*,*,#644,.F.);
#903=ORIENTED_EDGE('',*,*,#615,.F.);
#904=ORIENTED_EDGE('',*,*,#645,.T.);
#905=ORIENTED_EDGE('',*,*,#597,.F.);
#906=ORIENTED_EDGE('',*,*,#645,.F.);
#907=ORIENTED_EDGE('',*,*,#614,.F.);
#908=ORIENTED_EDGE('',*,*,#646,.T.);
#909=ORIENTED_EDGE('',*,*,#598,.F.);
#910=ORIENTED_EDGE('',*,*,#646,.F.);
#911=ORIENTED_EDGE('',*,*,#613,.F.);
#912=ORIENTED_EDGE('',*,*,#647,.T.);
#913=ORIENTED_EDGE('',*,*,#583,.F.);
#914=ORIENTED_EDGE('',*,*,#544,.F.);
#915=ORIENTED_EDGE('',*,*,#518,.F.);
#916=ORIENTED_EDGE('',*,*,#510,.T.);
#917=ORIENTED_EDGE('',*,*,#517,.F.);
#918=ORIENTED_EDGE('',*,*,#512,.F.);
#919=ORIENTED_EDGE('',*,*,#538,.F.);
#920=ORIENTED_EDGE('',*,*,#582,.T.);
#921=ORIENTED_EDGE('',*,*,#599,.F.);
#922=ORIENTED_EDGE('',*,*,#647,.F.);
#923=ORIENTED_EDGE('',*,*,#612,.F.);
#924=ORIENTED_EDGE('',*,*,#648,.T.);
#925=ORIENTED_EDGE('',*,*,#584,.F.);
#926=ORIENTED_EDGE('',*,*,#648,.F.);
#927=ORIENTED_EDGE('',*,*,#611,.F.);
#928=ORIENTED_EDGE('',*,*,#649,.T.);
#929=ORIENTED_EDGE('',*,*,#585,.F.);
#930=ORIENTED_EDGE('',*,*,#649,.F.);
#931=ORIENTED_EDGE('',*,*,#610,.F.);
#932=ORIENTED_EDGE('',*,*,#650,.T.);
#933=ORIENTED_EDGE('',*,*,#586,.F.);
#934=ORIENTED_EDGE('',*,*,#650,.F.);
#935=ORIENTED_EDGE('',*,*,#609,.F.);
#936=ORIENTED_EDGE('',*,*,#651,.F.);
#937=ORIENTED_EDGE('',*,*,#587,.F.);
#938=ORIENTED_EDGE('',*,*,#651,.T.);
#939=ORIENTED_EDGE('',*,*,#608,.F.);
#940=ORIENTED_EDGE('',*,*,#636,.T.);
#941=ORIENTED_EDGE('',*,*,#588,.F.);
#942=PLANE('',#1042);
#943=PLANE('',#1043);
#944=PLANE('',#1044);
#945=PLANE('',#1045);
#946=PLANE('',#1046);
#947=PLANE('',#1056);
#948=PLANE('',#1057);
#949=PLANE('',#1058);
#950=PLANE('',#1061);
#951=PLANE('',#1062);
#952=PLANE('',#1063);
#953=PLANE('',#1066);
#954=PLANE('',#1067);
#955=PLANE('',#1068);
#956=PLANE('',#1071);
#957=PLANE('',#1072);
#958=PLANE('',#1073);
#959=PLANE('',#1076);
#960=PLANE('',#1077);
#961=PLANE('',#1078);
#962=PLANE('',#1079);
#963=PLANE('',#1091);
#964=PLANE('',#1110);
#965=PLANE('',#1111);
#966=PLANE('',#1112);
#967=PLANE('',#1114);
#968=PLANE('',#1115);
#969=PLANE('',#1116);
#970=PLANE('',#1118);
#971=PLANE('',#1119);
#972=PLANE('',#1120);
#973=PLANE('',#1122);
#974=PLANE('',#1123);
#975=PLANE('',#1124);
#976=ADVANCED_FACE('',(#72),#942,.T.);
#977=ADVANCED_FACE('',(#73),#943,.T.);
#978=ADVANCED_FACE('',(#74),#944,.T.);
#979=ADVANCED_FACE('',(#75),#945,.T.);
#980=ADVANCED_FACE('',(#76,#33,#34,#35,#36),#946,.T.);
#981=ADVANCED_FACE('',(#77),#947,.T.);
#982=ADVANCED_FACE('',(#78),#948,.T.);
#983=ADVANCED_FACE('',(#79),#949,.T.);
#984=ADVANCED_FACE('',(#80),#20,.F.);
#985=ADVANCED_FACE('',(#81),#950,.T.);
#986=ADVANCED_FACE('',(#82),#951,.T.);
#987=ADVANCED_FACE('',(#83),#952,.T.);
#988=ADVANCED_FACE('',(#84),#21,.F.);
#989=ADVANCED_FACE('',(#85),#953,.T.);
#990=ADVANCED_FACE('',(#86),#954,.T.);
#991=ADVANCED_FACE('',(#87),#955,.T.);
#992=ADVANCED_FACE('',(#88),#22,.F.);
#993=ADVANCED_FACE('',(#89),#956,.T.);
#994=ADVANCED_FACE('',(#90),#957,.T.);
#995=ADVANCED_FACE('',(#91),#958,.T.);
#996=ADVANCED_FACE('',(#92),#23,.F.);
#997=ADVANCED_FACE('',(#93),#959,.T.);
#998=ADVANCED_FACE('',(#94),#960,.T.);
#999=ADVANCED_FACE('',(#95),#961,.T.);
#1000=ADVANCED_FACE('',(#96),#962,.T.);
#1001=ADVANCED_FACE('',(#97),#15,.F.);
#1002=ADVANCED_FACE('',(#98),#16,.F.);
#1003=ADVANCED_FACE('',(#99),#24,.F.);
#1004=ADVANCED_FACE('',(#100,#37,#38,#39,#40),#963,.F.);
#1005=ADVANCED_FACE('',(#101),#17,.F.);
#1006=ADVANCED_FACE('',(#102),#25,.F.);
#1007=ADVANCED_FACE('',(#103),#18,.F.);
#1008=ADVANCED_FACE('',(#104),#26,.F.);
#1009=ADVANCED_FACE('',(#105),#19,.F.);
#1010=ADVANCED_FACE('',(#106),#27,.F.);
#1011=ADVANCED_FACE('',(#107),#28,.F.);
#1012=ADVANCED_FACE('',(#108),#29,.T.);
#1013=ADVANCED_FACE('',(#109),#964,.T.);
#1014=ADVANCED_FACE('',(#110),#965,.T.);
#1015=ADVANCED_FACE('',(#111),#966,.T.);
#1016=ADVANCED_FACE('',(#112),#30,.T.);
#1017=ADVANCED_FACE('',(#113),#967,.T.);
#1018=ADVANCED_FACE('',(#114),#968,.T.);
#1019=ADVANCED_FACE('',(#115),#969,.T.);
#1020=ADVANCED_FACE('',(#116),#31,.T.);
#1021=ADVANCED_FACE('',(#117),#970,.T.);
#1022=ADVANCED_FACE('',(#118),#971,.T.);
#1023=ADVANCED_FACE('',(#119),#972,.T.);
#1024=ADVANCED_FACE('',(#120),#32,.T.);
#1025=ADVANCED_FACE('',(#121),#973,.T.);
#1026=ADVANCED_FACE('',(#122),#974,.T.);
#1027=ADVANCED_FACE('',(#123),#975,.T.);
#1028=CLOSED_SHELL('',(#976,#977,#978,#979,#980,#981,#982,#983,#984,#985,
#986,#987,#988,#989,#990,#991,#992,#993,#994,#995,#996,#997,#998,#999,#1000,
#1001,#1002,#1003,#1004,#1005,#1006,#1007,#1008,#1009,#1010,#1011,#1012,
#1013,#1014,#1015,#1016,#1017,#1018,#1019,#1020,#1021,#1022,#1023,#1024,
#1025,#1026,#1027));
#1029=DERIVED_UNIT_ELEMENT(#1031,1.);
#1030=DERIVED_UNIT_ELEMENT(#1705,-3.);
#1031=(
MASS_UNIT()
NAMED_UNIT(*)
SI_UNIT(.KILO.,.GRAM.)
);
#1032=DERIVED_UNIT((#1029,#1030));
#1033=MEASURE_REPRESENTATION_ITEM('density measure',
POSITIVE_RATIO_MEASURE(7850.),#1032);
#1034=PROPERTY_DEFINITION_REPRESENTATION(#1039,#1036);
#1035=PROPERTY_DEFINITION_REPRESENTATION(#1040,#1037);
#1036=REPRESENTATION('material name',(#1038),#1702);
#1037=REPRESENTATION('density',(#1033),#1702);
#1038=DESCRIPTIVE_REPRESENTATION_ITEM('Steel','Steel');
#1039=PROPERTY_DEFINITION('material property','material name',#1712);
#1040=PROPERTY_DEFINITION('material property','density of part',#1712);
#1041=AXIS2_PLACEMENT_3D('',#1407,#1125,#1126);
#1042=AXIS2_PLACEMENT_3D('',#1408,#1127,#1128);
#1043=AXIS2_PLACEMENT_3D('',#1417,#1133,#1134);
#1044=AXIS2_PLACEMENT_3D('',#1426,#1139,#1140);
#1045=AXIS2_PLACEMENT_3D('',#1429,#1143,#1144);
#1046=AXIS2_PLACEMENT_3D('',#1431,#1146,#1147);
#1047=AXIS2_PLACEMENT_3D('',#1441,#1152,#1153);
#1048=AXIS2_PLACEMENT_3D('',#1449,#1157,#1158);
#1049=AXIS2_PLACEMENT_3D('',#1457,#1162,#1163);
#1050=AXIS2_PLACEMENT_3D('',#1465,#1167,#1168);
#1051=AXIS2_PLACEMENT_3D('',#1474,#1173,#1174);
#1052=AXIS2_PLACEMENT_3D('',#1476,#1175,#1176);
#1053=AXIS2_PLACEMENT_3D('',#1478,#1177,#1178);
#1054=AXIS2_PLACEMENT_3D('',#1481,#1179,#1180);
#1055=AXIS2_PLACEMENT_3D('',#1482,#1181,#1182);
#1056=AXIS2_PLACEMENT_3D('',#1483,#1183,#1184);
#1057=AXIS2_PLACEMENT_3D('',#1489,#1188,#1189);
#1058=AXIS2_PLACEMENT_3D('',#1493,#1192,#1193);
#1059=AXIS2_PLACEMENT_3D('',#1497,#1196,#1197);
#1060=AXIS2_PLACEMENT_3D('',#1499,#1198,#1199);
#1061=AXIS2_PLACEMENT_3D('',#1501,#1201,#1202);
#1062=AXIS2_PLACEMENT_3D('',#1505,#1205,#1206);
#1063=AXIS2_PLACEMENT_3D('',#1509,#1209,#1210);
#1064=AXIS2_PLACEMENT_3D('',#1513,#1213,#1214);
#1065=AXIS2_PLACEMENT_3D('',#1515,#1215,#1216);
#1066=AXIS2_PLACEMENT_3D('',#1517,#1218,#1219);
#1067=AXIS2_PLACEMENT_3D('',#1521,#1222,#1223);
#1068=AXIS2_PLACEMENT_3D('',#1525,#1226,#1227);
#1069=AXIS2_PLACEMENT_3D('',#1529,#1230,#1231);
#1070=AXIS2_PLACEMENT_3D('',#1531,#1232,#1233);
#1071=AXIS2_PLACEMENT_3D('',#1533,#1235,#1236);
#1072=AXIS2_PLACEMENT_3D('',#1537,#1239,#1240);
#1073=AXIS2_PLACEMENT_3D('',#1541,#1243,#1244);
#1074=AXIS2_PLACEMENT_3D('',#1545,#1247,#1248);
#1075=AXIS2_PLACEMENT_3D('',#1547,#1249,#1250);
#1076=AXIS2_PLACEMENT_3D('',#1549,#1252,#1253);
#1077=AXIS2_PLACEMENT_3D('',#1553,#1256,#1257);
#1078=AXIS2_PLACEMENT_3D('',#1557,#1260,#1261);
#1079=AXIS2_PLACEMENT_3D('',#1561,#1264,#1265);
#1080=AXIS2_PLACEMENT_3D('',#1567,#1268,#1269);
#1081=AXIS2_PLACEMENT_3D('',#1575,#1273,#1274);
#1082=AXIS2_PLACEMENT_3D('',#1583,#1278,#1279);
#1083=AXIS2_PLACEMENT_3D('',#1591,#1283,#1284);
#1084=AXIS2_PLACEMENT_3D('',#1595,#1287,#1288);
#1085=AXIS2_PLACEMENT_3D('',#1600,#1290,#1291);
#1086=AXIS2_PLACEMENT_3D('',#1603,#1293,#1294);
#1087=AXIS2_PLACEMENT_3D('',#1604,#1295,#1296);
#1088=AXIS2_PLACEMENT_3D('',#1605,#1297,#1298);
#1089=AXIS2_PLACEMENT_3D('',#1606,#1299,#1300);
#1090=AXIS2_PLACEMENT_3D('',#1607,#1301,#1302);
#1091=AXIS2_PLACEMENT_3D('',#1610,#1305,#1306);
#1092=AXIS2_PLACEMENT_3D('',#1619,#1310,#1311);
#1093=AXIS2_PLACEMENT_3D('',#1627,#1315,#1316);
#1094=AXIS2_PLACEMENT_3D('',#1635,#1320,#1321);
#1095=AXIS2_PLACEMENT_3D('',#1642,#1325,#1326);
#1096=AXIS2_PLACEMENT_3D('',#1644,#1327,#1328);
#1097=AXIS2_PLACEMENT_3D('',#1646,#1329,#1330);
#1098=AXIS2_PLACEMENT_3D('',#1648,#1331,#1332);
#1099=AXIS2_PLACEMENT_3D('',#1649,#1333,#1334);
#1100=AXIS2_PLACEMENT_3D('',#1652,#1336,#1337);
#1101=AXIS2_PLACEMENT_3D('',#1653,#1338,#1339);
#1102=AXIS2_PLACEMENT_3D('',#1655,#1341,#1342);
#1103=AXIS2_PLACEMENT_3D('',#1658,#1344,#1345);
#1104=AXIS2_PLACEMENT_3D('',#1659,#1346,#1347);
#1105=AXIS2_PLACEMENT_3D('',#1661,#1349,#1350);
#1106=AXIS2_PLACEMENT_3D('',#1664,#1352,#1353);
#1107=AXIS2_PLACEMENT_3D('',#1665,#1354,#1355);
#1108=AXIS2_PLACEMENT_3D('',#1667,#1357,#1358);
#1109=AXIS2_PLACEMENT_3D('',#1668,#1359,#1360);
#1110=AXIS2_PLACEMENT_3D('',#1671,#1363,#1364);
#1111=AXIS2_PLACEMENT_3D('',#1673,#1366,#1367);
#1112=AXIS2_PLACEMENT_3D('',#1675,#1369,#1370);
#1113=AXIS2_PLACEMENT_3D('',#1677,#1372,#1373);
#1114=AXIS2_PLACEMENT_3D('',#1679,#1375,#1376);
#1115=AXIS2_PLACEMENT_3D('',#1681,#1378,#1379);
#1116=AXIS2_PLACEMENT_3D('',#1683,#1381,#1382);
#1117=AXIS2_PLACEMENT_3D('',#1685,#1384,#1385);
#1118=AXIS2_PLACEMENT_3D('',#1687,#1387,#1388);
#1119=AXIS2_PLACEMENT_3D('',#1689,#1390,#1391);
#1120=AXIS2_PLACEMENT_3D('',#1691,#1393,#1394);
#1121=AXIS2_PLACEMENT_3D('',#1693,#1396,#1397);
#1122=AXIS2_PLACEMENT_3D('',#1695,#1399,#1400);
#1123=AXIS2_PLACEMENT_3D('',#1697,#1402,#1403);
#1124=AXIS2_PLACEMENT_3D('',#1699,#1405,#1406);
#1125=DIRECTION('axis',(0.,0.,1.));
#1126=DIRECTION('refdir',(1.,0.,0.));
#1127=DIRECTION('center_axis',(-1.,0.,3.52509310421831E-16));
#1128=DIRECTION('ref_axis',(3.52509310421831E-16,0.,1.));
#1129=DIRECTION('',(-3.52509310421831E-16,0.,-1.));
#1130=DIRECTION('',(0.,1.,0.));
#1131=DIRECTION('',(3.52509310421831E-16,0.,1.));
#1132=DIRECTION('',(0.,1.,0.));
#1133=DIRECTION('center_axis',(1.,0.,0.));
#1134=DIRECTION('ref_axis',(0.,0.,-1.));
#1135=DIRECTION('',(0.,0.,1.));
#1136=DIRECTION('',(0.,1.,0.));
#1137=DIRECTION('',(0.,0.,-1.));
#1138=DIRECTION('',(0.,1.,0.));
#1139=DIRECTION('center_axis',(0.,0.,1.));
#1140=DIRECTION('ref_axis',(1.,0.,0.));
#1141=DIRECTION('',(-1.,0.,0.));
#1142=DIRECTION('',(1.,0.,0.));
#1143=DIRECTION('center_axis',(0.,1.,0.));
#1144=DIRECTION('ref_axis',(0.,0.,1.));
#1145=DIRECTION('',(-1.,0.,0.));
#1146=DIRECTION('center_axis',(0.,1.,0.));
#1147=DIRECTION('ref_axis',(1.,0.,0.));
#1148=DIRECTION('',(-1.,0.,0.));
#1149=DIRECTION('',(0.,0.,1.));
#1150=DIRECTION('',(-1.,0.,0.));
#1151=DIRECTION('',(-0.999901910117004,0.,0.0140060752663614));
#1152=DIRECTION('center_axis',(0.,1.,0.));
#1153=DIRECTION('ref_axis',(-0.0483491629006864,0.,-0.998830495352842));
#1154=DIRECTION('',(-0.0138635473675617,0.,0.999903896409244));
#1155=DIRECTION('',(-5.49213385758074E-5,0.,0.999999998491823));
#1156=DIRECTION('',(0.0139655829891389,0.,0.999902476490469));
#1157=DIRECTION('center_axis',(0.,1.,0.));
#1158=DIRECTION('ref_axis',(-0.99883237691145,0.,0.0483102766854373));
#1159=DIRECTION('',(0.999895126278872,0.,0.0144822803369916));
#1160=DIRECTION('',(0.999999978300013,0.,0.000208326603883487));
#1161=DIRECTION('',(0.999911593130176,0.,-0.0132968388676728));
#1162=DIRECTION('center_axis',(0.,1.,0.));
#1163=DIRECTION('ref_axis',(0.0480664212666428,0.,0.998844141568953));
#1164=DIRECTION('',(0.0136471601092264,0.,-0.999906873174174));
#1165=DIRECTION('',(0.,0.,-1.));
#1166=DIRECTION('',(-0.014017536287794,0.,-0.999901749511631));
#1167=DIRECTION('center_axis',(0.,1.,0.));
#1168=DIRECTION('ref_axis',(0.998829868727038,0.,-0.0483621064339474));
#1169=DIRECTION('',(-0.999901749511631,0.,-0.0140175362877628));
#1170=DIRECTION('',(-1.,0.,0.));
#1171=DIRECTION('',(7.90325281415511E-16,0.,-1.));
#1172=DIRECTION('',(-1.,0.,0.));
#1173=DIRECTION('center_axis',(0.,-1.,0.));
#1174=DIRECTION('ref_axis',(1.,0.,0.));
#1175=DIRECTION('center_axis',(0.,-1.,0.));
#1176=DIRECTION('ref_axis',(1.,0.,0.));
#1177=DIRECTION('center_axis',(0.,-1.,0.));
#1178=DIRECTION('ref_axis',(1.,0.,0.));
#1179=DIRECTION('center_axis',(0.,-1.,0.));
#1180=DIRECTION('ref_axis',(1.,0.,0.));
#1181=DIRECTION('center_axis',(0.,-1.,0.));
#1182=DIRECTION('ref_axis',(1.,0.,0.));
#1183=DIRECTION('center_axis',(1.,0.,0.));
#1184=DIRECTION('ref_axis',(0.,0.,-1.));
#1185=DIRECTION('',(0.,1.,0.));
#1186=DIRECTION('',(0.,0.,-1.));
#1187=DIRECTION('',(0.,1.,0.));
#1188=DIRECTION('center_axis',(0.,0.,1.));
#1189=DIRECTION('ref_axis',(1.,0.,0.));
#1190=DIRECTION('',(1.,0.,0.));
#1191=DIRECTION('',(0.,1.,0.));
#1192=DIRECTION('center_axis',(0.0140060752663614,0.,0.999901910117004));
#1193=DIRECTION('ref_axis',(0.999901910117004,0.,-0.0140060752663614));
#1194=DIRECTION('',(0.999901910117004,0.,-0.0140060752663614));
#1195=DIRECTION('',(0.,1.,0.));
#1196=DIRECTION('center_axis',(0.,1.,0.));
#1197=DIRECTION('ref_axis',(-0.0483491629006864,0.,-0.998830495352842));
#1198=DIRECTION('center_axis',(0.,-1.,0.));
#1199=DIRECTION('ref_axis',(-0.0483491629006864,0.,-0.998830495352842));
#1200=DIRECTION('',(0.,1.,0.));
#1201=DIRECTION('center_axis',(0.999903896409244,0.,0.0138635473675617));
#1202=DIRECTION('ref_axis',(0.0138635473675617,0.,-0.999903896409244));
#1203=DIRECTION('',(0.0138635473675617,0.,-0.999903896409244));
#1204=DIRECTION('',(0.,1.,0.));
#1205=DIRECTION('center_axis',(0.999999998491823,0.,5.49213385758074E-5));
#1206=DIRECTION('ref_axis',(5.49213385758074E-5,0.,-0.999999998491823));
#1207=DIRECTION('',(5.49213385758074E-5,0.,-0.999999998491823));
#1208=DIRECTION('',(0.,1.,0.));
#1209=DIRECTION('center_axis',(0.999902476490469,0.,-0.0139655829891389));
#1210=DIRECTION('ref_axis',(-0.0139655829891389,0.,-0.999902476490469));
#1211=DIRECTION('',(-0.0139655829891389,0.,-0.999902476490469));
#1212=DIRECTION('',(0.,1.,0.));
#1213=DIRECTION('center_axis',(0.,1.,0.));
#1214=DIRECTION('ref_axis',(-0.99883237691145,0.,0.0483102766854373));
#1215=DIRECTION('center_axis',(0.,-1.,0.));
#1216=DIRECTION('ref_axis',(-0.99883237691145,0.,0.0483102766854373));
#1217=DIRECTION('',(0.,1.,0.));
#1218=DIRECTION('center_axis',(0.0144822803369916,0.,-0.999895126278872));
#1219=DIRECTION('ref_axis',(-0.999895126278872,0.,-0.0144822803369916));
#1220=DIRECTION('',(-0.999895126278872,0.,-0.0144822803369916));
#1221=DIRECTION('',(0.,1.,0.));
#1222=DIRECTION('center_axis',(0.000208326603883487,0.,-0.999999978300013));
#1223=DIRECTION('ref_axis',(-0.999999978300013,0.,-0.000208326603883487));
#1224=DIRECTION('',(-0.999999978300013,0.,-0.000208326603883487));
#1225=DIRECTION('',(0.,1.,0.));
#1226=DIRECTION('center_axis',(-0.0132968388676728,0.,-0.999911593130176));
#1227=DIRECTION('ref_axis',(-0.999911593130176,0.,0.0132968388676728));
#1228=DIRECTION('',(-0.999911593130176,0.,0.0132968388676728));
#1229=DIRECTION('',(0.,1.,0.));
#1230=DIRECTION('center_axis',(0.,1.,0.));
#1231=DIRECTION('ref_axis',(0.0480664212666428,0.,0.998844141568953));
#1232=DIRECTION('center_axis',(0.,-1.,0.));
#1233=DIRECTION('ref_axis',(0.0480664212666428,0.,0.998844141568953));
#1234=DIRECTION('',(0.,1.,0.));
#1235=DIRECTION('center_axis',(-0.999906873174174,0.,-0.0136471601092264));
#1236=DIRECTION('ref_axis',(-0.0136471601092264,0.,0.999906873174174));
#1237=DIRECTION('',(-0.0136471601092264,0.,0.999906873174174));
#1238=DIRECTION('',(0.,1.,0.));
#1239=DIRECTION('center_axis',(-1.,0.,0.));
#1240=DIRECTION('ref_axis',(0.,0.,1.));
#1241=DIRECTION('',(0.,0.,1.));
#1242=DIRECTION('',(0.,1.,0.));
#1243=DIRECTION('center_axis',(-0.999901749511631,0.,0.014017536287794));
#1244=DIRECTION('ref_axis',(0.014017536287794,0.,0.999901749511631));
#1245=DIRECTION('',(0.014017536287794,0.,0.999901749511631));
#1246=DIRECTION('',(0.,1.,0.));
#1247=DIRECTION('center_axis',(0.,1.,0.));
#1248=DIRECTION('ref_axis',(0.998829868727038,0.,-0.0483621064339474));
#1249=DIRECTION('center_axis',(0.,-1.,0.));
#1250=DIRECTION('ref_axis',(0.998829868727038,0.,-0.0483621064339474));
#1251=DIRECTION('',(0.,1.,0.));
#1252=DIRECTION('center_axis',(-0.0140175362877628,0.,0.999901749511631));
#1253=DIRECTION('ref_axis',(0.999901749511631,0.,0.0140175362877628));
#1254=DIRECTION('',(0.999901749511631,0.,0.0140175362877628));
#1255=DIRECTION('',(0.,1.,0.));
#1256=DIRECTION('center_axis',(0.,0.,1.));
#1257=DIRECTION('ref_axis',(1.,0.,0.));
#1258=DIRECTION('',(1.,0.,0.));
#1259=DIRECTION('',(0.,1.,0.));
#1260=DIRECTION('center_axis',(-1.,0.,-7.90325281415511E-16));
#1261=DIRECTION('ref_axis',(-7.90325281415511E-16,0.,1.));
#1262=DIRECTION('',(-7.90325281415511E-16,0.,1.));
#1263=DIRECTION('',(0.,1.,0.));
#1264=DIRECTION('center_axis',(0.,1.,0.));
#1265=DIRECTION('ref_axis',(1.,0.,0.));
#1266=DIRECTION('',(-1.,0.,0.));
#1267=DIRECTION('',(-0.999901910117004,0.,0.0140060752663539));
#1268=DIRECTION('center_axis',(0.,1.,0.));
#1269=DIRECTION('ref_axis',(-0.0450735955907002,0.,-0.998983669025939));
#1270=DIRECTION('',(-0.0138635473675722,0.,0.999903896409243));
#1271=DIRECTION('',(-5.49213385759005E-5,0.,0.999999998491823));
#1272=DIRECTION('',(0.0139655829891162,0.,0.99990247649047));
#1273=DIRECTION('center_axis',(0.,1.,0.));
#1274=DIRECTION('ref_axis',(-0.99898543030674,0.,0.0450345426851234));
#1275=DIRECTION('',(0.999895126278872,0.,0.0144822803369951));
#1276=DIRECTION('',(0.999999978300013,0.,0.000208326603883506));
#1277=DIRECTION('',(0.999911593130176,0.,-0.0132968388676634));
#1278=DIRECTION('center_axis',(0.,1.,0.));
#1279=DIRECTION('ref_axis',(0.0447502078195716,0.,0.998998207656102));
#1280=DIRECTION('',(0.0136471601092262,0.,-0.999906873174174));
#1281=DIRECTION('',(0.,0.,-1.));
#1282=DIRECTION('',(-0.0140175362877885,0.,-0.999901749511631));
#1283=DIRECTION('center_axis',(0.,1.,0.));
#1284=DIRECTION('ref_axis',(0.998983091292106,0.,-0.045086398308878));
#1285=DIRECTION('',(-0.999901749511631,0.,-0.0140175362877627));
#1286=DIRECTION('',(-1.,0.,0.));
#1287=DIRECTION('center_axis',(0.,-1.,0.));
#1288=DIRECTION('ref_axis',(1.,0.,0.));
#1289=DIRECTION('',(-0.393891785468138,-0.70710678118655,-0.58723867493611));
#1290=DIRECTION('center_axis',(0.,-1.,0.));
#1291=DIRECTION('ref_axis',(1.,0.,0.));
#1292=DIRECTION('',(-0.394978666654883,0.707106781186548,-0.586508186547749));
#1293=DIRECTION('center_axis',(0.,1.,0.));
#1294=DIRECTION('ref_axis',(1.,0.,0.));
#1295=DIRECTION('center_axis',(0.,-1.,0.));
#1296=DIRECTION('ref_axis',(-1.,0.,0.));
#1297=DIRECTION('center_axis',(0.,-1.,0.));
#1298=DIRECTION('ref_axis',(-1.,0.,0.));
#1299=DIRECTION('center_axis',(0.,1.,0.));
#1300=DIRECTION('ref_axis',(-1.,0.,0.));
#1301=DIRECTION('center_axis',(0.,-1.,0.));
#1302=DIRECTION('ref_axis',(1.,0.,0.));
#1303=DIRECTION('',(0.,-1.,0.));
#1304=DIRECTION('',(0.,-1.,0.));
#1305=DIRECTION('center_axis',(0.,1.,0.));
#1306=DIRECTION('ref_axis',(1.,0.,0.));
#1307=DIRECTION('',(-0.0139655829891162,0.,-0.99990247649047));
#1308=DIRECTION('',(5.49213385759005E-5,0.,-0.999999998491823));
#1309=DIRECTION('',(0.0138635473675722,0.,-0.999903896409243));
#1310=DIRECTION('center_axis',(0.,-1.,0.));
#1311=DIRECTION('ref_axis',(-0.0450735955907002,0.,-0.998983669025939));
#1312=DIRECTION('',(0.999901910117004,0.,-0.0140060752663539));
#1313=DIRECTION('',(1.,0.,0.));
#1314=DIRECTION('',(0.999901749511631,0.,0.0140175362877627));
#1315=DIRECTION('center_axis',(0.,-1.,0.));
#1316=DIRECTION('ref_axis',(0.998983091292106,0.,-0.045086398308878));
#1317=DIRECTION('',(0.0140175362877885,0.,0.999901749511631));
#1318=DIRECTION('',(0.,0.,1.));
#1319=DIRECTION('',(-0.0136471601092262,0.,0.999906873174174));
#1320=DIRECTION('center_axis',(0.,-1.,0.));
#1321=DIRECTION('ref_axis',(0.0447502078195716,0.,0.998998207656102));
#1322=DIRECTION('',(-0.999911593130176,0.,0.0132968388676634));
#1323=DIRECTION('',(-0.999999978300013,0.,-0.000208326603883506));
#1324=DIRECTION('',(-0.999895126278872,0.,-0.0144822803369951));
#1325=DIRECTION('center_axis',(0.,-1.,0.));
#1326=DIRECTION('ref_axis',(-0.99898543030674,0.,0.0450345426851234));
#1327=DIRECTION('center_axis',(0.,-1.,0.));
#1328=DIRECTION('ref_axis',(1.,0.,0.));
#1329=DIRECTION('center_axis',(0.,-1.,0.));
#1330=DIRECTION('ref_axis',(1.,0.,0.));
#1331=DIRECTION('center_axis',(0.,-1.,0.));
#1332=DIRECTION('ref_axis',(1.,0.,0.));
#1333=DIRECTION('center_axis',(0.,-1.,0.));
#1334=DIRECTION('ref_axis',(1.,0.,0.));
#1335=DIRECTION('',(0.707106781186546,0.707106781186549,8.65956056235491E-17));
#1336=DIRECTION('center_axis',(0.,1.,0.));
#1337=DIRECTION('ref_axis',(1.,0.,0.));
#1338=DIRECTION('center_axis',(0.,-1.,0.));
#1339=DIRECTION('ref_axis',(1.,0.,0.));
#1340=DIRECTION('',(0.,1.,0.));
#1341=DIRECTION('center_axis',(0.,-1.,0.));
#1342=DIRECTION('ref_axis',(1.,0.,0.));
#1343=DIRECTION('',(0.707106781186546,0.707106781186549,8.65956056235491E-17));
#1344=DIRECTION('center_axis',(0.,1.,0.));
#1345=DIRECTION('ref_axis',(1.,0.,0.));
#1346=DIRECTION('center_axis',(0.,-1.,0.));
#1347=DIRECTION('ref_axis',(1.,0.,0.));
#1348=DIRECTION('',(0.,1.,0.));
#1349=DIRECTION('center_axis',(0.,-1.,0.));
#1350=DIRECTION('ref_axis',(1.,0.,0.));
#1351=DIRECTION('',(0.707106781186546,0.707106781186549,8.65956056235491E-17));
#1352=DIRECTION('center_axis',(0.,1.,0.));
#1353=DIRECTION('ref_axis',(1.,0.,0.));
#1354=DIRECTION('center_axis',(0.,-1.,0.));
#1355=DIRECTION('ref_axis',(1.,0.,0.));
#1356=DIRECTION('',(0.,1.,0.));
#1357=DIRECTION('center_axis',(0.,-1.,0.));
#1358=DIRECTION('ref_axis',(-0.829964720983347,0.,0.557815885326902));
#1359=DIRECTION('center_axis',(0.,-1.,0.));
#1360=DIRECTION('ref_axis',(-0.99898543030674,0.,0.0450345426851234));
#1361=DIRECTION('',(0.,1.,0.));
#1362=DIRECTION('',(0.,1.,0.));
#1363=DIRECTION('center_axis',(-0.0144822803369951,0.,0.999895126278872));
#1364=DIRECTION('ref_axis',(-0.999895126278872,0.,-0.0144822803369951));
#1365=DIRECTION('',(0.,1.,0.));
#1366=DIRECTION('center_axis',(-0.000208326603883506,0.,0.999999978300013));
#1367=DIRECTION('ref_axis',(-0.999999978300013,0.,-0.000208326603883506));
#1368=DIRECTION('',(0.,1.,0.));
#1369=DIRECTION('center_axis',(0.0132968388676634,0.,0.999911593130176));
#1370=DIRECTION('ref_axis',(-0.999911593130176,0.,0.0132968388676634));
#1371=DIRECTION('',(0.,1.,0.));
#1372=DIRECTION('center_axis',(0.,-1.,0.));
#1373=DIRECTION('ref_axis',(0.0447502078195716,0.,0.998998207656102));
#1374=DIRECTION('',(0.,1.,0.));
#1375=DIRECTION('center_axis',(0.999906873174174,0.,0.0136471601092262));
#1376=DIRECTION('ref_axis',(-0.0136471601092262,0.,0.999906873174174));
#1377=DIRECTION('',(0.,1.,0.));
#1378=DIRECTION('center_axis',(1.,0.,0.));
#1379=DIRECTION('ref_axis',(0.,0.,1.));
#1380=DIRECTION('',(0.,1.,0.));
#1381=DIRECTION('center_axis',(0.999901749511631,0.,-0.0140175362877885));
#1382=DIRECTION('ref_axis',(0.0140175362877885,0.,0.999901749511631));
#1383=DIRECTION('',(0.,1.,0.));
#1384=DIRECTION('center_axis',(0.,-1.,0.));
#1385=DIRECTION('ref_axis',(0.998983091292106,0.,-0.045086398308878));
#1386=DIRECTION('',(0.,1.,0.));
#1387=DIRECTION('center_axis',(0.0140175362877627,0.,-0.999901749511631));
#1388=DIRECTION('ref_axis',(0.999901749511631,0.,0.0140175362877627));
#1389=DIRECTION('',(0.,1.,0.));
#1390=DIRECTION('center_axis',(0.,0.,-1.));
#1391=DIRECTION('ref_axis',(1.,0.,0.));
#1392=DIRECTION('',(0.,1.,0.));
#1393=DIRECTION('center_axis',(-0.0140060752663539,0.,-0.999901910117004));
#1394=DIRECTION('ref_axis',(0.999901910117004,0.,-0.0140060752663539));
#1395=DIRECTION('',(0.,1.,0.));
#1396=DIRECTION('center_axis',(0.,-1.,0.));
#1397=DIRECTION('ref_axis',(-0.0450735955907002,0.,-0.998983669025939));
#1398=DIRECTION('',(0.,1.,0.));
#1399=DIRECTION('center_axis',(-0.999903896409244,0.,-0.0138635473675722));
#1400=DIRECTION('ref_axis',(0.0138635473675722,0.,-0.999903896409243));
#1401=DIRECTION('',(0.,1.,0.));
#1402=DIRECTION('center_axis',(-0.999999998491823,0.,-5.49213385759005E-5));
#1403=DIRECTION('ref_axis',(5.49213385759005E-5,0.,-0.999999998491823));
#1404=DIRECTION('',(0.,-1.,0.));
#1405=DIRECTION('center_axis',(-0.99990247649047,0.,0.0139655829891162));
#1406=DIRECTION('ref_axis',(-0.0139655829891162,0.,-0.99990247649047));
#1407=CARTESIAN_POINT('',(0.,0.,0.));
#1408=CARTESIAN_POINT('Origin',(-10.0196754481395,-11.,-37.5122));
#1409=CARTESIAN_POINT('',(-10.0196754481395,-11.,-36.5122));
#1410=CARTESIAN_POINT('',(-10.0196754481395,-11.,-37.5122));
#1411=CARTESIAN_POINT('',(-10.0196754481395,-11.,-18.7561053843095));
#1412=CARTESIAN_POINT('',(-10.0196754481395,-10.,-36.5122));
#1413=CARTESIAN_POINT('',(-10.0196754481395,-11.,-36.5122));
#1414=CARTESIAN_POINT('',(-10.0196754481395,-10.,-37.5122));
#1415=CARTESIAN_POINT('',(-10.0196754481395,-10.,-24.9142572869794));
#1416=CARTESIAN_POINT('',(-10.0196754481395,-11.,-37.5122));
#1417=CARTESIAN_POINT('Origin',(15.5262714582094,-11.,-36.5122));
#1418=CARTESIAN_POINT('',(15.5262714582094,-11.,-37.5122));
#1419=CARTESIAN_POINT('',(15.5262714582094,-11.,-36.5122));
#1420=CARTESIAN_POINT('',(15.5262714582094,-11.,-18.2561053843095));
#1421=CARTESIAN_POINT('',(15.5262714582094,-10.,-37.5122));
#1422=CARTESIAN_POINT('',(15.5262714582094,-11.,-37.5122));
#1423=CARTESIAN_POINT('',(15.5262714582094,-10.,-36.5122));
#1424=CARTESIAN_POINT('',(15.5262714582094,-10.,-26.2740624813652));
#1425=CARTESIAN_POINT('',(15.5262714582094,-11.,-36.5122));
#1426=CARTESIAN_POINT('Origin',(-10.0196754481395,-11.,-36.5122));
#1427=CARTESIAN_POINT('',(-5.00982646377163,-11.,-36.5122));
#1428=CARTESIAN_POINT('',(57.0123766687025,-10.,-36.5122));
#1429=CARTESIAN_POINT('Origin',(2.75329800503495,-10.,-37.0122));
#1430=CARTESIAN_POINT('',(57.0193857811707,-10.,-37.5122));
#1431=CARTESIAN_POINT('Origin',(2.2520596214548E-5,-11.,-1.07686189476652E-5));
#1432=CARTESIAN_POINT('',(-40.1296900090912,-11.,-37.5122));
#1433=CARTESIAN_POINT('',(57.0193857811707,-11.,-37.5122));
#1434=CARTESIAN_POINT('',(-40.1296900090912,-11.,-36.5122));
#1435=CARTESIAN_POINT('',(-40.1296900090912,-11.,-18.2561053843095));
#1436=CARTESIAN_POINT('',(-57.0088070716707,-11.,-36.5122));
#1437=CARTESIAN_POINT('',(-28.5043922755372,-11.,-36.5122));
#1438=CARTESIAN_POINT('',(-57.2160239162295,-11.,-36.509297420565));
#1439=CARTESIAN_POINT('',(-28.8692635670257,-11.,-36.906363227712));
#1440=CARTESIAN_POINT('',(-61.4954284868797,-11.,-32.2300143700717));
#1441=CARTESIAN_POINT('Origin',(-56.99833849664,-11.,-32.012201246918));
#1442=CARTESIAN_POINT('',(-61.4983014289192,-11.,-32.0228043491925));
#1443=CARTESIAN_POINT('',(-61.7143449284101,-11.,-16.4407364117886));
#1444=CARTESIAN_POINT('',(-61.5018175752845,-11.,31.9986935090035));
#1445=CARTESIAN_POINT('',(-61.5009387766944,-11.,15.9976525367631));
#1446=CARTESIAN_POINT('',(-61.4989234009271,-11.,32.2059094991745));
#1447=CARTESIAN_POINT('',(-61.7177913946707,-11.,16.5354824830615));
#1448=CARTESIAN_POINT('',(-57.2206854173254,-11.,36.4854213332246));
#1449=CARTESIAN_POINT('Origin',(-57.0018371641,-11.,31.98840004974));
#1450=CARTESIAN_POINT('',(-57.0134605164798,-11.,36.4884227370998));
#1451=CARTESIAN_POINT('',(-28.7768880525645,-11.,36.8973955857825));
#1452=CARTESIAN_POINT('',(57.0110548318392,-11.,36.5121770776573));
#1453=CARTESIAN_POINT('',(28.5017366833917,-11.,36.5062378280995));
#1454=CARTESIAN_POINT('',(57.2182803485531,-11.,36.5094213897305));
#1455=CARTESIAN_POINT('',(28.8569182573223,-11.,36.886571194159));
#1456=CARTESIAN_POINT('',(61.4990346293453,-11.,32.2296413059922));
#1457=CARTESIAN_POINT('Origin',(57.001864978913,-11.,32.01220236626));
#1458=CARTESIAN_POINT('',(61.501863,-11.,32.0224108466979));
#1459=CARTESIAN_POINT('',(61.7146230040237,-11.,16.43380569682));
#1460=CARTESIAN_POINT('',(61.501863,-11.,-32.0227136687023));
#1461=CARTESIAN_POINT('',(61.501863,-11.,-16.0113622186606));
#1462=CARTESIAN_POINT('',(61.4989578371022,-11.,-32.229945339411));
#1463=CARTESIAN_POINT('',(61.7187857781894,-11.,-16.5491339349135));
#1464=CARTESIAN_POINT('',(57.219608339411,-11.,-36.5092948371022));
#1465=CARTESIAN_POINT('Origin',(57.001864651423,-11.,-32.012201651423));
#1466=CARTESIAN_POINT('',(57.0123766687025,-11.,-36.5122));
#1467=CARTESIAN_POINT('',(28.7676811370238,-11.,-36.9081599478104));
#1468=CARTESIAN_POINT('',(43.3069824864169,-11.,-36.5122));
#1469=CARTESIAN_POINT('',(21.6535025035065,-11.,-36.5122));
#1470=CARTESIAN_POINT('',(43.3069824864169,-11.,-37.5122));
#1471=CARTESIAN_POINT('',(43.3069824864168,-11.,-18.7561053843095));
#1472=CARTESIAN_POINT('',(57.0193857811707,-11.,-37.5122));
#1473=CARTESIAN_POINT('',(58.4000008866191,-11.,-23.0000003427267));
#1474=CARTESIAN_POINT('Origin',(59.5000008866191,-11.,-23.0000003427267));
#1475=CARTESIAN_POINT('',(-58.564097446499,-11.,22.9968439948434));
#1476=CARTESIAN_POINT('Origin',(-57.464097446499,-11.,22.9968439948434));
#1477=CARTESIAN_POINT('',(58.4000008866191,-11.,23.));
#1478=CARTESIAN_POINT('Origin',(59.5000008866191,-11.,23.));
#1479=CARTESIAN_POINT('',(-58.0760136708828,-11.,-23.915548824161));
#1480=CARTESIAN_POINT('',(-56.8488192493002,-11.,-22.0896272208273));
#1481=CARTESIAN_POINT('Origin',(-57.4632618552547,-11.,-23.0020198358719));
#1482=CARTESIAN_POINT('Origin',(-57.4615710649095,-11.,-23.003156209131));
#1483=CARTESIAN_POINT('Origin',(-40.1296900090912,-11.,-36.5122));
#1484=CARTESIAN_POINT('',(-40.1296900090912,-10.,-37.5122));
#1485=CARTESIAN_POINT('',(-40.1296900090912,-11.,-37.5122));
#1486=CARTESIAN_POINT('',(-40.1296900090912,-10.,-36.5122));
#1487=CARTESIAN_POINT('',(-40.1296900090912,-10.,-37.5122));
#1488=CARTESIAN_POINT('',(-40.1296900090912,-11.,-36.5122));
#1489=CARTESIAN_POINT('Origin',(-57.0088070716707,-11.,-36.5122));
#1490=CARTESIAN_POINT('',(-57.0088070716707,-10.,-36.5122));
#1491=CARTESIAN_POINT('',(57.0123766687025,-10.,-36.5122));
#1492=CARTESIAN_POINT('',(-57.0088070716707,-11.,-36.5122));
#1493=CARTESIAN_POINT('Origin',(-57.2160239162295,-11.,-36.509297420565));
#1494=CARTESIAN_POINT('',(-57.2160239162295,-10.,-36.509297420565));
#1495=CARTESIAN_POINT('',(-57.0088070716707,-10.,-36.5122));
#1496=CARTESIAN_POINT('',(-57.2160239162295,-11.,-36.509297420565));
#1497=CARTESIAN_POINT('Origin',(-56.99833849664,-11.,-32.012201246918));
#1498=CARTESIAN_POINT('',(-61.4954284868797,-10.,-32.2300143700717));
#1499=CARTESIAN_POINT('Origin',(-56.99833849664,-10.,-32.012201246918));
#1500=CARTESIAN_POINT('',(-61.4954284868797,-11.,-32.2300143700717));
#1501=CARTESIAN_POINT('Origin',(-61.4983014289192,-11.,-32.0228043491925));
#1502=CARTESIAN_POINT('',(-61.4983014289192,-10.,-32.0228043491925));
#1503=CARTESIAN_POINT('',(-61.4954284868797,-10.,-32.2300143700717));
#1504=CARTESIAN_POINT('',(-61.4983014289192,-11.,-32.0228043491925));
#1505=CARTESIAN_POINT('Origin',(-61.5018175752845,-11.,31.9986935090035));
#1506=CARTESIAN_POINT('',(-61.5018175752845,-10.,31.9986935090035));
#1507=CARTESIAN_POINT('',(-61.4983014289192,-10.,-32.0228043491925));
#1508=CARTESIAN_POINT('',(-61.5018175752845,-11.,31.9986935090035));
#1509=CARTESIAN_POINT('Origin',(-61.4989234009271,-11.,32.2059094991745));
#1510=CARTESIAN_POINT('',(-61.4989234009271,-10.,32.2059094991745));
#1511=CARTESIAN_POINT('',(-61.5018175752845,-10.,31.9986935090035));
#1512=CARTESIAN_POINT('',(-61.4989234009271,-11.,32.2059094991745));
#1513=CARTESIAN_POINT('Origin',(-57.0018371641,-11.,31.98840004974));
#1514=CARTESIAN_POINT('',(-57.2206854173254,-10.,36.4854213332246));
#1515=CARTESIAN_POINT('Origin',(-57.0018371641,-10.,31.98840004974));
#1516=CARTESIAN_POINT('',(-57.2206854173254,-11.,36.4854213332246));
#1517=CARTESIAN_POINT('Origin',(-57.0134605164798,-11.,36.4884227370998));
#1518=CARTESIAN_POINT('',(-57.0134605164798,-10.,36.4884227370998));
#1519=CARTESIAN_POINT('',(-57.2206854173254,-10.,36.4854213332246));
#1520=CARTESIAN_POINT('',(-57.0134605164798,-11.,36.4884227370998));
#1521=CARTESIAN_POINT('Origin',(57.0110548318392,-11.,36.5121770776573));
#1522=CARTESIAN_POINT('',(57.0110548318392,-10.,36.5121770776573));
#1523=CARTESIAN_POINT('',(-57.0134605164798,-10.,36.4884227370998));
#1524=CARTESIAN_POINT('',(57.0110548318392,-11.,36.5121770776573));
#1525=CARTESIAN_POINT('Origin',(57.2182803485531,-11.,36.5094213897305));
#1526=CARTESIAN_POINT('',(57.2182803485531,-10.,36.5094213897305));
#1527=CARTESIAN_POINT('',(57.0110548318392,-10.,36.5121770776573));
#1528=CARTESIAN_POINT('',(57.2182803485531,-11.,36.5094213897305));
#1529=CARTESIAN_POINT('Origin',(57.001864978913,-11.,32.01220236626));
#1530=CARTESIAN_POINT('',(61.4990346293453,-10.,32.2296413059922));
#1531=CARTESIAN_POINT('Origin',(57.001864978913,-10.,32.01220236626));
#1532=CARTESIAN_POINT('',(61.4990346293453,-11.,32.2296413059922));
#1533=CARTESIAN_POINT('Origin',(61.501863,-11.,32.0224108466979));
#1534=CARTESIAN_POINT('',(61.501863,-10.,32.0224108466979));
#1535=CARTESIAN_POINT('',(61.4990346293453,-10.,32.2296413059922));
#1536=CARTESIAN_POINT('',(61.501863,-11.,32.0224108466979));
#1537=CARTESIAN_POINT('Origin',(61.501863,-11.,-32.0227136687023));
#1538=CARTESIAN_POINT('',(61.501863,-10.,-32.0227136687023));
#1539=CARTESIAN_POINT('',(61.501863,-10.,32.0224108466979));
#1540=CARTESIAN_POINT('',(61.501863,-11.,-32.0227136687023));
#1541=CARTESIAN_POINT('Origin',(61.4989578371022,-11.,-32.229945339411));
#1542=CARTESIAN_POINT('',(61.4989578371022,-10.,-32.229945339411));
#1543=CARTESIAN_POINT('',(61.501863,-10.,-32.0227136687023));
#1544=CARTESIAN_POINT('',(61.4989578371022,-11.,-32.229945339411));
#1545=CARTESIAN_POINT('Origin',(57.001864651423,-11.,-32.012201651423));
#1546=CARTESIAN_POINT('',(57.219608339411,-10.,-36.5092948371022));
#1547=CARTESIAN_POINT('Origin',(57.001864651423,-10.,-32.012201651423));
#1548=CARTESIAN_POINT('',(57.219608339411,-11.,-36.5092948371022));
#1549=CARTESIAN_POINT('Origin',(57.0123766687025,-11.,-36.5122));
#1550=CARTESIAN_POINT('',(57.0123766687025,-10.,-36.5122));
#1551=CARTESIAN_POINT('',(57.219608339411,-10.,-36.5092948371022));
#1552=CARTESIAN_POINT('',(57.0123766687025,-11.,-36.5122));
#1553=CARTESIAN_POINT('Origin',(43.3069824864169,-11.,-36.5122));
#1554=CARTESIAN_POINT('',(43.3069824864169,-10.,-36.5122));
#1555=CARTESIAN_POINT('',(57.0123766687025,-10.,-36.5122));
#1556=CARTESIAN_POINT('',(43.3069824864169,-11.,-36.5122));
#1557=CARTESIAN_POINT('Origin',(43.3069824864169,-11.,-37.5122));
#1558=CARTESIAN_POINT('',(43.3069824864169,-10.,-37.5122));
#1559=CARTESIAN_POINT('',(43.3069824864169,-10.,-37.5122));
#1560=CARTESIAN_POINT('',(43.3069824864169,-11.,-37.5122));
#1561=CARTESIAN_POINT('Origin',(2.2520596214548E-5,-10.,-1.07686189476652E-5));
#1562=CARTESIAN_POINT('',(-57.0158104527841,-10.,-37.5122));
#1563=CARTESIAN_POINT('',(57.0193857811707,-10.,-37.5122));
#1564=CARTESIAN_POINT('',(-57.2463497229964,-10.,-37.5089707328711));
#1565=CARTESIAN_POINT('',(-57.0158104527841,-10.,-37.5122));
#1566=CARTESIAN_POINT('',(-62.4951049858952,-10.,-32.2602788813499));
#1567=CARTESIAN_POINT('Origin',(-56.99833849664,-10.,-32.012201246918));
#1568=CARTESIAN_POINT('',(-62.4983010481987,-10.,-32.0297639153209));
#1569=CARTESIAN_POINT('',(-62.4951049858952,-10.,-32.2602788813499));
#1570=CARTESIAN_POINT('',(-62.5018179588076,-10.,32.0056491816722));
#1571=CARTESIAN_POINT('',(-62.4983010481987,-10.,-32.0297639153209));
#1572=CARTESIAN_POINT('',(-62.4985979301591,-10.,32.2361955629068));
#1573=CARTESIAN_POINT('',(-62.5018179588076,-10.,32.0056491816722));
#1574=CARTESIAN_POINT('',(-57.2513840090571,-10.,37.4850815857037));
#1575=CARTESIAN_POINT('Origin',(-57.0018371641,-10.,31.98840004974));
#1576=CARTESIAN_POINT('',(-57.0208061941332,-10.,37.4884212284997));
#1577=CARTESIAN_POINT('',(-57.2513840090571,-10.,37.4850815857037));
#1578=CARTESIAN_POINT('',(57.0175993863984,-10.,37.5121784627621));
#1579=CARTESIAN_POINT('',(-57.0208061941332,-10.,37.4884212284997));
#1580=CARTESIAN_POINT('',(57.2480995600546,-10.,37.5091132681098));
#1581=CARTESIAN_POINT('',(57.0175993863984,-10.,37.5121784627621));
#1582=CARTESIAN_POINT('',(62.4987167949615,-10.,32.2597524505454));
#1583=CARTESIAN_POINT('Origin',(57.001864978913,-10.,32.01220236626));
#1584=CARTESIAN_POINT('',(62.501863,-10.,32.0292347444965));
#1585=CARTESIAN_POINT('',(62.4987167949615,-10.,32.2597524505454));
#1586=CARTESIAN_POINT('',(62.501863,-10.,-32.0297227811707));
#1587=CARTESIAN_POINT('',(62.501863,-10.,32.0292347444965));
#1588=CARTESIAN_POINT('',(62.4986307917783,-10.,-32.2602833154423));
#1589=CARTESIAN_POINT('',(62.501863,-10.,-32.0297227811707));
#1590=CARTESIAN_POINT('',(57.249946315442,-10.,-37.5089677917783));
#1591=CARTESIAN_POINT('Origin',(57.001864651423,-10.,-32.012201651423));
#1592=CARTESIAN_POINT('',(57.0193857811707,-10.,-37.5122));
#1593=CARTESIAN_POINT('',(57.249946315442,-10.,-37.5089677917783));
#1594=CARTESIAN_POINT('',(57.0193857811707,-10.,-37.5122));
#1595=CARTESIAN_POINT('Origin',(-57.4632618552547,-12.5,-23.0020198358719));
#1596=CARTESIAN_POINT('',(-58.0760136708828,-12.,-23.915548824161));
#1597=CARTESIAN_POINT('',(-58.6330607759992,-13.,-24.7460297226057));
#1598=CARTESIAN_POINT('',(-58.0760136708828,-12.,-23.915548824161));
#1599=CARTESIAN_POINT('',(-56.2902350620688,-13.,-21.2601793889687));
#1600=CARTESIAN_POINT('Origin',(-57.4632618552547,-13.,-23.0020198358719));
#1601=CARTESIAN_POINT('',(-56.8488192493002,-12.,-22.0896272208273));
#1602=CARTESIAN_POINT('',(-56.2902350620688,-13.,-21.2601793889687));
#1603=CARTESIAN_POINT('Origin',(-57.4632618552547,-12.,-23.0020198358719));
#1604=CARTESIAN_POINT('Origin',(-57.4615710649095,-12.5,-23.003156209131));
#1605=CARTESIAN_POINT('Origin',(-57.4615710649095,-13.,-23.003156209131));
#1606=CARTESIAN_POINT('Origin',(-57.4615710649095,-12.,-23.003156209131));
#1607=CARTESIAN_POINT('Origin',(-57.4632618552547,-11.,-23.0020198358719));
#1608=CARTESIAN_POINT('',(-56.8488192493002,-11.,-22.0896272208273));
#1609=CARTESIAN_POINT('',(-58.0760136708828,-11.,-23.915548824161));
#1610=CARTESIAN_POINT('Origin',(2.2520596214548E-5,-13.,-1.07686189476652E-5));
#1611=CARTESIAN_POINT('',(-62.4985979301591,-13.,32.2361955629068));
#1612=CARTESIAN_POINT('',(-62.5018179588076,-13.,32.0056491816722));
#1613=CARTESIAN_POINT('',(-62.5018179588076,-13.,32.0056491816722));
#1614=CARTESIAN_POINT('',(-62.4983010481987,-13.,-32.0297639153209));
#1615=CARTESIAN_POINT('',(-62.4983010481987,-13.,-32.0297639153209));
#1616=CARTESIAN_POINT('',(-62.4951049858952,-13.,-32.2602788813499));
#1617=CARTESIAN_POINT('',(-62.4951049858952,-13.,-32.2602788813499));
#1618=CARTESIAN_POINT('',(-57.2463497229964,-13.,-37.5089707328711));
#1619=CARTESIAN_POINT('Origin',(-56.99833849664,-13.,-32.012201246918));
#1620=CARTESIAN_POINT('',(-57.0158104527841,-13.,-37.5122));
#1621=CARTESIAN_POINT('',(-57.0158104527841,-13.,-37.5122));
#1622=CARTESIAN_POINT('',(57.0193857811707,-13.,-37.5122));
#1623=CARTESIAN_POINT('',(57.0193857811707,-13.,-37.5122));
#1624=CARTESIAN_POINT('',(57.249946315442,-13.,-37.5089677917783));
#1625=CARTESIAN_POINT('',(57.249946315442,-13.,-37.5089677917783));
#1626=CARTESIAN_POINT('',(62.4986307917783,-13.,-32.2602833154423));
#1627=CARTESIAN_POINT('Origin',(57.001864651423,-13.,-32.012201651423));
#1628=CARTESIAN_POINT('',(62.501863,-13.,-32.0297227811707));
#1629=CARTESIAN_POINT('',(62.501863,-13.,-32.0297227811707));
#1630=CARTESIAN_POINT('',(62.501863,-13.,32.0292347444965));
#1631=CARTESIAN_POINT('',(62.501863,-13.,32.0292347444965));
#1632=CARTESIAN_POINT('',(62.4987167949615,-13.,32.2597524505454));
#1633=CARTESIAN_POINT('',(62.4987167949615,-13.,32.2597524505454));
#1634=CARTESIAN_POINT('',(57.2480995600547,-13.,37.5091132681098));
#1635=CARTESIAN_POINT('Origin',(57.001864978913,-13.,32.01220236626));
#1636=CARTESIAN_POINT('',(57.0175993863984,-13.,37.5121784627621));
#1637=CARTESIAN_POINT('',(57.0175993863984,-13.,37.5121784627621));
#1638=CARTESIAN_POINT('',(-57.0208061941332,-13.,37.4884212284997));
#1639=CARTESIAN_POINT('',(-57.0208061941332,-13.,37.4884212284997));
#1640=CARTESIAN_POINT('',(-57.2513840090571,-13.,37.4850815857037));
#1641=CARTESIAN_POINT('',(-57.2513840090571,-13.,37.4850815857037));
#1642=CARTESIAN_POINT('Origin',(-57.0018371641,-13.,31.98840004974));
#1643=CARTESIAN_POINT('',(-59.564097446499,-13.,22.9968439948434));
#1644=CARTESIAN_POINT('Origin',(-57.464097446499,-13.,22.9968439948434));
#1645=CARTESIAN_POINT('',(57.4000008866191,-13.,23.));
#1646=CARTESIAN_POINT('Origin',(59.5000008866191,-13.,23.));
#1647=CARTESIAN_POINT('',(57.4000008866191,-13.,-23.0000003427267));
#1648=CARTESIAN_POINT('Origin',(59.5000008866191,-13.,-23.0000003427267));
#1649=CARTESIAN_POINT('Origin',(-57.464097446499,-12.5,22.9968439948434));
#1650=CARTESIAN_POINT('',(-58.564097446499,-12.,22.9968439948434));
#1651=CARTESIAN_POINT('',(-59.064097446499,-12.5,22.9968439948434));
#1652=CARTESIAN_POINT('Origin',(-57.464097446499,-12.,22.9968439948434));
#1653=CARTESIAN_POINT('Origin',(-57.464097446499,-11.,22.9968439948434));
#1654=CARTESIAN_POINT('',(-58.564097446499,-11.,22.9968439948434));
#1655=CARTESIAN_POINT('Origin',(59.5000008866191,-12.5,-23.0000003427267));
#1656=CARTESIAN_POINT('',(58.4000008866191,-12.,-23.0000003427267));
#1657=CARTESIAN_POINT('',(57.9000008866191,-12.5,-23.0000003427267));
#1658=CARTESIAN_POINT('Origin',(59.5000008866191,-12.,-23.0000003427267));
#1659=CARTESIAN_POINT('Origin',(59.5000008866191,-11.,-23.0000003427267));
#1660=CARTESIAN_POINT('',(58.4000008866191,-11.,-23.0000003427267));
#1661=CARTESIAN_POINT('Origin',(59.5000008866191,-12.5,23.));
#1662=CARTESIAN_POINT('',(58.4000008866191,-12.,23.));
#1663=CARTESIAN_POINT('',(57.9000008866191,-12.5,23.));
#1664=CARTESIAN_POINT('Origin',(59.5000008866191,-12.,23.));
#1665=CARTESIAN_POINT('Origin',(59.5000008866191,-11.,23.));
#1666=CARTESIAN_POINT('',(58.4000008866191,-11.,23.));
#1667=CARTESIAN_POINT('Origin',(-57.4615710649095,-11.,-23.003156209131));
#1668=CARTESIAN_POINT('Origin',(-57.0018371641,-11.,31.98840004974));
#1669=CARTESIAN_POINT('',(-62.4985979301591,-11.,32.2361955629068));
#1670=CARTESIAN_POINT('',(-57.2513840090571,-11.,37.4850815857037));
#1671=CARTESIAN_POINT('Origin',(-57.0208061941332,-11.,37.4884212284997));
#1672=CARTESIAN_POINT('',(-57.0208061941332,-11.,37.4884212284997));
#1673=CARTESIAN_POINT('Origin',(57.0175993863984,-11.,37.5121784627621));
#1674=CARTESIAN_POINT('',(57.0175993863984,-11.,37.5121784627621));
#1675=CARTESIAN_POINT('Origin',(57.2480995600546,-11.,37.5091132681098));
#1676=CARTESIAN_POINT('',(57.2480995600546,-11.,37.5091132681098));
#1677=CARTESIAN_POINT('Origin',(57.001864978913,-11.,32.01220236626));
#1678=CARTESIAN_POINT('',(62.4987167949615,-11.,32.2597524505454));
#1679=CARTESIAN_POINT('Origin',(62.501863,-11.,32.0292347444965));
#1680=CARTESIAN_POINT('',(62.501863,-11.,32.0292347444965));
#1681=CARTESIAN_POINT('Origin',(62.501863,-11.,-32.0297227811707));
#1682=CARTESIAN_POINT('',(62.501863,-11.,-32.0297227811707));
#1683=CARTESIAN_POINT('Origin',(62.4986307917783,-11.,-32.2602833154423));
#1684=CARTESIAN_POINT('',(62.4986307917783,-11.,-32.2602833154423));
#1685=CARTESIAN_POINT('Origin',(57.001864651423,-11.,-32.012201651423));
#1686=CARTESIAN_POINT('',(57.249946315442,-11.,-37.5089677917783));
#1687=CARTESIAN_POINT('Origin',(57.0193857811707,-11.,-37.5122));
#1688=CARTESIAN_POINT('',(57.0193857811707,-11.,-37.5122));
#1689=CARTESIAN_POINT('Origin',(-57.0158104527841,-11.,-37.5122));
#1690=CARTESIAN_POINT('',(-57.0158104527841,-11.,-37.5122));
#1691=CARTESIAN_POINT('Origin',(-57.2463497229964,-11.,-37.5089707328711));
#1692=CARTESIAN_POINT('',(-57.2463497229964,-11.,-37.5089707328711));
#1693=CARTESIAN_POINT('Origin',(-56.99833849664,-11.,-32.012201246918));
#1694=CARTESIAN_POINT('',(-62.4951049858952,-11.,-32.2602788813499));
#1695=CARTESIAN_POINT('Origin',(-62.4983010481987,-11.,-32.0297639153209));
#1696=CARTESIAN_POINT('',(-62.4983010481987,-11.,-32.0297639153209));
#1697=CARTESIAN_POINT('Origin',(-62.5018179588076,-11.,32.0056491816722));
#1698=CARTESIAN_POINT('',(-62.5018179588076,-11.,32.0056491816722));
#1699=CARTESIAN_POINT('Origin',(-62.4985979301591,-11.,32.2361955629068));
#1700=UNCERTAINTY_MEASURE_WITH_UNIT(LENGTH_MEASURE(0.01),#1704,
'DISTANCE_ACCURACY_VALUE',
'Maximum model space distance between geometric entities at asserted c
onnectivities');
#1701=UNCERTAINTY_MEASURE_WITH_UNIT(LENGTH_MEASURE(0.01),#1704,
'DISTANCE_ACCURACY_VALUE',
'Maximum model space distance between geometric entities at asserted c
onnectivities');
#1702=(
GEOMETRIC_REPRESENTATION_CONTEXT(3)
GLOBAL_UNCERTAINTY_ASSIGNED_CONTEXT((#1700))
GLOBAL_UNIT_ASSIGNED_CONTEXT((#1704,#1706,#1707))
REPRESENTATION_CONTEXT('','3D')
);
#1703=(
GEOMETRIC_REPRESENTATION_CONTEXT(3)
GLOBAL_UNCERTAINTY_ASSIGNED_CONTEXT((#1701))
GLOBAL_UNIT_ASSIGNED_CONTEXT((#1704,#1706,#1707))
REPRESENTATION_CONTEXT('','3D')
);
#1704=(
LENGTH_UNIT()
NAMED_UNIT(*)
SI_UNIT(.MILLI.,.METRE.)
);
#1705=(
LENGTH_UNIT()
NAMED_UNIT(*)
SI_UNIT($,.METRE.)
);
#1706=(
NAMED_UNIT(*)
PLANE_ANGLE_UNIT()
SI_UNIT($,.RADIAN.)
);
#1707=(
NAMED_UNIT(*)
SI_UNIT($,.STERADIAN.)
SOLID_ANGLE_UNIT()
);
#1708=SHAPE_DEFINITION_REPRESENTATION(#1709,#1710);
#1709=PRODUCT_DEFINITION_SHAPE('',$,#1712);
#1710=SHAPE_REPRESENTATION('',(#1041),#1702);
#1711=PRODUCT_DEFINITION_CONTEXT('part definition',#1716,'design');
#1712=PRODUCT_DEFINITION('2026-09-01-18-10-20-816','TEMP_STEP_EXPORT',#1713,
#1711);
#1713=PRODUCT_DEFINITION_FORMATION('',$,#1718);
#1714=PRODUCT_RELATED_PRODUCT_CATEGORY('TEMP_STEP_EXPORT',
'TEMP_STEP_EXPORT',(#1718));
#1715=APPLICATION_PROTOCOL_DEFINITION('international standard',
'automotive_design',2009,#1716);
#1716=APPLICATION_CONTEXT(
'Core Data for Automotive Mechanical Design Process');
#1717=PRODUCT_CONTEXT('part definition',#1716,'mechanical');
#1718=PRODUCT('2026-09-01-18-10-20-816','TEMP_STEP_EXPORT',$,(#1717));
#1719=PRESENTATION_STYLE_ASSIGNMENT((#1720));
#1720=SURFACE_STYLE_USAGE(.BOTH.,#1721);
#1721=SURFACE_SIDE_STYLE('',(#1722));
#1722=SURFACE_STYLE_FILL_AREA(#1723);
#1723=FILL_AREA_STYLE('Steel - Satin',(#1724));
#1724=FILL_AREA_STYLE_COLOUR('Steel - Satin',#1725);
#1725=COLOUR_RGB('Steel - Satin',0.627450980392157,0.627450980392157,0.627450980392157);
ENDSEC;
END-ISO-10303-21;
