ISO-10303-21;
HEADER;
/* Generated by software containing ST-Developer
 * from STEP Tools, Inc. (www.steptools.com) 
 */

FILE_DESCRIPTION(
/* description */ (''),
/* implementation_level */ '2;1');

FILE_NAME(
/* name */ 'battery-holder.step',
/* time_stamp */ '2026-09-01T18:10:46+05:30',
/* author */ (''),
/* organization */ (''),
/* preprocessor_version */ 'ST-DEVELOPER v20.1',
/* originating_system */ 'Autodesk Translation Framework v15.8.0.0',
/* authorisation */ '');

FILE_SCHEMA (('AUTOMOTIVE_DESIGN { 1 0 10303 214 3 1 1 }'));
ENDSEC;

DATA;
#10=MECHANICAL_DESIGN_GEOMETRIC_PRESENTATION_REPRESENTATION('',(#13),#1387);
#11=SHAPE_REPRESENTATION_RELATIONSHIP('SRR','None',#1394,#12);
#12=ADVANCED_BREP_SHAPE_REPRESENTATION('',(#14),#1386);
#13=STYLED_ITEM('',(#1403),#14);
#14=MANIFOLD_SOLID_BREP('Battery Holder',#883);
#15=FACE_BOUND('',#63,.T.);
#16=FACE_BOUND('',#69,.T.);
#17=FACE_BOUND('',#70,.T.);
#18=FACE_OUTER_BOUND('',#55,.T.);
#19=FACE_OUTER_BOUND('',#56,.T.);
#20=FACE_OUTER_BOUND('',#57,.T.);
#21=FACE_OUTER_BOUND('',#58,.T.);
#22=FACE_OUTER_BOUND('',#59,.T.);
#23=FACE_OUTER_BOUND('',#60,.T.);
#24=FACE_OUTER_BOUND('',#61,.T.);
#25=FACE_OUTER_BOUND('',#62,.T.);
#26=FACE_OUTER_BOUND('',#64,.T.);
#27=FACE_OUTER_BOUND('',#65,.T.);
#28=FACE_OUTER_BOUND('',#66,.T.);
#29=FACE_OUTER_BOUND('',#67,.T.);
#30=FACE_OUTER_BOUND('',#68,.T.);
#31=FACE_OUTER_BOUND('',#71,.T.);
#32=FACE_OUTER_BOUND('',#72,.T.);
#33=FACE_OUTER_BOUND('',#73,.T.);
#34=FACE_OUTER_BOUND('',#74,.T.);
#35=FACE_OUTER_BOUND('',#75,.T.);
#36=FACE_OUTER_BOUND('',#76,.T.);
#37=FACE_OUTER_BOUND('',#77,.T.);
#38=FACE_OUTER_BOUND('',#78,.T.);
#39=FACE_OUTER_BOUND('',#79,.T.);
#40=FACE_OUTER_BOUND('',#80,.T.);
#41=FACE_OUTER_BOUND('',#81,.T.);
#42=FACE_OUTER_BOUND('',#82,.T.);
#43=FACE_OUTER_BOUND('',#83,.T.);
#44=FACE_OUTER_BOUND('',#84,.T.);
#45=FACE_OUTER_BOUND('',#85,.T.);
#46=FACE_OUTER_BOUND('',#86,.T.);
#47=FACE_OUTER_BOUND('',#87,.T.);
#48=FACE_OUTER_BOUND('',#88,.T.);
#49=FACE_OUTER_BOUND('',#89,.T.);
#50=FACE_OUTER_BOUND('',#90,.T.);
#51=FACE_OUTER_BOUND('',#91,.T.);
#52=FACE_OUTER_BOUND('',#92,.T.);
#53=FACE_OUTER_BOUND('',#93,.T.);
#54=FACE_OUTER_BOUND('',#94,.T.);
#55=EDGE_LOOP('',(#557,#558,#559,#560));
#56=EDGE_LOOP('',(#561,#562,#563,#564));
#57=EDGE_LOOP('',(#565,#566,#567,#568));
#58=EDGE_LOOP('',(#569,#570,#571,#572));
#59=EDGE_LOOP('',(#573,#574,#575,#576));
#60=EDGE_LOOP('',(#577,#578,#579,#580));
#61=EDGE_LOOP('',(#581,#582,#583,#584,#585,#586,#587,#588,#589,#590,#591,
#592));
#62=EDGE_LOOP('',(#593,#594,#595,#596));
#63=EDGE_LOOP('',(#597,#598,#599,#600));
#64=EDGE_LOOP('',(#601,#602,#603,#604));
#65=EDGE_LOOP('',(#605,#606,#607,#608));
#66=EDGE_LOOP('',(#609,#610,#611,#612));
#67=EDGE_LOOP('',(#613,#614,#615,#616));
#68=EDGE_LOOP('',(#617,#618,#619,#620,#621,#622,#623,#624,#625,#626,#627,
#628,#629,#630,#631,#632,#633,#634));
#69=EDGE_LOOP('',(#635,#636,#637));
#70=EDGE_LOOP('',(#638,#639,#640));
#71=EDGE_LOOP('',(#641,#642,#643,#644));
#72=EDGE_LOOP('',(#645,#646,#647,#648));
#73=EDGE_LOOP('',(#649,#650,#651,#652));
#74=EDGE_LOOP('',(#653,#654,#655,#656));
#75=EDGE_LOOP('',(#657,#658,#659,#660,#661,#662));
#76=EDGE_LOOP('',(#663,#664,#665,#666));
#77=EDGE_LOOP('',(#667,#668,#669,#670));
#78=EDGE_LOOP('',(#671,#672,#673,#674,#675,#676));
#79=EDGE_LOOP('',(#677,#678,#679,#680,#681,#682,#683,#684));
#80=EDGE_LOOP('',(#685,#686,#687,#688,#689,#690,#691,#692,#693,#694,#695,
#696));
#81=EDGE_LOOP('',(#697,#698,#699,#700,#701,#702,#703,#704,#705,#706,#707,
#708,#709,#710,#711,#712));
#82=EDGE_LOOP('',(#713,#714,#715,#716));
#83=EDGE_LOOP('',(#717,#718,#719,#720));
#84=EDGE_LOOP('',(#721,#722,#723,#724));
#85=EDGE_LOOP('',(#725,#726,#727,#728));
#86=EDGE_LOOP('',(#729,#730,#731,#732));
#87=EDGE_LOOP('',(#733,#734,#735,#736));
#88=EDGE_LOOP('',(#737,#738,#739,#740));
#89=EDGE_LOOP('',(#741,#742,#743,#744));
#90=EDGE_LOOP('',(#745,#746,#747,#748,#749,#750,#751,#752));
#91=EDGE_LOOP('',(#753,#754,#755,#756,#757,#758,#759,#760,#761,#762,#763,
#764,#765,#766,#767,#768));
#92=EDGE_LOOP('',(#769,#770,#771,#772,#773,#774,#775,#776,#777,#778,#779,
#780,#781,#782,#783,#784,#785,#786,#787,#788));
#93=EDGE_LOOP('',(#789,#790,#791,#792));
#94=EDGE_LOOP('',(#793,#794,#795,#796,#797,#798,#799,#800,#801,#802,#803,
#804,#805,#806,#807,#808));
#95=LINE('',#1140,#221);
#96=LINE('',#1142,#222);
#97=LINE('',#1144,#223);
#98=LINE('',#1145,#224);
#99=LINE('',#1148,#225);
#100=LINE('',#1150,#226);
#101=LINE('',#1151,#227);
#102=LINE('',#1154,#228);
#103=LINE('',#1156,#229);
#104=LINE('',#1157,#230);
#105=LINE('',#1161,#231);
#106=LINE('',#1163,#232);
#107=LINE('',#1165,#233);
#108=LINE('',#1166,#234);
#109=LINE('',#1169,#235);
#110=LINE('',#1171,#236);
#111=LINE('',#1172,#237);
#112=LINE('',#1175,#238);
#113=LINE('',#1177,#239);
#114=LINE('',#1178,#240);
#115=LINE('',#1182,#241);
#116=LINE('',#1184,#242);
#117=LINE('',#1185,#243);
#118=LINE('',#1186,#244);
#119=LINE('',#1188,#245);
#120=LINE('',#1189,#246);
#121=LINE('',#1192,#247);
#122=LINE('',#1194,#248);
#123=LINE('',#1195,#249);
#124=LINE('',#1198,#250);
#125=LINE('',#1200,#251);
#126=LINE('',#1202,#252);
#127=LINE('',#1203,#253);
#128=LINE('',#1205,#254);
#129=LINE('',#1209,#255);
#130=LINE('',#1211,#256);
#131=LINE('',#1213,#257);
#132=LINE('',#1214,#258);
#133=LINE('',#1218,#259);
#134=LINE('',#1220,#260);
#135=LINE('',#1222,#261);
#136=LINE('',#1223,#262);
#137=LINE('',#1225,#263);
#138=LINE('',#1226,#264);
#139=LINE('',#1229,#265);
#140=LINE('',#1230,#266);
#141=LINE('',#1232,#267);
#142=LINE('',#1234,#268);
#143=LINE('',#1236,#269);
#144=LINE('',#1238,#270);
#145=LINE('',#1240,#271);
#146=LINE('',#1242,#272);
#147=LINE('',#1243,#273);
#148=LINE('',#1245,#274);
#149=LINE('',#1247,#275);
#150=LINE('',#1249,#276);
#151=LINE('',#1250,#277);
#152=LINE('',#1253,#278);
#153=LINE('',#1255,#279);
#154=LINE('',#1256,#280);
#155=LINE('',#1259,#281);
#156=LINE('',#1261,#282);
#157=LINE('',#1262,#283);
#158=LINE('',#1265,#284);
#159=LINE('',#1267,#285);
#160=LINE('',#1268,#286);
#161=LINE('',#1271,#287);
#162=LINE('',#1273,#288);
#163=LINE('',#1274,#289);
#164=LINE('',#1277,#290);
#165=LINE('',#1279,#291);
#166=LINE('',#1280,#292);
#167=LINE('',#1282,#293);
#168=LINE('',#1283,#294);
#169=LINE('',#1287,#295);
#170=LINE('',#1289,#296);
#171=LINE('',#1291,#297);
#172=LINE('',#1293,#298);
#173=LINE('',#1295,#299);
#174=LINE('',#1296,#300);
#175=LINE('',#1299,#301);
#176=LINE('',#1301,#302);
#177=LINE('',#1302,#303);
#178=LINE('',#1305,#304);
#179=LINE('',#1307,#305);
#180=LINE('',#1308,#306);
#181=LINE('',#1311,#307);
#182=LINE('',#1312,#308);
#183=LINE('',#1314,#309);
#184=LINE('',#1315,#310);
#185=LINE('',#1317,#311);
#186=LINE('',#1318,#312);
#187=LINE('',#1321,#313);
#188=LINE('',#1323,#314);
#189=LINE('',#1324,#315);
#190=LINE('',#1326,#316);
#191=LINE('',#1328,#317);
#192=LINE('',#1329,#318);
#193=LINE('',#1330,#319);
#194=LINE('',#1333,#320);
#195=LINE('',#1335,#321);
#196=LINE('',#1336,#322);
#197=LINE('',#1338,#323);
#198=LINE('',#1340,#324);
#199=LINE('',#1342,#325);
#200=LINE('',#1344,#326);
#201=LINE('',#1346,#327);
#202=LINE('',#1348,#328);
#203=LINE('',#1350,#329);
#204=LINE('',#1352,#330);
#205=LINE('',#1354,#331);
#206=LINE('',#1356,#332);
#207=LINE('',#1357,#333);
#208=LINE('',#1359,#334);
#209=LINE('',#1362,#335);
#210=LINE('',#1363,#336);
#211=LINE('',#1365,#337);
#212=LINE('',#1367,#338);
#213=LINE('',#1368,#339);
#214=LINE('',#1370,#340);
#215=LINE('',#1372,#341);
#216=LINE('',#1373,#342);
#217=LINE('',#1375,#343);
#218=LINE('',#1377,#344);
#219=LINE('',#1378,#345);
#220=LINE('',#1382,#346);
#221=VECTOR('',#938,10.);
#222=VECTOR('',#939,10.);
#223=VECTOR('',#940,10.);
#224=VECTOR('',#941,10.);
#225=VECTOR('',#944,10.);
#226=VECTOR('',#945,10.);
#227=VECTOR('',#946,10.);
#228=VECTOR('',#949,10.);
#229=VECTOR('',#950,10.);
#230=VECTOR('',#951,10.);
#231=VECTOR('',#954,10.);
#232=VECTOR('',#955,10.);
#233=VECTOR('',#956,10.);
#234=VECTOR('',#957,10.);
#235=VECTOR('',#960,10.);
#236=VECTOR('',#961,10.);
#237=VECTOR('',#962,10.);
#238=VECTOR('',#965,10.);
#239=VECTOR('',#966,10.);
#240=VECTOR('',#967,10.);
#241=VECTOR('',#970,10.);
#242=VECTOR('',#971,10.);
#243=VECTOR('',#972,10.);
#244=VECTOR('',#973,10.);
#245=VECTOR('',#974,10.);
#246=VECTOR('',#975,10.);
#247=VECTOR('',#978,10.);
#248=VECTOR('',#979,10.);
#249=VECTOR('',#980,10.);
#250=VECTOR('',#981,10.);
#251=VECTOR('',#982,10.);
#252=VECTOR('',#983,10.);
#253=VECTOR('',#984,10.);
#254=VECTOR('',#987,10.);
#255=VECTOR('',#990,10.);
#256=VECTOR('',#991,10.);
#257=VECTOR('',#992,10.);
#258=VECTOR('',#993,10.);
#259=VECTOR('',#996,10.);
#260=VECTOR('',#997,10.);
#261=VECTOR('',#998,10.);
#262=VECTOR('',#999,10.);
#263=VECTOR('',#1002,10.);
#264=VECTOR('',#1003,10.);
#265=VECTOR('',#1006,10.);
#266=VECTOR('',#1007,10.);
#267=VECTOR('',#1008,10.);
#268=VECTOR('',#1009,10.);
#269=VECTOR('',#1010,10.);
#270=VECTOR('',#1011,10.);
#271=VECTOR('',#1012,10.);
#272=VECTOR('',#1013,10.);
#273=VECTOR('',#1014,10.);
#274=VECTOR('',#1015,10.);
#275=VECTOR('',#1016,10.);
#276=VECTOR('',#1017,10.);
#277=VECTOR('',#1018,10.);
#278=VECTOR('',#1019,10.);
#279=VECTOR('',#1020,10.);
#280=VECTOR('',#1021,10.);
#281=VECTOR('',#1022,10.);
#282=VECTOR('',#1023,10.);
#283=VECTOR('',#1024,10.);
#284=VECTOR('',#1027,10.);
#285=VECTOR('',#1028,10.);
#286=VECTOR('',#1029,10.);
#287=VECTOR('',#1032,10.);
#288=VECTOR('',#1033,10.);
#289=VECTOR('',#1034,10.);
#290=VECTOR('',#1037,10.);
#291=VECTOR('',#1038,10.);
#292=VECTOR('',#1039,10.);
#293=VECTOR('',#1042,10.);
#294=VECTOR('',#1043,10.);
#295=VECTOR('',#1046,10.);
#296=VECTOR('',#1047,10.);
#297=VECTOR('',#1048,10.);
#298=VECTOR('',#1049,10.);
#299=VECTOR('',#1050,10.);
#300=VECTOR('',#1051,10.);
#301=VECTOR('',#1054,10.);
#302=VECTOR('',#1055,10.);
#303=VECTOR('',#1056,10.);
#304=VECTOR('',#1059,10.);
#305=VECTOR('',#1060,10.);
#306=VECTOR('',#1061,10.);
#307=VECTOR('',#1064,10.);
#308=VECTOR('',#1065,10.);
#309=VECTOR('',#1066,10.);
#310=VECTOR('',#1067,10.);
#311=VECTOR('',#1070,10.);
#312=VECTOR('',#1071,10.);
#313=VECTOR('',#1074,10.);
#314=VECTOR('',#1075,10.);
#315=VECTOR('',#1076,10.);
#316=VECTOR('',#1077,10.);
#317=VECTOR('',#1078,10.);
#318=VECTOR('',#1079,10.);
#319=VECTOR('',#1080,10.);
#320=VECTOR('',#1083,10.);
#321=VECTOR('',#1084,10.);
#322=VECTOR('',#1085,10.);
#323=VECTOR('',#1086,10.);
#324=VECTOR('',#1087,10.);
#325=VECTOR('',#1088,10.);
#326=VECTOR('',#1089,10.);
#327=VECTOR('',#1090,10.);
#328=VECTOR('',#1091,10.);
#329=VECTOR('',#1092,10.);
#330=VECTOR('',#1093,10.);
#331=VECTOR('',#1094,10.);
#332=VECTOR('',#1095,10.);
#333=VECTOR('',#1096,10.);
#334=VECTOR('',#1099,10.);
#335=VECTOR('',#1104,10.);
#336=VECTOR('',#1105,10.);
#337=VECTOR('',#1108,10.);
#338=VECTOR('',#1111,10.);
#339=VECTOR('',#1112,10.);
#340=VECTOR('',#1115,10.);
#341=VECTOR('',#1118,10.);
#342=VECTOR('',#1119,10.);
#343=VECTOR('',#1122,10.);
#344=VECTOR('',#1125,10.);
#345=VECTOR('',#1126,10.);
#346=VECTOR('',#1133,10.);
#347=VERTEX_POINT('',#1138);
#348=VERTEX_POINT('',#1139);
#349=VERTEX_POINT('',#1141);
#350=VERTEX_POINT('',#1143);
#351=VERTEX_POINT('',#1147);
#352=VERTEX_POINT('',#1149);
#353=VERTEX_POINT('',#1153);
#354=VERTEX_POINT('',#1155);
#355=VERTEX_POINT('',#1159);
#356=VERTEX_POINT('',#1160);
#357=VERTEX_POINT('',#1162);
#358=VERTEX_POINT('',#1164);
#359=VERTEX_POINT('',#1168);
#360=VERTEX_POINT('',#1170);
#361=VERTEX_POINT('',#1174);
#362=VERTEX_POINT('',#1176);
#363=VERTEX_POINT('',#1180);
#364=VERTEX_POINT('',#1181);
#365=VERTEX_POINT('',#1183);
#366=VERTEX_POINT('',#1187);
#367=VERTEX_POINT('',#1191);
#368=VERTEX_POINT('',#1193);
#369=VERTEX_POINT('',#1196);
#370=VERTEX_POINT('',#1197);
#371=VERTEX_POINT('',#1199);
#372=VERTEX_POINT('',#1201);
#373=VERTEX_POINT('',#1207);
#374=VERTEX_POINT('',#1208);
#375=VERTEX_POINT('',#1210);
#376=VERTEX_POINT('',#1212);
#377=VERTEX_POINT('',#1216);
#378=VERTEX_POINT('',#1217);
#379=VERTEX_POINT('',#1219);
#380=VERTEX_POINT('',#1221);
#381=VERTEX_POINT('',#1228);
#382=VERTEX_POINT('',#1231);
#383=VERTEX_POINT('',#1233);
#384=VERTEX_POINT('',#1235);
#385=VERTEX_POINT('',#1237);
#386=VERTEX_POINT('',#1239);
#387=VERTEX_POINT('',#1241);
#388=VERTEX_POINT('',#1244);
#389=VERTEX_POINT('',#1246);
#390=VERTEX_POINT('',#1248);
#391=VERTEX_POINT('',#1251);
#392=VERTEX_POINT('',#1252);
#393=VERTEX_POINT('',#1254);
#394=VERTEX_POINT('',#1257);
#395=VERTEX_POINT('',#1258);
#396=VERTEX_POINT('',#1260);
#397=VERTEX_POINT('',#1264);
#398=VERTEX_POINT('',#1266);
#399=VERTEX_POINT('',#1270);
#400=VERTEX_POINT('',#1272);
#401=VERTEX_POINT('',#1276);
#402=VERTEX_POINT('',#1278);
#403=VERTEX_POINT('',#1285);
#404=VERTEX_POINT('',#1286);
#405=VERTEX_POINT('',#1288);
#406=VERTEX_POINT('',#1290);
#407=VERTEX_POINT('',#1292);
#408=VERTEX_POINT('',#1294);
#409=VERTEX_POINT('',#1298);
#410=VERTEX_POINT('',#1300);
#411=VERTEX_POINT('',#1304);
#412=VERTEX_POINT('',#1306);
#413=VERTEX_POINT('',#1310);
#414=VERTEX_POINT('',#1313);
#415=VERTEX_POINT('',#1320);
#416=VERTEX_POINT('',#1322);
#417=VERTEX_POINT('',#1325);
#418=VERTEX_POINT('',#1327);
#419=VERTEX_POINT('',#1332);
#420=VERTEX_POINT('',#1334);
#421=VERTEX_POINT('',#1337);
#422=VERTEX_POINT('',#1339);
#423=VERTEX_POINT('',#1341);
#424=VERTEX_POINT('',#1343);
#425=VERTEX_POINT('',#1345);
#426=VERTEX_POINT('',#1347);
#427=VERTEX_POINT('',#1349);
#428=VERTEX_POINT('',#1351);
#429=VERTEX_POINT('',#1353);
#430=VERTEX_POINT('',#1355);
#431=EDGE_CURVE('',#347,#348,#95,.T.);
#432=EDGE_CURVE('',#349,#347,#96,.T.);
#433=EDGE_CURVE('',#350,#349,#97,.T.);
#434=EDGE_CURVE('',#348,#350,#98,.T.);
#435=EDGE_CURVE('',#348,#351,#99,.T.);
#436=EDGE_CURVE('',#352,#350,#100,.T.);
#437=EDGE_CURVE('',#351,#352,#101,.T.);
#438=EDGE_CURVE('',#351,#353,#102,.T.);
#439=EDGE_CURVE('',#354,#352,#103,.T.);
#440=EDGE_CURVE('',#353,#354,#104,.T.);
#441=EDGE_CURVE('',#355,#356,#105,.T.);
#442=EDGE_CURVE('',#357,#355,#106,.T.);
#443=EDGE_CURVE('',#358,#357,#107,.T.);
#444=EDGE_CURVE('',#356,#358,#108,.T.);
#445=EDGE_CURVE('',#356,#359,#109,.T.);
#446=EDGE_CURVE('',#360,#358,#110,.T.);
#447=EDGE_CURVE('',#359,#360,#111,.T.);
#448=EDGE_CURVE('',#359,#361,#112,.T.);
#449=EDGE_CURVE('',#362,#360,#113,.T.);
#450=EDGE_CURVE('',#361,#362,#114,.T.);
#451=EDGE_CURVE('',#363,#364,#115,.T.);
#452=EDGE_CURVE('',#365,#363,#116,.T.);
#453=EDGE_CURVE('',#347,#365,#117,.T.);
#454=EDGE_CURVE('',#355,#353,#118,.T.);
#455=EDGE_CURVE('',#366,#361,#119,.T.);
#456=EDGE_CURVE('',#366,#364,#120,.T.);
#457=EDGE_CURVE('',#364,#367,#121,.T.);
#458=EDGE_CURVE('',#367,#368,#122,.T.);
#459=EDGE_CURVE('',#368,#363,#123,.T.);
#460=EDGE_CURVE('',#369,#370,#124,.T.);
#461=EDGE_CURVE('',#370,#371,#125,.T.);
#462=EDGE_CURVE('',#371,#372,#126,.T.);
#463=EDGE_CURVE('',#372,#369,#127,.T.);
#464=EDGE_CURVE('',#357,#354,#128,.T.);
#465=EDGE_CURVE('',#373,#374,#129,.T.);
#466=EDGE_CURVE('',#374,#375,#130,.T.);
#467=EDGE_CURVE('',#376,#375,#131,.T.);
#468=EDGE_CURVE('',#373,#376,#132,.T.);
#469=EDGE_CURVE('',#377,#378,#133,.T.);
#470=EDGE_CURVE('',#379,#378,#134,.T.);
#471=EDGE_CURVE('',#380,#379,#135,.T.);
#472=EDGE_CURVE('',#377,#380,#136,.T.);
#473=EDGE_CURVE('',#374,#377,#137,.T.);
#474=EDGE_CURVE('',#375,#380,#138,.T.);
#475=EDGE_CURVE('',#365,#381,#139,.T.);
#476=EDGE_CURVE('',#381,#373,#140,.T.);
#477=EDGE_CURVE('',#382,#376,#141,.T.);
#478=EDGE_CURVE('',#383,#382,#142,.T.);
#479=EDGE_CURVE('',#384,#383,#143,.T.);
#480=EDGE_CURVE('',#385,#384,#144,.T.);
#481=EDGE_CURVE('',#385,#386,#145,.T.);
#482=EDGE_CURVE('',#386,#387,#146,.T.);
#483=EDGE_CURVE('',#387,#366,#147,.T.);
#484=EDGE_CURVE('',#388,#362,#148,.T.);
#485=EDGE_CURVE('',#389,#388,#149,.T.);
#486=EDGE_CURVE('',#390,#389,#150,.T.);
#487=EDGE_CURVE('',#349,#390,#151,.T.);
#488=EDGE_CURVE('',#391,#392,#152,.T.);
#489=EDGE_CURVE('',#393,#391,#153,.T.);
#490=EDGE_CURVE('',#392,#393,#154,.T.);
#491=EDGE_CURVE('',#394,#395,#155,.T.);
#492=EDGE_CURVE('',#396,#394,#156,.T.);
#493=EDGE_CURVE('',#395,#396,#157,.T.);
#494=EDGE_CURVE('',#378,#397,#158,.T.);
#495=EDGE_CURVE('',#397,#398,#159,.T.);
#496=EDGE_CURVE('',#379,#398,#160,.T.);
#497=EDGE_CURVE('',#397,#399,#161,.T.);
#498=EDGE_CURVE('',#399,#400,#162,.T.);
#499=EDGE_CURVE('',#398,#400,#163,.T.);
#500=EDGE_CURVE('',#401,#386,#164,.T.);
#501=EDGE_CURVE('',#402,#385,#165,.T.);
#502=EDGE_CURVE('',#401,#402,#166,.T.);
#503=EDGE_CURVE('',#399,#401,#167,.T.);
#504=EDGE_CURVE('',#400,#402,#168,.T.);
#505=EDGE_CURVE('',#403,#404,#169,.T.);
#506=EDGE_CURVE('',#405,#403,#170,.T.);
#507=EDGE_CURVE('',#406,#405,#171,.T.);
#508=EDGE_CURVE('',#407,#406,#172,.T.);
#509=EDGE_CURVE('',#407,#408,#173,.T.);
#510=EDGE_CURVE('',#404,#408,#174,.T.);
#511=EDGE_CURVE('',#408,#409,#175,.T.);
#512=EDGE_CURVE('',#410,#407,#176,.T.);
#513=EDGE_CURVE('',#409,#410,#177,.T.);
#514=EDGE_CURVE('',#411,#403,#178,.T.);
#515=EDGE_CURVE('',#412,#411,#179,.T.);
#516=EDGE_CURVE('',#405,#412,#180,.T.);
#517=EDGE_CURVE('',#413,#411,#181,.T.);
#518=EDGE_CURVE('',#409,#413,#182,.T.);
#519=EDGE_CURVE('',#414,#410,#183,.T.);
#520=EDGE_CURVE('',#412,#414,#184,.T.);
#521=EDGE_CURVE('',#406,#367,#185,.T.);
#522=EDGE_CURVE('',#387,#414,#186,.T.);
#523=EDGE_CURVE('',#415,#413,#187,.T.);
#524=EDGE_CURVE('',#415,#416,#188,.T.);
#525=EDGE_CURVE('',#392,#416,#189,.T.);
#526=EDGE_CURVE('',#393,#417,#190,.T.);
#527=EDGE_CURVE('',#417,#418,#191,.T.);
#528=EDGE_CURVE('',#418,#369,#192,.T.);
#529=EDGE_CURVE('',#404,#372,#193,.T.);
#530=EDGE_CURVE('',#418,#419,#194,.T.);
#531=EDGE_CURVE('',#417,#420,#195,.T.);
#532=EDGE_CURVE('',#420,#416,#196,.T.);
#533=EDGE_CURVE('',#421,#415,#197,.T.);
#534=EDGE_CURVE('',#421,#422,#198,.T.);
#535=EDGE_CURVE('',#422,#423,#199,.T.);
#536=EDGE_CURVE('',#424,#423,#200,.T.);
#537=EDGE_CURVE('',#425,#424,#201,.T.);
#538=EDGE_CURVE('',#425,#426,#202,.T.);
#539=EDGE_CURVE('',#426,#427,#203,.T.);
#540=EDGE_CURVE('',#428,#427,#204,.T.);
#541=EDGE_CURVE('',#429,#428,#205,.T.);
#542=EDGE_CURVE('',#429,#430,#206,.T.);
#543=EDGE_CURVE('',#430,#419,#207,.T.);
#544=EDGE_CURVE('',#391,#420,#208,.T.);
#545=EDGE_CURVE('',#389,#430,#209,.T.);
#546=EDGE_CURVE('',#390,#429,#210,.T.);
#547=EDGE_CURVE('',#388,#419,#211,.T.);
#548=EDGE_CURVE('',#394,#426,#212,.T.);
#549=EDGE_CURVE('',#396,#425,#213,.T.);
#550=EDGE_CURVE('',#395,#427,#214,.T.);
#551=EDGE_CURVE('',#383,#422,#215,.T.);
#552=EDGE_CURVE('',#384,#421,#216,.T.);
#553=EDGE_CURVE('',#382,#423,#217,.T.);
#554=EDGE_CURVE('',#424,#371,#218,.T.);
#555=EDGE_CURVE('',#428,#370,#219,.T.);
#556=EDGE_CURVE('',#381,#368,#220,.T.);
#557=ORIENTED_EDGE('',*,*,#431,.F.);
#558=ORIENTED_EDGE('',*,*,#432,.F.);
#559=ORIENTED_EDGE('',*,*,#433,.F.);
#560=ORIENTED_EDGE('',*,*,#434,.F.);
#561=ORIENTED_EDGE('',*,*,#435,.F.);
#562=ORIENTED_EDGE('',*,*,#434,.T.);
#563=ORIENTED_EDGE('',*,*,#436,.F.);
#564=ORIENTED_EDGE('',*,*,#437,.F.);
#565=ORIENTED_EDGE('',*,*,#438,.F.);
#566=ORIENTED_EDGE('',*,*,#437,.T.);
#567=ORIENTED_EDGE('',*,*,#439,.F.);
#568=ORIENTED_EDGE('',*,*,#440,.F.);
#569=ORIENTED_EDGE('',*,*,#441,.F.);
#570=ORIENTED_EDGE('',*,*,#442,.F.);
#571=ORIENTED_EDGE('',*,*,#443,.F.);
#572=ORIENTED_EDGE('',*,*,#444,.F.);
#573=ORIENTED_EDGE('',*,*,#445,.F.);
#574=ORIENTED_EDGE('',*,*,#444,.T.);
#575=ORIENTED_EDGE('',*,*,#446,.F.);
#576=ORIENTED_EDGE('',*,*,#447,.F.);
#577=ORIENTED_EDGE('',*,*,#448,.F.);
#578=ORIENTED_EDGE('',*,*,#447,.T.);
#579=ORIENTED_EDGE('',*,*,#449,.F.);
#580=ORIENTED_EDGE('',*,*,#450,.F.);
#581=ORIENTED_EDGE('',*,*,#451,.F.);
#582=ORIENTED_EDGE('',*,*,#452,.F.);
#583=ORIENTED_EDGE('',*,*,#453,.F.);
#584=ORIENTED_EDGE('',*,*,#431,.T.);
#585=ORIENTED_EDGE('',*,*,#435,.T.);
#586=ORIENTED_EDGE('',*,*,#438,.T.);
#587=ORIENTED_EDGE('',*,*,#454,.F.);
#588=ORIENTED_EDGE('',*,*,#441,.T.);
#589=ORIENTED_EDGE('',*,*,#445,.T.);
#590=ORIENTED_EDGE('',*,*,#448,.T.);
#591=ORIENTED_EDGE('',*,*,#455,.F.);
#592=ORIENTED_EDGE('',*,*,#456,.T.);
#593=ORIENTED_EDGE('',*,*,#451,.T.);
#594=ORIENTED_EDGE('',*,*,#457,.T.);
#595=ORIENTED_EDGE('',*,*,#458,.T.);
#596=ORIENTED_EDGE('',*,*,#459,.T.);
#597=ORIENTED_EDGE('',*,*,#460,.T.);
#598=ORIENTED_EDGE('',*,*,#461,.T.);
#599=ORIENTED_EDGE('',*,*,#462,.T.);
#600=ORIENTED_EDGE('',*,*,#463,.T.);
#601=ORIENTED_EDGE('',*,*,#440,.T.);
#602=ORIENTED_EDGE('',*,*,#464,.F.);
#603=ORIENTED_EDGE('',*,*,#442,.T.);
#604=ORIENTED_EDGE('',*,*,#454,.T.);
#605=ORIENTED_EDGE('',*,*,#465,.T.);
#606=ORIENTED_EDGE('',*,*,#466,.T.);
#607=ORIENTED_EDGE('',*,*,#467,.F.);
#608=ORIENTED_EDGE('',*,*,#468,.F.);
#609=ORIENTED_EDGE('',*,*,#469,.T.);
#610=ORIENTED_EDGE('',*,*,#470,.F.);
#611=ORIENTED_EDGE('',*,*,#471,.F.);
#612=ORIENTED_EDGE('',*,*,#472,.F.);
#613=ORIENTED_EDGE('',*,*,#473,.T.);
#614=ORIENTED_EDGE('',*,*,#472,.T.);
#615=ORIENTED_EDGE('',*,*,#474,.F.);
#616=ORIENTED_EDGE('',*,*,#466,.F.);
#617=ORIENTED_EDGE('',*,*,#453,.T.);
#618=ORIENTED_EDGE('',*,*,#475,.T.);
#619=ORIENTED_EDGE('',*,*,#476,.T.);
#620=ORIENTED_EDGE('',*,*,#468,.T.);
#621=ORIENTED_EDGE('',*,*,#477,.F.);
#622=ORIENTED_EDGE('',*,*,#478,.F.);
#623=ORIENTED_EDGE('',*,*,#479,.F.);
#624=ORIENTED_EDGE('',*,*,#480,.F.);
#625=ORIENTED_EDGE('',*,*,#481,.T.);
#626=ORIENTED_EDGE('',*,*,#482,.T.);
#627=ORIENTED_EDGE('',*,*,#483,.T.);
#628=ORIENTED_EDGE('',*,*,#455,.T.);
#629=ORIENTED_EDGE('',*,*,#450,.T.);
#630=ORIENTED_EDGE('',*,*,#484,.F.);
#631=ORIENTED_EDGE('',*,*,#485,.F.);
#632=ORIENTED_EDGE('',*,*,#486,.F.);
#633=ORIENTED_EDGE('',*,*,#487,.F.);
#634=ORIENTED_EDGE('',*,*,#432,.T.);
#635=ORIENTED_EDGE('',*,*,#488,.F.);
#636=ORIENTED_EDGE('',*,*,#489,.F.);
#637=ORIENTED_EDGE('',*,*,#490,.F.);
#638=ORIENTED_EDGE('',*,*,#491,.F.);
#639=ORIENTED_EDGE('',*,*,#492,.F.);
#640=ORIENTED_EDGE('',*,*,#493,.F.);
#641=ORIENTED_EDGE('',*,*,#470,.T.);
#642=ORIENTED_EDGE('',*,*,#494,.T.);
#643=ORIENTED_EDGE('',*,*,#495,.T.);
#644=ORIENTED_EDGE('',*,*,#496,.F.);
#645=ORIENTED_EDGE('',*,*,#497,.T.);
#646=ORIENTED_EDGE('',*,*,#498,.T.);
#647=ORIENTED_EDGE('',*,*,#499,.F.);
#648=ORIENTED_EDGE('',*,*,#495,.F.);
#649=ORIENTED_EDGE('',*,*,#500,.T.);
#650=ORIENTED_EDGE('',*,*,#481,.F.);
#651=ORIENTED_EDGE('',*,*,#501,.F.);
#652=ORIENTED_EDGE('',*,*,#502,.F.);
#653=ORIENTED_EDGE('',*,*,#503,.T.);
#654=ORIENTED_EDGE('',*,*,#502,.T.);
#655=ORIENTED_EDGE('',*,*,#504,.F.);
#656=ORIENTED_EDGE('',*,*,#498,.F.);
#657=ORIENTED_EDGE('',*,*,#505,.F.);
#658=ORIENTED_EDGE('',*,*,#506,.F.);
#659=ORIENTED_EDGE('',*,*,#507,.F.);
#660=ORIENTED_EDGE('',*,*,#508,.F.);
#661=ORIENTED_EDGE('',*,*,#509,.T.);
#662=ORIENTED_EDGE('',*,*,#510,.F.);
#663=ORIENTED_EDGE('',*,*,#511,.F.);
#664=ORIENTED_EDGE('',*,*,#509,.F.);
#665=ORIENTED_EDGE('',*,*,#512,.F.);
#666=ORIENTED_EDGE('',*,*,#513,.F.);
#667=ORIENTED_EDGE('',*,*,#514,.F.);
#668=ORIENTED_EDGE('',*,*,#515,.F.);
#669=ORIENTED_EDGE('',*,*,#516,.F.);
#670=ORIENTED_EDGE('',*,*,#506,.T.);
#671=ORIENTED_EDGE('',*,*,#517,.F.);
#672=ORIENTED_EDGE('',*,*,#518,.F.);
#673=ORIENTED_EDGE('',*,*,#513,.T.);
#674=ORIENTED_EDGE('',*,*,#519,.F.);
#675=ORIENTED_EDGE('',*,*,#520,.F.);
#676=ORIENTED_EDGE('',*,*,#515,.T.);
#677=ORIENTED_EDGE('',*,*,#519,.T.);
#678=ORIENTED_EDGE('',*,*,#512,.T.);
#679=ORIENTED_EDGE('',*,*,#508,.T.);
#680=ORIENTED_EDGE('',*,*,#521,.T.);
#681=ORIENTED_EDGE('',*,*,#457,.F.);
#682=ORIENTED_EDGE('',*,*,#456,.F.);
#683=ORIENTED_EDGE('',*,*,#483,.F.);
#684=ORIENTED_EDGE('',*,*,#522,.T.);
#685=ORIENTED_EDGE('',*,*,#510,.T.);
#686=ORIENTED_EDGE('',*,*,#511,.T.);
#687=ORIENTED_EDGE('',*,*,#518,.T.);
#688=ORIENTED_EDGE('',*,*,#523,.F.);
#689=ORIENTED_EDGE('',*,*,#524,.T.);
#690=ORIENTED_EDGE('',*,*,#525,.F.);
#691=ORIENTED_EDGE('',*,*,#490,.T.);
#692=ORIENTED_EDGE('',*,*,#526,.T.);
#693=ORIENTED_EDGE('',*,*,#527,.T.);
#694=ORIENTED_EDGE('',*,*,#528,.T.);
#695=ORIENTED_EDGE('',*,*,#463,.F.);
#696=ORIENTED_EDGE('',*,*,#529,.F.);
#697=ORIENTED_EDGE('',*,*,#530,.F.);
#698=ORIENTED_EDGE('',*,*,#527,.F.);
#699=ORIENTED_EDGE('',*,*,#531,.T.);
#700=ORIENTED_EDGE('',*,*,#532,.T.);
#701=ORIENTED_EDGE('',*,*,#524,.F.);
#702=ORIENTED_EDGE('',*,*,#533,.F.);
#703=ORIENTED_EDGE('',*,*,#534,.T.);
#704=ORIENTED_EDGE('',*,*,#535,.T.);
#705=ORIENTED_EDGE('',*,*,#536,.F.);
#706=ORIENTED_EDGE('',*,*,#537,.F.);
#707=ORIENTED_EDGE('',*,*,#538,.T.);
#708=ORIENTED_EDGE('',*,*,#539,.T.);
#709=ORIENTED_EDGE('',*,*,#540,.F.);
#710=ORIENTED_EDGE('',*,*,#541,.F.);
#711=ORIENTED_EDGE('',*,*,#542,.T.);
#712=ORIENTED_EDGE('',*,*,#543,.T.);
#713=ORIENTED_EDGE('',*,*,#489,.T.);
#714=ORIENTED_EDGE('',*,*,#544,.T.);
#715=ORIENTED_EDGE('',*,*,#531,.F.);
#716=ORIENTED_EDGE('',*,*,#526,.F.);
#717=ORIENTED_EDGE('',*,*,#488,.T.);
#718=ORIENTED_EDGE('',*,*,#525,.T.);
#719=ORIENTED_EDGE('',*,*,#532,.F.);
#720=ORIENTED_EDGE('',*,*,#544,.F.);
#721=ORIENTED_EDGE('',*,*,#486,.T.);
#722=ORIENTED_EDGE('',*,*,#545,.T.);
#723=ORIENTED_EDGE('',*,*,#542,.F.);
#724=ORIENTED_EDGE('',*,*,#546,.F.);
#725=ORIENTED_EDGE('',*,*,#485,.T.);
#726=ORIENTED_EDGE('',*,*,#547,.T.);
#727=ORIENTED_EDGE('',*,*,#543,.F.);
#728=ORIENTED_EDGE('',*,*,#545,.F.);
#729=ORIENTED_EDGE('',*,*,#492,.T.);
#730=ORIENTED_EDGE('',*,*,#548,.T.);
#731=ORIENTED_EDGE('',*,*,#538,.F.);
#732=ORIENTED_EDGE('',*,*,#549,.F.);
#733=ORIENTED_EDGE('',*,*,#491,.T.);
#734=ORIENTED_EDGE('',*,*,#550,.T.);
#735=ORIENTED_EDGE('',*,*,#539,.F.);
#736=ORIENTED_EDGE('',*,*,#548,.F.);
#737=ORIENTED_EDGE('',*,*,#479,.T.);
#738=ORIENTED_EDGE('',*,*,#551,.T.);
#739=ORIENTED_EDGE('',*,*,#534,.F.);
#740=ORIENTED_EDGE('',*,*,#552,.F.);
#741=ORIENTED_EDGE('',*,*,#478,.T.);
#742=ORIENTED_EDGE('',*,*,#553,.T.);
#743=ORIENTED_EDGE('',*,*,#535,.F.);
#744=ORIENTED_EDGE('',*,*,#551,.F.);
#745=ORIENTED_EDGE('',*,*,#540,.T.);
#746=ORIENTED_EDGE('',*,*,#550,.F.);
#747=ORIENTED_EDGE('',*,*,#493,.T.);
#748=ORIENTED_EDGE('',*,*,#549,.T.);
#749=ORIENTED_EDGE('',*,*,#537,.T.);
#750=ORIENTED_EDGE('',*,*,#554,.T.);
#751=ORIENTED_EDGE('',*,*,#461,.F.);
#752=ORIENTED_EDGE('',*,*,#555,.F.);
#753=ORIENTED_EDGE('',*,*,#528,.F.);
#754=ORIENTED_EDGE('',*,*,#530,.T.);
#755=ORIENTED_EDGE('',*,*,#547,.F.);
#756=ORIENTED_EDGE('',*,*,#484,.T.);
#757=ORIENTED_EDGE('',*,*,#449,.T.);
#758=ORIENTED_EDGE('',*,*,#446,.T.);
#759=ORIENTED_EDGE('',*,*,#443,.T.);
#760=ORIENTED_EDGE('',*,*,#464,.T.);
#761=ORIENTED_EDGE('',*,*,#439,.T.);
#762=ORIENTED_EDGE('',*,*,#436,.T.);
#763=ORIENTED_EDGE('',*,*,#433,.T.);
#764=ORIENTED_EDGE('',*,*,#487,.T.);
#765=ORIENTED_EDGE('',*,*,#546,.T.);
#766=ORIENTED_EDGE('',*,*,#541,.T.);
#767=ORIENTED_EDGE('',*,*,#555,.T.);
#768=ORIENTED_EDGE('',*,*,#460,.F.);
#769=ORIENTED_EDGE('',*,*,#505,.T.);
#770=ORIENTED_EDGE('',*,*,#529,.T.);
#771=ORIENTED_EDGE('',*,*,#462,.F.);
#772=ORIENTED_EDGE('',*,*,#554,.F.);
#773=ORIENTED_EDGE('',*,*,#536,.T.);
#774=ORIENTED_EDGE('',*,*,#553,.F.);
#775=ORIENTED_EDGE('',*,*,#477,.T.);
#776=ORIENTED_EDGE('',*,*,#467,.T.);
#777=ORIENTED_EDGE('',*,*,#474,.T.);
#778=ORIENTED_EDGE('',*,*,#471,.T.);
#779=ORIENTED_EDGE('',*,*,#496,.T.);
#780=ORIENTED_EDGE('',*,*,#499,.T.);
#781=ORIENTED_EDGE('',*,*,#504,.T.);
#782=ORIENTED_EDGE('',*,*,#501,.T.);
#783=ORIENTED_EDGE('',*,*,#480,.T.);
#784=ORIENTED_EDGE('',*,*,#552,.T.);
#785=ORIENTED_EDGE('',*,*,#533,.T.);
#786=ORIENTED_EDGE('',*,*,#523,.T.);
#787=ORIENTED_EDGE('',*,*,#517,.T.);
#788=ORIENTED_EDGE('',*,*,#514,.T.);
#789=ORIENTED_EDGE('',*,*,#452,.T.);
#790=ORIENTED_EDGE('',*,*,#459,.F.);
#791=ORIENTED_EDGE('',*,*,#556,.F.);
#792=ORIENTED_EDGE('',*,*,#475,.F.);
#793=ORIENTED_EDGE('',*,*,#520,.T.);
#794=ORIENTED_EDGE('',*,*,#522,.F.);
#795=ORIENTED_EDGE('',*,*,#482,.F.);
#796=ORIENTED_EDGE('',*,*,#500,.F.);
#797=ORIENTED_EDGE('',*,*,#503,.F.);
#798=ORIENTED_EDGE('',*,*,#497,.F.);
#799=ORIENTED_EDGE('',*,*,#494,.F.);
#800=ORIENTED_EDGE('',*,*,#469,.F.);
#801=ORIENTED_EDGE('',*,*,#473,.F.);
#802=ORIENTED_EDGE('',*,*,#465,.F.);
#803=ORIENTED_EDGE('',*,*,#476,.F.);
#804=ORIENTED_EDGE('',*,*,#556,.T.);
#805=ORIENTED_EDGE('',*,*,#458,.F.);
#806=ORIENTED_EDGE('',*,*,#521,.F.);
#807=ORIENTED_EDGE('',*,*,#507,.T.);
#808=ORIENTED_EDGE('',*,*,#516,.T.);
#809=PLANE('',#897);
#810=PLANE('',#898);
#811=PLANE('',#899);
#812=PLANE('',#900);
#813=PLANE('',#901);
#814=PLANE('',#902);
#815=PLANE('',#903);
#816=PLANE('',#904);
#817=PLANE('',#905);
#818=PLANE('',#906);
#819=PLANE('',#907);
#820=PLANE('',#908);
#821=PLANE('',#909);
#822=PLANE('',#910);
#823=PLANE('',#911);
#824=PLANE('',#912);
#825=PLANE('',#913);
#826=PLANE('',#914);
#827=PLANE('',#915);
#828=PLANE('',#916);
#829=PLANE('',#917);
#830=PLANE('',#918);
#831=PLANE('',#919);
#832=PLANE('',#920);
#833=PLANE('',#921);
#834=PLANE('',#922);
#835=PLANE('',#923);
#836=PLANE('',#924);
#837=PLANE('',#925);
#838=PLANE('',#926);
#839=PLANE('',#927);
#840=PLANE('',#928);
#841=PLANE('',#929);
#842=PLANE('',#930);
#843=PLANE('',#931);
#844=PLANE('',#932);
#845=PLANE('',#933);
#846=ADVANCED_FACE('',(#18),#809,.T.);
#847=ADVANCED_FACE('',(#19),#810,.T.);
#848=ADVANCED_FACE('',(#20),#811,.T.);
#849=ADVANCED_FACE('',(#21),#812,.T.);
#850=ADVANCED_FACE('',(#22),#813,.T.);
#851=ADVANCED_FACE('',(#23),#814,.T.);
#852=ADVANCED_FACE('',(#24),#815,.T.);
#853=ADVANCED_FACE('',(#25,#15),#816,.T.);
#854=ADVANCED_FACE('',(#26),#817,.F.);
#855=ADVANCED_FACE('',(#27),#818,.T.);
#856=ADVANCED_FACE('',(#28),#819,.T.);
#857=ADVANCED_FACE('',(#29),#820,.T.);
#858=ADVANCED_FACE('',(#30,#16,#17),#821,.F.);
#859=ADVANCED_FACE('',(#31),#822,.F.);
#860=ADVANCED_FACE('',(#32),#823,.T.);
#861=ADVANCED_FACE('',(#33),#824,.T.);
#862=ADVANCED_FACE('',(#34),#825,.T.);
#863=ADVANCED_FACE('',(#35),#826,.F.);
#864=ADVANCED_FACE('',(#36),#827,.F.);
#865=ADVANCED_FACE('',(#37),#828,.F.);
#866=ADVANCED_FACE('',(#38),#829,.F.);
#867=ADVANCED_FACE('',(#39),#830,.T.);
#868=ADVANCED_FACE('',(#40),#831,.T.);
#869=ADVANCED_FACE('',(#41),#832,.T.);
#870=ADVANCED_FACE('',(#42),#833,.T.);
#871=ADVANCED_FACE('',(#43),#834,.T.);
#872=ADVANCED_FACE('',(#44),#835,.T.);
#873=ADVANCED_FACE('',(#45),#836,.T.);
#874=ADVANCED_FACE('',(#46),#837,.T.);
#875=ADVANCED_FACE('',(#47),#838,.T.);
#876=ADVANCED_FACE('',(#48),#839,.T.);
#877=ADVANCED_FACE('',(#49),#840,.T.);
#878=ADVANCED_FACE('',(#50),#841,.T.);
#879=ADVANCED_FACE('',(#51),#842,.T.);
#880=ADVANCED_FACE('',(#52),#843,.T.);
#881=ADVANCED_FACE('',(#53),#844,.T.);
#882=ADVANCED_FACE('',(#54),#845,.T.);
#883=CLOSED_SHELL('',(#846,#847,#848,#849,#850,#851,#852,#853,#854,#855,
#856,#857,#858,#859,#860,#861,#862,#863,#864,#865,#866,#867,#868,#869,#870,
#871,#872,#873,#874,#875,#876,#877,#878,#879,#880,#881,#882));
#884=DERIVED_UNIT_ELEMENT(#886,1.);
#885=DERIVED_UNIT_ELEMENT(#1389,-3.);
#886=(
MASS_UNIT()
NAMED_UNIT(*)
SI_UNIT(.KILO.,.GRAM.)
);
#887=DERIVED_UNIT((#884,#885));
#888=MEASURE_REPRESENTATION_ITEM('density measure',
POSITIVE_RATIO_MEASURE(7850.),#887);
#889=PROPERTY_DEFINITION_REPRESENTATION(#894,#891);
#890=PROPERTY_DEFINITION_REPRESENTATION(#895,#892);
#891=REPRESENTATION('material name',(#893),#1386);
#892=REPRESENTATION('density',(#888),#1386);
#893=DESCRIPTIVE_REPRESENTATION_ITEM('Steel','Steel');
#894=PROPERTY_DEFINITION('material property','material name',#1396);
#895=PROPERTY_DEFINITION('material property','density of part',#1396);
#896=AXIS2_PLACEMENT_3D('',#1136,#934,#935);
#897=AXIS2_PLACEMENT_3D('',#1137,#936,#937);
#898=AXIS2_PLACEMENT_3D('',#1146,#942,#943);
#899=AXIS2_PLACEMENT_3D('',#1152,#947,#948);
#900=AXIS2_PLACEMENT_3D('',#1158,#952,#953);
#901=AXIS2_PLACEMENT_3D('',#1167,#958,#959);
#902=AXIS2_PLACEMENT_3D('',#1173,#963,#964);
#903=AXIS2_PLACEMENT_3D('',#1179,#968,#969);
#904=AXIS2_PLACEMENT_3D('',#1190,#976,#977);
#905=AXIS2_PLACEMENT_3D('',#1204,#985,#986);
#906=AXIS2_PLACEMENT_3D('',#1206,#988,#989);
#907=AXIS2_PLACEMENT_3D('',#1215,#994,#995);
#908=AXIS2_PLACEMENT_3D('',#1224,#1000,#1001);
#909=AXIS2_PLACEMENT_3D('',#1227,#1004,#1005);
#910=AXIS2_PLACEMENT_3D('',#1263,#1025,#1026);
#911=AXIS2_PLACEMENT_3D('',#1269,#1030,#1031);
#912=AXIS2_PLACEMENT_3D('',#1275,#1035,#1036);
#913=AXIS2_PLACEMENT_3D('',#1281,#1040,#1041);
#914=AXIS2_PLACEMENT_3D('',#1284,#1044,#1045);
#915=AXIS2_PLACEMENT_3D('',#1297,#1052,#1053);
#916=AXIS2_PLACEMENT_3D('',#1303,#1057,#1058);
#917=AXIS2_PLACEMENT_3D('',#1309,#1062,#1063);
#918=AXIS2_PLACEMENT_3D('',#1316,#1068,#1069);
#919=AXIS2_PLACEMENT_3D('',#1319,#1072,#1073);
#920=AXIS2_PLACEMENT_3D('',#1331,#1081,#1082);
#921=AXIS2_PLACEMENT_3D('',#1358,#1097,#1098);
#922=AXIS2_PLACEMENT_3D('',#1360,#1100,#1101);
#923=AXIS2_PLACEMENT_3D('',#1361,#1102,#1103);
#924=AXIS2_PLACEMENT_3D('',#1364,#1106,#1107);
#925=AXIS2_PLACEMENT_3D('',#1366,#1109,#1110);
#926=AXIS2_PLACEMENT_3D('',#1369,#1113,#1114);
#927=AXIS2_PLACEMENT_3D('',#1371,#1116,#1117);
#928=AXIS2_PLACEMENT_3D('',#1374,#1120,#1121);
#929=AXIS2_PLACEMENT_3D('',#1376,#1123,#1124);
#930=AXIS2_PLACEMENT_3D('',#1379,#1127,#1128);
#931=AXIS2_PLACEMENT_3D('',#1380,#1129,#1130);
#932=AXIS2_PLACEMENT_3D('',#1381,#1131,#1132);
#933=AXIS2_PLACEMENT_3D('',#1383,#1134,#1135);
#934=DIRECTION('axis',(0.,0.,1.));
#935=DIRECTION('refdir',(1.,0.,0.));
#936=DIRECTION('center_axis',(-1.,0.,0.));
#937=DIRECTION('ref_axis',(0.,1.,0.));
#938=DIRECTION('',(0.,-1.,0.));
#939=DIRECTION('',(0.,0.,1.));
#940=DIRECTION('',(0.,1.,0.));
#941=DIRECTION('',(0.,0.,-1.));
#942=DIRECTION('center_axis',(0.,-1.,0.));
#943=DIRECTION('ref_axis',(-1.,0.,-2.10269512239613E-16));
#944=DIRECTION('',(1.,0.,2.10269512239613E-16));
#945=DIRECTION('',(-1.,0.,-2.10269512239613E-16));
#946=DIRECTION('',(0.,0.,-1.));
#947=DIRECTION('center_axis',(1.,0.,0.));
#948=DIRECTION('ref_axis',(0.,-1.,0.));
#949=DIRECTION('',(0.,1.,0.));
#950=DIRECTION('',(0.,-1.,0.));
#951=DIRECTION('',(0.,0.,-1.));
#952=DIRECTION('center_axis',(-1.,-2.01528209530579E-17,0.));
#953=DIRECTION('ref_axis',(-2.01528209530579E-17,1.,-4.23752383205174E-33));
#954=DIRECTION('',(2.01528209530579E-17,-1.,4.23752383205174E-33));
#955=DIRECTION('',(0.,0.,1.));
#956=DIRECTION('',(-2.01528209530579E-17,1.,-4.23752383205174E-33));
#957=DIRECTION('',(0.,0.,-1.));
#958=DIRECTION('center_axis',(0.,-1.,0.));
#959=DIRECTION('ref_axis',(-1.,0.,-2.10269512239613E-16));
#960=DIRECTION('',(1.,0.,2.10269512239613E-16));
#961=DIRECTION('',(-1.,0.,-2.10269512239613E-16));
#962=DIRECTION('',(0.,0.,-1.));
#963=DIRECTION('center_axis',(1.,0.,0.));
#964=DIRECTION('ref_axis',(0.,-1.,0.));
#965=DIRECTION('',(0.,1.,0.));
#966=DIRECTION('',(0.,-1.,0.));
#967=DIRECTION('',(0.,0.,-1.));
#968=DIRECTION('center_axis',(-3.36431219583381E-16,0.,1.));
#969=DIRECTION('ref_axis',(1.,0.,3.36431219583381E-16));
#970=DIRECTION('',(1.,0.,3.36431219583381E-16));
#971=DIRECTION('',(0.,1.,0.));
#972=DIRECTION('',(-1.,0.,-3.36431219583381E-16));
#973=DIRECTION('',(-1.,0.,-3.36431219583381E-16));
#974=DIRECTION('',(-1.,0.,-3.36431219583381E-16));
#975=DIRECTION('',(0.,1.,0.));
#976=DIRECTION('center_axis',(0.,1.,0.));
#977=DIRECTION('ref_axis',(0.,0.,1.));
#978=DIRECTION('',(2.55223683821875E-16,0.,-1.));
#979=DIRECTION('',(-1.,0.,2.10269512239613E-16));
#980=DIRECTION('',(-2.55223683821875E-16,0.,1.));
#981=DIRECTION('',(-1.,0.,-3.49676543189026E-16));
#982=DIRECTION('',(2.70786103567111E-16,0.,-1.));
#983=DIRECTION('',(1.,0.,2.18547839493141E-16));
#984=DIRECTION('',(-2.70786103567111E-16,0.,1.));
#985=DIRECTION('center_axis',(0.,1.,0.));
#986=DIRECTION('ref_axis',(1.,0.,0.));
#987=DIRECTION('',(-1.,0.,-3.49676543189026E-16));
#988=DIRECTION('center_axis',(-1.,0.,0.));
#989=DIRECTION('ref_axis',(0.,-1.,0.));
#990=DIRECTION('',(0.,-1.,0.));
#991=DIRECTION('',(0.,0.,1.));
#992=DIRECTION('',(0.,-1.,0.));
#993=DIRECTION('',(0.,0.,1.));
#994=DIRECTION('center_axis',(1.,0.,0.));
#995=DIRECTION('ref_axis',(0.,1.,0.));
#996=DIRECTION('',(0.,1.,0.));
#997=DIRECTION('',(0.,0.,-1.));
#998=DIRECTION('',(0.,1.,0.));
#999=DIRECTION('',(0.,0.,1.));
#1000=DIRECTION('center_axis',(0.,-1.,0.));
#1001=DIRECTION('ref_axis',(1.,0.,2.10269512239613E-16));
#1002=DIRECTION('',(1.,0.,2.10269512239613E-16));
#1003=DIRECTION('',(1.,0.,2.10269512239613E-16));
#1004=DIRECTION('center_axis',(0.,1.,0.));
#1005=DIRECTION('ref_axis',(1.,0.,0.));
#1006=DIRECTION('',(2.55223683821875E-16,0.,-1.));
#1007=DIRECTION('',(1.,0.,-2.10269512239613E-16));
#1008=DIRECTION('',(1.,0.,2.18547839493141E-16));
#1009=DIRECTION('',(-0.840102178973123,0.,-0.542428178549576));
#1010=DIRECTION('',(-0.840102178973124,0.,0.542428178549575));
#1011=DIRECTION('',(1.,0.,2.18547839493141E-16));
#1012=DIRECTION('',(2.08166817117217E-16,0.,-1.));
#1013=DIRECTION('',(1.,0.,-2.10269512239613E-16));
#1014=DIRECTION('',(-2.55223683821875E-16,0.,1.));
#1015=DIRECTION('',(-1.,0.,-3.49676543189026E-16));
#1016=DIRECTION('',(0.840102178973123,0.,0.542428178549576));
#1017=DIRECTION('',(0.840102178973124,0.,-0.542428178549575));
#1018=DIRECTION('',(-1.,0.,-3.49676543189026E-16));
#1019=DIRECTION('',(0.840102178973124,0.,-0.542428178549575));
#1020=DIRECTION('',(-0.840102178973123,0.,-0.542428178549576));
#1021=DIRECTION('',(-2.70786103567111E-16,0.,1.));
#1022=DIRECTION('',(-0.840102178973124,0.,0.542428178549575));
#1023=DIRECTION('',(0.840102178973123,0.,0.542428178549576));
#1024=DIRECTION('',(2.70786103567111E-16,0.,-1.));
#1025=DIRECTION('center_axis',(0.,1.,0.));
#1026=DIRECTION('ref_axis',(1.,0.,0.));
#1027=DIRECTION('',(1.,0.,-2.10269512239613E-16));
#1028=DIRECTION('',(-2.08166817117217E-16,0.,1.));
#1029=DIRECTION('',(1.,0.,2.18547839493141E-16));
#1030=DIRECTION('center_axis',(-1.,-2.01528209530579E-17,-2.08166817117217E-16));
#1031=DIRECTION('ref_axis',(2.01528209530579E-17,-1.,4.23752383205174E-33));
#1032=DIRECTION('',(2.01528209530579E-17,-1.,4.23752383205174E-33));
#1033=DIRECTION('',(-2.08166817117217E-16,0.,1.));
#1034=DIRECTION('',(2.01528209530579E-17,-1.,4.23752383205174E-33));
#1035=DIRECTION('center_axis',(1.,0.,2.08166817117217E-16));
#1036=DIRECTION('ref_axis',(0.,1.,0.));
#1037=DIRECTION('',(0.,1.,0.));
#1038=DIRECTION('',(0.,1.,0.));
#1039=DIRECTION('',(-2.08166817117217E-16,0.,1.));
#1040=DIRECTION('center_axis',(0.,-1.,0.));
#1041=DIRECTION('ref_axis',(1.,0.,2.10269512239613E-16));
#1042=DIRECTION('',(1.,0.,2.10269512239613E-16));
#1043=DIRECTION('',(1.,0.,2.10269512239613E-16));
#1044=DIRECTION('center_axis',(0.,1.,0.));
#1045=DIRECTION('ref_axis',(-1.,0.,-2.10269512239613E-16));
#1046=DIRECTION('',(1.,0.,2.18547839493141E-16));
#1047=DIRECTION('',(0.,0.,1.));
#1048=DIRECTION('',(-1.,0.,2.10269512239613E-16));
#1049=DIRECTION('',(2.55223683821875E-16,0.,-1.));
#1050=DIRECTION('',(-1.,0.,-2.10269512239613E-16));
#1051=DIRECTION('',(-2.70786103567111E-16,0.,1.));
#1052=DIRECTION('center_axis',(0.,0.,1.));
#1053=DIRECTION('ref_axis',(1.,0.,0.));
#1054=DIRECTION('',(0.,-1.,0.));
#1055=DIRECTION('',(0.,1.,0.));
#1056=DIRECTION('',(1.,0.,2.10269512239613E-16));
#1057=DIRECTION('center_axis',(-1.,0.,0.));
#1058=DIRECTION('ref_axis',(0.,-1.,0.));
#1059=DIRECTION('',(0.,1.,0.));
#1060=DIRECTION('',(0.,0.,1.));
#1061=DIRECTION('',(0.,-1.,0.));
#1062=DIRECTION('center_axis',(0.,-1.,0.));
#1063=DIRECTION('ref_axis',(1.,0.,2.10269512239613E-16));
#1064=DIRECTION('',(-1.,0.,-2.18547839493141E-16));
#1065=DIRECTION('',(2.70786103567111E-16,0.,-1.));
#1066=DIRECTION('',(-2.55223683821875E-16,0.,1.));
#1067=DIRECTION('',(1.,0.,-2.10269512239613E-16));
#1068=DIRECTION('center_axis',(1.,0.,2.55223683821875E-16));
#1069=DIRECTION('ref_axis',(2.55223683821875E-16,0.,-1.));
#1070=DIRECTION('',(0.,1.,0.));
#1071=DIRECTION('',(0.,1.,0.));
#1072=DIRECTION('center_axis',(-1.,0.,-2.70786103567111E-16));
#1073=DIRECTION('ref_axis',(-2.70786103567111E-16,0.,1.));
#1074=DIRECTION('',(0.,1.,0.));
#1075=DIRECTION('',(-2.70786103567111E-16,0.,1.));
#1076=DIRECTION('',(0.,1.,0.));
#1077=DIRECTION('',(0.,1.,0.));
#1078=DIRECTION('',(-2.70786103567111E-16,0.,1.));
#1079=DIRECTION('',(0.,1.,0.));
#1080=DIRECTION('',(0.,1.,0.));
#1081=DIRECTION('center_axis',(0.,1.,0.));
#1082=DIRECTION('ref_axis',(0.,0.,1.));
#1083=DIRECTION('',(-1.,0.,-3.49676543189026E-16));
#1084=DIRECTION('',(-0.840102178973123,0.,-0.542428178549576));
#1085=DIRECTION('',(0.840102178973124,0.,-0.542428178549575));
#1086=DIRECTION('',(1.,0.,2.18547839493141E-16));
#1087=DIRECTION('',(-0.840102178973124,0.,0.542428178549575));
#1088=DIRECTION('',(-0.840102178973123,0.,-0.542428178549576));
#1089=DIRECTION('',(1.,0.,2.18547839493141E-16));
#1090=DIRECTION('',(2.70786103567111E-16,0.,-1.));
#1091=DIRECTION('',(0.840102178973123,0.,0.542428178549576));
#1092=DIRECTION('',(-0.840102178973124,0.,0.542428178549575));
#1093=DIRECTION('',(2.70786103567111E-16,0.,-1.));
#1094=DIRECTION('',(-1.,0.,-3.49676543189026E-16));
#1095=DIRECTION('',(0.840102178973124,0.,-0.542428178549575));
#1096=DIRECTION('',(0.840102178973123,0.,0.542428178549576));
#1097=DIRECTION('center_axis',(0.542428178549576,0.,-0.840102178973123));
#1098=DIRECTION('ref_axis',(-0.840102178973123,0.,-0.542428178549576));
#1099=DIRECTION('',(0.,1.,0.));
#1100=DIRECTION('center_axis',(0.542428178549575,0.,0.840102178973123));
#1101=DIRECTION('ref_axis',(0.840102178973124,0.,-0.542428178549575));
#1102=DIRECTION('center_axis',(0.542428178549575,0.,0.840102178973123));
#1103=DIRECTION('ref_axis',(0.840102178973124,0.,-0.542428178549575));
#1104=DIRECTION('',(0.,1.,0.));
#1105=DIRECTION('',(0.,1.,0.));
#1106=DIRECTION('center_axis',(-0.542428178549576,0.,0.840102178973123));
#1107=DIRECTION('ref_axis',(0.840102178973123,0.,0.542428178549576));
#1108=DIRECTION('',(0.,1.,0.));
#1109=DIRECTION('center_axis',(-0.542428178549576,0.,0.840102178973123));
#1110=DIRECTION('ref_axis',(0.840102178973123,0.,0.542428178549576));
#1111=DIRECTION('',(0.,1.,0.));
#1112=DIRECTION('',(0.,1.,0.));
#1113=DIRECTION('center_axis',(-0.542428178549575,0.,-0.840102178973123));
#1114=DIRECTION('ref_axis',(-0.840102178973124,0.,0.542428178549575));
#1115=DIRECTION('',(0.,1.,0.));
#1116=DIRECTION('center_axis',(-0.542428178549575,0.,-0.840102178973123));
#1117=DIRECTION('ref_axis',(-0.840102178973124,0.,0.542428178549575));
#1118=DIRECTION('',(0.,1.,0.));
#1119=DIRECTION('',(0.,1.,0.));
#1120=DIRECTION('center_axis',(0.542428178549576,0.,-0.840102178973123));
#1121=DIRECTION('ref_axis',(-0.840102178973123,0.,-0.542428178549576));
#1122=DIRECTION('',(0.,1.,0.));
#1123=DIRECTION('center_axis',(1.,0.,2.70786103567111E-16));
#1124=DIRECTION('ref_axis',(2.70786103567111E-16,0.,-1.));
#1125=DIRECTION('',(0.,1.,0.));
#1126=DIRECTION('',(0.,1.,0.));
#1127=DIRECTION('center_axis',(3.49676543189026E-16,0.,-1.));
#1128=DIRECTION('ref_axis',(-1.,0.,-3.49676543189026E-16));
#1129=DIRECTION('center_axis',(-2.18547839493141E-16,0.,1.));
#1130=DIRECTION('ref_axis',(1.,0.,2.18547839493141E-16));
#1131=DIRECTION('center_axis',(-1.,0.,-2.55223683821875E-16));
#1132=DIRECTION('ref_axis',(-2.55223683821875E-16,0.,1.));
#1133=DIRECTION('',(0.,1.,0.));
#1134=DIRECTION('center_axis',(-2.10269512239613E-16,0.,-1.));
#1135=DIRECTION('ref_axis',(-1.,0.,2.10269512239613E-16));
#1136=CARTESIAN_POINT('',(0.,0.,0.));
#1137=CARTESIAN_POINT('Origin',(-30.4525332051937,1.57119634079122,19.5905881075769));
#1138=CARTESIAN_POINT('',(-30.4525332051937,5.00000007450581,19.5905881075769));
#1139=CARTESIAN_POINT('',(-30.4525332051937,1.57119634079122,19.5905881075769));
#1140=CARTESIAN_POINT('',(-30.4525332051937,5.00000007450581,19.5905881075769));
#1141=CARTESIAN_POINT('',(-30.4525332051937,5.00000007450581,18.5905881075769));
#1142=CARTESIAN_POINT('',(-30.4525332051937,5.,10.8905881075769));
#1143=CARTESIAN_POINT('',(-30.4525332051937,1.57119634079122,18.5905881075769));
#1144=CARTESIAN_POINT('',(-30.4525332051937,5.00000007450581,18.5905881075769));
#1145=CARTESIAN_POINT('',(-30.4525332051937,1.57119634079122,19.5905881075769));
#1146=CARTESIAN_POINT('Origin',(-22.0000003278255,1.57119634079122,19.5905881075769));
#1147=CARTESIAN_POINT('',(-22.0000003278255,1.57119634079122,19.5905881075769));
#1148=CARTESIAN_POINT('',(-30.4525332051937,1.57119634079122,19.5905881075769));
#1149=CARTESIAN_POINT('',(-22.0000003278256,1.57119634079122,18.5905881075769));
#1150=CARTESIAN_POINT('',(-30.4525332051937,1.57119634079122,18.5905881075769));
#1151=CARTESIAN_POINT('',(-22.0000003278255,1.57119634079122,19.5905881075769));
#1152=CARTESIAN_POINT('Origin',(-22.0000003278255,5.00000007450581,19.5905881075769));
#1153=CARTESIAN_POINT('',(-22.0000003278255,5.00000007450581,19.5905881075769));
#1154=CARTESIAN_POINT('',(-22.0000003278255,1.57119634079122,19.5905881075769));
#1155=CARTESIAN_POINT('',(-22.0000003278256,5.00000007450581,18.5905881075769));
#1156=CARTESIAN_POINT('',(-22.0000003278255,1.57119634079122,18.5905881075769));
#1157=CARTESIAN_POINT('',(-22.0000003278255,5.,10.8905881075769));
#1158=CARTESIAN_POINT('Origin',(0.0335390487700952,1.55686230234476,19.5905881075769));
#1159=CARTESIAN_POINT('',(0.0335390487700951,5.00000007450581,19.5905881075769));
#1160=CARTESIAN_POINT('',(0.0335390487700952,1.55686230234476,19.5905881075769));
#1161=CARTESIAN_POINT('',(0.0335390487700951,5.00000007450581,19.5905881075769));
#1162=CARTESIAN_POINT('',(0.0335390487700948,5.00000007450581,18.5905881075769));
#1163=CARTESIAN_POINT('',(0.0335390487700948,5.,10.8905881075769));
#1164=CARTESIAN_POINT('',(0.0335390487700948,1.55686230234475,18.5905881075769));
#1165=CARTESIAN_POINT('',(0.0335390487700951,5.00000007450581,18.5905881075769));
#1166=CARTESIAN_POINT('',(0.0335390487700952,1.55686230234476,19.5905881075769));
#1167=CARTESIAN_POINT('Origin',(8.00000011920929,1.55686230234476,19.5905881075769));
#1168=CARTESIAN_POINT('',(8.00000011920929,1.55686230234476,19.5905881075769));
#1169=CARTESIAN_POINT('',(0.0335390487700952,1.55686230234476,19.5905881075769));
#1170=CARTESIAN_POINT('',(8.00000011920929,1.55686230234475,18.5905881075769));
#1171=CARTESIAN_POINT('',(0.0335390487700952,1.55686230234476,18.5905881075769));
#1172=CARTESIAN_POINT('',(8.00000011920929,1.55686230234476,19.5905881075769));
#1173=CARTESIAN_POINT('Origin',(8.00000011920929,5.00000007450581,19.5905881075769));
#1174=CARTESIAN_POINT('',(8.00000011920929,5.00000007450581,19.5905881075769));
#1175=CARTESIAN_POINT('',(8.00000011920929,1.55686230234476,19.5905881075769));
#1176=CARTESIAN_POINT('',(8.00000011920929,5.00000007450581,18.5905881075769));
#1177=CARTESIAN_POINT('',(8.00000011920929,1.55686230234476,18.5905881075769));
#1178=CARTESIAN_POINT('',(8.00000011920929,5.,10.8905881075769));
#1179=CARTESIAN_POINT('Origin',(-39.1046823685164,6.,19.5905881075769));
#1180=CARTESIAN_POINT('',(-39.1046823685164,16.,19.5905881075769));
#1181=CARTESIAN_POINT('',(13.6953176314836,16.,19.5905881075769));
#1182=CARTESIAN_POINT('',(13.6953176314836,16.,19.5905881075769));
#1183=CARTESIAN_POINT('',(-39.1046823685164,5.,19.5905881075769));
#1184=CARTESIAN_POINT('',(-39.1046823685164,6.,19.5905881075769));
#1185=CARTESIAN_POINT('',(13.6953176314836,5.,19.5905881075769));
#1186=CARTESIAN_POINT('',(13.6953176314836,5.,19.5905881075769));
#1187=CARTESIAN_POINT('',(13.6953176314836,5.,19.5905881075769));
#1188=CARTESIAN_POINT('',(13.6953176314836,5.,19.5905881075769));
#1189=CARTESIAN_POINT('',(13.6953176314836,6.,19.5905881075769));
#1190=CARTESIAN_POINT('Origin',(-12.7046823685164,16.,2.19058810757688));
#1191=CARTESIAN_POINT('',(13.6953176314836,16.,-15.2094118924231));
#1192=CARTESIAN_POINT('',(13.6953176314836,16.,-15.2094118924231));
#1193=CARTESIAN_POINT('',(-39.1046823685164,16.,-15.2094118924231));
#1194=CARTESIAN_POINT('',(-39.1046823685164,16.,-15.2094118924231));
#1195=CARTESIAN_POINT('',(-39.1046823685164,16.,19.5905881075769));
#1196=CARTESIAN_POINT('',(12.6953176314836,16.,18.5905881075769));
#1197=CARTESIAN_POINT('',(-38.1046823685164,16.,18.5905881075769));
#1198=CARTESIAN_POINT('',(12.6953176314836,16.,18.5905881075769));
#1199=CARTESIAN_POINT('',(-38.1046823685164,16.,-14.2094118924231));
#1200=CARTESIAN_POINT('',(-38.1046823685164,16.,18.5905881075769));
#1201=CARTESIAN_POINT('',(12.6953176314836,16.,-14.2094118924231));
#1202=CARTESIAN_POINT('',(-38.1046823685164,16.,-14.2094118924231));
#1203=CARTESIAN_POINT('',(12.6953176314836,16.,-14.2094118924231));
#1204=CARTESIAN_POINT('Origin',(-12.7046823685164,5.,2.19058810757688));
#1205=CARTESIAN_POINT('',(12.6953176314836,5.,18.5905881075769));
#1206=CARTESIAN_POINT('Origin',(-30.4525332051937,5.00000007450581,-15.2094118924231));
#1207=CARTESIAN_POINT('',(-30.4525332051937,5.00000007450581,-15.2094118924231));
#1208=CARTESIAN_POINT('',(-30.4525332051937,1.57119634079122,-15.2094118924231));
#1209=CARTESIAN_POINT('',(-30.4525332051937,5.00000007450581,-15.2094118924231));
#1210=CARTESIAN_POINT('',(-30.4525332051937,1.57119634079122,-14.2094118924231));
#1211=CARTESIAN_POINT('',(-30.4525332051937,1.57119634079122,-15.2094118924231));
#1212=CARTESIAN_POINT('',(-30.4525332051937,5.00000007450581,-14.2094118924231));
#1213=CARTESIAN_POINT('',(-30.4525332051937,5.00000007450581,-14.2094118924231));
#1214=CARTESIAN_POINT('',(-30.4525332051937,5.,-6.50941189242313));
#1215=CARTESIAN_POINT('Origin',(-22.0000003278255,1.57119634079122,-15.2094118924231));
#1216=CARTESIAN_POINT('',(-22.0000003278255,1.57119634079122,-15.2094118924231));
#1217=CARTESIAN_POINT('',(-22.0000003278255,5.00000007450581,-15.2094118924231));
#1218=CARTESIAN_POINT('',(-22.0000003278255,1.57119634079122,-15.2094118924231));
#1219=CARTESIAN_POINT('',(-22.0000003278255,5.00000007450581,-14.2094118924231));
#1220=CARTESIAN_POINT('',(-22.0000003278255,5.,-6.50941189242312));
#1221=CARTESIAN_POINT('',(-22.0000003278255,1.57119634079122,-14.2094118924231));
#1222=CARTESIAN_POINT('',(-22.0000003278255,1.57119634079122,-14.2094118924231));
#1223=CARTESIAN_POINT('',(-22.0000003278255,1.57119634079122,-15.2094118924231));
#1224=CARTESIAN_POINT('Origin',(-30.4525332051937,1.57119634079122,-15.2094118924231));
#1225=CARTESIAN_POINT('',(-30.4525332051937,1.57119634079122,-15.2094118924231));
#1226=CARTESIAN_POINT('',(-30.4525332051937,1.57119634079122,-14.2094118924231));
#1227=CARTESIAN_POINT('Origin',(-12.7046823685164,5.,2.19058810757688));
#1228=CARTESIAN_POINT('',(-39.1046823685164,5.,-15.2094118924231));
#1229=CARTESIAN_POINT('',(-39.1046823685164,5.,19.5905881075769));
#1230=CARTESIAN_POINT('',(-39.1046823685164,5.,-15.2094118924231));
#1231=CARTESIAN_POINT('',(-36.2611203274109,5.,-14.2094118924231));
#1232=CARTESIAN_POINT('',(-38.1046823685164,5.,-14.2094118924231));
#1233=CARTESIAN_POINT('',(-12.7046823685164,5.,1.00025671095757));
#1234=CARTESIAN_POINT('',(13.2377458100332,5.,17.7504859286038));
#1235=CARTESIAN_POINT('',(10.8517555903781,5.,-14.2094118924231));
#1236=CARTESIAN_POINT('',(12.152889452934,5.,-15.0495140713962));
#1237=CARTESIAN_POINT('',(8.00000011920929,5.00000007450581,-14.2094118924231));
#1238=CARTESIAN_POINT('',(-38.1046823685164,5.,-14.2094118924231));
#1239=CARTESIAN_POINT('',(8.00000011920929,5.00000007450581,-15.2094118924231));
#1240=CARTESIAN_POINT('',(8.00000011920929,5.,-6.50941189242312));
#1241=CARTESIAN_POINT('',(13.6953176314836,5.,-15.2094118924231));
#1242=CARTESIAN_POINT('',(-39.1046823685164,5.,-15.2094118924231));
#1243=CARTESIAN_POINT('',(13.6953176314836,5.,-15.2094118924231));
#1244=CARTESIAN_POINT('',(10.8517555903781,5.,18.5905881075769));
#1245=CARTESIAN_POINT('',(12.6953176314836,5.,18.5905881075769));
#1246=CARTESIAN_POINT('',(-12.7046823685164,5.,3.38091950419619));
#1247=CARTESIAN_POINT('',(12.152889452934,5.,19.43069028655));
#1248=CARTESIAN_POINT('',(-36.2611203274109,5.,18.5905881075769));
#1249=CARTESIAN_POINT('',(13.2377458100332,5.,-13.36930971345));
#1250=CARTESIAN_POINT('',(12.6953176314836,5.,18.5905881075769));
#1251=CARTESIAN_POINT('',(-10.8611203274109,5.,2.19058810757688));
#1252=CARTESIAN_POINT('',(12.6953176314836,5.,-13.0190804958038));
#1253=CARTESIAN_POINT('',(13.2377458100332,5.,-13.36930971345));
#1254=CARTESIAN_POINT('',(12.6953176314836,5.,17.4002567109576));
#1255=CARTESIAN_POINT('',(13.2377458100332,5.,17.7504859286038));
#1256=CARTESIAN_POINT('',(12.6953176314836,5.,-14.2094118924231));
#1257=CARTESIAN_POINT('',(-14.5482444096219,5.,2.19058810757688));
#1258=CARTESIAN_POINT('',(-38.1046823685164,5.,17.4002567109576));
#1259=CARTESIAN_POINT('',(12.152889452934,5.,-15.0495140713962));
#1260=CARTESIAN_POINT('',(-38.1046823685164,5.,-13.0190804958038));
#1261=CARTESIAN_POINT('',(12.152889452934,5.,19.43069028655));
#1262=CARTESIAN_POINT('',(-38.1046823685164,5.,18.5905881075769));
#1263=CARTESIAN_POINT('Origin',(-12.7046823685164,5.,2.19058810757688));
#1264=CARTESIAN_POINT('',(0.0335390487701027,5.00000007450581,-15.2094118924231));
#1265=CARTESIAN_POINT('',(-39.1046823685164,5.,-15.2094118924231));
#1266=CARTESIAN_POINT('',(0.0335390487701025,5.00000007450581,-14.2094118924231));
#1267=CARTESIAN_POINT('',(0.0335390487701015,5.,-6.50941189242312));
#1268=CARTESIAN_POINT('',(-38.1046823685164,5.,-14.2094118924231));
#1269=CARTESIAN_POINT('Origin',(0.0335390487701027,5.00000007450581,-15.2094118924231));
#1270=CARTESIAN_POINT('',(0.0335390487701028,1.55686230234476,-15.2094118924231));
#1271=CARTESIAN_POINT('',(0.0335390487701027,5.00000007450581,-15.2094118924231));
#1272=CARTESIAN_POINT('',(0.0335390487701026,1.55686230234476,-14.2094118924231));
#1273=CARTESIAN_POINT('',(0.0335390487701028,1.55686230234476,-15.2094118924231));
#1274=CARTESIAN_POINT('',(0.0335390487701025,5.00000007450581,-14.2094118924231));
#1275=CARTESIAN_POINT('Origin',(8.00000011920929,1.55686230234476,-15.2094118924231));
#1276=CARTESIAN_POINT('',(8.00000011920929,1.55686230234476,-15.2094118924231));
#1277=CARTESIAN_POINT('',(8.00000011920929,1.55686230234476,-15.2094118924231));
#1278=CARTESIAN_POINT('',(8.00000011920929,1.55686230234476,-14.2094118924231));
#1279=CARTESIAN_POINT('',(8.00000011920929,1.55686230234476,-14.2094118924231));
#1280=CARTESIAN_POINT('',(8.00000011920929,1.55686230234476,-15.2094118924231));
#1281=CARTESIAN_POINT('Origin',(0.0335390487701028,1.55686230234476,-15.2094118924231));
#1282=CARTESIAN_POINT('',(0.0335390487701028,1.55686230234476,-15.2094118924231));
#1283=CARTESIAN_POINT('',(0.0335390487701026,1.55686230234476,-14.2094118924231));
#1284=CARTESIAN_POINT('Origin',(13.6953176314836,12.1250816370649,-15.2094118924231));
#1285=CARTESIAN_POINT('',(10.6953176314836,12.1250816370649,-14.2094118924231));
#1286=CARTESIAN_POINT('',(12.6953176314836,12.1250816370649,-14.2094118924231));
#1287=CARTESIAN_POINT('',(-12.2046823685164,12.1250816370649,-14.2094118924231));
#1288=CARTESIAN_POINT('',(10.6953176314836,12.1250816370649,-15.2094118924231));
#1289=CARTESIAN_POINT('',(10.6953176314836,12.1250816370649,-15.2094118924231));
#1290=CARTESIAN_POINT('',(13.6953176314836,12.1250816370649,-15.2094118924231));
#1291=CARTESIAN_POINT('',(13.6953176314836,12.1250816370649,-15.2094118924231));
#1292=CARTESIAN_POINT('',(13.6953176314836,12.1250816370649,-11.2094118924231));
#1293=CARTESIAN_POINT('',(13.6953176314836,12.1250816370649,2.19058810757688));
#1294=CARTESIAN_POINT('',(12.6953176314836,12.1250816370649,-11.2094118924231));
#1295=CARTESIAN_POINT('',(13.6953176314836,12.1250816370649,-11.2094118924231));
#1296=CARTESIAN_POINT('',(12.6953176314836,12.1250816370649,-14.7094118924231));
#1297=CARTESIAN_POINT('Origin',(12.1953176314836,9.62508163706494,-11.2094118924231));
#1298=CARTESIAN_POINT('',(12.6953176314836,7.12508163706494,-11.2094118924231));
#1299=CARTESIAN_POINT('',(12.6953176314836,7.81254081853247,-11.2094118924231));
#1300=CARTESIAN_POINT('',(13.6953176314836,7.12508163706494,-11.2094118924231));
#1301=CARTESIAN_POINT('',(13.6953176314836,7.81254081853247,-11.2094118924231));
#1302=CARTESIAN_POINT('',(10.6953176314836,7.12508163706494,-11.2094118924231));
#1303=CARTESIAN_POINT('Origin',(10.6953176314836,12.1250816370649,-15.2094118924231));
#1304=CARTESIAN_POINT('',(10.6953176314836,7.12508163706494,-14.2094118924231));
#1305=CARTESIAN_POINT('',(10.6953176314836,9.06254081853247,-14.2094118924231));
#1306=CARTESIAN_POINT('',(10.6953176314836,7.12508163706494,-15.2094118924231));
#1307=CARTESIAN_POINT('',(10.6953176314836,7.12508163706494,-15.2094118924231));
#1308=CARTESIAN_POINT('',(10.6953176314836,9.06254081853247,-15.2094118924231));
#1309=CARTESIAN_POINT('Origin',(10.6953176314836,7.12508163706494,-15.2094118924231));
#1310=CARTESIAN_POINT('',(12.6953176314836,7.12508163706494,-14.2094118924231));
#1311=CARTESIAN_POINT('',(-13.7046823685164,7.12508163706494,-14.2094118924231));
#1312=CARTESIAN_POINT('',(12.6953176314836,7.12508163706494,-14.7094118924231));
#1313=CARTESIAN_POINT('',(13.6953176314836,7.12508163706494,-15.2094118924231));
#1314=CARTESIAN_POINT('',(13.6953176314836,7.12508163706494,2.19058810757688));
#1315=CARTESIAN_POINT('',(12.1953176314836,7.12508163706494,-15.2094118924231));
#1316=CARTESIAN_POINT('Origin',(13.6953176314836,6.,19.5905881075769));
#1317=CARTESIAN_POINT('',(13.6953176314836,5.,-15.2094118924231));
#1318=CARTESIAN_POINT('',(13.6953176314836,5.,-15.2094118924231));
#1319=CARTESIAN_POINT('Origin',(12.6953176314836,6.,-14.2094118924231));
#1320=CARTESIAN_POINT('',(12.6953176314836,6.,-14.2094118924231));
#1321=CARTESIAN_POINT('',(12.6953176314836,6.,-14.2094118924231));
#1322=CARTESIAN_POINT('',(12.6953176314836,6.,-13.0190804958038));
#1323=CARTESIAN_POINT('',(12.6953176314836,6.,-14.2094118924231));
#1324=CARTESIAN_POINT('',(12.6953176314836,5.,-13.0190804958038));
#1325=CARTESIAN_POINT('',(12.6953176314836,6.,17.4002567109576));
#1326=CARTESIAN_POINT('',(12.6953176314836,5.,17.4002567109576));
#1327=CARTESIAN_POINT('',(12.6953176314836,6.,18.5905881075769));
#1328=CARTESIAN_POINT('',(12.6953176314836,6.,-14.2094118924231));
#1329=CARTESIAN_POINT('',(12.6953176314836,6.,18.5905881075769));
#1330=CARTESIAN_POINT('',(12.6953176314836,6.,-14.2094118924231));
#1331=CARTESIAN_POINT('Origin',(-12.7046823685164,6.,2.19058810757688));
#1332=CARTESIAN_POINT('',(10.8517555903781,6.,18.5905881075769));
#1333=CARTESIAN_POINT('',(12.6953176314836,6.,18.5905881075769));
#1334=CARTESIAN_POINT('',(-10.8611203274109,6.,2.19058810757688));
#1335=CARTESIAN_POINT('',(13.2377458100332,6.,17.7504859286038));
#1336=CARTESIAN_POINT('',(13.2377458100332,6.,-13.36930971345));
#1337=CARTESIAN_POINT('',(10.8517555903781,6.,-14.2094118924231));
#1338=CARTESIAN_POINT('',(-38.1046823685164,6.,-14.2094118924231));
#1339=CARTESIAN_POINT('',(-12.7046823685164,6.,1.00025671095757));
#1340=CARTESIAN_POINT('',(12.152889452934,6.,-15.0495140713962));
#1341=CARTESIAN_POINT('',(-36.2611203274109,6.,-14.2094118924231));
#1342=CARTESIAN_POINT('',(13.2377458100332,6.,17.7504859286038));
#1343=CARTESIAN_POINT('',(-38.1046823685164,6.,-14.2094118924231));
#1344=CARTESIAN_POINT('',(-38.1046823685164,6.,-14.2094118924231));
#1345=CARTESIAN_POINT('',(-38.1046823685164,6.,-13.0190804958038));
#1346=CARTESIAN_POINT('',(-38.1046823685164,6.,18.5905881075769));
#1347=CARTESIAN_POINT('',(-14.5482444096219,6.,2.19058810757688));
#1348=CARTESIAN_POINT('',(12.152889452934,6.,19.43069028655));
#1349=CARTESIAN_POINT('',(-38.1046823685164,6.,17.4002567109576));
#1350=CARTESIAN_POINT('',(12.152889452934,6.,-15.0495140713962));
#1351=CARTESIAN_POINT('',(-38.1046823685164,6.,18.5905881075769));
#1352=CARTESIAN_POINT('',(-38.1046823685164,6.,18.5905881075769));
#1353=CARTESIAN_POINT('',(-36.2611203274109,6.,18.5905881075769));
#1354=CARTESIAN_POINT('',(12.6953176314836,6.,18.5905881075769));
#1355=CARTESIAN_POINT('',(-12.7046823685164,6.,3.38091950419619));
#1356=CARTESIAN_POINT('',(13.2377458100332,6.,-13.36930971345));
#1357=CARTESIAN_POINT('',(12.152889452934,6.,19.43069028655));
#1358=CARTESIAN_POINT('Origin',(12.6953176314836,5.,17.4002567109576));
#1359=CARTESIAN_POINT('',(-10.8611203274109,5.,2.19058810757688));
#1360=CARTESIAN_POINT('Origin',(-10.8611203274109,5.,2.19058810757688));
#1361=CARTESIAN_POINT('Origin',(-36.2611203274109,5.,18.5905881075769));
#1362=CARTESIAN_POINT('',(-12.7046823685164,5.,3.38091950419619));
#1363=CARTESIAN_POINT('',(-36.2611203274109,5.,18.5905881075769));
#1364=CARTESIAN_POINT('Origin',(-12.7046823685164,5.,3.38091950419619));
#1365=CARTESIAN_POINT('',(10.8517555903781,5.,18.5905881075769));
#1366=CARTESIAN_POINT('Origin',(-38.1046823685164,5.,-13.0190804958038));
#1367=CARTESIAN_POINT('',(-14.5482444096219,5.,2.19058810757688));
#1368=CARTESIAN_POINT('',(-38.1046823685164,5.,-13.0190804958038));
#1369=CARTESIAN_POINT('Origin',(-14.5482444096219,5.,2.19058810757688));
#1370=CARTESIAN_POINT('',(-38.1046823685164,5.,17.4002567109576));
#1371=CARTESIAN_POINT('Origin',(10.8517555903781,5.,-14.2094118924231));
#1372=CARTESIAN_POINT('',(-12.7046823685164,5.,1.00025671095757));
#1373=CARTESIAN_POINT('',(10.8517555903781,5.,-14.2094118924231));
#1374=CARTESIAN_POINT('Origin',(-12.7046823685164,5.,1.00025671095757));
#1375=CARTESIAN_POINT('',(-36.2611203274109,5.,-14.2094118924231));
#1376=CARTESIAN_POINT('Origin',(-38.1046823685164,6.,18.5905881075769));
#1377=CARTESIAN_POINT('',(-38.1046823685164,6.,-14.2094118924231));
#1378=CARTESIAN_POINT('',(-38.1046823685164,6.,18.5905881075769));
#1379=CARTESIAN_POINT('Origin',(12.6953176314836,6.,18.5905881075769));
#1380=CARTESIAN_POINT('Origin',(-38.1046823685164,6.,-14.2094118924231));
#1381=CARTESIAN_POINT('Origin',(-39.1046823685164,6.,-15.2094118924231));
#1382=CARTESIAN_POINT('',(-39.1046823685164,6.,-15.2094118924231));
#1383=CARTESIAN_POINT('Origin',(13.6953176314836,6.,-15.2094118924231));
#1384=UNCERTAINTY_MEASURE_WITH_UNIT(LENGTH_MEASURE(0.01),#1388,
'DISTANCE_ACCURACY_VALUE',
'Maximum model space distance between geometric entities at asserted c
onnectivities');
#1385=UNCERTAINTY_MEASURE_WITH_UNIT(LENGTH_MEASURE(0.01),#1388,
'DISTANCE_ACCURACY_VALUE',
'Maximum model space distance between geometric entities at asserted c
onnectivities');
#1386=(
GEOMETRIC_REPRESENTATION_CONTEXT(3)
GLOBAL_UNCERTAINTY_ASSIGNED_CONTEXT((#1384))
GLOBAL_UNIT_ASSIGNED_CONTEXT((#1388,#1390,#1391))
REPRESENTATION_CONTEXT('','3D')
);
#1387=(
GEOMETRIC_REPRESENTATION_CONTEXT(3)
GLOBAL_UNCERTAINTY_ASSIGNED_CONTEXT((#1385))
GLOBAL_UNIT_ASSIGNED_CONTEXT((#1388,#1390,#1391))
REPRESENTATION_CONTEXT('','3D')
);
#1388=(
LENGTH_UNIT()
NAMED_UNIT(*)
SI_UNIT(.MILLI.,.METRE.)
);
#1389=(
LENGTH_UNIT()
NAMED_UNIT(*)
SI_UNIT($,.METRE.)
);
#1390=(
NAMED_UNIT(*)
PLANE_ANGLE_UNIT()
SI_UNIT($,.RADIAN.)
);
#1391=(
NAMED_UNIT(*)
SI_UNIT($,.STERADIAN.)
SOLID_ANGLE_UNIT()
);
#1392=SHAPE_DEFINITION_REPRESENTATION(#1393,#1394);
#1393=PRODUCT_DEFINITION_SHAPE('',$,#1396);
#1394=SHAPE_REPRESENTATION('',(#896),#1386);
#1395=PRODUCT_DEFINITION_CONTEXT('part definition',#1400,'design');
#1396=PRODUCT_DEFINITION('2026-09-01-18-10-46-477','TEMP_STEP_EXPORT',#1397,
#1395);
#1397=PRODUCT_DEFINITION_FORMATION('',$,#1402);
#1398=PRODUCT_RELATED_PRODUCT_CATEGORY('TEMP_STEP_EXPORT',
'TEMP_STEP_EXPORT',(#1402));
#1399=APPLICATION_PROTOCOL_DEFINITION('international standard',
'automotive_design',2009,#1400);
#1400=APPLICATION_CONTEXT(
'Core Data for Automotive Mechanical Design Process');
#1401=PRODUCT_CONTEXT('part definition',#1400,'mechanical');
#1402=PRODUCT('2026-09-01-18-10-46-477','TEMP_STEP_EXPORT',$,(#1401));
#1403=PRESENTATION_STYLE_ASSIGNMENT((#1404));
#1404=SURFACE_STYLE_USAGE(.BOTH.,#1405);
#1405=SURFACE_SIDE_STYLE('',(#1406));
#1406=SURFACE_STYLE_FILL_AREA(#1407);
#1407=FILL_AREA_STYLE('Steel - Satin',(#1408));
#1408=FILL_AREA_STYLE_COLOUR('Steel - Satin',#1409);
#1409=COLOUR_RGB('Steel - Satin',0.627450980392157,0.627450980392157,0.627450980392157);
ENDSEC;
END-ISO-10303-21;
