ISO-10303-21;
HEADER;
/* Generated by software containing ST-Developer
 * from STEP Tools, Inc. (www.steptools.com) 
 */

FILE_DESCRIPTION(
/* description */ (''),
/* implementation_level */ '2;1');

FILE_NAME(
/* name */ 'push-switch.step',
/* time_stamp */ '2026-09-01T18:10:41+05:30',
/* author */ (''),
/* organization */ (''),
/* preprocessor_version */ 'ST-DEVELOPER v20.1',
/* originating_system */ 'Autodesk Translation Framework v15.8.0.0',
/* authorisation */ '');

FILE_SCHEMA (('AUTOMOTIVE_DESIGN { 1 0 10303 214 3 1 1 }'));
ENDSEC;

DATA;
#10=MECHANICAL_DESIGN_GEOMETRIC_PRESENTATION_REPRESENTATION('',(#13),#669);
#11=SHAPE_REPRESENTATION_RELATIONSHIP('SRR','None',#676,#12);
#12=ADVANCED_BREP_SHAPE_REPRESENTATION('',(#14),#668);
#13=STYLED_ITEM('',(#685),#14);
#14=MANIFOLD_SOLID_BREP('Push Switch',#381);
#15=FACE_BOUND('',#140,.T.);
#16=PLANE('',#419);
#17=PLANE('',#422);
#18=PLANE('',#425);
#19=PLANE('',#426);
#20=PLANE('',#429);
#21=PLANE('',#430);
#22=PLANE('',#431);
#23=PLANE('',#433);
#24=PLANE('',#434);
#25=PLANE('',#435);
#26=PLANE('',#437);
#27=LINE('',#572,#59);
#28=LINE('',#573,#60);
#29=LINE('',#584,#61);
#30=LINE('',#585,#62);
#31=LINE('',#596,#63);
#32=LINE('',#597,#64);
#33=LINE('',#605,#65);
#34=LINE('',#606,#66);
#35=LINE('',#609,#67);
#36=LINE('',#611,#68);
#37=LINE('',#612,#69);
#38=LINE('',#615,#70);
#39=LINE('',#619,#71);
#40=LINE('',#620,#72);
#41=LINE('',#623,#73);
#42=LINE('',#629,#74);
#43=LINE('',#631,#75);
#44=LINE('',#633,#76);
#45=LINE('',#634,#77);
#46=LINE('',#638,#78);
#47=LINE('',#641,#79);
#48=LINE('',#643,#80);
#49=LINE('',#644,#81);
#50=LINE('',#647,#82);
#51=LINE('',#648,#83);
#52=LINE('',#651,#84);
#53=LINE('',#654,#85);
#54=LINE('',#656,#86);
#55=LINE('',#657,#87);
#56=LINE('',#659,#88);
#57=LINE('',#662,#89);
#58=LINE('',#664,#90);
#59=VECTOR('',#454,10.);
#60=VECTOR('',#455,10.);
#61=VECTOR('',#468,10.);
#62=VECTOR('',#469,10.);
#63=VECTOR('',#482,10.);
#64=VECTOR('',#483,10.);
#65=VECTOR('',#494,10.);
#66=VECTOR('',#495,10.);
#67=VECTOR('',#498,10.);
#68=VECTOR('',#499,10.);
#69=VECTOR('',#500,10.);
#70=VECTOR('',#503,10.);
#71=VECTOR('',#508,10.);
#72=VECTOR('',#509,10.);
#73=VECTOR('',#512,10.);
#74=VECTOR('',#519,10.);
#75=VECTOR('',#520,10.);
#76=VECTOR('',#521,10.);
#77=VECTOR('',#522,10.);
#78=VECTOR('',#527,10.);
#79=VECTOR('',#530,10.);
#80=VECTOR('',#531,10.);
#81=VECTOR('',#532,10.);
#82=VECTOR('',#535,10.);
#83=VECTOR('',#536,10.);
#84=VECTOR('',#539,10.);
#85=VECTOR('',#542,10.);
#86=VECTOR('',#543,10.);
#87=VECTOR('',#544,10.);
#88=VECTOR('',#547,10.);
#89=VECTOR('',#552,10.);
#90=VECTOR('',#555,10.);
#91=CYLINDRICAL_SURFACE('',#400,0.5);
#92=CYLINDRICAL_SURFACE('',#406,0.5);
#93=CYLINDRICAL_SURFACE('',#412,0.5);
#94=CYLINDRICAL_SURFACE('',#418,0.5);
#95=CYLINDRICAL_SURFACE('',#420,1.5);
#96=CYLINDRICAL_SURFACE('',#423,1.5);
#97=CYLINDRICAL_SURFACE('',#427,1.5);
#98=CYLINDRICAL_SURFACE('',#436,1.5);
#99=FACE_OUTER_BOUND('',#122,.T.);
#100=FACE_OUTER_BOUND('',#123,.T.);
#101=FACE_OUTER_BOUND('',#124,.T.);
#102=FACE_OUTER_BOUND('',#125,.T.);
#103=FACE_OUTER_BOUND('',#126,.T.);
#104=FACE_OUTER_BOUND('',#127,.T.);
#105=FACE_OUTER_BOUND('',#128,.T.);
#106=FACE_OUTER_BOUND('',#129,.T.);
#107=FACE_OUTER_BOUND('',#130,.T.);
#108=FACE_OUTER_BOUND('',#131,.T.);
#109=FACE_OUTER_BOUND('',#132,.T.);
#110=FACE_OUTER_BOUND('',#133,.T.);
#111=FACE_OUTER_BOUND('',#134,.T.);
#112=FACE_OUTER_BOUND('',#135,.T.);
#113=FACE_OUTER_BOUND('',#136,.T.);
#114=FACE_OUTER_BOUND('',#137,.T.);
#115=FACE_OUTER_BOUND('',#138,.T.);
#116=FACE_OUTER_BOUND('',#139,.T.);
#117=FACE_OUTER_BOUND('',#141,.T.);
#118=FACE_OUTER_BOUND('',#142,.T.);
#119=FACE_OUTER_BOUND('',#143,.T.);
#120=FACE_OUTER_BOUND('',#144,.T.);
#121=FACE_OUTER_BOUND('',#145,.T.);
#122=EDGE_LOOP('',(#250,#251,#252,#253));
#123=EDGE_LOOP('',(#254,#255,#256,#257));
#124=EDGE_LOOP('',(#258,#259,#260,#261));
#125=EDGE_LOOP('',(#262,#263,#264,#265));
#126=EDGE_LOOP('',(#266,#267,#268,#269));
#127=EDGE_LOOP('',(#270,#271,#272,#273));
#128=EDGE_LOOP('',(#274,#275,#276,#277));
#129=EDGE_LOOP('',(#278,#279,#280,#281));
#130=EDGE_LOOP('',(#282,#283,#284,#285));
#131=EDGE_LOOP('',(#286,#287,#288,#289));
#132=EDGE_LOOP('',(#290,#291,#292,#293));
#133=EDGE_LOOP('',(#294,#295,#296,#297));
#134=EDGE_LOOP('',(#298,#299,#300,#301,#302,#303,#304,#305));
#135=EDGE_LOOP('',(#306,#307,#308,#309));
#136=EDGE_LOOP('',(#310,#311,#312,#313));
#137=EDGE_LOOP('',(#314,#315,#316,#317));
#138=EDGE_LOOP('',(#318,#319,#320,#321));
#139=EDGE_LOOP('',(#322,#323,#324,#325,#326,#327,#328,#329));
#140=EDGE_LOOP('',(#330,#331,#332,#333));
#141=EDGE_LOOP('',(#334,#335,#336,#337));
#142=EDGE_LOOP('',(#338,#339,#340,#341));
#143=EDGE_LOOP('',(#342,#343,#344,#345));
#144=EDGE_LOOP('',(#346,#347,#348,#349));
#145=EDGE_LOOP('',(#350,#351,#352,#353));
#146=CIRCLE('',#396,0.499999999999998);
#147=CIRCLE('',#397,1.5);
#148=CIRCLE('',#398,0.5);
#149=CIRCLE('',#399,0.999999999999999);
#150=CIRCLE('',#401,0.5);
#151=CIRCLE('',#403,0.500000000000003);
#152=CIRCLE('',#404,0.999999999999999);
#153=CIRCLE('',#405,1.5);
#154=CIRCLE('',#407,0.499999999999998);
#155=CIRCLE('',#409,0.5);
#156=CIRCLE('',#410,1.);
#157=CIRCLE('',#411,1.5);
#158=CIRCLE('',#413,0.5);
#159=CIRCLE('',#415,0.5);
#160=CIRCLE('',#416,0.999999999999999);
#161=CIRCLE('',#417,1.5);
#162=CIRCLE('',#421,1.5);
#163=CIRCLE('',#424,1.5);
#164=CIRCLE('',#428,1.5);
#165=CIRCLE('',#432,1.5);
#166=VERTEX_POINT('',#560);
#167=VERTEX_POINT('',#561);
#168=VERTEX_POINT('',#563);
#169=VERTEX_POINT('',#565);
#170=VERTEX_POINT('',#569);
#171=VERTEX_POINT('',#570);
#172=VERTEX_POINT('',#575);
#173=VERTEX_POINT('',#576);
#174=VERTEX_POINT('',#581);
#175=VERTEX_POINT('',#582);
#176=VERTEX_POINT('',#587);
#177=VERTEX_POINT('',#588);
#178=VERTEX_POINT('',#593);
#179=VERTEX_POINT('',#594);
#180=VERTEX_POINT('',#599);
#181=VERTEX_POINT('',#600);
#182=VERTEX_POINT('',#608);
#183=VERTEX_POINT('',#610);
#184=VERTEX_POINT('',#614);
#185=VERTEX_POINT('',#618);
#186=VERTEX_POINT('',#622);
#187=VERTEX_POINT('',#627);
#188=VERTEX_POINT('',#628);
#189=VERTEX_POINT('',#630);
#190=VERTEX_POINT('',#632);
#191=VERTEX_POINT('',#636);
#192=VERTEX_POINT('',#640);
#193=VERTEX_POINT('',#642);
#194=VERTEX_POINT('',#646);
#195=VERTEX_POINT('',#650);
#196=VERTEX_POINT('',#652);
#197=VERTEX_POINT('',#655);
#198=EDGE_CURVE('',#166,#167,#146,.T.);
#199=EDGE_CURVE('',#167,#168,#147,.T.);
#200=EDGE_CURVE('',#168,#169,#148,.T.);
#201=EDGE_CURVE('',#169,#166,#149,.T.);
#202=EDGE_CURVE('',#170,#171,#150,.T.);
#203=EDGE_CURVE('',#171,#169,#27,.T.);
#204=EDGE_CURVE('',#168,#170,#28,.T.);
#205=EDGE_CURVE('',#172,#173,#151,.T.);
#206=EDGE_CURVE('',#173,#171,#152,.T.);
#207=EDGE_CURVE('',#170,#172,#153,.T.);
#208=EDGE_CURVE('',#174,#175,#154,.T.);
#209=EDGE_CURVE('',#175,#173,#29,.T.);
#210=EDGE_CURVE('',#172,#174,#30,.T.);
#211=EDGE_CURVE('',#176,#177,#155,.T.);
#212=EDGE_CURVE('',#177,#175,#156,.T.);
#213=EDGE_CURVE('',#174,#176,#157,.T.);
#214=EDGE_CURVE('',#178,#179,#158,.T.);
#215=EDGE_CURVE('',#179,#177,#31,.T.);
#216=EDGE_CURVE('',#176,#178,#32,.T.);
#217=EDGE_CURVE('',#180,#181,#159,.T.);
#218=EDGE_CURVE('',#181,#179,#160,.T.);
#219=EDGE_CURVE('',#178,#180,#161,.T.);
#220=EDGE_CURVE('',#166,#181,#33,.T.);
#221=EDGE_CURVE('',#180,#167,#34,.T.);
#222=EDGE_CURVE('',#182,#172,#35,.T.);
#223=EDGE_CURVE('',#183,#182,#36,.T.);
#224=EDGE_CURVE('',#183,#174,#37,.T.);
#225=EDGE_CURVE('',#184,#170,#38,.T.);
#226=EDGE_CURVE('',#182,#184,#162,.T.);
#227=EDGE_CURVE('',#185,#168,#39,.T.);
#228=EDGE_CURVE('',#184,#185,#40,.T.);
#229=EDGE_CURVE('',#167,#186,#41,.T.);
#230=EDGE_CURVE('',#185,#186,#163,.T.);
#231=EDGE_CURVE('',#187,#188,#42,.T.);
#232=EDGE_CURVE('',#189,#187,#43,.T.);
#233=EDGE_CURVE('',#190,#189,#44,.T.);
#234=EDGE_CURVE('',#188,#190,#45,.T.);
#235=EDGE_CURVE('',#191,#183,#164,.T.);
#236=EDGE_CURVE('',#191,#176,#46,.T.);
#237=EDGE_CURVE('',#192,#189,#47,.T.);
#238=EDGE_CURVE('',#193,#192,#48,.T.);
#239=EDGE_CURVE('',#193,#190,#49,.T.);
#240=EDGE_CURVE('',#187,#194,#50,.T.);
#241=EDGE_CURVE('',#192,#194,#51,.T.);
#242=EDGE_CURVE('',#186,#195,#52,.T.);
#243=EDGE_CURVE('',#195,#196,#165,.T.);
#244=EDGE_CURVE('',#196,#191,#53,.T.);
#245=EDGE_CURVE('',#194,#197,#54,.T.);
#246=EDGE_CURVE('',#197,#193,#55,.T.);
#247=EDGE_CURVE('',#197,#188,#56,.T.);
#248=EDGE_CURVE('',#195,#180,#57,.T.);
#249=EDGE_CURVE('',#196,#178,#58,.T.);
#250=ORIENTED_EDGE('',*,*,#198,.T.);
#251=ORIENTED_EDGE('',*,*,#199,.T.);
#252=ORIENTED_EDGE('',*,*,#200,.T.);
#253=ORIENTED_EDGE('',*,*,#201,.T.);
#254=ORIENTED_EDGE('',*,*,#202,.T.);
#255=ORIENTED_EDGE('',*,*,#203,.T.);
#256=ORIENTED_EDGE('',*,*,#200,.F.);
#257=ORIENTED_EDGE('',*,*,#204,.T.);
#258=ORIENTED_EDGE('',*,*,#205,.T.);
#259=ORIENTED_EDGE('',*,*,#206,.T.);
#260=ORIENTED_EDGE('',*,*,#202,.F.);
#261=ORIENTED_EDGE('',*,*,#207,.T.);
#262=ORIENTED_EDGE('',*,*,#208,.T.);
#263=ORIENTED_EDGE('',*,*,#209,.T.);
#264=ORIENTED_EDGE('',*,*,#205,.F.);
#265=ORIENTED_EDGE('',*,*,#210,.T.);
#266=ORIENTED_EDGE('',*,*,#211,.T.);
#267=ORIENTED_EDGE('',*,*,#212,.T.);
#268=ORIENTED_EDGE('',*,*,#208,.F.);
#269=ORIENTED_EDGE('',*,*,#213,.T.);
#270=ORIENTED_EDGE('',*,*,#214,.T.);
#271=ORIENTED_EDGE('',*,*,#215,.T.);
#272=ORIENTED_EDGE('',*,*,#211,.F.);
#273=ORIENTED_EDGE('',*,*,#216,.T.);
#274=ORIENTED_EDGE('',*,*,#217,.T.);
#275=ORIENTED_EDGE('',*,*,#218,.T.);
#276=ORIENTED_EDGE('',*,*,#214,.F.);
#277=ORIENTED_EDGE('',*,*,#219,.T.);
#278=ORIENTED_EDGE('',*,*,#198,.F.);
#279=ORIENTED_EDGE('',*,*,#220,.T.);
#280=ORIENTED_EDGE('',*,*,#217,.F.);
#281=ORIENTED_EDGE('',*,*,#221,.T.);
#282=ORIENTED_EDGE('',*,*,#210,.F.);
#283=ORIENTED_EDGE('',*,*,#222,.F.);
#284=ORIENTED_EDGE('',*,*,#223,.F.);
#285=ORIENTED_EDGE('',*,*,#224,.T.);
#286=ORIENTED_EDGE('',*,*,#207,.F.);
#287=ORIENTED_EDGE('',*,*,#225,.F.);
#288=ORIENTED_EDGE('',*,*,#226,.F.);
#289=ORIENTED_EDGE('',*,*,#222,.T.);
#290=ORIENTED_EDGE('',*,*,#204,.F.);
#291=ORIENTED_EDGE('',*,*,#227,.F.);
#292=ORIENTED_EDGE('',*,*,#228,.F.);
#293=ORIENTED_EDGE('',*,*,#225,.T.);
#294=ORIENTED_EDGE('',*,*,#199,.F.);
#295=ORIENTED_EDGE('',*,*,#229,.T.);
#296=ORIENTED_EDGE('',*,*,#230,.F.);
#297=ORIENTED_EDGE('',*,*,#227,.T.);
#298=ORIENTED_EDGE('',*,*,#201,.F.);
#299=ORIENTED_EDGE('',*,*,#203,.F.);
#300=ORIENTED_EDGE('',*,*,#206,.F.);
#301=ORIENTED_EDGE('',*,*,#209,.F.);
#302=ORIENTED_EDGE('',*,*,#212,.F.);
#303=ORIENTED_EDGE('',*,*,#215,.F.);
#304=ORIENTED_EDGE('',*,*,#218,.F.);
#305=ORIENTED_EDGE('',*,*,#220,.F.);
#306=ORIENTED_EDGE('',*,*,#231,.F.);
#307=ORIENTED_EDGE('',*,*,#232,.F.);
#308=ORIENTED_EDGE('',*,*,#233,.F.);
#309=ORIENTED_EDGE('',*,*,#234,.F.);
#310=ORIENTED_EDGE('',*,*,#213,.F.);
#311=ORIENTED_EDGE('',*,*,#224,.F.);
#312=ORIENTED_EDGE('',*,*,#235,.F.);
#313=ORIENTED_EDGE('',*,*,#236,.T.);
#314=ORIENTED_EDGE('',*,*,#233,.T.);
#315=ORIENTED_EDGE('',*,*,#237,.F.);
#316=ORIENTED_EDGE('',*,*,#238,.F.);
#317=ORIENTED_EDGE('',*,*,#239,.T.);
#318=ORIENTED_EDGE('',*,*,#232,.T.);
#319=ORIENTED_EDGE('',*,*,#240,.T.);
#320=ORIENTED_EDGE('',*,*,#241,.F.);
#321=ORIENTED_EDGE('',*,*,#237,.T.);
#322=ORIENTED_EDGE('',*,*,#230,.T.);
#323=ORIENTED_EDGE('',*,*,#242,.T.);
#324=ORIENTED_EDGE('',*,*,#243,.T.);
#325=ORIENTED_EDGE('',*,*,#244,.T.);
#326=ORIENTED_EDGE('',*,*,#235,.T.);
#327=ORIENTED_EDGE('',*,*,#223,.T.);
#328=ORIENTED_EDGE('',*,*,#226,.T.);
#329=ORIENTED_EDGE('',*,*,#228,.T.);
#330=ORIENTED_EDGE('',*,*,#241,.T.);
#331=ORIENTED_EDGE('',*,*,#245,.T.);
#332=ORIENTED_EDGE('',*,*,#246,.T.);
#333=ORIENTED_EDGE('',*,*,#238,.T.);
#334=ORIENTED_EDGE('',*,*,#231,.T.);
#335=ORIENTED_EDGE('',*,*,#247,.F.);
#336=ORIENTED_EDGE('',*,*,#245,.F.);
#337=ORIENTED_EDGE('',*,*,#240,.F.);
#338=ORIENTED_EDGE('',*,*,#234,.T.);
#339=ORIENTED_EDGE('',*,*,#239,.F.);
#340=ORIENTED_EDGE('',*,*,#246,.F.);
#341=ORIENTED_EDGE('',*,*,#247,.T.);
#342=ORIENTED_EDGE('',*,*,#221,.F.);
#343=ORIENTED_EDGE('',*,*,#248,.F.);
#344=ORIENTED_EDGE('',*,*,#242,.F.);
#345=ORIENTED_EDGE('',*,*,#229,.F.);
#346=ORIENTED_EDGE('',*,*,#219,.F.);
#347=ORIENTED_EDGE('',*,*,#249,.F.);
#348=ORIENTED_EDGE('',*,*,#243,.F.);
#349=ORIENTED_EDGE('',*,*,#248,.T.);
#350=ORIENTED_EDGE('',*,*,#216,.F.);
#351=ORIENTED_EDGE('',*,*,#236,.F.);
#352=ORIENTED_EDGE('',*,*,#244,.F.);
#353=ORIENTED_EDGE('',*,*,#249,.T.);
#354=TOROIDAL_SURFACE('',#395,0.999999999999999,0.5);
#355=TOROIDAL_SURFACE('',#402,0.999999999999999,0.5);
#356=TOROIDAL_SURFACE('',#408,1.,0.5);
#357=TOROIDAL_SURFACE('',#414,0.999999999999999,0.5);
#358=ADVANCED_FACE('',(#99),#354,.T.);
#359=ADVANCED_FACE('',(#100),#91,.T.);
#360=ADVANCED_FACE('',(#101),#355,.T.);
#361=ADVANCED_FACE('',(#102),#92,.T.);
#362=ADVANCED_FACE('',(#103),#356,.T.);
#363=ADVANCED_FACE('',(#104),#93,.T.);
#364=ADVANCED_FACE('',(#105),#357,.T.);
#365=ADVANCED_FACE('',(#106),#94,.T.);
#366=ADVANCED_FACE('',(#107),#16,.T.);
#367=ADVANCED_FACE('',(#108),#95,.T.);
#368=ADVANCED_FACE('',(#109),#17,.T.);
#369=ADVANCED_FACE('',(#110),#96,.T.);
#370=ADVANCED_FACE('',(#111),#18,.T.);
#371=ADVANCED_FACE('',(#112),#19,.F.);
#372=ADVANCED_FACE('',(#113),#97,.T.);
#373=ADVANCED_FACE('',(#114),#20,.T.);
#374=ADVANCED_FACE('',(#115),#21,.T.);
#375=ADVANCED_FACE('',(#116,#15),#22,.F.);
#376=ADVANCED_FACE('',(#117),#23,.T.);
#377=ADVANCED_FACE('',(#118),#24,.T.);
#378=ADVANCED_FACE('',(#119),#25,.T.);
#379=ADVANCED_FACE('',(#120),#98,.T.);
#380=ADVANCED_FACE('',(#121),#26,.T.);
#381=CLOSED_SHELL('',(#358,#359,#360,#361,#362,#363,#364,#365,#366,#367,
#368,#369,#370,#371,#372,#373,#374,#375,#376,#377,#378,#379,#380));
#382=DERIVED_UNIT_ELEMENT(#384,1.);
#383=DERIVED_UNIT_ELEMENT(#671,-3.);
#384=(
MASS_UNIT()
NAMED_UNIT(*)
SI_UNIT(.KILO.,.GRAM.)
);
#385=DERIVED_UNIT((#382,#383));
#386=MEASURE_REPRESENTATION_ITEM('density measure',
POSITIVE_RATIO_MEASURE(7850.),#385);
#387=PROPERTY_DEFINITION_REPRESENTATION(#392,#389);
#388=PROPERTY_DEFINITION_REPRESENTATION(#393,#390);
#389=REPRESENTATION('material name',(#391),#668);
#390=REPRESENTATION('density',(#386),#668);
#391=DESCRIPTIVE_REPRESENTATION_ITEM('Steel','Steel');
#392=PROPERTY_DEFINITION('material property','material name',#678);
#393=PROPERTY_DEFINITION('material property','density of part',#678);
#394=AXIS2_PLACEMENT_3D('',#558,#438,#439);
#395=AXIS2_PLACEMENT_3D('',#559,#440,#441);
#396=AXIS2_PLACEMENT_3D('',#562,#442,#443);
#397=AXIS2_PLACEMENT_3D('',#564,#444,#445);
#398=AXIS2_PLACEMENT_3D('',#566,#446,#447);
#399=AXIS2_PLACEMENT_3D('',#567,#448,#449);
#400=AXIS2_PLACEMENT_3D('',#568,#450,#451);
#401=AXIS2_PLACEMENT_3D('',#571,#452,#453);
#402=AXIS2_PLACEMENT_3D('',#574,#456,#457);
#403=AXIS2_PLACEMENT_3D('',#577,#458,#459);
#404=AXIS2_PLACEMENT_3D('',#578,#460,#461);
#405=AXIS2_PLACEMENT_3D('',#579,#462,#463);
#406=AXIS2_PLACEMENT_3D('',#580,#464,#465);
#407=AXIS2_PLACEMENT_3D('',#583,#466,#467);
#408=AXIS2_PLACEMENT_3D('',#586,#470,#471);
#409=AXIS2_PLACEMENT_3D('',#589,#472,#473);
#410=AXIS2_PLACEMENT_3D('',#590,#474,#475);
#411=AXIS2_PLACEMENT_3D('',#591,#476,#477);
#412=AXIS2_PLACEMENT_3D('',#592,#478,#479);
#413=AXIS2_PLACEMENT_3D('',#595,#480,#481);
#414=AXIS2_PLACEMENT_3D('',#598,#484,#485);
#415=AXIS2_PLACEMENT_3D('',#601,#486,#487);
#416=AXIS2_PLACEMENT_3D('',#602,#488,#489);
#417=AXIS2_PLACEMENT_3D('',#603,#490,#491);
#418=AXIS2_PLACEMENT_3D('',#604,#492,#493);
#419=AXIS2_PLACEMENT_3D('',#607,#496,#497);
#420=AXIS2_PLACEMENT_3D('',#613,#501,#502);
#421=AXIS2_PLACEMENT_3D('',#616,#504,#505);
#422=AXIS2_PLACEMENT_3D('',#617,#506,#507);
#423=AXIS2_PLACEMENT_3D('',#621,#510,#511);
#424=AXIS2_PLACEMENT_3D('',#624,#513,#514);
#425=AXIS2_PLACEMENT_3D('',#625,#515,#516);
#426=AXIS2_PLACEMENT_3D('',#626,#517,#518);
#427=AXIS2_PLACEMENT_3D('',#635,#523,#524);
#428=AXIS2_PLACEMENT_3D('',#637,#525,#526);
#429=AXIS2_PLACEMENT_3D('',#639,#528,#529);
#430=AXIS2_PLACEMENT_3D('',#645,#533,#534);
#431=AXIS2_PLACEMENT_3D('',#649,#537,#538);
#432=AXIS2_PLACEMENT_3D('',#653,#540,#541);
#433=AXIS2_PLACEMENT_3D('',#658,#545,#546);
#434=AXIS2_PLACEMENT_3D('',#660,#548,#549);
#435=AXIS2_PLACEMENT_3D('',#661,#550,#551);
#436=AXIS2_PLACEMENT_3D('',#663,#553,#554);
#437=AXIS2_PLACEMENT_3D('',#665,#556,#557);
#438=DIRECTION('axis',(0.,0.,1.));
#439=DIRECTION('refdir',(1.,0.,0.));
#440=DIRECTION('center_axis',(0.,0.,-1.));
#441=DIRECTION('ref_axis',(-1.,0.,0.));
#442=DIRECTION('center_axis',(0.,-1.,0.));
#443=DIRECTION('ref_axis',(0.,0.,-1.));
#444=DIRECTION('center_axis',(0.,0.,-1.));
#445=DIRECTION('ref_axis',(0.707106781186548,-0.707106781186547,0.));
#446=DIRECTION('center_axis',(1.,0.,0.));
#447=DIRECTION('ref_axis',(0.,-1.,0.));
#448=DIRECTION('center_axis',(0.,0.,1.));
#449=DIRECTION('ref_axis',(0.707106781186548,-0.707106781186547,0.));
#450=DIRECTION('center_axis',(-1.,0.,0.));
#451=DIRECTION('ref_axis',(0.,-0.707106781186549,-0.707106781186546));
#452=DIRECTION('center_axis',(1.,0.,0.));
#453=DIRECTION('ref_axis',(0.,-1.,0.));
#454=DIRECTION('',(1.,0.,0.));
#455=DIRECTION('',(-1.,0.,0.));
#456=DIRECTION('center_axis',(0.,0.,-1.));
#457=DIRECTION('ref_axis',(-1.,0.,0.));
#458=DIRECTION('center_axis',(0.,-1.,0.));
#459=DIRECTION('ref_axis',(-1.,0.,0.));
#460=DIRECTION('center_axis',(0.,0.,1.));
#461=DIRECTION('ref_axis',(-0.707106781186547,-0.707106781186548,0.));
#462=DIRECTION('center_axis',(0.,0.,-1.));
#463=DIRECTION('ref_axis',(-0.707106781186547,-0.707106781186548,0.));
#464=DIRECTION('center_axis',(0.,1.,0.));
#465=DIRECTION('ref_axis',(-0.707106781186548,0.,-0.707106781186548));
#466=DIRECTION('center_axis',(0.,-1.,0.));
#467=DIRECTION('ref_axis',(-1.,0.,0.));
#468=DIRECTION('',(0.,-1.,0.));
#469=DIRECTION('',(0.,1.,0.));
#470=DIRECTION('center_axis',(0.,0.,-1.));
#471=DIRECTION('ref_axis',(-1.,0.,0.));
#472=DIRECTION('center_axis',(-1.,0.,0.));
#473=DIRECTION('ref_axis',(0.,1.,0.));
#474=DIRECTION('center_axis',(0.,0.,1.));
#475=DIRECTION('ref_axis',(-0.707106781186548,0.707106781186547,0.));
#476=DIRECTION('center_axis',(0.,0.,-1.));
#477=DIRECTION('ref_axis',(-0.707106781186548,0.707106781186547,0.));
#478=DIRECTION('center_axis',(1.,0.,0.));
#479=DIRECTION('ref_axis',(0.,0.707106781186549,-0.707106781186546));
#480=DIRECTION('center_axis',(-1.,0.,0.));
#481=DIRECTION('ref_axis',(0.,1.,0.));
#482=DIRECTION('',(-1.,0.,0.));
#483=DIRECTION('',(1.,0.,0.));
#484=DIRECTION('center_axis',(0.,0.,-1.));
#485=DIRECTION('ref_axis',(-1.,0.,0.));
#486=DIRECTION('center_axis',(0.,1.,0.));
#487=DIRECTION('ref_axis',(1.,0.,0.));
#488=DIRECTION('center_axis',(0.,0.,1.));
#489=DIRECTION('ref_axis',(0.707106781186548,0.707106781186547,0.));
#490=DIRECTION('center_axis',(0.,0.,-1.));
#491=DIRECTION('ref_axis',(0.707106781186548,0.707106781186547,0.));
#492=DIRECTION('center_axis',(0.,-1.,0.));
#493=DIRECTION('ref_axis',(0.707106781186548,0.,-0.707106781186548));
#494=DIRECTION('',(0.,1.,0.));
#495=DIRECTION('',(0.,-1.,0.));
#496=DIRECTION('center_axis',(-1.,0.,0.));
#497=DIRECTION('ref_axis',(0.,1.,0.));
#498=DIRECTION('',(0.,0.,-1.));
#499=DIRECTION('',(0.,-1.,0.));
#500=DIRECTION('',(0.,0.,-1.));
#501=DIRECTION('center_axis',(0.,0.,-1.));
#502=DIRECTION('ref_axis',(0.,-1.,0.));
#503=DIRECTION('',(0.,0.,-1.));
#504=DIRECTION('center_axis',(0.,0.,1.));
#505=DIRECTION('ref_axis',(0.,-1.,0.));
#506=DIRECTION('center_axis',(0.,-1.,0.));
#507=DIRECTION('ref_axis',(-1.,0.,0.));
#508=DIRECTION('',(0.,0.,-1.));
#509=DIRECTION('',(1.,0.,0.));
#510=DIRECTION('center_axis',(0.,0.,-1.));
#511=DIRECTION('ref_axis',(1.,-3.70074341541719E-16,0.));
#512=DIRECTION('',(0.,0.,1.));
#513=DIRECTION('center_axis',(0.,0.,1.));
#514=DIRECTION('ref_axis',(1.,-3.70074341541719E-16,0.));
#515=DIRECTION('center_axis',(0.,0.,-1.));
#516=DIRECTION('ref_axis',(-1.,0.,0.));
#517=DIRECTION('center_axis',(0.,0.,-1.));
#518=DIRECTION('ref_axis',(-1.,0.,0.));
#519=DIRECTION('',(0.,-1.,0.));
#520=DIRECTION('',(1.,0.,0.));
#521=DIRECTION('',(0.,1.,0.));
#522=DIRECTION('',(-1.,0.,0.));
#523=DIRECTION('center_axis',(0.,0.,-1.));
#524=DIRECTION('ref_axis',(-1.,0.,0.));
#525=DIRECTION('center_axis',(0.,0.,1.));
#526=DIRECTION('ref_axis',(-1.,0.,0.));
#527=DIRECTION('',(0.,0.,-1.));
#528=DIRECTION('center_axis',(1.,0.,0.));
#529=DIRECTION('ref_axis',(0.,-1.,0.));
#530=DIRECTION('',(0.,0.,-1.));
#531=DIRECTION('',(0.,1.,0.));
#532=DIRECTION('',(0.,0.,-1.));
#533=DIRECTION('center_axis',(0.,-1.,0.));
#534=DIRECTION('ref_axis',(-1.,0.,0.));
#535=DIRECTION('',(0.,0.,1.));
#536=DIRECTION('',(1.,0.,0.));
#537=DIRECTION('center_axis',(0.,0.,-1.));
#538=DIRECTION('ref_axis',(-1.,0.,0.));
#539=DIRECTION('',(0.,1.,0.));
#540=DIRECTION('center_axis',(0.,0.,1.));
#541=DIRECTION('ref_axis',(0.,1.,0.));
#542=DIRECTION('',(-1.,0.,0.));
#543=DIRECTION('',(0.,-1.,0.));
#544=DIRECTION('',(-1.,0.,0.));
#545=DIRECTION('center_axis',(-1.,0.,0.));
#546=DIRECTION('ref_axis',(0.,1.,0.));
#547=DIRECTION('',(0.,0.,-1.));
#548=DIRECTION('center_axis',(0.,1.,0.));
#549=DIRECTION('ref_axis',(1.,0.,0.));
#550=DIRECTION('center_axis',(1.,0.,0.));
#551=DIRECTION('ref_axis',(0.,-1.,0.));
#552=DIRECTION('',(0.,0.,-1.));
#553=DIRECTION('center_axis',(0.,0.,-1.));
#554=DIRECTION('ref_axis',(0.,1.,0.));
#555=DIRECTION('',(0.,0.,-1.));
#556=DIRECTION('center_axis',(0.,1.,0.));
#557=DIRECTION('ref_axis',(1.,0.,0.));
#558=CARTESIAN_POINT('',(0.,0.,0.));
#559=CARTESIAN_POINT('Origin',(-14.9846641534574,4.50000004470348,-39.0122));
#560=CARTESIAN_POINT('',(-13.9846641534574,4.50000004470348,-39.5122));
#561=CARTESIAN_POINT('',(-13.4846641534574,4.50000004470348,-39.0122));
#562=CARTESIAN_POINT('Origin',(-13.9846641534574,4.50000004470348,-39.0122));
#563=CARTESIAN_POINT('',(-14.9846641534574,3.00000004470349,-39.0122));
#564=CARTESIAN_POINT('Origin',(-14.9846641534574,4.50000004470348,-39.0122));
#565=CARTESIAN_POINT('',(-14.9846641534574,3.50000004470349,-39.5122));
#566=CARTESIAN_POINT('Origin',(-14.9846641534574,3.50000004470349,-39.0122));
#567=CARTESIAN_POINT('Origin',(-14.9846641534574,4.50000004470348,-39.5122));
#568=CARTESIAN_POINT('Origin',(-16.2384981951868,3.50000004470349,-39.0122));
#569=CARTESIAN_POINT('',(-20.000000320375,3.00000004470349,-39.0122));
#570=CARTESIAN_POINT('',(-20.000000320375,3.50000004470349,-39.5122));
#571=CARTESIAN_POINT('Origin',(-20.000000320375,3.50000004470349,-39.0122));
#572=CARTESIAN_POINT('',(-16.2384981951868,3.50000004470349,-39.5122));
#573=CARTESIAN_POINT('',(-16.2384981951868,3.00000004470349,-39.0122));
#574=CARTESIAN_POINT('Origin',(-20.000000320375,4.50000004470348,-39.0122));
#575=CARTESIAN_POINT('',(-21.500000320375,4.50000004470348,-39.0122));
#576=CARTESIAN_POINT('',(-21.000000320375,4.50000004470348,-39.5122));
#577=CARTESIAN_POINT('Origin',(-21.000000320375,4.50000004470348,-39.0122));
#578=CARTESIAN_POINT('Origin',(-20.000000320375,4.50000004470348,-39.5122));
#579=CARTESIAN_POINT('Origin',(-20.000000320375,4.50000004470348,-39.0122));
#580=CARTESIAN_POINT('Origin',(-21.000000320375,5.07580937901551,-39.0122));
#581=CARTESIAN_POINT('',(-21.500000320375,6.80323738195156,-39.0122));
#582=CARTESIAN_POINT('',(-21.000000320375,6.80323738195156,-39.5122));
#583=CARTESIAN_POINT('Origin',(-21.000000320375,6.80323738195156,-39.0122));
#584=CARTESIAN_POINT('',(-21.000000320375,5.07580937901551,-39.5122));
#585=CARTESIAN_POINT('',(-21.500000320375,5.07580937901551,-39.0122));
#586=CARTESIAN_POINT('Origin',(-20.000000320375,6.80323738195156,-39.0122));
#587=CARTESIAN_POINT('',(-20.000000320375,8.30323738195157,-39.0122));
#588=CARTESIAN_POINT('',(-20.000000320375,7.80323738195157,-39.5122));
#589=CARTESIAN_POINT('Origin',(-20.000000320375,7.80323738195157,-39.0122));
#590=CARTESIAN_POINT('Origin',(-20.000000320375,6.80323738195156,-39.5122));
#591=CARTESIAN_POINT('Origin',(-20.000000320375,6.80323738195156,-39.0122));
#592=CARTESIAN_POINT('Origin',(-18.7461662786456,7.80323738195157,-39.0122));
#593=CARTESIAN_POINT('',(-14.9846641534574,8.30323738195157,-39.0122));
#594=CARTESIAN_POINT('',(-14.9846641534574,7.80323738195157,-39.5122));
#595=CARTESIAN_POINT('Origin',(-14.9846641534574,7.80323738195157,-39.0122));
#596=CARTESIAN_POINT('',(-18.7461662786456,7.80323738195157,-39.5122));
#597=CARTESIAN_POINT('',(-18.7461662786456,8.30323738195157,-39.0122));
#598=CARTESIAN_POINT('Origin',(-14.9846641534574,6.80323738195157,-39.0122));
#599=CARTESIAN_POINT('',(-13.4846641534574,6.80323738195157,-39.0122));
#600=CARTESIAN_POINT('',(-13.9846641534574,6.80323738195157,-39.5122));
#601=CARTESIAN_POINT('Origin',(-13.9846641534574,6.80323738195157,-39.0122));
#602=CARTESIAN_POINT('Origin',(-14.9846641534574,6.80323738195157,-39.5122));
#603=CARTESIAN_POINT('Origin',(-14.9846641534574,6.80323738195157,-39.0122));
#604=CARTESIAN_POINT('Origin',(-13.9846641534574,6.22742804763955,-39.0122));
#605=CARTESIAN_POINT('',(-13.9846641534574,6.22742804763955,-39.5122));
#606=CARTESIAN_POINT('',(-13.4846641534574,6.22742804763955,-39.0122));
#607=CARTESIAN_POINT('Origin',(-21.500000320375,4.50000004470348,-37.5122));
#608=CARTESIAN_POINT('',(-21.500000320375,4.50000004470348,-35.4122));
#609=CARTESIAN_POINT('',(-21.500000320375,4.50000004470348,-37.5122));
#610=CARTESIAN_POINT('',(-21.500000320375,6.80323738195156,-35.4122));
#611=CARTESIAN_POINT('',(-21.500000320375,6.80323738195156,-35.4122));
#612=CARTESIAN_POINT('',(-21.500000320375,6.80323738195156,-37.5122));
#613=CARTESIAN_POINT('Origin',(-20.000000320375,4.50000004470348,-37.5122));
#614=CARTESIAN_POINT('',(-20.000000320375,3.00000004470349,-35.4122));
#615=CARTESIAN_POINT('',(-20.000000320375,3.00000004470349,-37.5122));
#616=CARTESIAN_POINT('Origin',(-20.000000320375,4.50000004470348,-35.4122));
#617=CARTESIAN_POINT('Origin',(-14.9846641534574,3.00000004470349,-37.5122));
#618=CARTESIAN_POINT('',(-14.9846641534574,3.00000004470349,-35.4122));
#619=CARTESIAN_POINT('',(-14.9846641534574,3.00000004470349,-37.5122));
#620=CARTESIAN_POINT('',(-20.000000320375,3.00000004470349,-35.4122));
#621=CARTESIAN_POINT('Origin',(-14.9846641534574,4.50000004470348,-37.5122));
#622=CARTESIAN_POINT('',(-13.4846641534574,4.50000004470348,-35.4122));
#623=CARTESIAN_POINT('',(-13.4846641534574,4.50000004470348,-37.5122));
#624=CARTESIAN_POINT('Origin',(-14.9846641534574,4.50000004470348,-35.4122));
#625=CARTESIAN_POINT('Origin',(-17.4923322369162,5.65161871332753,-39.5122));
#626=CARTESIAN_POINT('Origin',(-17.4923322369162,5.65161871332753,-37.5122));
#627=CARTESIAN_POINT('',(-16.101041,6.89500000000002,-37.5122));
#628=CARTESIAN_POINT('',(-16.101041,4.29500000000002,-37.5122));
#629=CARTESIAN_POINT('',(-16.101041,4.97330935666377,-37.5122));
#630=CARTESIAN_POINT('',(-18.701041,6.89500000000002,-37.5122));
#631=CARTESIAN_POINT('',(-16.7966866184581,6.89500000000002,-37.5122));
#632=CARTESIAN_POINT('',(-18.701041,4.29500000000002,-37.5122));
#633=CARTESIAN_POINT('',(-18.701041,6.27330935666377,-37.5122));
#634=CARTESIAN_POINT('',(-18.0966866184581,4.29500000000002,-37.5122));
#635=CARTESIAN_POINT('Origin',(-20.000000320375,6.80323738195156,-37.5122));
#636=CARTESIAN_POINT('',(-20.000000320375,8.30323738195157,-35.4122));
#637=CARTESIAN_POINT('Origin',(-20.000000320375,6.80323738195156,-35.4122));
#638=CARTESIAN_POINT('',(-20.000000320375,8.30323738195157,-37.5122));
#639=CARTESIAN_POINT('Origin',(-18.701041,6.89500000000002,-37.5122));
#640=CARTESIAN_POINT('',(-18.701041,6.89500000000002,-35.4122));
#641=CARTESIAN_POINT('',(-18.701041,6.89500000000002,-37.5122));
#642=CARTESIAN_POINT('',(-18.701041,4.29500000000002,-35.4122));
#643=CARTESIAN_POINT('',(-18.701041,6.89500000000002,-35.4122));
#644=CARTESIAN_POINT('',(-18.701041,4.29500000000002,-37.5122));
#645=CARTESIAN_POINT('Origin',(-16.101041,6.89500000000002,-37.5122));
#646=CARTESIAN_POINT('',(-16.101041,6.89500000000002,-35.4122));
#647=CARTESIAN_POINT('',(-16.101041,6.89500000000002,-37.5122));
#648=CARTESIAN_POINT('',(-16.101041,6.89500000000002,-35.4122));
#649=CARTESIAN_POINT('Origin',(-17.4923322369162,5.65161871332753,-35.4122));
#650=CARTESIAN_POINT('',(-13.4846641534574,6.80323738195157,-35.4122));
#651=CARTESIAN_POINT('',(-13.4846641534574,4.50000004470348,-35.4122));
#652=CARTESIAN_POINT('',(-14.9846641534574,8.30323738195157,-35.4122));
#653=CARTESIAN_POINT('Origin',(-14.9846641534574,6.80323738195157,-35.4122));
#654=CARTESIAN_POINT('',(-14.9846641534574,8.30323738195157,-35.4122));
#655=CARTESIAN_POINT('',(-16.101041,4.29500000000002,-35.4122));
#656=CARTESIAN_POINT('',(-16.101041,4.29500000000002,-35.4122));
#657=CARTESIAN_POINT('',(-18.701041,4.29500000000002,-35.4122));
#658=CARTESIAN_POINT('Origin',(-16.101041,4.29500000000002,-37.5122));
#659=CARTESIAN_POINT('',(-16.101041,4.29500000000002,-37.5122));
#660=CARTESIAN_POINT('Origin',(-18.701041,4.29500000000002,-37.5122));
#661=CARTESIAN_POINT('Origin',(-13.4846641534574,6.80323738195157,-37.5122));
#662=CARTESIAN_POINT('',(-13.4846641534574,6.80323738195157,-37.5122));
#663=CARTESIAN_POINT('Origin',(-14.9846641534574,6.80323738195157,-37.5122));
#664=CARTESIAN_POINT('',(-14.9846641534574,8.30323738195157,-37.5122));
#665=CARTESIAN_POINT('Origin',(-20.000000320375,8.30323738195157,-37.5122));
#666=UNCERTAINTY_MEASURE_WITH_UNIT(LENGTH_MEASURE(0.01),#670,
'DISTANCE_ACCURACY_VALUE',
'Maximum model space distance between geometric entities at asserted c
onnectivities');
#667=UNCERTAINTY_MEASURE_WITH_UNIT(LENGTH_MEASURE(0.01),#670,
'DISTANCE_ACCURACY_VALUE',
'Maximum model space distance between geometric entities at asserted c
onnectivities');
#668=(
GEOMETRIC_REPRESENTATION_CONTEXT(3)
GLOBAL_UNCERTAINTY_ASSIGNED_CONTEXT((#666))
GLOBAL_UNIT_ASSIGNED_CONTEXT((#670,#672,#673))
REPRESENTATION_CONTEXT('','3D')
);
#669=(
GEOMETRIC_REPRESENTATION_CONTEXT(3)
GLOBAL_UNCERTAINTY_ASSIGNED_CONTEXT((#667))
GLOBAL_UNIT_ASSIGNED_CONTEXT((#670,#672,#673))
REPRESENTATION_CONTEXT('','3D')
);
#670=(
LENGTH_UNIT()
NAMED_UNIT(*)
SI_UNIT(.MILLI.,.METRE.)
);
#671=(
LENGTH_UNIT()
NAMED_UNIT(*)
SI_UNIT($,.METRE.)
);
#672=(
NAMED_UNIT(*)
PLANE_ANGLE_UNIT()
SI_UNIT($,.RADIAN.)
);
#673=(
NAMED_UNIT(*)
SI_UNIT($,.STERADIAN.)
SOLID_ANGLE_UNIT()
);
#674=SHAPE_DEFINITION_REPRESENTATION(#675,#676);
#675=PRODUCT_DEFINITION_SHAPE('',$,#678);
#676=SHAPE_REPRESENTATION('',(#394),#668);
#677=PRODUCT_DEFINITION_CONTEXT('part definition',#682,'design');
#678=PRODUCT_DEFINITION('2026-09-01-18-10-41-557','TEMP_STEP_EXPORT',#679,
#677);
#679=PRODUCT_DEFINITION_FORMATION('',$,#684);
#680=PRODUCT_RELATED_PRODUCT_CATEGORY('TEMP_STEP_EXPORT',
'TEMP_STEP_EXPORT',(#684));
#681=APPLICATION_PROTOCOL_DEFINITION('international standard',
'automotive_design',2009,#682);
#682=APPLICATION_CONTEXT(
'Core Data for Automotive Mechanical Design Process');
#683=PRODUCT_CONTEXT('part definition',#682,'mechanical');
#684=PRODUCT('2026-09-01-18-10-41-557','TEMP_STEP_EXPORT',$,(#683));
#685=PRESENTATION_STYLE_ASSIGNMENT((#686));
#686=SURFACE_STYLE_USAGE(.BOTH.,#687);
#687=SURFACE_SIDE_STYLE('',(#688));
#688=SURFACE_STYLE_FILL_AREA(#689);
#689=FILL_AREA_STYLE('Steel - Satin',(#690));
#690=FILL_AREA_STYLE_COLOUR('Steel - Satin',#691);
#691=COLOUR_RGB('Steel - Satin',0.627450980392157,0.627450980392157,0.627450980392157);
ENDSEC;
END-ISO-10303-21;
