ISO-10303-21;
HEADER;
/* Generated by software containing ST-Developer
 * from STEP Tools, Inc. (www.steptools.com) 
 */

FILE_DESCRIPTION(
/* description */ (''),
/* implementation_level */ '2;1');

FILE_NAME(
/* name */ 'slide-switch.step',
/* time_stamp */ '2026-09-01T18:10:35+05:30',
/* author */ (''),
/* organization */ (''),
/* preprocessor_version */ 'ST-DEVELOPER v20.1',
/* originating_system */ 'Autodesk Translation Framework v15.8.0.0',
/* authorisation */ '');

FILE_SCHEMA (('AUTOMOTIVE_DESIGN { 1 0 10303 214 3 1 1 }'));
ENDSEC;

DATA;
#10=MECHANICAL_DESIGN_GEOMETRIC_PRESENTATION_REPRESENTATION('',(#13),#785);
#11=SHAPE_REPRESENTATION_RELATIONSHIP('SRR','None',#792,#12);
#12=ADVANCED_BREP_SHAPE_REPRESENTATION('',(#14),#784);
#13=STYLED_ITEM('',(#801),#14);
#14=MANIFOLD_SOLID_BREP('Slide SWitch',#477);
#15=PLANE('',#494);
#16=PLANE('',#495);
#17=PLANE('',#501);
#18=PLANE('',#504);
#19=PLANE('',#507);
#20=PLANE('',#508);
#21=PLANE('',#509);
#22=PLANE('',#510);
#23=PLANE('',#511);
#24=PLANE('',#512);
#25=PLANE('',#513);
#26=PLANE('',#514);
#27=PLANE('',#515);
#28=PLANE('',#516);
#29=PLANE('',#517);
#30=PLANE('',#518);
#31=PLANE('',#519);
#32=PLANE('',#520);
#33=PLANE('',#521);
#34=PLANE('',#522);
#35=FACE_OUTER_BOUND('',#59,.T.);
#36=FACE_OUTER_BOUND('',#60,.T.);
#37=FACE_OUTER_BOUND('',#61,.T.);
#38=FACE_OUTER_BOUND('',#62,.T.);
#39=FACE_OUTER_BOUND('',#63,.T.);
#40=FACE_OUTER_BOUND('',#64,.T.);
#41=FACE_OUTER_BOUND('',#65,.T.);
#42=FACE_OUTER_BOUND('',#66,.T.);
#43=FACE_OUTER_BOUND('',#67,.T.);
#44=FACE_OUTER_BOUND('',#68,.T.);
#45=FACE_OUTER_BOUND('',#69,.T.);
#46=FACE_OUTER_BOUND('',#70,.T.);
#47=FACE_OUTER_BOUND('',#71,.T.);
#48=FACE_OUTER_BOUND('',#72,.T.);
#49=FACE_OUTER_BOUND('',#73,.T.);
#50=FACE_OUTER_BOUND('',#74,.T.);
#51=FACE_OUTER_BOUND('',#75,.T.);
#52=FACE_OUTER_BOUND('',#76,.T.);
#53=FACE_OUTER_BOUND('',#77,.T.);
#54=FACE_OUTER_BOUND('',#78,.T.);
#55=FACE_OUTER_BOUND('',#79,.T.);
#56=FACE_OUTER_BOUND('',#80,.T.);
#57=FACE_OUTER_BOUND('',#81,.T.);
#58=FACE_OUTER_BOUND('',#82,.T.);
#59=EDGE_LOOP('',(#317,#318,#319,#320));
#60=EDGE_LOOP('',(#321,#322,#323,#324,#325,#326,#327,#328,#329,#330,#331,
#332));
#61=EDGE_LOOP('',(#333,#334,#335,#336,#337,#338,#339,#340));
#62=EDGE_LOOP('',(#341,#342,#343,#344));
#63=EDGE_LOOP('',(#345,#346,#347,#348));
#64=EDGE_LOOP('',(#349,#350,#351,#352));
#65=EDGE_LOOP('',(#353,#354,#355,#356));
#66=EDGE_LOOP('',(#357,#358,#359,#360));
#67=EDGE_LOOP('',(#361,#362,#363,#364));
#68=EDGE_LOOP('',(#365,#366,#367,#368,#369,#370));
#69=EDGE_LOOP('',(#371,#372,#373,#374));
#70=EDGE_LOOP('',(#375,#376,#377,#378));
#71=EDGE_LOOP('',(#379,#380,#381,#382));
#72=EDGE_LOOP('',(#383,#384,#385,#386));
#73=EDGE_LOOP('',(#387,#388,#389,#390));
#74=EDGE_LOOP('',(#391,#392,#393,#394,#395,#396));
#75=EDGE_LOOP('',(#397,#398,#399,#400,#401,#402));
#76=EDGE_LOOP('',(#403,#404,#405,#406,#407,#408));
#77=EDGE_LOOP('',(#409,#410,#411,#412));
#78=EDGE_LOOP('',(#413,#414,#415,#416,#417,#418,#419,#420,#421,#422,#423,
#424,#425,#426,#427,#428));
#79=EDGE_LOOP('',(#429,#430,#431,#432));
#80=EDGE_LOOP('',(#433,#434,#435,#436));
#81=EDGE_LOOP('',(#437,#438,#439,#440));
#82=EDGE_LOOP('',(#441,#442,#443,#444,#445,#446,#447,#448));
#83=LINE('',#653,#141);
#84=LINE('',#656,#142);
#85=LINE('',#659,#143);
#86=LINE('',#661,#144);
#87=LINE('',#663,#145);
#88=LINE('',#665,#146);
#89=LINE('',#667,#147);
#90=LINE('',#669,#148);
#91=LINE('',#671,#149);
#92=LINE('',#673,#150);
#93=LINE('',#675,#151);
#94=LINE('',#677,#152);
#95=LINE('',#678,#153);
#96=LINE('',#681,#154);
#97=LINE('',#685,#155);
#98=LINE('',#689,#156);
#99=LINE('',#693,#157);
#100=LINE('',#697,#158);
#101=LINE('',#698,#159);
#102=LINE('',#702,#160);
#103=LINE('',#705,#161);
#104=LINE('',#706,#162);
#105=LINE('',#709,#163);
#106=LINE('',#712,#164);
#107=LINE('',#716,#165);
#108=LINE('',#718,#166);
#109=LINE('',#720,#167);
#110=LINE('',#722,#168);
#111=LINE('',#724,#169);
#112=LINE('',#725,#170);
#113=LINE('',#729,#171);
#114=LINE('',#731,#172);
#115=LINE('',#733,#173);
#116=LINE('',#734,#174);
#117=LINE('',#738,#175);
#118=LINE('',#739,#176);
#119=LINE('',#740,#177);
#120=LINE('',#743,#178);
#121=LINE('',#744,#179);
#122=LINE('',#746,#180);
#123=LINE('',#747,#181);
#124=LINE('',#749,#182);
#125=LINE('',#752,#183);
#126=LINE('',#753,#184);
#127=LINE('',#754,#185);
#128=LINE('',#757,#186);
#129=LINE('',#758,#187);
#130=LINE('',#762,#188);
#131=LINE('',#763,#189);
#132=LINE('',#764,#190);
#133=LINE('',#766,#191);
#134=LINE('',#769,#192);
#135=LINE('',#771,#193);
#136=LINE('',#772,#194);
#137=LINE('',#775,#195);
#138=LINE('',#776,#196);
#139=LINE('',#778,#197);
#140=LINE('',#780,#198);
#141=VECTOR('',#529,10.);
#142=VECTOR('',#532,10.);
#143=VECTOR('',#535,10.);
#144=VECTOR('',#536,10.);
#145=VECTOR('',#537,10.);
#146=VECTOR('',#538,10.);
#147=VECTOR('',#539,10.);
#148=VECTOR('',#540,10.);
#149=VECTOR('',#541,10.);
#150=VECTOR('',#542,10.);
#151=VECTOR('',#543,10.);
#152=VECTOR('',#544,10.);
#153=VECTOR('',#545,10.);
#154=VECTOR('',#548,10.);
#155=VECTOR('',#551,10.);
#156=VECTOR('',#554,10.);
#157=VECTOR('',#559,10.);
#158=VECTOR('',#564,10.);
#159=VECTOR('',#565,10.);
#160=VECTOR('',#570,10.);
#161=VECTOR('',#573,10.);
#162=VECTOR('',#574,10.);
#163=VECTOR('',#577,10.);
#164=VECTOR('',#582,10.);
#165=VECTOR('',#585,10.);
#166=VECTOR('',#586,10.);
#167=VECTOR('',#587,10.);
#168=VECTOR('',#588,10.);
#169=VECTOR('',#589,10.);
#170=VECTOR('',#590,10.);
#171=VECTOR('',#593,10.);
#172=VECTOR('',#594,10.);
#173=VECTOR('',#595,10.);
#174=VECTOR('',#596,10.);
#175=VECTOR('',#599,10.);
#176=VECTOR('',#600,10.);
#177=VECTOR('',#601,10.);
#178=VECTOR('',#604,10.);
#179=VECTOR('',#605,10.);
#180=VECTOR('',#608,10.);
#181=VECTOR('',#609,10.);
#182=VECTOR('',#612,10.);
#183=VECTOR('',#615,10.);
#184=VECTOR('',#616,10.);
#185=VECTOR('',#617,10.);
#186=VECTOR('',#620,10.);
#187=VECTOR('',#621,10.);
#188=VECTOR('',#624,10.);
#189=VECTOR('',#625,10.);
#190=VECTOR('',#626,10.);
#191=VECTOR('',#629,10.);
#192=VECTOR('',#632,10.);
#193=VECTOR('',#633,10.);
#194=VECTOR('',#634,10.);
#195=VECTOR('',#637,10.);
#196=VECTOR('',#638,10.);
#197=VECTOR('',#641,10.);
#198=VECTOR('',#644,10.);
#199=CIRCLE('',#492,0.5);
#200=CIRCLE('',#493,0.5);
#201=CIRCLE('',#496,3.5);
#202=CIRCLE('',#497,3.5);
#203=CIRCLE('',#498,0.5);
#204=CIRCLE('',#500,0.5);
#205=CIRCLE('',#503,3.5);
#206=CIRCLE('',#506,3.5);
#207=VERTEX_POINT('',#649);
#208=VERTEX_POINT('',#650);
#209=VERTEX_POINT('',#652);
#210=VERTEX_POINT('',#654);
#211=VERTEX_POINT('',#658);
#212=VERTEX_POINT('',#660);
#213=VERTEX_POINT('',#662);
#214=VERTEX_POINT('',#664);
#215=VERTEX_POINT('',#666);
#216=VERTEX_POINT('',#668);
#217=VERTEX_POINT('',#670);
#218=VERTEX_POINT('',#672);
#219=VERTEX_POINT('',#674);
#220=VERTEX_POINT('',#676);
#221=VERTEX_POINT('',#680);
#222=VERTEX_POINT('',#682);
#223=VERTEX_POINT('',#684);
#224=VERTEX_POINT('',#686);
#225=VERTEX_POINT('',#688);
#226=VERTEX_POINT('',#692);
#227=VERTEX_POINT('',#696);
#228=VERTEX_POINT('',#700);
#229=VERTEX_POINT('',#704);
#230=VERTEX_POINT('',#708);
#231=VERTEX_POINT('',#714);
#232=VERTEX_POINT('',#715);
#233=VERTEX_POINT('',#717);
#234=VERTEX_POINT('',#719);
#235=VERTEX_POINT('',#721);
#236=VERTEX_POINT('',#723);
#237=VERTEX_POINT('',#727);
#238=VERTEX_POINT('',#728);
#239=VERTEX_POINT('',#730);
#240=VERTEX_POINT('',#732);
#241=VERTEX_POINT('',#736);
#242=VERTEX_POINT('',#737);
#243=VERTEX_POINT('',#742);
#244=VERTEX_POINT('',#751);
#245=VERTEX_POINT('',#756);
#246=VERTEX_POINT('',#760);
#247=VERTEX_POINT('',#761);
#248=VERTEX_POINT('',#768);
#249=VERTEX_POINT('',#770);
#250=VERTEX_POINT('',#774);
#251=EDGE_CURVE('',#207,#208,#199,.T.);
#252=EDGE_CURVE('',#208,#209,#83,.T.);
#253=EDGE_CURVE('',#209,#210,#200,.T.);
#254=EDGE_CURVE('',#210,#207,#84,.T.);
#255=EDGE_CURVE('',#210,#211,#85,.T.);
#256=EDGE_CURVE('',#212,#211,#86,.T.);
#257=EDGE_CURVE('',#212,#213,#87,.T.);
#258=EDGE_CURVE('',#213,#214,#88,.T.);
#259=EDGE_CURVE('',#214,#215,#89,.T.);
#260=EDGE_CURVE('',#215,#216,#90,.T.);
#261=EDGE_CURVE('',#216,#217,#91,.T.);
#262=EDGE_CURVE('',#217,#218,#92,.T.);
#263=EDGE_CURVE('',#218,#219,#93,.T.);
#264=EDGE_CURVE('',#219,#220,#94,.T.);
#265=EDGE_CURVE('',#220,#207,#95,.T.);
#266=EDGE_CURVE('',#221,#209,#96,.T.);
#267=EDGE_CURVE('',#222,#221,#201,.T.);
#268=EDGE_CURVE('',#222,#223,#97,.T.);
#269=EDGE_CURVE('',#224,#223,#202,.T.);
#270=EDGE_CURVE('',#225,#224,#98,.T.);
#271=EDGE_CURVE('',#211,#225,#203,.T.);
#272=EDGE_CURVE('',#225,#226,#99,.T.);
#273=EDGE_CURVE('',#226,#212,#204,.T.);
#274=EDGE_CURVE('',#227,#224,#100,.T.);
#275=EDGE_CURVE('',#227,#226,#101,.T.);
#276=EDGE_CURVE('',#228,#227,#205,.T.);
#277=EDGE_CURVE('',#223,#228,#102,.T.);
#278=EDGE_CURVE('',#229,#222,#103,.T.);
#279=EDGE_CURVE('',#228,#229,#104,.T.);
#280=EDGE_CURVE('',#221,#230,#105,.T.);
#281=EDGE_CURVE('',#230,#229,#206,.T.);
#282=EDGE_CURVE('',#208,#230,#106,.T.);
#283=EDGE_CURVE('',#231,#232,#107,.T.);
#284=EDGE_CURVE('',#232,#233,#108,.T.);
#285=EDGE_CURVE('',#233,#234,#109,.T.);
#286=EDGE_CURVE('',#234,#235,#110,.T.);
#287=EDGE_CURVE('',#235,#236,#111,.T.);
#288=EDGE_CURVE('',#236,#231,#112,.T.);
#289=EDGE_CURVE('',#237,#238,#113,.T.);
#290=EDGE_CURVE('',#239,#238,#114,.T.);
#291=EDGE_CURVE('',#240,#239,#115,.T.);
#292=EDGE_CURVE('',#237,#240,#116,.T.);
#293=EDGE_CURVE('',#241,#242,#117,.T.);
#294=EDGE_CURVE('',#241,#215,#118,.T.);
#295=EDGE_CURVE('',#242,#214,#119,.T.);
#296=EDGE_CURVE('',#242,#243,#120,.T.);
#297=EDGE_CURVE('',#243,#213,#121,.T.);
#298=EDGE_CURVE('',#220,#231,#122,.T.);
#299=EDGE_CURVE('',#232,#219,#123,.T.);
#300=EDGE_CURVE('',#233,#218,#124,.T.);
#301=EDGE_CURVE('',#243,#244,#125,.T.);
#302=EDGE_CURVE('',#244,#239,#126,.T.);
#303=EDGE_CURVE('',#238,#241,#127,.T.);
#304=EDGE_CURVE('',#245,#237,#128,.T.);
#305=EDGE_CURVE('',#245,#216,#129,.T.);
#306=EDGE_CURVE('',#246,#247,#130,.T.);
#307=EDGE_CURVE('',#234,#247,#131,.T.);
#308=EDGE_CURVE('',#246,#217,#132,.T.);
#309=EDGE_CURVE('',#245,#246,#133,.T.);
#310=EDGE_CURVE('',#248,#236,#134,.T.);
#311=EDGE_CURVE('',#249,#248,#135,.T.);
#312=EDGE_CURVE('',#249,#244,#136,.T.);
#313=EDGE_CURVE('',#248,#250,#137,.T.);
#314=EDGE_CURVE('',#250,#235,#138,.T.);
#315=EDGE_CURVE('',#250,#247,#139,.T.);
#316=EDGE_CURVE('',#240,#249,#140,.T.);
#317=ORIENTED_EDGE('',*,*,#251,.T.);
#318=ORIENTED_EDGE('',*,*,#252,.T.);
#319=ORIENTED_EDGE('',*,*,#253,.T.);
#320=ORIENTED_EDGE('',*,*,#254,.T.);
#321=ORIENTED_EDGE('',*,*,#254,.F.);
#322=ORIENTED_EDGE('',*,*,#255,.T.);
#323=ORIENTED_EDGE('',*,*,#256,.F.);
#324=ORIENTED_EDGE('',*,*,#257,.T.);
#325=ORIENTED_EDGE('',*,*,#258,.T.);
#326=ORIENTED_EDGE('',*,*,#259,.T.);
#327=ORIENTED_EDGE('',*,*,#260,.T.);
#328=ORIENTED_EDGE('',*,*,#261,.T.);
#329=ORIENTED_EDGE('',*,*,#262,.T.);
#330=ORIENTED_EDGE('',*,*,#263,.T.);
#331=ORIENTED_EDGE('',*,*,#264,.T.);
#332=ORIENTED_EDGE('',*,*,#265,.T.);
#333=ORIENTED_EDGE('',*,*,#253,.F.);
#334=ORIENTED_EDGE('',*,*,#266,.F.);
#335=ORIENTED_EDGE('',*,*,#267,.F.);
#336=ORIENTED_EDGE('',*,*,#268,.T.);
#337=ORIENTED_EDGE('',*,*,#269,.F.);
#338=ORIENTED_EDGE('',*,*,#270,.F.);
#339=ORIENTED_EDGE('',*,*,#271,.F.);
#340=ORIENTED_EDGE('',*,*,#255,.F.);
#341=ORIENTED_EDGE('',*,*,#271,.T.);
#342=ORIENTED_EDGE('',*,*,#272,.T.);
#343=ORIENTED_EDGE('',*,*,#273,.T.);
#344=ORIENTED_EDGE('',*,*,#256,.T.);
#345=ORIENTED_EDGE('',*,*,#272,.F.);
#346=ORIENTED_EDGE('',*,*,#270,.T.);
#347=ORIENTED_EDGE('',*,*,#274,.F.);
#348=ORIENTED_EDGE('',*,*,#275,.T.);
#349=ORIENTED_EDGE('',*,*,#276,.T.);
#350=ORIENTED_EDGE('',*,*,#274,.T.);
#351=ORIENTED_EDGE('',*,*,#269,.T.);
#352=ORIENTED_EDGE('',*,*,#277,.T.);
#353=ORIENTED_EDGE('',*,*,#277,.F.);
#354=ORIENTED_EDGE('',*,*,#268,.F.);
#355=ORIENTED_EDGE('',*,*,#278,.F.);
#356=ORIENTED_EDGE('',*,*,#279,.F.);
#357=ORIENTED_EDGE('',*,*,#267,.T.);
#358=ORIENTED_EDGE('',*,*,#280,.T.);
#359=ORIENTED_EDGE('',*,*,#281,.T.);
#360=ORIENTED_EDGE('',*,*,#278,.T.);
#361=ORIENTED_EDGE('',*,*,#252,.F.);
#362=ORIENTED_EDGE('',*,*,#282,.T.);
#363=ORIENTED_EDGE('',*,*,#280,.F.);
#364=ORIENTED_EDGE('',*,*,#266,.T.);
#365=ORIENTED_EDGE('',*,*,#283,.T.);
#366=ORIENTED_EDGE('',*,*,#284,.T.);
#367=ORIENTED_EDGE('',*,*,#285,.T.);
#368=ORIENTED_EDGE('',*,*,#286,.T.);
#369=ORIENTED_EDGE('',*,*,#287,.T.);
#370=ORIENTED_EDGE('',*,*,#288,.T.);
#371=ORIENTED_EDGE('',*,*,#289,.T.);
#372=ORIENTED_EDGE('',*,*,#290,.F.);
#373=ORIENTED_EDGE('',*,*,#291,.F.);
#374=ORIENTED_EDGE('',*,*,#292,.F.);
#375=ORIENTED_EDGE('',*,*,#293,.F.);
#376=ORIENTED_EDGE('',*,*,#294,.T.);
#377=ORIENTED_EDGE('',*,*,#259,.F.);
#378=ORIENTED_EDGE('',*,*,#295,.F.);
#379=ORIENTED_EDGE('',*,*,#296,.F.);
#380=ORIENTED_EDGE('',*,*,#295,.T.);
#381=ORIENTED_EDGE('',*,*,#258,.F.);
#382=ORIENTED_EDGE('',*,*,#297,.F.);
#383=ORIENTED_EDGE('',*,*,#283,.F.);
#384=ORIENTED_EDGE('',*,*,#298,.F.);
#385=ORIENTED_EDGE('',*,*,#264,.F.);
#386=ORIENTED_EDGE('',*,*,#299,.F.);
#387=ORIENTED_EDGE('',*,*,#284,.F.);
#388=ORIENTED_EDGE('',*,*,#299,.T.);
#389=ORIENTED_EDGE('',*,*,#263,.F.);
#390=ORIENTED_EDGE('',*,*,#300,.F.);
#391=ORIENTED_EDGE('',*,*,#296,.T.);
#392=ORIENTED_EDGE('',*,*,#301,.T.);
#393=ORIENTED_EDGE('',*,*,#302,.T.);
#394=ORIENTED_EDGE('',*,*,#290,.T.);
#395=ORIENTED_EDGE('',*,*,#303,.T.);
#396=ORIENTED_EDGE('',*,*,#293,.T.);
#397=ORIENTED_EDGE('',*,*,#304,.F.);
#398=ORIENTED_EDGE('',*,*,#305,.T.);
#399=ORIENTED_EDGE('',*,*,#260,.F.);
#400=ORIENTED_EDGE('',*,*,#294,.F.);
#401=ORIENTED_EDGE('',*,*,#303,.F.);
#402=ORIENTED_EDGE('',*,*,#289,.F.);
#403=ORIENTED_EDGE('',*,*,#306,.T.);
#404=ORIENTED_EDGE('',*,*,#307,.F.);
#405=ORIENTED_EDGE('',*,*,#285,.F.);
#406=ORIENTED_EDGE('',*,*,#300,.T.);
#407=ORIENTED_EDGE('',*,*,#262,.F.);
#408=ORIENTED_EDGE('',*,*,#308,.F.);
#409=ORIENTED_EDGE('',*,*,#309,.T.);
#410=ORIENTED_EDGE('',*,*,#308,.T.);
#411=ORIENTED_EDGE('',*,*,#261,.F.);
#412=ORIENTED_EDGE('',*,*,#305,.F.);
#413=ORIENTED_EDGE('',*,*,#251,.F.);
#414=ORIENTED_EDGE('',*,*,#265,.F.);
#415=ORIENTED_EDGE('',*,*,#298,.T.);
#416=ORIENTED_EDGE('',*,*,#288,.F.);
#417=ORIENTED_EDGE('',*,*,#310,.F.);
#418=ORIENTED_EDGE('',*,*,#311,.F.);
#419=ORIENTED_EDGE('',*,*,#312,.T.);
#420=ORIENTED_EDGE('',*,*,#301,.F.);
#421=ORIENTED_EDGE('',*,*,#297,.T.);
#422=ORIENTED_EDGE('',*,*,#257,.F.);
#423=ORIENTED_EDGE('',*,*,#273,.F.);
#424=ORIENTED_EDGE('',*,*,#275,.F.);
#425=ORIENTED_EDGE('',*,*,#276,.F.);
#426=ORIENTED_EDGE('',*,*,#279,.T.);
#427=ORIENTED_EDGE('',*,*,#281,.F.);
#428=ORIENTED_EDGE('',*,*,#282,.F.);
#429=ORIENTED_EDGE('',*,*,#313,.F.);
#430=ORIENTED_EDGE('',*,*,#310,.T.);
#431=ORIENTED_EDGE('',*,*,#287,.F.);
#432=ORIENTED_EDGE('',*,*,#314,.F.);
#433=ORIENTED_EDGE('',*,*,#307,.T.);
#434=ORIENTED_EDGE('',*,*,#315,.F.);
#435=ORIENTED_EDGE('',*,*,#314,.T.);
#436=ORIENTED_EDGE('',*,*,#286,.F.);
#437=ORIENTED_EDGE('',*,*,#316,.F.);
#438=ORIENTED_EDGE('',*,*,#291,.T.);
#439=ORIENTED_EDGE('',*,*,#302,.F.);
#440=ORIENTED_EDGE('',*,*,#312,.F.);
#441=ORIENTED_EDGE('',*,*,#306,.F.);
#442=ORIENTED_EDGE('',*,*,#309,.F.);
#443=ORIENTED_EDGE('',*,*,#304,.T.);
#444=ORIENTED_EDGE('',*,*,#292,.T.);
#445=ORIENTED_EDGE('',*,*,#316,.T.);
#446=ORIENTED_EDGE('',*,*,#311,.T.);
#447=ORIENTED_EDGE('',*,*,#313,.T.);
#448=ORIENTED_EDGE('',*,*,#315,.T.);
#449=CYLINDRICAL_SURFACE('',#491,0.5);
#450=CYLINDRICAL_SURFACE('',#499,0.5);
#451=CYLINDRICAL_SURFACE('',#502,3.5);
#452=CYLINDRICAL_SURFACE('',#505,3.5);
#453=ADVANCED_FACE('',(#35),#449,.T.);
#454=ADVANCED_FACE('',(#36),#15,.F.);
#455=ADVANCED_FACE('',(#37),#16,.T.);
#456=ADVANCED_FACE('',(#38),#450,.T.);
#457=ADVANCED_FACE('',(#39),#17,.T.);
#458=ADVANCED_FACE('',(#40),#451,.T.);
#459=ADVANCED_FACE('',(#41),#18,.T.);
#460=ADVANCED_FACE('',(#42),#452,.T.);
#461=ADVANCED_FACE('',(#43),#19,.T.);
#462=ADVANCED_FACE('',(#44),#20,.T.);
#463=ADVANCED_FACE('',(#45),#21,.T.);
#464=ADVANCED_FACE('',(#46),#22,.T.);
#465=ADVANCED_FACE('',(#47),#23,.T.);
#466=ADVANCED_FACE('',(#48),#24,.T.);
#467=ADVANCED_FACE('',(#49),#25,.T.);
#468=ADVANCED_FACE('',(#50),#26,.T.);
#469=ADVANCED_FACE('',(#51),#27,.T.);
#470=ADVANCED_FACE('',(#52),#28,.T.);
#471=ADVANCED_FACE('',(#53),#29,.T.);
#472=ADVANCED_FACE('',(#54),#30,.T.);
#473=ADVANCED_FACE('',(#55),#31,.T.);
#474=ADVANCED_FACE('',(#56),#32,.T.);
#475=ADVANCED_FACE('',(#57),#33,.T.);
#476=ADVANCED_FACE('',(#58),#34,.F.);
#477=CLOSED_SHELL('',(#453,#454,#455,#456,#457,#458,#459,#460,#461,#462,
#463,#464,#465,#466,#467,#468,#469,#470,#471,#472,#473,#474,#475,#476));
#478=DERIVED_UNIT_ELEMENT(#480,1.);
#479=DERIVED_UNIT_ELEMENT(#787,-3.);
#480=(
MASS_UNIT()
NAMED_UNIT(*)
SI_UNIT(.KILO.,.GRAM.)
);
#481=DERIVED_UNIT((#478,#479));
#482=MEASURE_REPRESENTATION_ITEM('density measure',
POSITIVE_RATIO_MEASURE(7850.),#481);
#483=PROPERTY_DEFINITION_REPRESENTATION(#488,#485);
#484=PROPERTY_DEFINITION_REPRESENTATION(#489,#486);
#485=REPRESENTATION('material name',(#487),#784);
#486=REPRESENTATION('density',(#482),#784);
#487=DESCRIPTIVE_REPRESENTATION_ITEM('Steel','Steel');
#488=PROPERTY_DEFINITION('material property','material name',#794);
#489=PROPERTY_DEFINITION('material property','density of part',#794);
#490=AXIS2_PLACEMENT_3D('',#647,#523,#524);
#491=AXIS2_PLACEMENT_3D('',#648,#525,#526);
#492=AXIS2_PLACEMENT_3D('',#651,#527,#528);
#493=AXIS2_PLACEMENT_3D('',#655,#530,#531);
#494=AXIS2_PLACEMENT_3D('',#657,#533,#534);
#495=AXIS2_PLACEMENT_3D('',#679,#546,#547);
#496=AXIS2_PLACEMENT_3D('',#683,#549,#550);
#497=AXIS2_PLACEMENT_3D('',#687,#552,#553);
#498=AXIS2_PLACEMENT_3D('',#690,#555,#556);
#499=AXIS2_PLACEMENT_3D('',#691,#557,#558);
#500=AXIS2_PLACEMENT_3D('',#694,#560,#561);
#501=AXIS2_PLACEMENT_3D('',#695,#562,#563);
#502=AXIS2_PLACEMENT_3D('',#699,#566,#567);
#503=AXIS2_PLACEMENT_3D('',#701,#568,#569);
#504=AXIS2_PLACEMENT_3D('',#703,#571,#572);
#505=AXIS2_PLACEMENT_3D('',#707,#575,#576);
#506=AXIS2_PLACEMENT_3D('',#710,#578,#579);
#507=AXIS2_PLACEMENT_3D('',#711,#580,#581);
#508=AXIS2_PLACEMENT_3D('',#713,#583,#584);
#509=AXIS2_PLACEMENT_3D('',#726,#591,#592);
#510=AXIS2_PLACEMENT_3D('',#735,#597,#598);
#511=AXIS2_PLACEMENT_3D('',#741,#602,#603);
#512=AXIS2_PLACEMENT_3D('',#745,#606,#607);
#513=AXIS2_PLACEMENT_3D('',#748,#610,#611);
#514=AXIS2_PLACEMENT_3D('',#750,#613,#614);
#515=AXIS2_PLACEMENT_3D('',#755,#618,#619);
#516=AXIS2_PLACEMENT_3D('',#759,#622,#623);
#517=AXIS2_PLACEMENT_3D('',#765,#627,#628);
#518=AXIS2_PLACEMENT_3D('',#767,#630,#631);
#519=AXIS2_PLACEMENT_3D('',#773,#635,#636);
#520=AXIS2_PLACEMENT_3D('',#777,#639,#640);
#521=AXIS2_PLACEMENT_3D('',#779,#642,#643);
#522=AXIS2_PLACEMENT_3D('',#781,#645,#646);
#523=DIRECTION('axis',(0.,0.,1.));
#524=DIRECTION('refdir',(1.,0.,0.));
#525=DIRECTION('center_axis',(0.,-1.,0.));
#526=DIRECTION('ref_axis',(-0.382683432365068,0.,0.923879532511296));
#527=DIRECTION('center_axis',(0.,1.,0.));
#528=DIRECTION('ref_axis',(-0.382683432365068,0.,0.923879532511296));
#529=DIRECTION('',(0.,1.,0.));
#530=DIRECTION('center_axis',(0.,-1.,0.));
#531=DIRECTION('ref_axis',(-0.382683432365068,0.,0.923879532511296));
#532=DIRECTION('',(0.,-1.,0.));
#533=DIRECTION('center_axis',(1.,0.,0.));
#534=DIRECTION('ref_axis',(0.,1.,0.));
#535=DIRECTION('',(0.,0.,-1.));
#536=DIRECTION('',(0.,1.,0.));
#537=DIRECTION('',(0.,0.,1.));
#538=DIRECTION('',(0.,1.,0.));
#539=DIRECTION('',(0.,0.,1.));
#540=DIRECTION('',(0.,-1.,0.));
#541=DIRECTION('',(0.,0.,1.));
#542=DIRECTION('',(0.,1.,0.));
#543=DIRECTION('',(0.,0.,1.));
#544=DIRECTION('',(0.,-1.,0.));
#545=DIRECTION('',(0.,0.,1.));
#546=DIRECTION('center_axis',(0.,1.,0.));
#547=DIRECTION('ref_axis',(0.,0.,1.));
#548=DIRECTION('',(-0.707106781186548,0.,0.707106781186547));
#549=DIRECTION('center_axis',(0.,-1.,0.));
#550=DIRECTION('ref_axis',(0.923879532511287,0.,0.38268343236509));
#551=DIRECTION('',(0.,0.,-1.));
#552=DIRECTION('center_axis',(0.,-1.,0.));
#553=DIRECTION('ref_axis',(0.923879532511286,0.,-0.382683432365091));
#554=DIRECTION('',(0.707106781186548,0.,0.707106781186547));
#555=DIRECTION('center_axis',(0.,-1.,0.));
#556=DIRECTION('ref_axis',(-0.382683432365108,0.,-0.923879532511279));
#557=DIRECTION('center_axis',(0.,1.,0.));
#558=DIRECTION('ref_axis',(-0.382683432365108,0.,-0.923879532511279));
#559=DIRECTION('',(0.,-1.,0.));
#560=DIRECTION('center_axis',(0.,1.,0.));
#561=DIRECTION('ref_axis',(-0.382683432365108,0.,-0.923879532511279));
#562=DIRECTION('center_axis',(0.707106781186547,0.,-0.707106781186548));
#563=DIRECTION('ref_axis',(-0.707106781186548,0.,-0.707106781186547));
#564=DIRECTION('',(0.,1.,0.));
#565=DIRECTION('',(-0.707106781186548,0.,-0.707106781186547));
#566=DIRECTION('center_axis',(0.,-1.,0.));
#567=DIRECTION('ref_axis',(0.923879532511286,0.,-0.382683432365091));
#568=DIRECTION('center_axis',(0.,1.,0.));
#569=DIRECTION('ref_axis',(0.923879532511286,0.,-0.382683432365091));
#570=DIRECTION('',(0.,-1.,0.));
#571=DIRECTION('center_axis',(1.,0.,0.));
#572=DIRECTION('ref_axis',(0.,0.,-1.));
#573=DIRECTION('',(0.,1.,0.));
#574=DIRECTION('',(0.,0.,1.));
#575=DIRECTION('center_axis',(0.,1.,0.));
#576=DIRECTION('ref_axis',(0.923879532511287,0.,0.38268343236509));
#577=DIRECTION('',(0.,-1.,0.));
#578=DIRECTION('center_axis',(0.,1.,0.));
#579=DIRECTION('ref_axis',(0.923879532511287,0.,0.38268343236509));
#580=DIRECTION('center_axis',(0.707106781186547,0.,0.707106781186548));
#581=DIRECTION('ref_axis',(0.707106781186548,0.,-0.707106781186547));
#582=DIRECTION('',(0.707106781186548,0.,-0.707106781186547));
#583=DIRECTION('center_axis',(1.,0.,0.));
#584=DIRECTION('ref_axis',(0.,0.,-1.));
#585=DIRECTION('',(0.,1.,0.));
#586=DIRECTION('',(0.,0.,-1.));
#587=DIRECTION('',(0.,1.,0.));
#588=DIRECTION('',(0.,0.,1.));
#589=DIRECTION('',(0.,-1.,0.));
#590=DIRECTION('',(0.,0.,-1.));
#591=DIRECTION('center_axis',(0.,1.,0.));
#592=DIRECTION('ref_axis',(0.,0.,1.));
#593=DIRECTION('',(1.,0.,0.));
#594=DIRECTION('',(0.,0.,1.));
#595=DIRECTION('',(1.,0.,0.));
#596=DIRECTION('',(0.,0.,-1.));
#597=DIRECTION('center_axis',(0.,1.,0.));
#598=DIRECTION('ref_axis',(0.,0.,1.));
#599=DIRECTION('',(0.,0.,-1.));
#600=DIRECTION('',(1.,0.,0.));
#601=DIRECTION('',(1.,0.,0.));
#602=DIRECTION('center_axis',(0.,0.,-1.));
#603=DIRECTION('ref_axis',(0.,1.,0.));
#604=DIRECTION('',(0.,-1.,0.));
#605=DIRECTION('',(1.,0.,0.));
#606=DIRECTION('center_axis',(0.,0.,1.));
#607=DIRECTION('ref_axis',(0.,-1.,0.));
#608=DIRECTION('',(-1.,0.,0.));
#609=DIRECTION('',(1.,0.,0.));
#610=DIRECTION('center_axis',(0.,1.,0.));
#611=DIRECTION('ref_axis',(0.,0.,1.));
#612=DIRECTION('',(1.,0.,0.));
#613=DIRECTION('center_axis',(1.,0.,0.));
#614=DIRECTION('ref_axis',(0.,0.,-1.));
#615=DIRECTION('',(0.,0.,-1.));
#616=DIRECTION('',(0.,1.,0.));
#617=DIRECTION('',(0.,-1.,0.));
#618=DIRECTION('center_axis',(0.,0.,1.));
#619=DIRECTION('ref_axis',(0.,-1.,0.));
#620=DIRECTION('',(0.,1.,0.));
#621=DIRECTION('',(1.,0.,0.));
#622=DIRECTION('center_axis',(0.,0.,-1.));
#623=DIRECTION('ref_axis',(0.,1.,0.));
#624=DIRECTION('',(0.,1.,0.));
#625=DIRECTION('',(-1.,0.,0.));
#626=DIRECTION('',(1.,0.,0.));
#627=DIRECTION('center_axis',(0.,1.,0.));
#628=DIRECTION('ref_axis',(0.,0.,1.));
#629=DIRECTION('',(0.,0.,1.));
#630=DIRECTION('center_axis',(0.,-1.,0.));
#631=DIRECTION('ref_axis',(0.,0.,-1.));
#632=DIRECTION('',(1.,0.,0.));
#633=DIRECTION('',(0.,0.,1.));
#634=DIRECTION('',(1.,0.,0.));
#635=DIRECTION('center_axis',(0.,0.,1.));
#636=DIRECTION('ref_axis',(0.,-1.,0.));
#637=DIRECTION('',(0.,1.,0.));
#638=DIRECTION('',(1.,0.,0.));
#639=DIRECTION('center_axis',(0.,1.,0.));
#640=DIRECTION('ref_axis',(0.,0.,1.));
#641=DIRECTION('',(0.,0.,-1.));
#642=DIRECTION('center_axis',(0.,0.,-1.));
#643=DIRECTION('ref_axis',(0.,1.,0.));
#644=DIRECTION('',(0.,-1.,0.));
#645=DIRECTION('center_axis',(1.,0.,0.));
#646=DIRECTION('ref_axis',(0.,1.,0.));
#647=CARTESIAN_POINT('',(0.,0.,0.));
#648=CARTESIAN_POINT('Origin',(63.52396,4.63500000000001,-14.2130653565788));
#649=CARTESIAN_POINT('',(63.02396,1.51000000000001,-14.2130653565788));
#650=CARTESIAN_POINT('',(63.8775133905933,1.51000000000001,-13.8595119659855));
#651=CARTESIAN_POINT('Origin',(63.52396,1.51000000000001,-14.2130653565788));
#652=CARTESIAN_POINT('',(63.8775133905933,6.51000000000001,-13.8595119659855));
#653=CARTESIAN_POINT('',(63.8775133905933,4.63500000000001,-13.8595119659855));
#654=CARTESIAN_POINT('',(63.02396,6.51000000000001,-14.2130653565788));
#655=CARTESIAN_POINT('Origin',(63.52396,6.51000000000001,-14.2130653565788));
#656=CARTESIAN_POINT('',(63.02396,4.63500000000001,-14.2130653565788));
#657=CARTESIAN_POINT('Origin',(63.02396,4.01000000000001,-20.0059585753922));
#658=CARTESIAN_POINT('',(63.02396,6.51000000000001,-25.7988517942057));
#659=CARTESIAN_POINT('',(63.02396,6.51000000000001,-25.0059585753922));
#660=CARTESIAN_POINT('',(63.02396,1.51000000000001,-25.7988517942057));
#661=CARTESIAN_POINT('',(63.02396,3.38500000000001,-25.7988517942057));
#662=CARTESIAN_POINT('',(63.02396,1.51000000000001,-20.6619));
#663=CARTESIAN_POINT('',(63.02396,1.51000000000001,-25.0059585753922));
#664=CARTESIAN_POINT('',(63.02396,4.66500000000101,-20.6619));
#665=CARTESIAN_POINT('',(63.02396,3.08750000000001,-20.6619));
#666=CARTESIAN_POINT('',(63.02396,4.66500000000101,-19.8619));
#667=CARTESIAN_POINT('',(63.02396,4.66500000000101,-20.3339292876961));
#668=CARTESIAN_POINT('',(63.02396,2.96500000000001,-19.8619));
#669=CARTESIAN_POINT('',(63.02396,4.33750000000051,-19.8619));
#670=CARTESIAN_POINT('',(63.02396,2.96500000000001,-18.1619));
#671=CARTESIAN_POINT('',(63.02396,2.96500000000001,-19.9339292876961));
#672=CARTESIAN_POINT('',(63.02396,4.66500000000101,-18.1619));
#673=CARTESIAN_POINT('',(63.02396,3.48750000000001,-18.1619));
#674=CARTESIAN_POINT('',(63.02396,4.66500000000101,-17.3619));
#675=CARTESIAN_POINT('',(63.02396,4.66500000000101,-19.0839292876961));
#676=CARTESIAN_POINT('',(63.02396,1.51000000000001,-17.3619));
#677=CARTESIAN_POINT('',(63.02396,3.08750000000001,-17.3619));
#678=CARTESIAN_POINT('',(63.02396,1.51000000000001,-15.0059585753922));
#679=CARTESIAN_POINT('Origin',(63.02396,6.51000000000001,-25.0059585753922));
#680=CARTESIAN_POINT('',(65.9988337341529,6.51000000000001,-15.9808323095451));
#681=CARTESIAN_POINT('',(67.02396,6.51000000000001,-17.0059585753922));
#682=CARTESIAN_POINT('',(67.02396,6.51000000000001,-18.4557060436981));
#683=CARTESIAN_POINT('Origin',(63.52396,6.51000000000001,-18.4557060436981));
#684=CARTESIAN_POINT('',(67.02396,6.51000000000001,-21.5562111070864));
#685=CARTESIAN_POINT('',(67.02396,6.51000000000001,-25.0059585753922));
#686=CARTESIAN_POINT('',(65.9988337341529,6.51000000000001,-24.0310848412393));
#687=CARTESIAN_POINT('Origin',(63.52396,6.51000000000001,-21.5562111070864));
#688=CARTESIAN_POINT('',(63.8775133905933,6.51000000000001,-26.152405184799));
#689=CARTESIAN_POINT('',(64.52396,6.51000000000001,-25.5059585753922));
#690=CARTESIAN_POINT('Origin',(63.52396,6.51000000000001,-25.7988517942057));
#691=CARTESIAN_POINT('Origin',(63.52396,3.38500000000001,-25.7988517942057));
#692=CARTESIAN_POINT('',(63.8775133905933,1.51000000000001,-26.152405184799));
#693=CARTESIAN_POINT('',(63.8775133905933,3.38500000000001,-26.152405184799));
#694=CARTESIAN_POINT('Origin',(63.52396,1.51000000000001,-25.7988517942057));
#695=CARTESIAN_POINT('Origin',(65.02396,2.76000000000001,-25.0059585753922));
#696=CARTESIAN_POINT('',(65.9988337341529,1.51000000000001,-24.0310848412393));
#697=CARTESIAN_POINT('',(65.9988337341529,3.38500000000001,-24.0310848412393));
#698=CARTESIAN_POINT('',(66.27396,1.51000000000001,-23.7559585753922));
#699=CARTESIAN_POINT('Origin',(63.52396,3.38500000000001,-21.5562111070864));
#700=CARTESIAN_POINT('',(67.02396,1.51000000000001,-21.5562111070864));
#701=CARTESIAN_POINT('Origin',(63.52396,1.51000000000001,-21.5562111070864));
#702=CARTESIAN_POINT('',(67.02396,3.38500000000001,-21.5562111070864));
#703=CARTESIAN_POINT('Origin',(67.02396,4.01000000000001,-20.0059585753922));
#704=CARTESIAN_POINT('',(67.02396,1.51000000000001,-18.4557060436981));
#705=CARTESIAN_POINT('',(67.02396,4.63500000000001,-18.4557060436981));
#706=CARTESIAN_POINT('',(67.02396,1.51000000000001,-15.0059585753922));
#707=CARTESIAN_POINT('Origin',(63.52396,4.63500000000001,-18.4557060436981));
#708=CARTESIAN_POINT('',(65.9988337341529,1.51000000000001,-15.9808323095451));
#709=CARTESIAN_POINT('',(65.9988337341529,4.63500000000001,-15.9808323095451));
#710=CARTESIAN_POINT('Origin',(63.52396,1.51000000000001,-18.4557060436981));
#711=CARTESIAN_POINT('Origin',(65.02396,5.26000000000001,-15.0059585753922));
#712=CARTESIAN_POINT('',(63.77396,1.51000000000001,-13.7559585753922));
#713=CARTESIAN_POINT('Origin',(60.52396,4.01000000000001,-20.0059585753922));
#714=CARTESIAN_POINT('',(60.52396,1.51000000000001,-17.3619));
#715=CARTESIAN_POINT('',(60.52396,4.66500000000101,-17.3619));
#716=CARTESIAN_POINT('',(60.52396,3.08750000000001,-17.3619));
#717=CARTESIAN_POINT('',(60.52396,4.66500000000101,-18.1619));
#718=CARTESIAN_POINT('',(60.52396,4.66500000000101,-19.0839292876961));
#719=CARTESIAN_POINT('',(60.52396,6.51000000000001,-18.1619));
#720=CARTESIAN_POINT('',(60.52396,4.33750000000051,-18.1619));
#721=CARTESIAN_POINT('',(60.52396,6.51000000000001,-15.0059585753922));
#722=CARTESIAN_POINT('',(60.52396,6.51000000000001,-15.0059585753922));
#723=CARTESIAN_POINT('',(60.52396,1.51000000000001,-15.0059585753922));
#724=CARTESIAN_POINT('',(60.52396,1.51000000000001,-15.0059585753922));
#725=CARTESIAN_POINT('',(60.52396,1.51000000000001,-25.0059585753922));
#726=CARTESIAN_POINT('Origin',(60.02396,6.51000000000001,-25.0059585753922));
#727=CARTESIAN_POINT('',(60.02396,6.51000000000001,-19.8619));
#728=CARTESIAN_POINT('',(60.52396,6.51000000000001,-19.8619));
#729=CARTESIAN_POINT('',(60.27396,6.51000000000001,-19.8619));
#730=CARTESIAN_POINT('',(60.52396,6.51000000000001,-25.0059585753922));
#731=CARTESIAN_POINT('',(60.52396,6.51000000000001,-15.0059585753922));
#732=CARTESIAN_POINT('',(60.02396,6.51000000000001,-25.0059585753922));
#733=CARTESIAN_POINT('',(60.02396,6.51000000000001,-25.0059585753922));
#734=CARTESIAN_POINT('',(60.02396,6.51000000000001,-15.0059585753922));
#735=CARTESIAN_POINT('Origin',(60.52396,4.66500000000101,-20.6619));
#736=CARTESIAN_POINT('',(60.52396,4.66500000000101,-19.8619));
#737=CARTESIAN_POINT('',(60.52396,4.66500000000101,-20.6619));
#738=CARTESIAN_POINT('',(60.52396,4.66500000000101,-20.3339292876961));
#739=CARTESIAN_POINT('',(60.52396,4.66500000000101,-19.8619));
#740=CARTESIAN_POINT('',(60.52396,4.66500000000101,-20.6619));
#741=CARTESIAN_POINT('Origin',(60.52396,2.16500000000001,-20.6619));
#742=CARTESIAN_POINT('',(60.52396,1.51000000000001,-20.6619));
#743=CARTESIAN_POINT('',(60.52396,3.08750000000001,-20.6619));
#744=CARTESIAN_POINT('',(60.52396,1.51000000000001,-20.6619));
#745=CARTESIAN_POINT('Origin',(60.52396,4.66500000000101,-17.3619));
#746=CARTESIAN_POINT('',(60.52396,1.51000000000001,-17.3619));
#747=CARTESIAN_POINT('',(60.52396,4.66500000000101,-17.3619));
#748=CARTESIAN_POINT('Origin',(60.52396,4.66500000000101,-18.1619));
#749=CARTESIAN_POINT('',(60.52396,4.66500000000101,-18.1619));
#750=CARTESIAN_POINT('Origin',(60.52396,4.01000000000001,-20.0059585753922));
#751=CARTESIAN_POINT('',(60.52396,1.51000000000001,-25.0059585753922));
#752=CARTESIAN_POINT('',(60.52396,1.51000000000001,-25.0059585753922));
#753=CARTESIAN_POINT('',(60.52396,6.51000000000001,-25.0059585753922));
#754=CARTESIAN_POINT('',(60.52396,4.33750000000051,-19.8619));
#755=CARTESIAN_POINT('Origin',(60.02396,4.66500000000101,-19.8619));
#756=CARTESIAN_POINT('',(60.02396,2.96500000000001,-19.8619));
#757=CARTESIAN_POINT('',(60.02396,4.33750000000051,-19.8619));
#758=CARTESIAN_POINT('',(60.02396,2.96500000000001,-19.8619));
#759=CARTESIAN_POINT('Origin',(60.02396,2.96500000000001,-18.1619));
#760=CARTESIAN_POINT('',(60.02396,2.96500000000001,-18.1619));
#761=CARTESIAN_POINT('',(60.02396,6.51000000000001,-18.1619));
#762=CARTESIAN_POINT('',(60.02396,4.66500000000101,-18.1619));
#763=CARTESIAN_POINT('',(60.02396,6.51000000000001,-18.1619));
#764=CARTESIAN_POINT('',(60.02396,2.96500000000001,-18.1619));
#765=CARTESIAN_POINT('Origin',(60.02396,2.96500000000001,-19.8619));
#766=CARTESIAN_POINT('',(60.02396,2.96500000000001,-18.1619));
#767=CARTESIAN_POINT('Origin',(60.02396,1.51000000000001,-15.0059585753922));
#768=CARTESIAN_POINT('',(60.02396,1.51000000000001,-15.0059585753922));
#769=CARTESIAN_POINT('',(60.02396,1.51000000000001,-15.0059585753922));
#770=CARTESIAN_POINT('',(60.02396,1.51000000000001,-25.0059585753922));
#771=CARTESIAN_POINT('',(60.02396,1.51000000000001,-25.0059585753922));
#772=CARTESIAN_POINT('',(60.02396,1.51000000000001,-25.0059585753922));
#773=CARTESIAN_POINT('Origin',(60.02396,6.51000000000001,-15.0059585753922));
#774=CARTESIAN_POINT('',(60.02396,6.51000000000001,-15.0059585753922));
#775=CARTESIAN_POINT('',(60.02396,1.51000000000001,-15.0059585753922));
#776=CARTESIAN_POINT('',(60.02396,6.51000000000001,-15.0059585753922));
#777=CARTESIAN_POINT('Origin',(60.02396,6.51000000000001,-25.0059585753922));
#778=CARTESIAN_POINT('',(60.02396,6.51000000000001,-15.0059585753922));
#779=CARTESIAN_POINT('Origin',(60.02396,1.51000000000001,-25.0059585753922));
#780=CARTESIAN_POINT('',(60.02396,6.51000000000001,-25.0059585753922));
#781=CARTESIAN_POINT('Origin',(60.02396,4.01000000000001,-20.0059585753922));
#782=UNCERTAINTY_MEASURE_WITH_UNIT(LENGTH_MEASURE(0.01),#786,
'DISTANCE_ACCURACY_VALUE',
'Maximum model space distance between geometric entities at asserted c
onnectivities');
#783=UNCERTAINTY_MEASURE_WITH_UNIT(LENGTH_MEASURE(0.01),#786,
'DISTANCE_ACCURACY_VALUE',
'Maximum model space distance between geometric entities at asserted c
onnectivities');
#784=(
GEOMETRIC_REPRESENTATION_CONTEXT(3)
GLOBAL_UNCERTAINTY_ASSIGNED_CONTEXT((#782))
GLOBAL_UNIT_ASSIGNED_CONTEXT((#786,#788,#789))
REPRESENTATION_CONTEXT('','3D')
);
#785=(
GEOMETRIC_REPRESENTATION_CONTEXT(3)
GLOBAL_UNCERTAINTY_ASSIGNED_CONTEXT((#783))
GLOBAL_UNIT_ASSIGNED_CONTEXT((#786,#788,#789))
REPRESENTATION_CONTEXT('','3D')
);
#786=(
LENGTH_UNIT()
NAMED_UNIT(*)
SI_UNIT(.MILLI.,.METRE.)
);
#787=(
LENGTH_UNIT()
NAMED_UNIT(*)
SI_UNIT($,.METRE.)
);
#788=(
NAMED_UNIT(*)
PLANE_ANGLE_UNIT()
SI_UNIT($,.RADIAN.)
);
#789=(
NAMED_UNIT(*)
SI_UNIT($,.STERADIAN.)
SOLID_ANGLE_UNIT()
);
#790=SHAPE_DEFINITION_REPRESENTATION(#791,#792);
#791=PRODUCT_DEFINITION_SHAPE('',$,#794);
#792=SHAPE_REPRESENTATION('',(#490),#784);
#793=PRODUCT_DEFINITION_CONTEXT('part definition',#798,'design');
#794=PRODUCT_DEFINITION('2026-09-01-18-10-35-697','TEMP_STEP_EXPORT',#795,
#793);
#795=PRODUCT_DEFINITION_FORMATION('',$,#800);
#796=PRODUCT_RELATED_PRODUCT_CATEGORY('TEMP_STEP_EXPORT',
'TEMP_STEP_EXPORT',(#800));
#797=APPLICATION_PROTOCOL_DEFINITION('international standard',
'automotive_design',2009,#798);
#798=APPLICATION_CONTEXT(
'Core Data for Automotive Mechanical Design Process');
#799=PRODUCT_CONTEXT('part definition',#798,'mechanical');
#800=PRODUCT('2026-09-01-18-10-35-697','TEMP_STEP_EXPORT',$,(#799));
#801=PRESENTATION_STYLE_ASSIGNMENT((#802));
#802=SURFACE_STYLE_USAGE(.BOTH.,#803);
#803=SURFACE_SIDE_STYLE('',(#804));
#804=SURFACE_STYLE_FILL_AREA(#805);
#805=FILL_AREA_STYLE('Steel - Satin',(#806));
#806=FILL_AREA_STYLE_COLOUR('Steel - Satin',#807);
#807=COLOUR_RGB('Steel - Satin',0.627450980392157,0.627450980392157,0.627450980392157);
ENDSEC;
END-ISO-10303-21;
